%TF.GenerationSoftware,KiCad,Pcbnew,(5.99.0-12253-gc8b2e69332)*%
%TF.CreationDate,2021-11-11T06:41:10-05:00*%
%TF.ProjectId,980Daughterboard-USB-Mini,39383044-6175-4676-9874-6572626f6172,rev?*%
%TF.SameCoordinates,Original*%
%TF.FileFunction,Legend,Bot*%
%TF.FilePolarity,Positive*%
%FSLAX46Y46*%
G04 Gerber Fmt 4.6, Leading zero omitted, Abs format (unit mm)*
G04 Created by KiCad (PCBNEW (5.99.0-12253-gc8b2e69332)) date 2021-11-11 06:41:10*
%MOMM*%
%LPD*%
G01*
G04 APERTURE LIST*
%ADD10C,0.100000*%
%ADD11C,0.150000*%
%ADD12C,0.120000*%
G04 APERTURE END LIST*
D10*
X129815952Y-8221190D02*
X129815952Y-7721190D01*
X129696904Y-7721190D01*
X129625476Y-7745000D01*
X129577857Y-7792619D01*
X129554047Y-7840238D01*
X129530238Y-7935476D01*
X129530238Y-8006904D01*
X129554047Y-8102142D01*
X129577857Y-8149761D01*
X129625476Y-8197380D01*
X129696904Y-8221190D01*
X129815952Y-8221190D01*
X129315952Y-8030714D02*
X128935000Y-8030714D01*
X129815952Y-9221190D02*
X129815952Y-8721190D01*
X129696904Y-8721190D01*
X129625476Y-8745000D01*
X129577857Y-8792619D01*
X129554047Y-8840238D01*
X129530238Y-8935476D01*
X129530238Y-9006904D01*
X129554047Y-9102142D01*
X129577857Y-9149761D01*
X129625476Y-9197380D01*
X129696904Y-9221190D01*
X129815952Y-9221190D01*
X129315952Y-9030714D02*
X128935000Y-9030714D01*
X129125476Y-9221190D02*
X129125476Y-8840238D01*
D11*
X131472142Y-13432380D02*
X131281666Y-13432380D01*
X131186428Y-13384761D01*
X131138809Y-13337142D01*
X131043571Y-13194285D01*
X130995952Y-13003809D01*
X130995952Y-12622857D01*
X131043571Y-12527619D01*
X131091190Y-12480000D01*
X131186428Y-12432380D01*
X131376904Y-12432380D01*
X131472142Y-12480000D01*
X131519761Y-12527619D01*
X131567380Y-12622857D01*
X131567380Y-12860952D01*
X131519761Y-12956190D01*
X131472142Y-13003809D01*
X131376904Y-13051428D01*
X131186428Y-13051428D01*
X131091190Y-13003809D01*
X131043571Y-12956190D01*
X130995952Y-12860952D01*
X130424523Y-12860952D02*
X130519761Y-12813333D01*
X130567380Y-12765714D01*
X130615000Y-12670476D01*
X130615000Y-12622857D01*
X130567380Y-12527619D01*
X130519761Y-12480000D01*
X130424523Y-12432380D01*
X130234047Y-12432380D01*
X130138809Y-12480000D01*
X130091190Y-12527619D01*
X130043571Y-12622857D01*
X130043571Y-12670476D01*
X130091190Y-12765714D01*
X130138809Y-12813333D01*
X130234047Y-12860952D01*
X130424523Y-12860952D01*
X130519761Y-12908571D01*
X130567380Y-12956190D01*
X130615000Y-13051428D01*
X130615000Y-13241904D01*
X130567380Y-13337142D01*
X130519761Y-13384761D01*
X130424523Y-13432380D01*
X130234047Y-13432380D01*
X130138809Y-13384761D01*
X130091190Y-13337142D01*
X130043571Y-13241904D01*
X130043571Y-13051428D01*
X130091190Y-12956190D01*
X130138809Y-12908571D01*
X130234047Y-12860952D01*
X129424523Y-12432380D02*
X129329285Y-12432380D01*
X129234047Y-12480000D01*
X129186428Y-12527619D01*
X129138809Y-12622857D01*
X129091190Y-12813333D01*
X129091190Y-13051428D01*
X129138809Y-13241904D01*
X129186428Y-13337142D01*
X129234047Y-13384761D01*
X129329285Y-13432380D01*
X129424523Y-13432380D01*
X129519761Y-13384761D01*
X129567380Y-13337142D01*
X129615000Y-13241904D01*
X129662619Y-13051428D01*
X129662619Y-12813333D01*
X129615000Y-12622857D01*
X129567380Y-12527619D01*
X129519761Y-12480000D01*
X129424523Y-12432380D01*
X127900714Y-13432380D02*
X127900714Y-12432380D01*
X127662619Y-12432380D01*
X127519761Y-12480000D01*
X127424523Y-12575238D01*
X127376904Y-12670476D01*
X127329285Y-12860952D01*
X127329285Y-13003809D01*
X127376904Y-13194285D01*
X127424523Y-13289523D01*
X127519761Y-13384761D01*
X127662619Y-13432380D01*
X127900714Y-13432380D01*
X126472142Y-13432380D02*
X126472142Y-12908571D01*
X126519761Y-12813333D01*
X126615000Y-12765714D01*
X126805476Y-12765714D01*
X126900714Y-12813333D01*
X126472142Y-13384761D02*
X126567380Y-13432380D01*
X126805476Y-13432380D01*
X126900714Y-13384761D01*
X126948333Y-13289523D01*
X126948333Y-13194285D01*
X126900714Y-13099047D01*
X126805476Y-13051428D01*
X126567380Y-13051428D01*
X126472142Y-13003809D01*
X125567380Y-12765714D02*
X125567380Y-13432380D01*
X125995952Y-12765714D02*
X125995952Y-13289523D01*
X125948333Y-13384761D01*
X125853095Y-13432380D01*
X125710238Y-13432380D01*
X125615000Y-13384761D01*
X125567380Y-13337142D01*
X124662619Y-12765714D02*
X124662619Y-13575238D01*
X124710238Y-13670476D01*
X124757857Y-13718095D01*
X124853095Y-13765714D01*
X124995952Y-13765714D01*
X125091190Y-13718095D01*
X124662619Y-13384761D02*
X124757857Y-13432380D01*
X124948333Y-13432380D01*
X125043571Y-13384761D01*
X125091190Y-13337142D01*
X125138809Y-13241904D01*
X125138809Y-12956190D01*
X125091190Y-12860952D01*
X125043571Y-12813333D01*
X124948333Y-12765714D01*
X124757857Y-12765714D01*
X124662619Y-12813333D01*
X124186428Y-13432380D02*
X124186428Y-12432380D01*
X123757857Y-13432380D02*
X123757857Y-12908571D01*
X123805476Y-12813333D01*
X123900714Y-12765714D01*
X124043571Y-12765714D01*
X124138809Y-12813333D01*
X124186428Y-12860952D01*
X123424523Y-12765714D02*
X123043571Y-12765714D01*
X123281666Y-12432380D02*
X123281666Y-13289523D01*
X123234047Y-13384761D01*
X123138809Y-13432380D01*
X123043571Y-13432380D01*
X122329285Y-13384761D02*
X122424523Y-13432380D01*
X122615000Y-13432380D01*
X122710238Y-13384761D01*
X122757857Y-13289523D01*
X122757857Y-12908571D01*
X122710238Y-12813333D01*
X122615000Y-12765714D01*
X122424523Y-12765714D01*
X122329285Y-12813333D01*
X122281666Y-12908571D01*
X122281666Y-13003809D01*
X122757857Y-13099047D01*
X121853095Y-13432380D02*
X121853095Y-12765714D01*
X121853095Y-12956190D02*
X121805476Y-12860952D01*
X121757857Y-12813333D01*
X121662619Y-12765714D01*
X121567380Y-12765714D01*
X121234047Y-13432380D02*
X121234047Y-12432380D01*
X121234047Y-12813333D02*
X121138809Y-12765714D01*
X120948333Y-12765714D01*
X120853095Y-12813333D01*
X120805476Y-12860952D01*
X120757857Y-12956190D01*
X120757857Y-13241904D01*
X120805476Y-13337142D01*
X120853095Y-13384761D01*
X120948333Y-13432380D01*
X121138809Y-13432380D01*
X121234047Y-13384761D01*
X120186428Y-13432380D02*
X120281666Y-13384761D01*
X120329285Y-13337142D01*
X120376904Y-13241904D01*
X120376904Y-12956190D01*
X120329285Y-12860952D01*
X120281666Y-12813333D01*
X120186428Y-12765714D01*
X120043571Y-12765714D01*
X119948333Y-12813333D01*
X119900714Y-12860952D01*
X119853095Y-12956190D01*
X119853095Y-13241904D01*
X119900714Y-13337142D01*
X119948333Y-13384761D01*
X120043571Y-13432380D01*
X120186428Y-13432380D01*
X118995952Y-13432380D02*
X118995952Y-12908571D01*
X119043571Y-12813333D01*
X119138809Y-12765714D01*
X119329285Y-12765714D01*
X119424523Y-12813333D01*
X118995952Y-13384761D02*
X119091190Y-13432380D01*
X119329285Y-13432380D01*
X119424523Y-13384761D01*
X119472142Y-13289523D01*
X119472142Y-13194285D01*
X119424523Y-13099047D01*
X119329285Y-13051428D01*
X119091190Y-13051428D01*
X118995952Y-13003809D01*
X118519761Y-13432380D02*
X118519761Y-12765714D01*
X118519761Y-12956190D02*
X118472142Y-12860952D01*
X118424523Y-12813333D01*
X118329285Y-12765714D01*
X118234047Y-12765714D01*
X117472142Y-13432380D02*
X117472142Y-12432380D01*
X117472142Y-13384761D02*
X117567380Y-13432380D01*
X117757857Y-13432380D01*
X117853095Y-13384761D01*
X117900714Y-13337142D01*
X117948333Y-13241904D01*
X117948333Y-12956190D01*
X117900714Y-12860952D01*
X117853095Y-12813333D01*
X117757857Y-12765714D01*
X117567380Y-12765714D01*
X117472142Y-12813333D01*
X130757857Y-14042380D02*
X130757857Y-14851904D01*
X130710238Y-14947142D01*
X130662619Y-14994761D01*
X130567380Y-15042380D01*
X130376904Y-15042380D01*
X130281666Y-14994761D01*
X130234047Y-14947142D01*
X130186428Y-14851904D01*
X130186428Y-14042380D01*
X129757857Y-14994761D02*
X129615000Y-15042380D01*
X129376904Y-15042380D01*
X129281666Y-14994761D01*
X129234047Y-14947142D01*
X129186428Y-14851904D01*
X129186428Y-14756666D01*
X129234047Y-14661428D01*
X129281666Y-14613809D01*
X129376904Y-14566190D01*
X129567380Y-14518571D01*
X129662619Y-14470952D01*
X129710238Y-14423333D01*
X129757857Y-14328095D01*
X129757857Y-14232857D01*
X129710238Y-14137619D01*
X129662619Y-14090000D01*
X129567380Y-14042380D01*
X129329285Y-14042380D01*
X129186428Y-14090000D01*
X128424523Y-14518571D02*
X128281666Y-14566190D01*
X128234047Y-14613809D01*
X128186428Y-14709047D01*
X128186428Y-14851904D01*
X128234047Y-14947142D01*
X128281666Y-14994761D01*
X128376904Y-15042380D01*
X128757857Y-15042380D01*
X128757857Y-14042380D01*
X128424523Y-14042380D01*
X128329285Y-14090000D01*
X128281666Y-14137619D01*
X128234047Y-14232857D01*
X128234047Y-14328095D01*
X128281666Y-14423333D01*
X128329285Y-14470952D01*
X128424523Y-14518571D01*
X128757857Y-14518571D01*
X127757857Y-14661428D02*
X126995952Y-14661428D01*
X126519761Y-15042380D02*
X126519761Y-14042380D01*
X126186428Y-14756666D01*
X125853095Y-14042380D01*
X125853095Y-15042380D01*
X125376904Y-15042380D02*
X125376904Y-14375714D01*
X125376904Y-14042380D02*
X125424523Y-14090000D01*
X125376904Y-14137619D01*
X125329285Y-14090000D01*
X125376904Y-14042380D01*
X125376904Y-14137619D01*
X124900714Y-14375714D02*
X124900714Y-15042380D01*
X124900714Y-14470952D02*
X124853095Y-14423333D01*
X124757857Y-14375714D01*
X124615000Y-14375714D01*
X124519761Y-14423333D01*
X124472142Y-14518571D01*
X124472142Y-15042380D01*
X123995952Y-15042380D02*
X123995952Y-14375714D01*
X123995952Y-14042380D02*
X124043571Y-14090000D01*
X123995952Y-14137619D01*
X123948333Y-14090000D01*
X123995952Y-14042380D01*
X123995952Y-14137619D01*
X122186428Y-15042380D02*
X122519761Y-14566190D01*
X122757857Y-15042380D02*
X122757857Y-14042380D01*
X122376904Y-14042380D01*
X122281666Y-14090000D01*
X122234047Y-14137619D01*
X122186428Y-14232857D01*
X122186428Y-14375714D01*
X122234047Y-14470952D01*
X122281666Y-14518571D01*
X122376904Y-14566190D01*
X122757857Y-14566190D01*
X121376904Y-14994761D02*
X121472142Y-15042380D01*
X121662619Y-15042380D01*
X121757857Y-14994761D01*
X121805476Y-14899523D01*
X121805476Y-14518571D01*
X121757857Y-14423333D01*
X121662619Y-14375714D01*
X121472142Y-14375714D01*
X121376904Y-14423333D01*
X121329285Y-14518571D01*
X121329285Y-14613809D01*
X121805476Y-14709047D01*
X120995952Y-14375714D02*
X120757857Y-15042380D01*
X120519761Y-14375714D01*
X118853095Y-15042380D02*
X119424523Y-15042380D01*
X119138809Y-15042380D02*
X119138809Y-14042380D01*
X119234047Y-14185238D01*
X119329285Y-14280476D01*
X119424523Y-14328095D01*
X118424523Y-14947142D02*
X118376904Y-14994761D01*
X118424523Y-15042380D01*
X118472142Y-14994761D01*
X118424523Y-14947142D01*
X118424523Y-15042380D01*
X117757857Y-14042380D02*
X117662619Y-14042380D01*
X117567380Y-14090000D01*
X117519761Y-14137619D01*
X117472142Y-14232857D01*
X117424523Y-14423333D01*
X117424523Y-14661428D01*
X117472142Y-14851904D01*
X117519761Y-14947142D01*
X117567380Y-14994761D01*
X117662619Y-15042380D01*
X117757857Y-15042380D01*
X117853095Y-14994761D01*
X117900714Y-14947142D01*
X117948333Y-14851904D01*
X117995952Y-14661428D01*
X117995952Y-14423333D01*
X117948333Y-14232857D01*
X117900714Y-14137619D01*
X117853095Y-14090000D01*
X117757857Y-14042380D01*
D10*
X129554047Y-9745000D02*
X129601666Y-9721190D01*
X129673095Y-9721190D01*
X129744523Y-9745000D01*
X129792142Y-9792619D01*
X129815952Y-9840238D01*
X129839761Y-9935476D01*
X129839761Y-10006904D01*
X129815952Y-10102142D01*
X129792142Y-10149761D01*
X129744523Y-10197380D01*
X129673095Y-10221190D01*
X129625476Y-10221190D01*
X129554047Y-10197380D01*
X129530238Y-10173571D01*
X129530238Y-10006904D01*
X129625476Y-10006904D01*
X129315952Y-10221190D02*
X129315952Y-9721190D01*
X129030238Y-10221190D01*
X129030238Y-9721190D01*
X128792142Y-10221190D02*
X128792142Y-9721190D01*
X128673095Y-9721190D01*
X128601666Y-9745000D01*
X128554047Y-9792619D01*
X128530238Y-9840238D01*
X128506428Y-9935476D01*
X128506428Y-10006904D01*
X128530238Y-10102142D01*
X128554047Y-10149761D01*
X128601666Y-10197380D01*
X128673095Y-10221190D01*
X128792142Y-10221190D01*
X129577857Y-6721190D02*
X129815952Y-6721190D01*
X129839761Y-6959285D01*
X129815952Y-6935476D01*
X129768333Y-6911666D01*
X129649285Y-6911666D01*
X129601666Y-6935476D01*
X129577857Y-6959285D01*
X129554047Y-7006904D01*
X129554047Y-7125952D01*
X129577857Y-7173571D01*
X129601666Y-7197380D01*
X129649285Y-7221190D01*
X129768333Y-7221190D01*
X129815952Y-7197380D01*
X129839761Y-7173571D01*
X129387380Y-6887857D02*
X129268333Y-7221190D01*
X129149285Y-6887857D01*
D12*
X131650000Y-6435000D02*
X130660000Y-6435000D01*
X131650000Y-11605000D02*
X131650000Y-10555000D01*
X131650000Y-5385000D02*
X131650000Y-6435000D01*
X136120000Y-6555000D02*
X136120000Y-10435000D01*
X134150000Y-5385000D02*
X131650000Y-5385000D01*
X134150000Y-11605000D02*
X131650000Y-11605000D01*
M02*
