%TF.GenerationSoftware,KiCad,Pcbnew,(5.99.0-12253-gc8b2e69332)*%
%TF.CreationDate,2021-11-11T06:41:09-05:00*%
%TF.ProjectId,980Daughterboard-USB-Mini,39383044-6175-4676-9874-6572626f6172,rev?*%
%TF.SameCoordinates,Original*%
%TF.FileFunction,Copper,L1,Top*%
%TF.FilePolarity,Positive*%
%FSLAX46Y46*%
G04 Gerber Fmt 4.6, Leading zero omitted, Abs format (unit mm)*
G04 Created by KiCad (PCBNEW (5.99.0-12253-gc8b2e69332)) date 2021-11-11 06:41:09*
%MOMM*%
%LPD*%
G01*
G04 APERTURE LIST*
%TA.AperFunction,ComponentPad*%
%ADD10O,1.500000X2.600000*%
%TD*%
G04 APERTURE END LIST*
D10*
X125175000Y-8557500D03*
X117875000Y-8557500D03*
X125175000Y-3757500D03*
X117875000Y-3757500D03*
%TA.AperFunction,NonConductor*%
G36*
X142178182Y-1023002D02*
G01*
X142224675Y-1076658D01*
X142234779Y-1146932D01*
X142205285Y-1211512D01*
X142145321Y-1249966D01*
X142132433Y-1253722D01*
X142128180Y-1255682D01*
X142128179Y-1255683D01*
X142091659Y-1272519D01*
X141895072Y-1363147D01*
X141856067Y-1388720D01*
X141680404Y-1503889D01*
X141680399Y-1503893D01*
X141676491Y-1506455D01*
X141481494Y-1680497D01*
X141314363Y-1881449D01*
X141311934Y-1885452D01*
X141181616Y-2100210D01*
X141178771Y-2104898D01*
X141077697Y-2345934D01*
X141013359Y-2599262D01*
X140987173Y-2859318D01*
X140999713Y-3120387D01*
X141050704Y-3376735D01*
X141139026Y-3622731D01*
X141141242Y-3626855D01*
X141205753Y-3746916D01*
X141262737Y-3852970D01*
X141265532Y-3856713D01*
X141265534Y-3856716D01*
X141416330Y-4058656D01*
X141416335Y-4058662D01*
X141419122Y-4062394D01*
X141422431Y-4065674D01*
X141422436Y-4065680D01*
X141597707Y-4239427D01*
X141604743Y-4246402D01*
X141608505Y-4249160D01*
X141608508Y-4249163D01*
X141765807Y-4364499D01*
X141815524Y-4400953D01*
X141819667Y-4403133D01*
X141819669Y-4403134D01*
X142042684Y-4520468D01*
X142042689Y-4520470D01*
X142046834Y-4522651D01*
X142293590Y-4608823D01*
X142298183Y-4609695D01*
X142545785Y-4656703D01*
X142545788Y-4656703D01*
X142550374Y-4657574D01*
X142680959Y-4662705D01*
X142806875Y-4667653D01*
X142806881Y-4667653D01*
X142811543Y-4667836D01*
X142890977Y-4659136D01*
X143066707Y-4639891D01*
X143066712Y-4639890D01*
X143071360Y-4639381D01*
X143184116Y-4609695D01*
X143319594Y-4574027D01*
X143319596Y-4574026D01*
X143324117Y-4572836D01*
X143564262Y-4469661D01*
X143599071Y-4448121D01*
X143782547Y-4334583D01*
X143782548Y-4334583D01*
X143786519Y-4332125D01*
X143790082Y-4329108D01*
X143790087Y-4329105D01*
X143909588Y-4227939D01*
X143974504Y-4199191D01*
X144044657Y-4210102D01*
X144097774Y-4257209D01*
X144117000Y-4324106D01*
X144117000Y-12595502D01*
X144096998Y-12663623D01*
X144043342Y-12710116D01*
X143973068Y-12720220D01*
X143904667Y-12687277D01*
X143863172Y-12648242D01*
X143863166Y-12648237D01*
X143859763Y-12645036D01*
X143654591Y-12502702D01*
X143648851Y-12498720D01*
X143648848Y-12498718D01*
X143645009Y-12496055D01*
X143640816Y-12493987D01*
X143414781Y-12382519D01*
X143414778Y-12382518D01*
X143410593Y-12380454D01*
X143364449Y-12365683D01*
X143166123Y-12302199D01*
X143161665Y-12300772D01*
X142903693Y-12258758D01*
X142789942Y-12257269D01*
X142647022Y-12255398D01*
X142647019Y-12255398D01*
X142642345Y-12255337D01*
X142383362Y-12290583D01*
X142132433Y-12363722D01*
X142128180Y-12365682D01*
X142128179Y-12365683D01*
X142091659Y-12382519D01*
X141895072Y-12473147D01*
X141856067Y-12498720D01*
X141680404Y-12613889D01*
X141680399Y-12613893D01*
X141676491Y-12616455D01*
X141481494Y-12790497D01*
X141314363Y-12991449D01*
X141311934Y-12995452D01*
X141185444Y-13203902D01*
X141178771Y-13214898D01*
X141077697Y-13455934D01*
X141013359Y-13709262D01*
X140987173Y-13969318D01*
X140999713Y-14230387D01*
X141050704Y-14486735D01*
X141139026Y-14732731D01*
X141141242Y-14736855D01*
X141258781Y-14955607D01*
X141262737Y-14962970D01*
X141265532Y-14966713D01*
X141265534Y-14966716D01*
X141416330Y-15168656D01*
X141416335Y-15168662D01*
X141419122Y-15172394D01*
X141422431Y-15175674D01*
X141422436Y-15175680D01*
X141601426Y-15353114D01*
X141604743Y-15356402D01*
X141608505Y-15359160D01*
X141608508Y-15359163D01*
X141794869Y-15495808D01*
X141815524Y-15510953D01*
X141819667Y-15513133D01*
X141819669Y-15513134D01*
X142042684Y-15630468D01*
X142042689Y-15630470D01*
X142046834Y-15632651D01*
X142293590Y-15718823D01*
X142298183Y-15719695D01*
X142390444Y-15737211D01*
X142453638Y-15769568D01*
X142489307Y-15830954D01*
X142486126Y-15901879D01*
X142445105Y-15959826D01*
X142379268Y-15986396D01*
X142366942Y-15987000D01*
X107281093Y-15987000D01*
X107212972Y-15966998D01*
X107166479Y-15913342D01*
X107156375Y-15843068D01*
X107185869Y-15778488D01*
X107214790Y-15753855D01*
X107269993Y-15719695D01*
X107436519Y-15616646D01*
X107440082Y-15613629D01*
X107440087Y-15613626D01*
X107632439Y-15450787D01*
X107632440Y-15450786D01*
X107636005Y-15447768D01*
X107656736Y-15424128D01*
X107805257Y-15254774D01*
X107805261Y-15254769D01*
X107808339Y-15251259D01*
X107814142Y-15242238D01*
X107940305Y-15046094D01*
X107949733Y-15031437D01*
X108057083Y-14793129D01*
X108075359Y-14728327D01*
X108126760Y-14546076D01*
X108126761Y-14546073D01*
X108128030Y-14541572D01*
X108161014Y-14282291D01*
X108163431Y-14190000D01*
X108150462Y-14015479D01*
X112936835Y-14015479D01*
X112955465Y-14252190D01*
X112956619Y-14256997D01*
X112956620Y-14257003D01*
X112963443Y-14285421D01*
X113010895Y-14483073D01*
X113012788Y-14487644D01*
X113012789Y-14487646D01*
X113091892Y-14678618D01*
X113101760Y-14702442D01*
X113104346Y-14706662D01*
X113223241Y-14900681D01*
X113223245Y-14900687D01*
X113225824Y-14904895D01*
X113380031Y-15085448D01*
X113560584Y-15239655D01*
X113564792Y-15242234D01*
X113564798Y-15242238D01*
X113698259Y-15324023D01*
X113763037Y-15363719D01*
X113767607Y-15365612D01*
X113767611Y-15365614D01*
X113973239Y-15450787D01*
X113982406Y-15454584D01*
X114062609Y-15473839D01*
X114208476Y-15508859D01*
X114208482Y-15508860D01*
X114213289Y-15510014D01*
X114450000Y-15528644D01*
X114686711Y-15510014D01*
X114691518Y-15508860D01*
X114691524Y-15508859D01*
X114837391Y-15473839D01*
X114917594Y-15454584D01*
X114926761Y-15450787D01*
X115132389Y-15365614D01*
X115132393Y-15365612D01*
X115136963Y-15363719D01*
X115201741Y-15324023D01*
X115335202Y-15242238D01*
X115335208Y-15242234D01*
X115339416Y-15239655D01*
X115519969Y-15085448D01*
X115674176Y-14904895D01*
X115676755Y-14900687D01*
X115676759Y-14900681D01*
X115795654Y-14706662D01*
X115798240Y-14702442D01*
X115808109Y-14678618D01*
X115887211Y-14487646D01*
X115887212Y-14487644D01*
X115889105Y-14483073D01*
X115936557Y-14285421D01*
X115943380Y-14257003D01*
X115943381Y-14256997D01*
X115944535Y-14252190D01*
X115963165Y-14015479D01*
X133186835Y-14015479D01*
X133205465Y-14252190D01*
X133206619Y-14256997D01*
X133206620Y-14257003D01*
X133213443Y-14285421D01*
X133260895Y-14483073D01*
X133262788Y-14487644D01*
X133262789Y-14487646D01*
X133341892Y-14678618D01*
X133351760Y-14702442D01*
X133354346Y-14706662D01*
X133473241Y-14900681D01*
X133473245Y-14900687D01*
X133475824Y-14904895D01*
X133630031Y-15085448D01*
X133810584Y-15239655D01*
X133814792Y-15242234D01*
X133814798Y-15242238D01*
X133948259Y-15324023D01*
X134013037Y-15363719D01*
X134017607Y-15365612D01*
X134017611Y-15365614D01*
X134223239Y-15450787D01*
X134232406Y-15454584D01*
X134312609Y-15473839D01*
X134458476Y-15508859D01*
X134458482Y-15508860D01*
X134463289Y-15510014D01*
X134700000Y-15528644D01*
X134936711Y-15510014D01*
X134941518Y-15508860D01*
X134941524Y-15508859D01*
X135087391Y-15473839D01*
X135167594Y-15454584D01*
X135176761Y-15450787D01*
X135382389Y-15365614D01*
X135382393Y-15365612D01*
X135386963Y-15363719D01*
X135451741Y-15324023D01*
X135585202Y-15242238D01*
X135585208Y-15242234D01*
X135589416Y-15239655D01*
X135769969Y-15085448D01*
X135924176Y-14904895D01*
X135926755Y-14900687D01*
X135926759Y-14900681D01*
X136045654Y-14706662D01*
X136048240Y-14702442D01*
X136058109Y-14678618D01*
X136137211Y-14487646D01*
X136137212Y-14487644D01*
X136139105Y-14483073D01*
X136186557Y-14285421D01*
X136193380Y-14257003D01*
X136193381Y-14256997D01*
X136194535Y-14252190D01*
X136213165Y-14015479D01*
X136194535Y-13778768D01*
X136176760Y-13704727D01*
X136140260Y-13552697D01*
X136139105Y-13547885D01*
X136048240Y-13328516D01*
X135981258Y-13219212D01*
X135926759Y-13130277D01*
X135926755Y-13130271D01*
X135924176Y-13126063D01*
X135769969Y-12945510D01*
X135589416Y-12791303D01*
X135585208Y-12788724D01*
X135585202Y-12788720D01*
X135391183Y-12669825D01*
X135386963Y-12667239D01*
X135382393Y-12665346D01*
X135382389Y-12665344D01*
X135172167Y-12578268D01*
X135172165Y-12578267D01*
X135167594Y-12576374D01*
X135078461Y-12554975D01*
X134941524Y-12522099D01*
X134941518Y-12522098D01*
X134936711Y-12520944D01*
X134700000Y-12502314D01*
X134463289Y-12520944D01*
X134458482Y-12522098D01*
X134458476Y-12522099D01*
X134321539Y-12554975D01*
X134232406Y-12576374D01*
X134227835Y-12578267D01*
X134227833Y-12578268D01*
X134017611Y-12665344D01*
X134017607Y-12665346D01*
X134013037Y-12667239D01*
X134008817Y-12669825D01*
X133814798Y-12788720D01*
X133814792Y-12788724D01*
X133810584Y-12791303D01*
X133630031Y-12945510D01*
X133475824Y-13126063D01*
X133473245Y-13130271D01*
X133473241Y-13130277D01*
X133418742Y-13219212D01*
X133351760Y-13328516D01*
X133260895Y-13547885D01*
X133259740Y-13552697D01*
X133223241Y-13704727D01*
X133205465Y-13778768D01*
X133186835Y-14015479D01*
X115963165Y-14015479D01*
X115944535Y-13778768D01*
X115926760Y-13704727D01*
X115890260Y-13552697D01*
X115889105Y-13547885D01*
X115798240Y-13328516D01*
X115731258Y-13219212D01*
X115676759Y-13130277D01*
X115676755Y-13130271D01*
X115674176Y-13126063D01*
X115519969Y-12945510D01*
X115339416Y-12791303D01*
X115335208Y-12788724D01*
X115335202Y-12788720D01*
X115141183Y-12669825D01*
X115136963Y-12667239D01*
X115132393Y-12665346D01*
X115132389Y-12665344D01*
X114922167Y-12578268D01*
X114922165Y-12578267D01*
X114917594Y-12576374D01*
X114828461Y-12554975D01*
X114691524Y-12522099D01*
X114691518Y-12522098D01*
X114686711Y-12520944D01*
X114450000Y-12502314D01*
X114213289Y-12520944D01*
X114208482Y-12522098D01*
X114208476Y-12522099D01*
X114071539Y-12554975D01*
X113982406Y-12576374D01*
X113977835Y-12578267D01*
X113977833Y-12578268D01*
X113767611Y-12665344D01*
X113767607Y-12665346D01*
X113763037Y-12667239D01*
X113758817Y-12669825D01*
X113564798Y-12788720D01*
X113564792Y-12788724D01*
X113560584Y-12791303D01*
X113380031Y-12945510D01*
X113225824Y-13126063D01*
X113223245Y-13130271D01*
X113223241Y-13130277D01*
X113168742Y-13219212D01*
X113101760Y-13328516D01*
X113010895Y-13547885D01*
X113009740Y-13552697D01*
X112973241Y-13704727D01*
X112955465Y-13778768D01*
X112936835Y-14015479D01*
X108150462Y-14015479D01*
X108144407Y-13934000D01*
X108144406Y-13933996D01*
X108144061Y-13929348D01*
X108111105Y-13783702D01*
X108087408Y-13678980D01*
X108086377Y-13674423D01*
X108001412Y-13455934D01*
X107993340Y-13435176D01*
X107993339Y-13435173D01*
X107991647Y-13430823D01*
X107861951Y-13203902D01*
X107700138Y-12998643D01*
X107509763Y-12819557D01*
X107352005Y-12710116D01*
X107298851Y-12673241D01*
X107298848Y-12673239D01*
X107295009Y-12670576D01*
X107290816Y-12668508D01*
X107064781Y-12557040D01*
X107064778Y-12557039D01*
X107060593Y-12554975D01*
X107014449Y-12540204D01*
X106816123Y-12476720D01*
X106811665Y-12475293D01*
X106553693Y-12433279D01*
X106439942Y-12431790D01*
X106297022Y-12429919D01*
X106297019Y-12429919D01*
X106292345Y-12429858D01*
X106033362Y-12465104D01*
X106028876Y-12466412D01*
X106028874Y-12466412D01*
X106000988Y-12474540D01*
X105782433Y-12538243D01*
X105778180Y-12540203D01*
X105778179Y-12540204D01*
X105741659Y-12557040D01*
X105545072Y-12647668D01*
X105506067Y-12673241D01*
X105330404Y-12788410D01*
X105330399Y-12788414D01*
X105326491Y-12790976D01*
X105322999Y-12794093D01*
X105242901Y-12865583D01*
X105178760Y-12896021D01*
X105108345Y-12886949D01*
X105054013Y-12841249D01*
X105033000Y-12771580D01*
X105033000Y-7919275D01*
X116616500Y-7919275D01*
X116616500Y-9164499D01*
X116616749Y-9167286D01*
X116616749Y-9167292D01*
X116623009Y-9237429D01*
X116631383Y-9331262D01*
X116690663Y-9547951D01*
X116787378Y-9750718D01*
X116918471Y-9933154D01*
X117079799Y-10089492D01*
X117266262Y-10214790D01*
X117471967Y-10305088D01*
X117477418Y-10306397D01*
X117477422Y-10306398D01*
X117684954Y-10356222D01*
X117690411Y-10357532D01*
X117774475Y-10362379D01*
X117909083Y-10370140D01*
X117909086Y-10370140D01*
X117914690Y-10370463D01*
X118137715Y-10343475D01*
X118352435Y-10277418D01*
X118357415Y-10274848D01*
X118357419Y-10274846D01*
X118547081Y-10176954D01*
X118547082Y-10176954D01*
X118552064Y-10174382D01*
X118730292Y-10037623D01*
X118881485Y-9871464D01*
X119000864Y-9681156D01*
X119084656Y-9472717D01*
X119130213Y-9252733D01*
X119133500Y-9195725D01*
X119133500Y-7950501D01*
X119130714Y-7919275D01*
X123916500Y-7919275D01*
X123916500Y-9164499D01*
X123916749Y-9167286D01*
X123916749Y-9167292D01*
X123923009Y-9237429D01*
X123931383Y-9331262D01*
X123990663Y-9547951D01*
X124087378Y-9750718D01*
X124218471Y-9933154D01*
X124379799Y-10089492D01*
X124566262Y-10214790D01*
X124771967Y-10305088D01*
X124777418Y-10306397D01*
X124777422Y-10306398D01*
X124984954Y-10356222D01*
X124990411Y-10357532D01*
X125074475Y-10362379D01*
X125209083Y-10370140D01*
X125209086Y-10370140D01*
X125214690Y-10370463D01*
X125437715Y-10343475D01*
X125652435Y-10277418D01*
X125657415Y-10274848D01*
X125657419Y-10274846D01*
X125847081Y-10176954D01*
X125847082Y-10176954D01*
X125852064Y-10174382D01*
X126030292Y-10037623D01*
X126181485Y-9871464D01*
X126300864Y-9681156D01*
X126384656Y-9472717D01*
X126430213Y-9252733D01*
X126433500Y-9195725D01*
X126433500Y-7950501D01*
X126430551Y-7917452D01*
X126419116Y-7789333D01*
X126418617Y-7783738D01*
X126359337Y-7567049D01*
X126262622Y-7364282D01*
X126131529Y-7181846D01*
X125970201Y-7025508D01*
X125783738Y-6900210D01*
X125578033Y-6809912D01*
X125572582Y-6808603D01*
X125572578Y-6808602D01*
X125365046Y-6758778D01*
X125365045Y-6758778D01*
X125359589Y-6757468D01*
X125275525Y-6752621D01*
X125140917Y-6744860D01*
X125140914Y-6744860D01*
X125135310Y-6744537D01*
X124912285Y-6771525D01*
X124697565Y-6837582D01*
X124692585Y-6840152D01*
X124692581Y-6840154D01*
X124502919Y-6938046D01*
X124497936Y-6940618D01*
X124319708Y-7077377D01*
X124168515Y-7243536D01*
X124049136Y-7433844D01*
X123965344Y-7642283D01*
X123919787Y-7862267D01*
X123916500Y-7919275D01*
X119130714Y-7919275D01*
X119130551Y-7917452D01*
X119119116Y-7789333D01*
X119118617Y-7783738D01*
X119059337Y-7567049D01*
X118962622Y-7364282D01*
X118831529Y-7181846D01*
X118670201Y-7025508D01*
X118483738Y-6900210D01*
X118278033Y-6809912D01*
X118272582Y-6808603D01*
X118272578Y-6808602D01*
X118065046Y-6758778D01*
X118065045Y-6758778D01*
X118059589Y-6757468D01*
X117975525Y-6752621D01*
X117840917Y-6744860D01*
X117840914Y-6744860D01*
X117835310Y-6744537D01*
X117612285Y-6771525D01*
X117397565Y-6837582D01*
X117392585Y-6840152D01*
X117392581Y-6840154D01*
X117202919Y-6938046D01*
X117197936Y-6940618D01*
X117019708Y-7077377D01*
X116868515Y-7243536D01*
X116749136Y-7433844D01*
X116665344Y-7642283D01*
X116619787Y-7862267D01*
X116616500Y-7919275D01*
X105033000Y-7919275D01*
X105033000Y-4328909D01*
X105053002Y-4260788D01*
X105106658Y-4214295D01*
X105176932Y-4204191D01*
X105241512Y-4233685D01*
X105247705Y-4239425D01*
X105254743Y-4246402D01*
X105258505Y-4249160D01*
X105258508Y-4249163D01*
X105415807Y-4364499D01*
X105465524Y-4400953D01*
X105469667Y-4403133D01*
X105469669Y-4403134D01*
X105692684Y-4520468D01*
X105692689Y-4520470D01*
X105696834Y-4522651D01*
X105943590Y-4608823D01*
X105948183Y-4609695D01*
X106195785Y-4656703D01*
X106195788Y-4656703D01*
X106200374Y-4657574D01*
X106330959Y-4662705D01*
X106456875Y-4667653D01*
X106456881Y-4667653D01*
X106461543Y-4667836D01*
X106540977Y-4659136D01*
X106716707Y-4639891D01*
X106716712Y-4639890D01*
X106721360Y-4639381D01*
X106834116Y-4609695D01*
X106969594Y-4574027D01*
X106969596Y-4574026D01*
X106974117Y-4572836D01*
X107214262Y-4469661D01*
X107249071Y-4448121D01*
X107432547Y-4334583D01*
X107432548Y-4334583D01*
X107436519Y-4332125D01*
X107440082Y-4329108D01*
X107440087Y-4329105D01*
X107632439Y-4166266D01*
X107632440Y-4166265D01*
X107636005Y-4163247D01*
X107767000Y-4013876D01*
X107805257Y-3970253D01*
X107805261Y-3970248D01*
X107808339Y-3966738D01*
X107949733Y-3746916D01*
X108057083Y-3508608D01*
X108128030Y-3257051D01*
X108145325Y-3121099D01*
X108145557Y-3119275D01*
X116616500Y-3119275D01*
X116616500Y-4364499D01*
X116616749Y-4367286D01*
X116616749Y-4367292D01*
X116619506Y-4398186D01*
X116631383Y-4531262D01*
X116632864Y-4536676D01*
X116632865Y-4536681D01*
X116652840Y-4609695D01*
X116690663Y-4747951D01*
X116787378Y-4950718D01*
X116918471Y-5133154D01*
X117079799Y-5289492D01*
X117266262Y-5414790D01*
X117471967Y-5505088D01*
X117477418Y-5506397D01*
X117477422Y-5506398D01*
X117684954Y-5556222D01*
X117690411Y-5557532D01*
X117774475Y-5562379D01*
X117909083Y-5570140D01*
X117909086Y-5570140D01*
X117914690Y-5570463D01*
X118137715Y-5543475D01*
X118352435Y-5477418D01*
X118357415Y-5474848D01*
X118357419Y-5474846D01*
X118547081Y-5376954D01*
X118547082Y-5376954D01*
X118552064Y-5374382D01*
X118730292Y-5237623D01*
X118881485Y-5071464D01*
X119000864Y-4881156D01*
X119084656Y-4672717D01*
X119130213Y-4452733D01*
X119133500Y-4395725D01*
X119133500Y-3150501D01*
X119130813Y-3120387D01*
X119130714Y-3119275D01*
X123916500Y-3119275D01*
X123916500Y-4364499D01*
X123916749Y-4367286D01*
X123916749Y-4367292D01*
X123919506Y-4398186D01*
X123931383Y-4531262D01*
X123932864Y-4536676D01*
X123932865Y-4536681D01*
X123952840Y-4609695D01*
X123990663Y-4747951D01*
X124087378Y-4950718D01*
X124218471Y-5133154D01*
X124379799Y-5289492D01*
X124566262Y-5414790D01*
X124771967Y-5505088D01*
X124777418Y-5506397D01*
X124777422Y-5506398D01*
X124984954Y-5556222D01*
X124990411Y-5557532D01*
X125074475Y-5562379D01*
X125209083Y-5570140D01*
X125209086Y-5570140D01*
X125214690Y-5570463D01*
X125437715Y-5543475D01*
X125652435Y-5477418D01*
X125657415Y-5474848D01*
X125657419Y-5474846D01*
X125847081Y-5376954D01*
X125847082Y-5376954D01*
X125852064Y-5374382D01*
X126030292Y-5237623D01*
X126181485Y-5071464D01*
X126300864Y-4881156D01*
X126384656Y-4672717D01*
X126430213Y-4452733D01*
X126433500Y-4395725D01*
X126433500Y-3150501D01*
X126430813Y-3120387D01*
X126425222Y-3057743D01*
X126418617Y-2983738D01*
X126359337Y-2767049D01*
X126262622Y-2564282D01*
X126131529Y-2381846D01*
X126020207Y-2273967D01*
X125974229Y-2229411D01*
X125974226Y-2229409D01*
X125970201Y-2225508D01*
X125783738Y-2100210D01*
X125578033Y-2009912D01*
X125572582Y-2008603D01*
X125572578Y-2008602D01*
X125365046Y-1958778D01*
X125365045Y-1958778D01*
X125359589Y-1957468D01*
X125275525Y-1952621D01*
X125140917Y-1944860D01*
X125140914Y-1944860D01*
X125135310Y-1944537D01*
X124912285Y-1971525D01*
X124697565Y-2037582D01*
X124692585Y-2040152D01*
X124692581Y-2040154D01*
X124567142Y-2104898D01*
X124497936Y-2140618D01*
X124493489Y-2144031D01*
X124493488Y-2144031D01*
X124479922Y-2154440D01*
X124319708Y-2277377D01*
X124168515Y-2443536D01*
X124165537Y-2448283D01*
X124165535Y-2448286D01*
X124114057Y-2530350D01*
X124049136Y-2633844D01*
X123965344Y-2842283D01*
X123919787Y-3062267D01*
X123916500Y-3119275D01*
X119130714Y-3119275D01*
X119125222Y-3057743D01*
X119118617Y-2983738D01*
X119059337Y-2767049D01*
X118962622Y-2564282D01*
X118831529Y-2381846D01*
X118720207Y-2273967D01*
X118674229Y-2229411D01*
X118674226Y-2229409D01*
X118670201Y-2225508D01*
X118483738Y-2100210D01*
X118278033Y-2009912D01*
X118272582Y-2008603D01*
X118272578Y-2008602D01*
X118065046Y-1958778D01*
X118065045Y-1958778D01*
X118059589Y-1957468D01*
X117975525Y-1952621D01*
X117840917Y-1944860D01*
X117840914Y-1944860D01*
X117835310Y-1944537D01*
X117612285Y-1971525D01*
X117397565Y-2037582D01*
X117392585Y-2040152D01*
X117392581Y-2040154D01*
X117267142Y-2104898D01*
X117197936Y-2140618D01*
X117193489Y-2144031D01*
X117193488Y-2144031D01*
X117179922Y-2154440D01*
X117019708Y-2277377D01*
X116868515Y-2443536D01*
X116865537Y-2448283D01*
X116865535Y-2448286D01*
X116814057Y-2530350D01*
X116749136Y-2633844D01*
X116665344Y-2842283D01*
X116619787Y-3062267D01*
X116616500Y-3119275D01*
X108145557Y-3119275D01*
X108160616Y-3000900D01*
X108160616Y-3000896D01*
X108161014Y-2997770D01*
X108161382Y-2983738D01*
X108163348Y-2908639D01*
X108163431Y-2905479D01*
X108159655Y-2854664D01*
X108144407Y-2649479D01*
X108144406Y-2649475D01*
X108144061Y-2644827D01*
X108140502Y-2629095D01*
X108087408Y-2394459D01*
X108086377Y-2389902D01*
X108025022Y-2232126D01*
X107993340Y-2150655D01*
X107993339Y-2150652D01*
X107991647Y-2146302D01*
X107988399Y-2140618D01*
X107928566Y-2035933D01*
X107861951Y-1919381D01*
X107700138Y-1714122D01*
X107509763Y-1535036D01*
X107317923Y-1401951D01*
X107298851Y-1388720D01*
X107298848Y-1388718D01*
X107295009Y-1386055D01*
X107290816Y-1383987D01*
X107064781Y-1272519D01*
X107064778Y-1272518D01*
X107060593Y-1270454D01*
X107014449Y-1255683D01*
X106993577Y-1249002D01*
X106934797Y-1209184D01*
X106906875Y-1143909D01*
X106918676Y-1073900D01*
X106966454Y-1021385D01*
X107031990Y-1003000D01*
X142110061Y-1003000D01*
X142178182Y-1023002D01*
G37*
%TD.AperFunction*%
M02*
