%TF.GenerationSoftware,KiCad,Pcbnew,(5.99.0-12253-gc8b2e69332)*%
%TF.CreationDate,2021-11-11T06:41:10-05:00*%
%TF.ProjectId,980Daughterboard-USB-Mini,39383044-6175-4676-9874-6572626f6172,rev?*%
%TF.SameCoordinates,Original*%
%TF.FileFunction,AssemblyDrawing,Bot*%
%FSLAX46Y46*%
G04 Gerber Fmt 4.6, Leading zero omitted, Abs format (unit mm)*
G04 Created by KiCad (PCBNEW (5.99.0-12253-gc8b2e69332)) date 2021-11-11 06:41:10*
%MOMM*%
%LPD*%
G01*
G04 APERTURE LIST*
%ADD10C,0.150000*%
%ADD11C,0.100000*%
G04 APERTURE END LIST*
D10*
X121858333Y-4009880D02*
X121858333Y-4724166D01*
X121905952Y-4867023D01*
X122001190Y-4962261D01*
X122144047Y-5009880D01*
X122239285Y-5009880D01*
X120858333Y-5009880D02*
X121429761Y-5009880D01*
X121144047Y-5009880D02*
X121144047Y-4009880D01*
X121239285Y-4152738D01*
X121334523Y-4247976D01*
X121429761Y-4295595D01*
X132887380Y-8161666D02*
X133601666Y-8161666D01*
X133744523Y-8114047D01*
X133839761Y-8018809D01*
X133887380Y-7875952D01*
X133887380Y-7780714D01*
X132982619Y-8590238D02*
X132935000Y-8637857D01*
X132887380Y-8733095D01*
X132887380Y-8971190D01*
X132935000Y-9066428D01*
X132982619Y-9114047D01*
X133077857Y-9161666D01*
X133173095Y-9161666D01*
X133315952Y-9114047D01*
X133887380Y-8542619D01*
X133887380Y-9161666D01*
X125175000Y-2307500D02*
X125175000Y42500D01*
X125175000Y-7107500D02*
X125175000Y-5207500D01*
X117875000Y-5207500D02*
X117875000Y-7107500D01*
X117875000Y42500D02*
X117875000Y-2307500D01*
X125175000Y42500D02*
X117875000Y42500D01*
D11*
X132467107Y-6995000D02*
X131760000Y-7495000D01*
X131760000Y-5495000D02*
X131760000Y-11495000D01*
X136010000Y-5495000D02*
X136010000Y-11495000D01*
X131760000Y-11495000D02*
X136010000Y-11495000D01*
X131760000Y-6495000D02*
X132467107Y-6995000D01*
X131760000Y-5495000D02*
X136010000Y-5495000D01*
M02*
