%TF.GenerationSoftware,KiCad,Pcbnew,(5.99.0-12253-gc8b2e69332)*%
%TF.CreationDate,2021-11-11T06:41:09-05:00*%
%TF.ProjectId,980Daughterboard-USB-Mini,39383044-6175-4676-9874-6572626f6172,rev?*%
%TF.SameCoordinates,Original*%
%TF.FileFunction,Copper,L2,Bot*%
%TF.FilePolarity,Positive*%
%FSLAX46Y46*%
G04 Gerber Fmt 4.6, Leading zero omitted, Abs format (unit mm)*
G04 Created by KiCad (PCBNEW (5.99.0-12253-gc8b2e69332)) date 2021-11-11 06:41:09*
%MOMM*%
%LPD*%
G01*
G04 APERTURE LIST*
G04 Aperture macros list*
%AMRoundRect*
0 Rectangle with rounded corners*
0 $1 Rounding radius*
0 $2 $3 $4 $5 $6 $7 $8 $9 X,Y pos of 4 corners*
0 Add a 4 corners polygon primitive as box body*
4,1,4,$2,$3,$4,$5,$6,$7,$8,$9,$2,$3,0*
0 Add four circle primitives for the rounded corners*
1,1,$1+$1,$2,$3*
1,1,$1+$1,$4,$5*
1,1,$1+$1,$6,$7*
1,1,$1+$1,$8,$9*
0 Add four rect primitives between the rounded corners*
20,1,$1+$1,$2,$3,$4,$5,0*
20,1,$1+$1,$4,$5,$6,$7,0*
20,1,$1+$1,$6,$7,$8,$9,0*
20,1,$1+$1,$8,$9,$2,$3,0*%
G04 Aperture macros list end*
%TA.AperFunction,SMDPad,CuDef*%
%ADD10R,0.500000X1.500000*%
%TD*%
%TA.AperFunction,ComponentPad*%
%ADD11O,1.500000X2.600000*%
%TD*%
%TA.AperFunction,SMDPad,CuDef*%
%ADD12RoundRect,0.150000X-0.775000X0.150000X-0.775000X-0.150000X0.775000X-0.150000X0.775000X0.150000X0*%
%TD*%
%TA.AperFunction,SMDPad,CuDef*%
%ADD13RoundRect,0.332800X-0.567200X0.467200X-0.567200X-0.467200X0.567200X-0.467200X0.567200X0.467200X0*%
%TD*%
%TA.AperFunction,Conductor*%
%ADD14C,0.250000*%
%TD*%
%TA.AperFunction,Conductor*%
%ADD15C,0.200000*%
%TD*%
G04 APERTURE END LIST*
D10*
X119925000Y-9007500D03*
X120725000Y-9007500D03*
X121525000Y-9007500D03*
X122325000Y-9007500D03*
X123125000Y-9007500D03*
D11*
X125175000Y-8557500D03*
X117875000Y-8557500D03*
X125175000Y-3757500D03*
X117875000Y-3757500D03*
D12*
X131285000Y-6995000D03*
X131285000Y-7995000D03*
X131285000Y-8995000D03*
X131285000Y-9995000D03*
D13*
X135310000Y-5495000D03*
X135310000Y-11495000D03*
D14*
X131278000Y-9995000D02*
X131285000Y-9995000D01*
X130288000Y-10985000D02*
X131278000Y-9995000D01*
X125114000Y-10985000D02*
X130288000Y-10985000D01*
X123125000Y-9007500D02*
X124299520Y-10182020D01*
X124299520Y-10182020D02*
X124311020Y-10182020D01*
X124311020Y-10182020D02*
X125114000Y-10985000D01*
D15*
X128082000Y-6691000D02*
X130386000Y-8995000D01*
X122891500Y-6691000D02*
X128082000Y-6691000D01*
X121525000Y-8057500D02*
X122891500Y-6691000D01*
X130386000Y-8995000D02*
X131285000Y-8995000D01*
X121525000Y-9007500D02*
X121525000Y-8057500D01*
X128393001Y-6028000D02*
X130360001Y-7995000D01*
X122754500Y-6028000D02*
X128393001Y-6028000D01*
X120725000Y-8057500D02*
X122754500Y-6028000D01*
X130360001Y-7995000D02*
X131285000Y-7995000D01*
X120725000Y-9007500D02*
X120725000Y-8057500D01*
D14*
X122532500Y-5400000D02*
X128762000Y-5400000D01*
X128762000Y-5400000D02*
X130357000Y-6995000D01*
X130357000Y-6995000D02*
X131285000Y-6995000D01*
X119925000Y-8007500D02*
X122532500Y-5400000D01*
X119925000Y-9007500D02*
X119925000Y-8007500D01*
%TA.AperFunction,NonConductor*%
G36*
X123984812Y-7319502D02*
G01*
X124031305Y-7373158D01*
X124041409Y-7443432D01*
X124033598Y-7472496D01*
X123965344Y-7642283D01*
X123964206Y-7647780D01*
X123964205Y-7647782D01*
X123929890Y-7813481D01*
X123896489Y-7876130D01*
X123834520Y-7910776D01*
X123763657Y-7906419D01*
X123730946Y-7888756D01*
X123621705Y-7806885D01*
X123485316Y-7755755D01*
X123423134Y-7749000D01*
X122998239Y-7749000D01*
X122930118Y-7728998D01*
X122883625Y-7675342D01*
X122873521Y-7605068D01*
X122903015Y-7540488D01*
X122909144Y-7533905D01*
X123106644Y-7336405D01*
X123168956Y-7302379D01*
X123195739Y-7299500D01*
X123916691Y-7299500D01*
X123984812Y-7319502D01*
G37*
%TD.AperFunction*%
%TA.AperFunction,NonConductor*%
G36*
X127845882Y-7319502D02*
G01*
X127866856Y-7336405D01*
X129862337Y-9331886D01*
X129894239Y-9385828D01*
X129900855Y-9408601D01*
X129904890Y-9415423D01*
X129904890Y-9415424D01*
X129914020Y-9430863D01*
X129931478Y-9499679D01*
X129914020Y-9559137D01*
X129904891Y-9574574D01*
X129900855Y-9581399D01*
X129854438Y-9741169D01*
X129853934Y-9747574D01*
X129853933Y-9747579D01*
X129853328Y-9755271D01*
X129851500Y-9778498D01*
X129851500Y-10211502D01*
X129851693Y-10213952D01*
X129851693Y-10213956D01*
X129851823Y-10215603D01*
X129851768Y-10215864D01*
X129851791Y-10216447D01*
X129851645Y-10216453D01*
X129837233Y-10285084D01*
X129787395Y-10335648D01*
X129726212Y-10351500D01*
X125992424Y-10351500D01*
X125924303Y-10331498D01*
X125877810Y-10277842D01*
X125867706Y-10207568D01*
X125897200Y-10142988D01*
X125915720Y-10125537D01*
X125931301Y-10113581D01*
X126030292Y-10037623D01*
X126181485Y-9871464D01*
X126188702Y-9859960D01*
X126297885Y-9685905D01*
X126300864Y-9681156D01*
X126384656Y-9472717D01*
X126430213Y-9252733D01*
X126433500Y-9195725D01*
X126433500Y-7950501D01*
X126430551Y-7917452D01*
X126420401Y-7803733D01*
X126418617Y-7783738D01*
X126415527Y-7772440D01*
X126369738Y-7605068D01*
X126359337Y-7567049D01*
X126355564Y-7559137D01*
X126317695Y-7479744D01*
X126306422Y-7409648D01*
X126334835Y-7344585D01*
X126393914Y-7305212D01*
X126431421Y-7299500D01*
X127777761Y-7299500D01*
X127845882Y-7319502D01*
G37*
%TD.AperFunction*%
%TA.AperFunction,NonConductor*%
G36*
X142178182Y-1023002D02*
G01*
X142224675Y-1076658D01*
X142234779Y-1146932D01*
X142205285Y-1211512D01*
X142145321Y-1249966D01*
X142132433Y-1253722D01*
X142128180Y-1255682D01*
X142128179Y-1255683D01*
X142091659Y-1272519D01*
X141895072Y-1363147D01*
X141856067Y-1388720D01*
X141680404Y-1503889D01*
X141680399Y-1503893D01*
X141676491Y-1506455D01*
X141481494Y-1680497D01*
X141314363Y-1881449D01*
X141311934Y-1885452D01*
X141181616Y-2100210D01*
X141178771Y-2104898D01*
X141077697Y-2345934D01*
X141013359Y-2599262D01*
X140987173Y-2859318D01*
X140999713Y-3120387D01*
X141050704Y-3376735D01*
X141139026Y-3622731D01*
X141141242Y-3626855D01*
X141205753Y-3746916D01*
X141262737Y-3852970D01*
X141265532Y-3856713D01*
X141265534Y-3856716D01*
X141416330Y-4058656D01*
X141416335Y-4058662D01*
X141419122Y-4062394D01*
X141422431Y-4065674D01*
X141422436Y-4065680D01*
X141594878Y-4236623D01*
X141604743Y-4246402D01*
X141608505Y-4249160D01*
X141608508Y-4249163D01*
X141765807Y-4364499D01*
X141815524Y-4400953D01*
X141819667Y-4403133D01*
X141819669Y-4403134D01*
X142042684Y-4520468D01*
X142042689Y-4520470D01*
X142046834Y-4522651D01*
X142172509Y-4566539D01*
X142289089Y-4607251D01*
X142293590Y-4608823D01*
X142298183Y-4609695D01*
X142545785Y-4656703D01*
X142545788Y-4656703D01*
X142550374Y-4657574D01*
X142680959Y-4662705D01*
X142806875Y-4667653D01*
X142806881Y-4667653D01*
X142811543Y-4667836D01*
X142890977Y-4659136D01*
X143066707Y-4639891D01*
X143066712Y-4639890D01*
X143071360Y-4639381D01*
X143184116Y-4609695D01*
X143319594Y-4574027D01*
X143319596Y-4574026D01*
X143324117Y-4572836D01*
X143564262Y-4469661D01*
X143599071Y-4448121D01*
X143782547Y-4334583D01*
X143782548Y-4334583D01*
X143786519Y-4332125D01*
X143790082Y-4329108D01*
X143790087Y-4329105D01*
X143909588Y-4227939D01*
X143974504Y-4199191D01*
X144044657Y-4210102D01*
X144097774Y-4257209D01*
X144117000Y-4324106D01*
X144117000Y-12595502D01*
X144096998Y-12663623D01*
X144043342Y-12710116D01*
X143973068Y-12720220D01*
X143904667Y-12687277D01*
X143863172Y-12648242D01*
X143863166Y-12648237D01*
X143859763Y-12645036D01*
X143654591Y-12502702D01*
X143648851Y-12498720D01*
X143648848Y-12498718D01*
X143645009Y-12496055D01*
X143640816Y-12493987D01*
X143414781Y-12382519D01*
X143414778Y-12382518D01*
X143410593Y-12380454D01*
X143364449Y-12365683D01*
X143166123Y-12302199D01*
X143161665Y-12300772D01*
X142903693Y-12258758D01*
X142789942Y-12257269D01*
X142647022Y-12255398D01*
X142647019Y-12255398D01*
X142642345Y-12255337D01*
X142383362Y-12290583D01*
X142132433Y-12363722D01*
X142128180Y-12365682D01*
X142128179Y-12365683D01*
X142091659Y-12382519D01*
X141895072Y-12473147D01*
X141856067Y-12498720D01*
X141680404Y-12613889D01*
X141680399Y-12613893D01*
X141676491Y-12616455D01*
X141481494Y-12790497D01*
X141314363Y-12991449D01*
X141311934Y-12995452D01*
X141185444Y-13203902D01*
X141178771Y-13214898D01*
X141077697Y-13455934D01*
X141013359Y-13709262D01*
X140987173Y-13969318D01*
X140999713Y-14230387D01*
X141050704Y-14486735D01*
X141139026Y-14732731D01*
X141141242Y-14736855D01*
X141258781Y-14955607D01*
X141262737Y-14962970D01*
X141265532Y-14966713D01*
X141265534Y-14966716D01*
X141416330Y-15168656D01*
X141416335Y-15168662D01*
X141419122Y-15172394D01*
X141422431Y-15175674D01*
X141422436Y-15175680D01*
X141601426Y-15353114D01*
X141604743Y-15356402D01*
X141608505Y-15359160D01*
X141608508Y-15359163D01*
X141794869Y-15495808D01*
X141815524Y-15510953D01*
X141819667Y-15513133D01*
X141819669Y-15513134D01*
X142042684Y-15630468D01*
X142042689Y-15630470D01*
X142046834Y-15632651D01*
X142293590Y-15718823D01*
X142298183Y-15719695D01*
X142390444Y-15737211D01*
X142453638Y-15769568D01*
X142489307Y-15830954D01*
X142486126Y-15901879D01*
X142445105Y-15959826D01*
X142379268Y-15986396D01*
X142366942Y-15987000D01*
X107281093Y-15987000D01*
X107212972Y-15966998D01*
X107166479Y-15913342D01*
X107156375Y-15843068D01*
X107185869Y-15778488D01*
X107214790Y-15753855D01*
X107269993Y-15719695D01*
X107436519Y-15616646D01*
X107440082Y-15613629D01*
X107440087Y-15613626D01*
X107632439Y-15450787D01*
X107632440Y-15450786D01*
X107636005Y-15447768D01*
X107656736Y-15424128D01*
X107805257Y-15254774D01*
X107805261Y-15254769D01*
X107808339Y-15251259D01*
X107814142Y-15242238D01*
X107940305Y-15046094D01*
X107949733Y-15031437D01*
X108057083Y-14793129D01*
X108075359Y-14728327D01*
X108126760Y-14546076D01*
X108126761Y-14546073D01*
X108128030Y-14541572D01*
X108161014Y-14282291D01*
X108163431Y-14190000D01*
X108150462Y-14015479D01*
X112936835Y-14015479D01*
X112955465Y-14252190D01*
X112956619Y-14256997D01*
X112956620Y-14257003D01*
X112963443Y-14285421D01*
X113010895Y-14483073D01*
X113012788Y-14487644D01*
X113012789Y-14487646D01*
X113091892Y-14678618D01*
X113101760Y-14702442D01*
X113104346Y-14706662D01*
X113223241Y-14900681D01*
X113223245Y-14900687D01*
X113225824Y-14904895D01*
X113380031Y-15085448D01*
X113560584Y-15239655D01*
X113564792Y-15242234D01*
X113564798Y-15242238D01*
X113698259Y-15324023D01*
X113763037Y-15363719D01*
X113767607Y-15365612D01*
X113767611Y-15365614D01*
X113973239Y-15450787D01*
X113982406Y-15454584D01*
X114062609Y-15473839D01*
X114208476Y-15508859D01*
X114208482Y-15508860D01*
X114213289Y-15510014D01*
X114450000Y-15528644D01*
X114686711Y-15510014D01*
X114691518Y-15508860D01*
X114691524Y-15508859D01*
X114837391Y-15473839D01*
X114917594Y-15454584D01*
X114926761Y-15450787D01*
X115132389Y-15365614D01*
X115132393Y-15365612D01*
X115136963Y-15363719D01*
X115201741Y-15324023D01*
X115335202Y-15242238D01*
X115335208Y-15242234D01*
X115339416Y-15239655D01*
X115519969Y-15085448D01*
X115674176Y-14904895D01*
X115676755Y-14900687D01*
X115676759Y-14900681D01*
X115795654Y-14706662D01*
X115798240Y-14702442D01*
X115808109Y-14678618D01*
X115887211Y-14487646D01*
X115887212Y-14487644D01*
X115889105Y-14483073D01*
X115936557Y-14285421D01*
X115943380Y-14257003D01*
X115943381Y-14256997D01*
X115944535Y-14252190D01*
X115963165Y-14015479D01*
X133186835Y-14015479D01*
X133205465Y-14252190D01*
X133206619Y-14256997D01*
X133206620Y-14257003D01*
X133213443Y-14285421D01*
X133260895Y-14483073D01*
X133262788Y-14487644D01*
X133262789Y-14487646D01*
X133341892Y-14678618D01*
X133351760Y-14702442D01*
X133354346Y-14706662D01*
X133473241Y-14900681D01*
X133473245Y-14900687D01*
X133475824Y-14904895D01*
X133630031Y-15085448D01*
X133810584Y-15239655D01*
X133814792Y-15242234D01*
X133814798Y-15242238D01*
X133948259Y-15324023D01*
X134013037Y-15363719D01*
X134017607Y-15365612D01*
X134017611Y-15365614D01*
X134223239Y-15450787D01*
X134232406Y-15454584D01*
X134312609Y-15473839D01*
X134458476Y-15508859D01*
X134458482Y-15508860D01*
X134463289Y-15510014D01*
X134700000Y-15528644D01*
X134936711Y-15510014D01*
X134941518Y-15508860D01*
X134941524Y-15508859D01*
X135087391Y-15473839D01*
X135167594Y-15454584D01*
X135176761Y-15450787D01*
X135382389Y-15365614D01*
X135382393Y-15365612D01*
X135386963Y-15363719D01*
X135451741Y-15324023D01*
X135585202Y-15242238D01*
X135585208Y-15242234D01*
X135589416Y-15239655D01*
X135769969Y-15085448D01*
X135924176Y-14904895D01*
X135926755Y-14900687D01*
X135926759Y-14900681D01*
X136045654Y-14706662D01*
X136048240Y-14702442D01*
X136058109Y-14678618D01*
X136137211Y-14487646D01*
X136137212Y-14487644D01*
X136139105Y-14483073D01*
X136186557Y-14285421D01*
X136193380Y-14257003D01*
X136193381Y-14256997D01*
X136194535Y-14252190D01*
X136213165Y-14015479D01*
X136194535Y-13778768D01*
X136176760Y-13704727D01*
X136140260Y-13552697D01*
X136139105Y-13547885D01*
X136048240Y-13328516D01*
X135981258Y-13219212D01*
X135926759Y-13130277D01*
X135926755Y-13130271D01*
X135924176Y-13126063D01*
X135920960Y-13122297D01*
X135826186Y-13011330D01*
X135797155Y-12946540D01*
X135807760Y-12876340D01*
X135854635Y-12823018D01*
X135921997Y-12803500D01*
X135949968Y-12803500D01*
X135952104Y-12803354D01*
X135952115Y-12803354D01*
X135971079Y-12802061D01*
X135992051Y-12800631D01*
X136169412Y-12756410D01*
X136175519Y-12753378D01*
X136175523Y-12753377D01*
X136251277Y-12715772D01*
X136333141Y-12675135D01*
X136338459Y-12670860D01*
X136338461Y-12670858D01*
X136470280Y-12564872D01*
X136475597Y-12560597D01*
X136481261Y-12553552D01*
X136585858Y-12423461D01*
X136585860Y-12423459D01*
X136590135Y-12418141D01*
X136648771Y-12300019D01*
X136668377Y-12260523D01*
X136668378Y-12260519D01*
X136671410Y-12254412D01*
X136715631Y-12077051D01*
X136718500Y-12034968D01*
X136718500Y-10955032D01*
X136715631Y-10912949D01*
X136671410Y-10735588D01*
X136657698Y-10707964D01*
X136621807Y-10635663D01*
X136590135Y-10571859D01*
X136578523Y-10557416D01*
X136479872Y-10434720D01*
X136475597Y-10429403D01*
X136368725Y-10343475D01*
X136338461Y-10319142D01*
X136338459Y-10319140D01*
X136333141Y-10314865D01*
X136221979Y-10259684D01*
X136175523Y-10236623D01*
X136175519Y-10236622D01*
X136169412Y-10233590D01*
X135992051Y-10189369D01*
X135971079Y-10187939D01*
X135952115Y-10186646D01*
X135952104Y-10186646D01*
X135949968Y-10186500D01*
X134670032Y-10186500D01*
X134667896Y-10186646D01*
X134667885Y-10186646D01*
X134648921Y-10187939D01*
X134627949Y-10189369D01*
X134450588Y-10233590D01*
X134444481Y-10236622D01*
X134444477Y-10236623D01*
X134398021Y-10259684D01*
X134286859Y-10314865D01*
X134281541Y-10319140D01*
X134281539Y-10319142D01*
X134251275Y-10343475D01*
X134144403Y-10429403D01*
X134140128Y-10434720D01*
X134041478Y-10557416D01*
X134029865Y-10571859D01*
X133998193Y-10635663D01*
X133962303Y-10707964D01*
X133948590Y-10735588D01*
X133904369Y-10912949D01*
X133901500Y-10955032D01*
X133901500Y-12034968D01*
X133904369Y-12077051D01*
X133948590Y-12254412D01*
X133951622Y-12260519D01*
X133951623Y-12260523D01*
X133971229Y-12300019D01*
X134029865Y-12418141D01*
X134034140Y-12423459D01*
X134034142Y-12423461D01*
X134070559Y-12468754D01*
X134097656Y-12534376D01*
X134084973Y-12604231D01*
X134036537Y-12656139D01*
X134020584Y-12664113D01*
X134013037Y-12667239D01*
X134003243Y-12673241D01*
X133814798Y-12788720D01*
X133814792Y-12788724D01*
X133810584Y-12791303D01*
X133630031Y-12945510D01*
X133475824Y-13126063D01*
X133473245Y-13130271D01*
X133473241Y-13130277D01*
X133418742Y-13219212D01*
X133351760Y-13328516D01*
X133260895Y-13547885D01*
X133259740Y-13552697D01*
X133223241Y-13704727D01*
X133205465Y-13778768D01*
X133186835Y-14015479D01*
X115963165Y-14015479D01*
X115944535Y-13778768D01*
X115926760Y-13704727D01*
X115890260Y-13552697D01*
X115889105Y-13547885D01*
X115798240Y-13328516D01*
X115731258Y-13219212D01*
X115676759Y-13130277D01*
X115676755Y-13130271D01*
X115674176Y-13126063D01*
X115519969Y-12945510D01*
X115339416Y-12791303D01*
X115335208Y-12788724D01*
X115335202Y-12788720D01*
X115141183Y-12669825D01*
X115136963Y-12667239D01*
X115132393Y-12665346D01*
X115132389Y-12665344D01*
X114922167Y-12578268D01*
X114922165Y-12578267D01*
X114917594Y-12576374D01*
X114828461Y-12554975D01*
X114691524Y-12522099D01*
X114691518Y-12522098D01*
X114686711Y-12520944D01*
X114450000Y-12502314D01*
X114213289Y-12520944D01*
X114208482Y-12522098D01*
X114208476Y-12522099D01*
X114071539Y-12554975D01*
X113982406Y-12576374D01*
X113977835Y-12578267D01*
X113977833Y-12578268D01*
X113767611Y-12665344D01*
X113767607Y-12665346D01*
X113763037Y-12667239D01*
X113758817Y-12669825D01*
X113564798Y-12788720D01*
X113564792Y-12788724D01*
X113560584Y-12791303D01*
X113380031Y-12945510D01*
X113225824Y-13126063D01*
X113223245Y-13130271D01*
X113223241Y-13130277D01*
X113168742Y-13219212D01*
X113101760Y-13328516D01*
X113010895Y-13547885D01*
X113009740Y-13552697D01*
X112973241Y-13704727D01*
X112955465Y-13778768D01*
X112936835Y-14015479D01*
X108150462Y-14015479D01*
X108144407Y-13934000D01*
X108144406Y-13933996D01*
X108144061Y-13929348D01*
X108111105Y-13783702D01*
X108087408Y-13678980D01*
X108086377Y-13674423D01*
X108001412Y-13455934D01*
X107993340Y-13435176D01*
X107993339Y-13435173D01*
X107991647Y-13430823D01*
X107861951Y-13203902D01*
X107700138Y-12998643D01*
X107509763Y-12819557D01*
X107352005Y-12710116D01*
X107298851Y-12673241D01*
X107298848Y-12673239D01*
X107295009Y-12670576D01*
X107290816Y-12668508D01*
X107064781Y-12557040D01*
X107064778Y-12557039D01*
X107060593Y-12554975D01*
X107014449Y-12540204D01*
X106816123Y-12476720D01*
X106811665Y-12475293D01*
X106553693Y-12433279D01*
X106439942Y-12431790D01*
X106297022Y-12429919D01*
X106297019Y-12429919D01*
X106292345Y-12429858D01*
X106033362Y-12465104D01*
X106028876Y-12466412D01*
X106028874Y-12466412D01*
X106000988Y-12474540D01*
X105782433Y-12538243D01*
X105778180Y-12540203D01*
X105778179Y-12540204D01*
X105745477Y-12555280D01*
X105545072Y-12647668D01*
X105509701Y-12670858D01*
X105330404Y-12788410D01*
X105330399Y-12788414D01*
X105326491Y-12790976D01*
X105322999Y-12794093D01*
X105242901Y-12865583D01*
X105178760Y-12896021D01*
X105108345Y-12886949D01*
X105054013Y-12841249D01*
X105033000Y-12771580D01*
X105033000Y-7919275D01*
X116616500Y-7919275D01*
X116616500Y-9164499D01*
X116616749Y-9167286D01*
X116616749Y-9167292D01*
X116620474Y-9209033D01*
X116631383Y-9331262D01*
X116632864Y-9336676D01*
X116632865Y-9336681D01*
X116650458Y-9400988D01*
X116690663Y-9547951D01*
X116693075Y-9553009D01*
X116693077Y-9553013D01*
X116706617Y-9581399D01*
X116787378Y-9750718D01*
X116918471Y-9933154D01*
X117079799Y-10089492D01*
X117266262Y-10214790D01*
X117471967Y-10305088D01*
X117477418Y-10306397D01*
X117477422Y-10306398D01*
X117684954Y-10356222D01*
X117690411Y-10357532D01*
X117774475Y-10362379D01*
X117909083Y-10370140D01*
X117909086Y-10370140D01*
X117914690Y-10370463D01*
X118137715Y-10343475D01*
X118352435Y-10277418D01*
X118357415Y-10274848D01*
X118357419Y-10274846D01*
X118547081Y-10176954D01*
X118547082Y-10176954D01*
X118552064Y-10174382D01*
X118730292Y-10037623D01*
X118881485Y-9871464D01*
X118884470Y-9866706D01*
X118937710Y-9781835D01*
X118990853Y-9734757D01*
X119061012Y-9723885D01*
X119125912Y-9752669D01*
X119164947Y-9811971D01*
X119169710Y-9835183D01*
X119173255Y-9867816D01*
X119224385Y-10004205D01*
X119311739Y-10120761D01*
X119428295Y-10208115D01*
X119564684Y-10259245D01*
X119626866Y-10266000D01*
X120223134Y-10266000D01*
X120285316Y-10259245D01*
X120292715Y-10256471D01*
X120295854Y-10255725D01*
X120354146Y-10255725D01*
X120357285Y-10256471D01*
X120364684Y-10259245D01*
X120426866Y-10266000D01*
X121023134Y-10266000D01*
X121085316Y-10259245D01*
X121092715Y-10256471D01*
X121095854Y-10255725D01*
X121154146Y-10255725D01*
X121157285Y-10256471D01*
X121164684Y-10259245D01*
X121226866Y-10266000D01*
X121823134Y-10266000D01*
X121885316Y-10259245D01*
X121892715Y-10256471D01*
X121895854Y-10255725D01*
X121954146Y-10255725D01*
X121957285Y-10256471D01*
X121964684Y-10259245D01*
X122026866Y-10266000D01*
X122623134Y-10266000D01*
X122685316Y-10259245D01*
X122692715Y-10256471D01*
X122695854Y-10255725D01*
X122754146Y-10255725D01*
X122757285Y-10256471D01*
X122764684Y-10259245D01*
X122826866Y-10266000D01*
X123423134Y-10266000D01*
X123426519Y-10265632D01*
X123427966Y-10265554D01*
X123497068Y-10281846D01*
X123523870Y-10302275D01*
X123795868Y-10574273D01*
X123803408Y-10582559D01*
X123807520Y-10589038D01*
X123813297Y-10594463D01*
X123857171Y-10635663D01*
X123860013Y-10638418D01*
X123879750Y-10658155D01*
X123882947Y-10660635D01*
X123891967Y-10668338D01*
X123924199Y-10698606D01*
X123931148Y-10702426D01*
X123937559Y-10707084D01*
X123936920Y-10707964D01*
X123953545Y-10720449D01*
X124610343Y-11377247D01*
X124617887Y-11385537D01*
X124622000Y-11392018D01*
X124627777Y-11397443D01*
X124671667Y-11438658D01*
X124674509Y-11441413D01*
X124694230Y-11461134D01*
X124697425Y-11463612D01*
X124706447Y-11471318D01*
X124738679Y-11501586D01*
X124745628Y-11505406D01*
X124756432Y-11511346D01*
X124772956Y-11522199D01*
X124788959Y-11534613D01*
X124829543Y-11552176D01*
X124840173Y-11557383D01*
X124878940Y-11578695D01*
X124886617Y-11580666D01*
X124886622Y-11580668D01*
X124898558Y-11583732D01*
X124917266Y-11590137D01*
X124935855Y-11598181D01*
X124943683Y-11599421D01*
X124943690Y-11599423D01*
X124979524Y-11605099D01*
X124991144Y-11607505D01*
X125022959Y-11615673D01*
X125033970Y-11618500D01*
X125054224Y-11618500D01*
X125073934Y-11620051D01*
X125093943Y-11623220D01*
X125101835Y-11622474D01*
X125120580Y-11620702D01*
X125137962Y-11619059D01*
X125149819Y-11618500D01*
X130209233Y-11618500D01*
X130220416Y-11619027D01*
X130227909Y-11620702D01*
X130235835Y-11620453D01*
X130235836Y-11620453D01*
X130295986Y-11618562D01*
X130299945Y-11618500D01*
X130327856Y-11618500D01*
X130331791Y-11618003D01*
X130331856Y-11617995D01*
X130343693Y-11617062D01*
X130375951Y-11616048D01*
X130379970Y-11615922D01*
X130387889Y-11615673D01*
X130407343Y-11610021D01*
X130426700Y-11606013D01*
X130438930Y-11604468D01*
X130438931Y-11604468D01*
X130446797Y-11603474D01*
X130454168Y-11600555D01*
X130454170Y-11600555D01*
X130487912Y-11587196D01*
X130499142Y-11583351D01*
X130533983Y-11573229D01*
X130533984Y-11573229D01*
X130541593Y-11571018D01*
X130548412Y-11566985D01*
X130548417Y-11566983D01*
X130559028Y-11560707D01*
X130576776Y-11552012D01*
X130595617Y-11544552D01*
X130615987Y-11529753D01*
X130631387Y-11518564D01*
X130641307Y-11512048D01*
X130672535Y-11493580D01*
X130672538Y-11493578D01*
X130679362Y-11489542D01*
X130693683Y-11475221D01*
X130708717Y-11462380D01*
X130710432Y-11461134D01*
X130725107Y-11450472D01*
X130753298Y-11416395D01*
X130761288Y-11407616D01*
X131328499Y-10840405D01*
X131390811Y-10806379D01*
X131417594Y-10803500D01*
X132126502Y-10803500D01*
X132128950Y-10803307D01*
X132128958Y-10803307D01*
X132157421Y-10801067D01*
X132157426Y-10801066D01*
X132163831Y-10800562D01*
X132263769Y-10771528D01*
X132315988Y-10756357D01*
X132315990Y-10756356D01*
X132323601Y-10754145D01*
X132403177Y-10707084D01*
X132459980Y-10673491D01*
X132459983Y-10673489D01*
X132466807Y-10669453D01*
X132584453Y-10551807D01*
X132588489Y-10544983D01*
X132588491Y-10544980D01*
X132665108Y-10415427D01*
X132669145Y-10408601D01*
X132715562Y-10248831D01*
X132716892Y-10231939D01*
X132718307Y-10213958D01*
X132718307Y-10213950D01*
X132718500Y-10211502D01*
X132718500Y-9778498D01*
X132716672Y-9755271D01*
X132716067Y-9747579D01*
X132716066Y-9747574D01*
X132715562Y-9741169D01*
X132669145Y-9581399D01*
X132665109Y-9574574D01*
X132655980Y-9559137D01*
X132638522Y-9490321D01*
X132655980Y-9430863D01*
X132665109Y-9415426D01*
X132665110Y-9415424D01*
X132669145Y-9408601D01*
X132715562Y-9248831D01*
X132718500Y-9211502D01*
X132718500Y-8778498D01*
X132715562Y-8741169D01*
X132669145Y-8581399D01*
X132665109Y-8574574D01*
X132655980Y-8559137D01*
X132638522Y-8490321D01*
X132655980Y-8430863D01*
X132665109Y-8415426D01*
X132665110Y-8415424D01*
X132669145Y-8408601D01*
X132715562Y-8248831D01*
X132718500Y-8211502D01*
X132718500Y-7778498D01*
X132718307Y-7776042D01*
X132716067Y-7747579D01*
X132716066Y-7747574D01*
X132715562Y-7741169D01*
X132682219Y-7626400D01*
X132671357Y-7589012D01*
X132671356Y-7589010D01*
X132669145Y-7581399D01*
X132661217Y-7567993D01*
X132655980Y-7559137D01*
X132638522Y-7490321D01*
X132655980Y-7430863D01*
X132665109Y-7415426D01*
X132665110Y-7415424D01*
X132669145Y-7408601D01*
X132683344Y-7359729D01*
X132713767Y-7255008D01*
X132715562Y-7248831D01*
X132716306Y-7239390D01*
X132718307Y-7213958D01*
X132718307Y-7213950D01*
X132718500Y-7211502D01*
X132718500Y-6778498D01*
X132718081Y-6773175D01*
X132716067Y-6747579D01*
X132716066Y-6747574D01*
X132715562Y-6741169D01*
X132669145Y-6581399D01*
X132652107Y-6552589D01*
X132588491Y-6445020D01*
X132588489Y-6445017D01*
X132584453Y-6438193D01*
X132466807Y-6320547D01*
X132459983Y-6316511D01*
X132459980Y-6316509D01*
X132330427Y-6239892D01*
X132330428Y-6239892D01*
X132323601Y-6235855D01*
X132315990Y-6233644D01*
X132315988Y-6233643D01*
X132263769Y-6218472D01*
X132163831Y-6189438D01*
X132157426Y-6188934D01*
X132157421Y-6188933D01*
X132128958Y-6186693D01*
X132128950Y-6186693D01*
X132126502Y-6186500D01*
X130496594Y-6186500D01*
X130428473Y-6166498D01*
X130407499Y-6149595D01*
X129265652Y-5007747D01*
X129258112Y-4999461D01*
X129254000Y-4992982D01*
X129213587Y-4955032D01*
X133901500Y-4955032D01*
X133901500Y-6034968D01*
X133904369Y-6077051D01*
X133948590Y-6254412D01*
X134029865Y-6418141D01*
X134034140Y-6423459D01*
X134034142Y-6423461D01*
X134045987Y-6438193D01*
X134144403Y-6560597D01*
X134149720Y-6564872D01*
X134281539Y-6670858D01*
X134281541Y-6670860D01*
X134286859Y-6675135D01*
X134368723Y-6715772D01*
X134444477Y-6753377D01*
X134444481Y-6753378D01*
X134450588Y-6756410D01*
X134627949Y-6800631D01*
X134648921Y-6802061D01*
X134667885Y-6803354D01*
X134667896Y-6803354D01*
X134670032Y-6803500D01*
X135949968Y-6803500D01*
X135952104Y-6803354D01*
X135952115Y-6803354D01*
X135971079Y-6802061D01*
X135992051Y-6800631D01*
X136169412Y-6756410D01*
X136175519Y-6753378D01*
X136175523Y-6753377D01*
X136251276Y-6715773D01*
X136333141Y-6675135D01*
X136338459Y-6670860D01*
X136338461Y-6670858D01*
X136470280Y-6564872D01*
X136475597Y-6560597D01*
X136574013Y-6438193D01*
X136585858Y-6423461D01*
X136585860Y-6423459D01*
X136590135Y-6418141D01*
X136671410Y-6254412D01*
X136715631Y-6077051D01*
X136718500Y-6034968D01*
X136718500Y-4955032D01*
X136717519Y-4940634D01*
X136717061Y-4933921D01*
X136715631Y-4912949D01*
X136671410Y-4735588D01*
X136642941Y-4678236D01*
X136611524Y-4614948D01*
X136590135Y-4571859D01*
X136548816Y-4520468D01*
X136479872Y-4434720D01*
X136475597Y-4429403D01*
X136442925Y-4403134D01*
X136338461Y-4319142D01*
X136338459Y-4319140D01*
X136333141Y-4314865D01*
X136216993Y-4257209D01*
X136175523Y-4236623D01*
X136175519Y-4236622D01*
X136169412Y-4233590D01*
X135992051Y-4189369D01*
X135971079Y-4187939D01*
X135952115Y-4186646D01*
X135952104Y-4186646D01*
X135949968Y-4186500D01*
X134670032Y-4186500D01*
X134667896Y-4186646D01*
X134667885Y-4186646D01*
X134648921Y-4187939D01*
X134627949Y-4189369D01*
X134450588Y-4233590D01*
X134444481Y-4236622D01*
X134444477Y-4236623D01*
X134403007Y-4257209D01*
X134286859Y-4314865D01*
X134281541Y-4319140D01*
X134281539Y-4319142D01*
X134177075Y-4403134D01*
X134144403Y-4429403D01*
X134140128Y-4434720D01*
X134071185Y-4520468D01*
X134029865Y-4571859D01*
X134008476Y-4614948D01*
X133977060Y-4678236D01*
X133948590Y-4735588D01*
X133904369Y-4912949D01*
X133902939Y-4933921D01*
X133902482Y-4940634D01*
X133901500Y-4955032D01*
X129213587Y-4955032D01*
X129204348Y-4946356D01*
X129201507Y-4943602D01*
X129181770Y-4923865D01*
X129178573Y-4921385D01*
X129169551Y-4913680D01*
X129156122Y-4901069D01*
X129137321Y-4883414D01*
X129130375Y-4879595D01*
X129130372Y-4879593D01*
X129119566Y-4873652D01*
X129103047Y-4862801D01*
X129102583Y-4862441D01*
X129087041Y-4850386D01*
X129079772Y-4847241D01*
X129079768Y-4847238D01*
X129046463Y-4832826D01*
X129035813Y-4827609D01*
X128997060Y-4806305D01*
X128977437Y-4801267D01*
X128958734Y-4794863D01*
X128947420Y-4789967D01*
X128947419Y-4789967D01*
X128940145Y-4786819D01*
X128932322Y-4785580D01*
X128932312Y-4785577D01*
X128896476Y-4779901D01*
X128884856Y-4777495D01*
X128849711Y-4768472D01*
X128849710Y-4768472D01*
X128842030Y-4766500D01*
X128821776Y-4766500D01*
X128802065Y-4764949D01*
X128789886Y-4763020D01*
X128782057Y-4761780D01*
X128752786Y-4764547D01*
X128738039Y-4765941D01*
X128726181Y-4766500D01*
X126520001Y-4766500D01*
X126451880Y-4746498D01*
X126405387Y-4692842D01*
X126395283Y-4622568D01*
X126396616Y-4614964D01*
X126430213Y-4452733D01*
X126433500Y-4395725D01*
X126433500Y-3150501D01*
X126430813Y-3120387D01*
X126425222Y-3057743D01*
X126418617Y-2983738D01*
X126359337Y-2767049D01*
X126262622Y-2564282D01*
X126131529Y-2381846D01*
X126020207Y-2273967D01*
X125974229Y-2229411D01*
X125974226Y-2229409D01*
X125970201Y-2225508D01*
X125783738Y-2100210D01*
X125578033Y-2009912D01*
X125572582Y-2008603D01*
X125572578Y-2008602D01*
X125365046Y-1958778D01*
X125365045Y-1958778D01*
X125359589Y-1957468D01*
X125275525Y-1952621D01*
X125140917Y-1944860D01*
X125140914Y-1944860D01*
X125135310Y-1944537D01*
X124912285Y-1971525D01*
X124697565Y-2037582D01*
X124692585Y-2040152D01*
X124692581Y-2040154D01*
X124567142Y-2104898D01*
X124497936Y-2140618D01*
X124493489Y-2144031D01*
X124493488Y-2144031D01*
X124479922Y-2154440D01*
X124319708Y-2277377D01*
X124168515Y-2443536D01*
X124165537Y-2448283D01*
X124165535Y-2448286D01*
X124114057Y-2530350D01*
X124049136Y-2633844D01*
X123965344Y-2842283D01*
X123919787Y-3062267D01*
X123916500Y-3119275D01*
X123916500Y-4364499D01*
X123916749Y-4367286D01*
X123916749Y-4367292D01*
X123919506Y-4398186D01*
X123931383Y-4531262D01*
X123952172Y-4607253D01*
X123950855Y-4678236D01*
X123911369Y-4737239D01*
X123846252Y-4765529D01*
X123830638Y-4766500D01*
X122611267Y-4766500D01*
X122600084Y-4765973D01*
X122592591Y-4764298D01*
X122584665Y-4764547D01*
X122584664Y-4764547D01*
X122524501Y-4766438D01*
X122520543Y-4766500D01*
X122492644Y-4766500D01*
X122488654Y-4767004D01*
X122476820Y-4767936D01*
X122432611Y-4769326D01*
X122424997Y-4771538D01*
X122424992Y-4771539D01*
X122413159Y-4774977D01*
X122393796Y-4778988D01*
X122373703Y-4781526D01*
X122366336Y-4784443D01*
X122366331Y-4784444D01*
X122332592Y-4797802D01*
X122321365Y-4801646D01*
X122278907Y-4813982D01*
X122272081Y-4818019D01*
X122261472Y-4824293D01*
X122243724Y-4832988D01*
X122224883Y-4840448D01*
X122218467Y-4845110D01*
X122218466Y-4845110D01*
X122189113Y-4866436D01*
X122179193Y-4872952D01*
X122147965Y-4891420D01*
X122147962Y-4891422D01*
X122141138Y-4895458D01*
X122126817Y-4909779D01*
X122111784Y-4922619D01*
X122095393Y-4934528D01*
X122080207Y-4952885D01*
X122067202Y-4968605D01*
X122059212Y-4977384D01*
X119532747Y-7503848D01*
X119524461Y-7511388D01*
X119517982Y-7515500D01*
X119512557Y-7521277D01*
X119471357Y-7565151D01*
X119468602Y-7567993D01*
X119448865Y-7587730D01*
X119446385Y-7590927D01*
X119438682Y-7599947D01*
X119408414Y-7632179D01*
X119404595Y-7639125D01*
X119404593Y-7639128D01*
X119398652Y-7649934D01*
X119387801Y-7666453D01*
X119375386Y-7682459D01*
X119372241Y-7689728D01*
X119372238Y-7689732D01*
X119357826Y-7723037D01*
X119352605Y-7733695D01*
X119337088Y-7761921D01*
X119286745Y-7811980D01*
X119217328Y-7826875D01*
X119150879Y-7801876D01*
X119108493Y-7744920D01*
X119105139Y-7734471D01*
X119078492Y-7637069D01*
X119059337Y-7567049D01*
X119055564Y-7559137D01*
X118995801Y-7433844D01*
X118962622Y-7364282D01*
X118831529Y-7181846D01*
X118670201Y-7025508D01*
X118483738Y-6900210D01*
X118278033Y-6809912D01*
X118272582Y-6808603D01*
X118272578Y-6808602D01*
X118065046Y-6758778D01*
X118065045Y-6758778D01*
X118059589Y-6757468D01*
X117975525Y-6752621D01*
X117840917Y-6744860D01*
X117840914Y-6744860D01*
X117835310Y-6744537D01*
X117612285Y-6771525D01*
X117397565Y-6837582D01*
X117392585Y-6840152D01*
X117392581Y-6840154D01*
X117202919Y-6938046D01*
X117197936Y-6940618D01*
X117019708Y-7077377D01*
X116868515Y-7243536D01*
X116865537Y-7248283D01*
X116865535Y-7248286D01*
X116795628Y-7359729D01*
X116749136Y-7433844D01*
X116665344Y-7642283D01*
X116619787Y-7862267D01*
X116619521Y-7866878D01*
X116619521Y-7866879D01*
X116617944Y-7894239D01*
X116616500Y-7919275D01*
X105033000Y-7919275D01*
X105033000Y-4328909D01*
X105053002Y-4260788D01*
X105106658Y-4214295D01*
X105176932Y-4204191D01*
X105241512Y-4233685D01*
X105247705Y-4239425D01*
X105254743Y-4246402D01*
X105258505Y-4249160D01*
X105258508Y-4249163D01*
X105415807Y-4364499D01*
X105465524Y-4400953D01*
X105469667Y-4403133D01*
X105469669Y-4403134D01*
X105692684Y-4520468D01*
X105692689Y-4520470D01*
X105696834Y-4522651D01*
X105822509Y-4566539D01*
X105939089Y-4607251D01*
X105943590Y-4608823D01*
X105948183Y-4609695D01*
X106195785Y-4656703D01*
X106195788Y-4656703D01*
X106200374Y-4657574D01*
X106330959Y-4662705D01*
X106456875Y-4667653D01*
X106456881Y-4667653D01*
X106461543Y-4667836D01*
X106540977Y-4659136D01*
X106716707Y-4639891D01*
X106716712Y-4639890D01*
X106721360Y-4639381D01*
X106834116Y-4609695D01*
X106969594Y-4574027D01*
X106969596Y-4574026D01*
X106974117Y-4572836D01*
X107214262Y-4469661D01*
X107249071Y-4448121D01*
X107432547Y-4334583D01*
X107432548Y-4334583D01*
X107436519Y-4332125D01*
X107440082Y-4329108D01*
X107440087Y-4329105D01*
X107632439Y-4166266D01*
X107632440Y-4166265D01*
X107636005Y-4163247D01*
X107767000Y-4013876D01*
X107805257Y-3970253D01*
X107805261Y-3970248D01*
X107808339Y-3966738D01*
X107949733Y-3746916D01*
X108057083Y-3508608D01*
X108128030Y-3257051D01*
X108145325Y-3121099D01*
X108145557Y-3119275D01*
X116616500Y-3119275D01*
X116616500Y-4364499D01*
X116616749Y-4367286D01*
X116616749Y-4367292D01*
X116619506Y-4398186D01*
X116631383Y-4531262D01*
X116632864Y-4536676D01*
X116632865Y-4536681D01*
X116652840Y-4609695D01*
X116690663Y-4747951D01*
X116693075Y-4753009D01*
X116693077Y-4753013D01*
X116738021Y-4847238D01*
X116787378Y-4950718D01*
X116918471Y-5133154D01*
X117079799Y-5289492D01*
X117266262Y-5414790D01*
X117471967Y-5505088D01*
X117477418Y-5506397D01*
X117477422Y-5506398D01*
X117684954Y-5556222D01*
X117690411Y-5557532D01*
X117774475Y-5562379D01*
X117909083Y-5570140D01*
X117909086Y-5570140D01*
X117914690Y-5570463D01*
X118137715Y-5543475D01*
X118352435Y-5477418D01*
X118357415Y-5474848D01*
X118357419Y-5474846D01*
X118547081Y-5376954D01*
X118547082Y-5376954D01*
X118552064Y-5374382D01*
X118730292Y-5237623D01*
X118881485Y-5071464D01*
X118921455Y-5007747D01*
X118997885Y-4885905D01*
X119000864Y-4881156D01*
X119084656Y-4672717D01*
X119130213Y-4452733D01*
X119133500Y-4395725D01*
X119133500Y-3150501D01*
X119130813Y-3120387D01*
X119125222Y-3057743D01*
X119118617Y-2983738D01*
X119059337Y-2767049D01*
X118962622Y-2564282D01*
X118831529Y-2381846D01*
X118720207Y-2273967D01*
X118674229Y-2229411D01*
X118674226Y-2229409D01*
X118670201Y-2225508D01*
X118483738Y-2100210D01*
X118278033Y-2009912D01*
X118272582Y-2008603D01*
X118272578Y-2008602D01*
X118065046Y-1958778D01*
X118065045Y-1958778D01*
X118059589Y-1957468D01*
X117975525Y-1952621D01*
X117840917Y-1944860D01*
X117840914Y-1944860D01*
X117835310Y-1944537D01*
X117612285Y-1971525D01*
X117397565Y-2037582D01*
X117392585Y-2040152D01*
X117392581Y-2040154D01*
X117267142Y-2104898D01*
X117197936Y-2140618D01*
X117193489Y-2144031D01*
X117193488Y-2144031D01*
X117179922Y-2154440D01*
X117019708Y-2277377D01*
X116868515Y-2443536D01*
X116865537Y-2448283D01*
X116865535Y-2448286D01*
X116814057Y-2530350D01*
X116749136Y-2633844D01*
X116665344Y-2842283D01*
X116619787Y-3062267D01*
X116616500Y-3119275D01*
X108145557Y-3119275D01*
X108160616Y-3000900D01*
X108160616Y-3000896D01*
X108161014Y-2997770D01*
X108161382Y-2983738D01*
X108163348Y-2908639D01*
X108163431Y-2905479D01*
X108159655Y-2854664D01*
X108144407Y-2649479D01*
X108144406Y-2649475D01*
X108144061Y-2644827D01*
X108140502Y-2629095D01*
X108087408Y-2394459D01*
X108086377Y-2389902D01*
X108025022Y-2232126D01*
X107993340Y-2150655D01*
X107993339Y-2150652D01*
X107991647Y-2146302D01*
X107988399Y-2140618D01*
X107928566Y-2035933D01*
X107861951Y-1919381D01*
X107700138Y-1714122D01*
X107509763Y-1535036D01*
X107317923Y-1401951D01*
X107298851Y-1388720D01*
X107298848Y-1388718D01*
X107295009Y-1386055D01*
X107290816Y-1383987D01*
X107064781Y-1272519D01*
X107064778Y-1272518D01*
X107060593Y-1270454D01*
X107014449Y-1255683D01*
X106993577Y-1249002D01*
X106934797Y-1209184D01*
X106906875Y-1143909D01*
X106918676Y-1073900D01*
X106966454Y-1021385D01*
X107031990Y-1003000D01*
X142110061Y-1003000D01*
X142178182Y-1023002D01*
G37*
%TD.AperFunction*%
M02*
