%TF.GenerationSoftware,KiCad,Pcbnew,(5.99.0-12253-gc8b2e69332)*%
%TF.CreationDate,2021-11-11T06:41:10-05:00*%
%TF.ProjectId,980Daughterboard-USB-Mini,39383044-6175-4676-9874-6572626f6172,rev?*%
%TF.SameCoordinates,Original*%
%TF.FileFunction,Legend,Top*%
%TF.FilePolarity,Positive*%
%FSLAX46Y46*%
G04 Gerber Fmt 4.6, Leading zero omitted, Abs format (unit mm)*
G04 Created by KiCad (PCBNEW (5.99.0-12253-gc8b2e69332)) date 2021-11-11 06:41:10*
%MOMM*%
%LPD*%
G01*
G04 APERTURE LIST*
%ADD10C,0.150000*%
G04 APERTURE END LIST*
D10*
X120055952Y-14067380D02*
X120055952Y-14781666D01*
X120008333Y-14924523D01*
X119913095Y-15019761D01*
X119770238Y-15067380D01*
X119675000Y-15067380D01*
X121008333Y-15067380D02*
X120532142Y-15067380D01*
X120532142Y-14067380D01*
X121913095Y-14972142D02*
X121865476Y-15019761D01*
X121722619Y-15067380D01*
X121627380Y-15067380D01*
X121484523Y-15019761D01*
X121389285Y-14924523D01*
X121341666Y-14829285D01*
X121294047Y-14638809D01*
X121294047Y-14495952D01*
X121341666Y-14305476D01*
X121389285Y-14210238D01*
X121484523Y-14115000D01*
X121627380Y-14067380D01*
X121722619Y-14067380D01*
X121865476Y-14115000D01*
X121913095Y-14162619D01*
X122627380Y-14067380D02*
X122627380Y-14781666D01*
X122579761Y-14924523D01*
X122484523Y-15019761D01*
X122341666Y-15067380D01*
X122246428Y-15067380D01*
X123579761Y-15067380D02*
X123103571Y-15067380D01*
X123103571Y-14067380D01*
X124484523Y-14972142D02*
X124436904Y-15019761D01*
X124294047Y-15067380D01*
X124198809Y-15067380D01*
X124055952Y-15019761D01*
X123960714Y-14924523D01*
X123913095Y-14829285D01*
X123865476Y-14638809D01*
X123865476Y-14495952D01*
X123913095Y-14305476D01*
X123960714Y-14210238D01*
X124055952Y-14115000D01*
X124198809Y-14067380D01*
X124294047Y-14067380D01*
X124436904Y-14115000D01*
X124484523Y-14162619D01*
X125198809Y-14067380D02*
X125198809Y-14781666D01*
X125151190Y-14924523D01*
X125055952Y-15019761D01*
X124913095Y-15067380D01*
X124817857Y-15067380D01*
X126151190Y-15067380D02*
X125675000Y-15067380D01*
X125675000Y-14067380D01*
X127055952Y-14972142D02*
X127008333Y-15019761D01*
X126865476Y-15067380D01*
X126770238Y-15067380D01*
X126627380Y-15019761D01*
X126532142Y-14924523D01*
X126484523Y-14829285D01*
X126436904Y-14638809D01*
X126436904Y-14495952D01*
X126484523Y-14305476D01*
X126532142Y-14210238D01*
X126627380Y-14115000D01*
X126770238Y-14067380D01*
X126865476Y-14067380D01*
X127008333Y-14115000D01*
X127055952Y-14162619D01*
X127770238Y-14067380D02*
X127770238Y-14781666D01*
X127722619Y-14924523D01*
X127627380Y-15019761D01*
X127484523Y-15067380D01*
X127389285Y-15067380D01*
X128722619Y-15067380D02*
X128246428Y-15067380D01*
X128246428Y-14067380D01*
X129627380Y-14972142D02*
X129579761Y-15019761D01*
X129436904Y-15067380D01*
X129341666Y-15067380D01*
X129198809Y-15019761D01*
X129103571Y-14924523D01*
X129055952Y-14829285D01*
X129008333Y-14638809D01*
X129008333Y-14495952D01*
X129055952Y-14305476D01*
X129103571Y-14210238D01*
X129198809Y-14115000D01*
X129341666Y-14067380D01*
X129436904Y-14067380D01*
X129579761Y-14115000D01*
X129627380Y-14162619D01*
M02*
