M48
; DRILL file {KiCad (5.99.0-9785-ga9f86c6f3d)} date 09/01/21 12:36:33
; FORMAT={-:-/ absolute / inch / decimal}
; #@! TF.CreationDate,2021-09-01T12:36:33-04:00
; #@! TF.GenerationSoftware,Kicad,Pcbnew,(5.99.0-9785-ga9f86c6f3d)
; #@! TF.FileFunction,NonPlated,1,2,NPTH
FMAT,2
INCH
; #@! TA.AperFunction,ComponentDrill,NonPlated,NPTH
T1C0.0670
; #@! TA.AperFunction,ComponentDrill,NonPlated,NPTH
T2C0.0689
; #@! TA.AperFunction,ComponentDrill,NonPlated,NPTH
T3C0.0787
; #@! TA.AperFunction,ComponentDrill,NonPlated,NPTH
T4C0.1200
; #@! TA.AperFunction,ComponentDrill,NonPlated,NPTH
T5C0.1570
%
G90
G05
T1
; not plated pad hole
X0.2687Y-3.7195
X0.2687Y-4.4695
X0.269Y-2.9695
X0.3627Y-4.4695
X0.6687Y-3.7195
X0.6687Y-4.4695
X0.669Y-2.9695
X0.7627Y-4.4695
X1.1125Y-4.4695
X1.2056Y-4.4695
X1.487Y-4.4695
X1.5125Y-4.4695
X1.6056Y-4.4695
X1.887Y-4.4695
X1.9563Y-4.4695
X2.1426Y-4.4695
X2.3562Y-4.4695
X2.5426Y-4.4695
X4.6741Y-4.4695
X4.7687Y-4.4695
X4.9552Y-4.4695
X5.0741Y-4.4695
X5.1688Y-4.4695
X5.3552Y-4.4695
X7.4875Y-4.4695
X7.8619Y-4.4695
X7.8875Y-4.4695
X8.2375Y-4.4695
X8.2619Y-4.4695
X8.6375Y-4.4695
X8.9875Y-4.4695
X9.0812Y-4.4695
X9.3875Y-4.4695
X9.4812Y-4.4695
X10.5813Y-2.5945
X10.9813Y-2.5945
T2
X0.175Y-0.375
X0.175Y-1.4695
X0.3625Y-2.2195
X0.4562Y-2.9695
X0.575Y-0.375
X0.575Y-1.4695
X0.6437Y-3.7195
X0.7625Y-2.2195
X0.8562Y-2.9695
X0.925Y-1.4695
X1.0437Y-3.7195
X1.1125Y-3.7195
X1.3Y-2.2195
X1.325Y-1.4695
X1.4875Y-2.9695
X1.5125Y-3.7195
X1.675Y-0.375
X1.675Y-1.4695
X1.7Y-2.2195
X1.8625Y-3.7195
X1.8875Y-2.9695
X2.05Y-2.2195
X2.075Y-0.375
X2.075Y-1.4695
X2.2375Y-2.9695
X2.2625Y-3.7195
X2.425Y-0.375
X2.425Y-1.4695
X2.45Y-2.2195
X2.6125Y-3.7195
X2.6375Y-2.9695
X2.8Y-2.2195
X2.825Y-0.375
X2.825Y-1.4695
X2.9875Y-2.9695
X3.0125Y-3.7195
X3.175Y-0.375
X3.175Y-1.4695
X3.2Y-2.2195
X3.3625Y-3.7195
X3.3875Y-2.9695
X3.55Y-2.2195
X3.575Y-0.375
X3.575Y-1.4695
X3.7375Y-2.9695
X3.7625Y-3.7195
X3.925Y-0.375
X3.925Y-1.4695
X3.95Y-2.2195
X4.1125Y-3.7195
X4.1375Y-2.9695
X4.3Y-2.2195
X4.325Y-0.375
X4.325Y-1.4695
X4.4875Y-2.9695
X4.5125Y-3.7195
X4.675Y-1.4695
X4.7Y-2.2195
X4.8625Y-3.7195
X4.8875Y-2.9695
X5.05Y-0.375
X5.05Y-2.2195
X5.075Y-1.4695
X5.2375Y-2.9695
X5.2625Y-3.7195
X5.425Y-1.4695
X5.45Y-0.375
X5.45Y-2.2195
X5.6125Y-3.7195
X5.6375Y-2.9695
X5.8Y-0.375
X5.8Y-2.2195
X5.825Y-1.4695
X5.9875Y-2.9695
X6.0125Y-3.7195
X6.175Y-1.4695
X6.2Y-0.375
X6.2Y-2.2195
X6.3625Y-3.7195
X6.3875Y-2.9695
X6.55Y-0.375
X6.55Y-2.2195
X6.575Y-1.4695
X6.7375Y-2.9695
X6.7625Y-3.7195
X6.925Y-1.4695
X6.95Y-0.375
X6.95Y-2.2195
X7.1125Y-3.7195
X7.1375Y-2.9695
X7.3Y-0.375
X7.3Y-2.2195
X7.325Y-1.4695
X7.4875Y-2.9695
X7.5125Y-3.7195
X7.675Y-1.4695
X7.7Y-0.375
X7.7Y-2.2195
X7.8625Y-3.7195
X7.8875Y-2.9695
X8.05Y-2.2195
X8.075Y-1.4695
X8.2375Y-2.9695
X8.2625Y-3.7195
X8.425Y-0.375
X8.425Y-1.4695
X8.45Y-2.2195
X8.6125Y-3.7195
X8.6375Y-2.9695
X8.8Y-2.2195
X8.825Y-0.375
X8.825Y-1.4695
X8.9875Y-2.9695
X9.0125Y-3.7195
X9.175Y-0.375
X9.175Y-1.4695
X9.2Y-2.2195
X9.3875Y-2.9695
X9.55Y-2.2195
X9.575Y-0.375
X9.575Y-1.4695
X9.6437Y-3.7195
X9.7375Y-2.9695
X9.925Y-0.375
X9.95Y-2.2195
X10.0437Y-3.7195
X10.1219Y-4.6663
X10.1375Y-2.9695
X10.2062Y-2.9695
X10.3Y-1.4695
X10.325Y-0.375
X10.4875Y-2.2195
X10.5219Y-4.6663
X10.6062Y-2.9695
X10.675Y-0.375
X10.7Y-1.4695
X10.8719Y-3.9163
X10.8719Y-4.6663
X10.8875Y-2.2195
X11.075Y-0.375
X11.2719Y-3.9163
X11.2719Y-4.6663
X11.6219Y-4.6663
X11.8285Y-0.375
X11.8285Y-1.4695
X11.8285Y-2.2195
X11.8285Y-2.9695
X11.8285Y-3.7195
X12.0219Y-4.6663
X12.2285Y-0.375
X12.2285Y-1.4695
X12.2285Y-2.2195
X12.2285Y-2.9695
X12.2285Y-3.7195
X12.5785Y-0.375
X12.5785Y-1.4695
X12.5785Y-2.2195
X12.5785Y-2.9695
X12.5785Y-3.7195
X12.5785Y-4.4695
X12.9785Y-0.375
X12.9785Y-1.4695
X12.9785Y-2.2195
X12.9785Y-2.9695
X12.9785Y-3.7195
X12.9785Y-4.4695
X13.3285Y-0.375
X13.3285Y-1.4695
X13.3285Y-2.2195
X13.3285Y-2.9695
X13.3285Y-3.7195
X13.3285Y-4.4695
X13.7285Y-0.375
X13.7285Y-1.4695
X13.7285Y-2.2195
X13.7285Y-2.9695
X13.7285Y-3.7195
X13.7285Y-4.4695
X14.0785Y-0.375
X14.0785Y-1.4695
X14.2785Y-2.3945
X14.2785Y-2.7945
X14.2785Y-3.8945
X14.2785Y-4.2945
X14.4785Y-0.375
X14.4785Y-1.4695
T3
X6.8638Y-4.4646
X7.2018Y-4.4646
T4
X0.3737Y-3.4445
X1.3137Y-3.4445
X2.6229Y-4.1945
X2.9987Y-4.1945
X3.1852Y-4.1945
X6.9387Y-4.1945
X7.1252Y-4.1945
X7.1254Y-4.1945
X9.9362Y-2.6945
X10.03Y-1.1945
X10.8763Y-2.6945
X10.97Y-1.1945
X11.0563Y-2.1245
X11.0563Y-3.0645
X14.5535Y-2.1245
X14.5535Y-3.0645
X14.5535Y-3.6245
X14.5535Y-4.5645
T5
X0.3737Y-4.0445
X0.375Y-0.375
X0.375Y-1.4695
X0.4687Y-3.7195
X0.4688Y-4.4695
X0.469Y-2.9695
X0.5625Y-2.2195
X0.5627Y-4.4695
X0.6562Y-2.9695
X0.8438Y-3.7195
X1.125Y-1.4695
X1.3125Y-4.4695
X1.3125Y-3.7195
X1.3137Y-4.0445
X1.4056Y-4.4695
X1.5Y-2.2195
X1.687Y-4.4695
X1.6875Y-2.9695
X1.875Y-0.375
X1.875Y-1.4695
X2.0625Y-3.7195
X2.1562Y-4.4695
X2.25Y-2.2195
X2.3426Y-4.4695
X2.4375Y-2.9695
X2.6229Y-4.7945
X2.625Y-0.375
X2.625Y-1.4695
X2.8125Y-3.7195
X2.9987Y-4.7945
X3.0Y-2.2195
X3.1852Y-4.7945
X3.1875Y-2.9695
X3.375Y-0.375
X3.375Y-1.4695
X3.5625Y-3.7195
X3.75Y-2.2195
X3.9375Y-2.9695
X4.125Y-0.375
X4.125Y-1.4695
X4.3125Y-3.7195
X4.5Y-2.2195
X4.6875Y-2.9695
X4.8741Y-4.4695
X4.875Y-1.4695
X4.9688Y-4.4695
X5.0625Y-3.7195
X5.1552Y-4.4695
X5.25Y-0.375
X5.25Y-2.2195
X5.4375Y-2.9695
X5.625Y-1.4695
X5.8125Y-3.7195
X6.0Y-0.375
X6.0Y-2.2195
X6.1875Y-2.9695
X6.375Y-1.4695
X6.5625Y-3.7195
X6.75Y-0.375
X6.75Y-2.2195
X6.9375Y-2.9695
X6.9387Y-4.7945
X7.125Y-1.4695
X7.1252Y-4.7945
X7.1254Y-4.7945
X7.3125Y-3.7195
X7.5Y-0.375
X7.5Y-2.2195
X7.6875Y-2.9695
X7.6875Y-4.4695
X7.875Y-1.4695
X8.0619Y-4.4695
X8.0625Y-3.7195
X8.25Y-2.2195
X8.4375Y-2.9695
X8.4375Y-4.4695
X8.625Y-0.375
X8.625Y-1.4695
X8.8125Y-3.7195
X9.0Y-2.2195
X9.1875Y-2.9695
X9.1875Y-4.4695
X9.2812Y-4.4695
X9.375Y-0.375
X9.375Y-1.4695
X9.75Y-2.2195
X9.8438Y-3.7195
X9.9362Y-3.2945
X9.9375Y-2.9695
X10.03Y-1.7945
X10.125Y-0.375
X10.3219Y-4.6663
X10.4062Y-2.9695
X10.4563Y-2.1245
X10.4563Y-3.0645
X10.5Y-1.4695
X10.6875Y-2.2195
X10.7813Y-2.5945
X10.875Y-0.375
X10.8763Y-3.2945
X10.97Y-1.7945
X11.0719Y-3.9163
X11.0719Y-4.6663
X11.8219Y-4.6663
X12.0285Y-0.375
X12.0285Y-1.4695
X12.0285Y-2.2195
X12.0285Y-2.9695
X12.0285Y-3.7195
X12.7785Y-0.375
X12.7785Y-1.4695
X12.7785Y-2.2195
X12.7785Y-2.9695
X12.7785Y-3.7195
X12.7785Y-4.4695
X13.5285Y-0.375
X13.5285Y-1.4695
X13.5285Y-2.2195
X13.5285Y-2.9695
X13.5285Y-3.7195
X13.5285Y-4.4695
X13.9535Y-2.1245
X13.9535Y-3.0645
X13.9535Y-3.6245
X13.9535Y-4.5645
X14.2785Y-0.375
X14.2785Y-1.4695
X14.2785Y-2.5945
X14.2785Y-4.0945
T3
; not plated pad hole
G00X0.1537Y-4.4997
M15
G01X0.1537Y-4.6375
M16
G05
G00X0.3412Y-2.9997
M15
G01X0.3412Y-3.1375
M16
G05
G00X0.6901Y-0.543
M15
G01X0.6901Y-0.4052
M16
G05
G00X1.9349Y-2.2497
M15
G01X1.9349Y-2.3875
M16
G05
G00X3.8099Y-0.4052
M15
G01X3.8099Y-0.543
M16
G05
G00X4.9349Y-2.2497
M15
G01X4.9349Y-2.3875
M16
G05
G00X7.1849Y-0.4052
M15
G01X7.1849Y-0.543
M16
G05
G00X7.3724Y-4.4997
M15
G01X7.3724Y-4.6375
M16
G05
G00X8.6849Y-2.2497
M15
G01X8.6849Y-2.3875
M16
G05
G00X8.9662Y-4.4997
M15
G01X8.9662Y-4.6375
M16
G05
G00X11.5107Y-4.6965
M15
G01X11.5107Y-4.8343
M16
G05
G00X13.2135Y-4.4997
M15
G01X13.2135Y-4.6375
M16
G05
G00X13.9635Y-0.4052
M15
G01X13.9635Y-0.543
M16
G05
G00X13.9635Y-1.4997
M15
G01X13.9635Y-1.6375
M16
G05
T0
M30
