%TF.GenerationSoftware,KiCad,Pcbnew,(5.99.0-9785-ga9f86c6f3d)*%
%TF.CreationDate,2021-09-01T12:36:29-04:00*%
%TF.ProjectId,nt980.dk,6e743938-302e-4646-9b2e-6b696361645f,rev?*%
%TF.SameCoordinates,Original*%
%TF.FileFunction,AssemblyDrawing,Bot*%
%FSLAX46Y46*%
G04 Gerber Fmt 4.6, Leading zero omitted, Abs format (unit mm)*
G04 Created by KiCad (PCBNEW (5.99.0-9785-ga9f86c6f3d)) date 2021-09-01 12:36:29*
%MOMM*%
%LPD*%
G01*
G04 APERTURE LIST*
%ADD10C,0.125000*%
%ADD11C,0.075000*%
%ADD12C,0.150000*%
%ADD13C,0.030000*%
%ADD14C,0.080000*%
%ADD15C,0.100000*%
G04 APERTURE END LIST*
D10*
X275593921Y-42266059D02*
X275617731Y-42289868D01*
X275689159Y-42313678D01*
X275736778Y-42313678D01*
X275808207Y-42289868D01*
X275855826Y-42242249D01*
X275879636Y-42194630D01*
X275903445Y-42099392D01*
X275903445Y-42027964D01*
X275879636Y-41932726D01*
X275855826Y-41885107D01*
X275808207Y-41837488D01*
X275736778Y-41813678D01*
X275689159Y-41813678D01*
X275617731Y-41837488D01*
X275593921Y-41861297D01*
X275117731Y-42313678D02*
X275403445Y-42313678D01*
X275260588Y-42313678D02*
X275260588Y-41813678D01*
X275308207Y-41885107D01*
X275355826Y-41932726D01*
X275403445Y-41956535D01*
X274808207Y-41813678D02*
X274760588Y-41813678D01*
X274712969Y-41837488D01*
X274689159Y-41861297D01*
X274665350Y-41908916D01*
X274641540Y-42004154D01*
X274641540Y-42123202D01*
X274665350Y-42218440D01*
X274689159Y-42266059D01*
X274712969Y-42289868D01*
X274760588Y-42313678D01*
X274808207Y-42313678D01*
X274855826Y-42289868D01*
X274879636Y-42266059D01*
X274903445Y-42218440D01*
X274927255Y-42123202D01*
X274927255Y-42004154D01*
X274903445Y-41908916D01*
X274879636Y-41861297D01*
X274855826Y-41837488D01*
X274808207Y-41813678D01*
X274474874Y-41813678D02*
X274165350Y-41813678D01*
X274332017Y-42004154D01*
X274260588Y-42004154D01*
X274212969Y-42027964D01*
X274189159Y-42051773D01*
X274165350Y-42099392D01*
X274165350Y-42218440D01*
X274189159Y-42266059D01*
X274212969Y-42289868D01*
X274260588Y-42313678D01*
X274403445Y-42313678D01*
X274451064Y-42289868D01*
X274474874Y-42266059D01*
X297620502Y-47028563D02*
X297644312Y-47052372D01*
X297715740Y-47076182D01*
X297763359Y-47076182D01*
X297834788Y-47052372D01*
X297882407Y-47004753D01*
X297906217Y-46957134D01*
X297930026Y-46861896D01*
X297930026Y-46790468D01*
X297906217Y-46695230D01*
X297882407Y-46647611D01*
X297834788Y-46599992D01*
X297763359Y-46576182D01*
X297715740Y-46576182D01*
X297644312Y-46599992D01*
X297620502Y-46623801D01*
X297144312Y-47076182D02*
X297430026Y-47076182D01*
X297287169Y-47076182D02*
X297287169Y-46576182D01*
X297334788Y-46647611D01*
X297382407Y-46695230D01*
X297430026Y-46719039D01*
X296834788Y-46576182D02*
X296787169Y-46576182D01*
X296739550Y-46599992D01*
X296715740Y-46623801D01*
X296691931Y-46671420D01*
X296668121Y-46766658D01*
X296668121Y-46885706D01*
X296691931Y-46980944D01*
X296715740Y-47028563D01*
X296739550Y-47052372D01*
X296787169Y-47076182D01*
X296834788Y-47076182D01*
X296882407Y-47052372D01*
X296906217Y-47028563D01*
X296930026Y-46980944D01*
X296953836Y-46885706D01*
X296953836Y-46766658D01*
X296930026Y-46671420D01*
X296906217Y-46623801D01*
X296882407Y-46599992D01*
X296834788Y-46576182D01*
X296239550Y-46742849D02*
X296239550Y-47076182D01*
X296358598Y-46552372D02*
X296477645Y-46909515D01*
X296168121Y-46909515D01*
X290476758Y-25001982D02*
X290500568Y-25025791D01*
X290571996Y-25049601D01*
X290619615Y-25049601D01*
X290691044Y-25025791D01*
X290738663Y-24978172D01*
X290762473Y-24930553D01*
X290786282Y-24835315D01*
X290786282Y-24763887D01*
X290762473Y-24668649D01*
X290738663Y-24621030D01*
X290691044Y-24573411D01*
X290619615Y-24549601D01*
X290571996Y-24549601D01*
X290500568Y-24573411D01*
X290476758Y-24597220D01*
X290000568Y-25049601D02*
X290286282Y-25049601D01*
X290143425Y-25049601D02*
X290143425Y-24549601D01*
X290191044Y-24621030D01*
X290238663Y-24668649D01*
X290286282Y-24692458D01*
X289691044Y-24549601D02*
X289643425Y-24549601D01*
X289595806Y-24573411D01*
X289571996Y-24597220D01*
X289548187Y-24644839D01*
X289524377Y-24740077D01*
X289524377Y-24859125D01*
X289548187Y-24954363D01*
X289571996Y-25001982D01*
X289595806Y-25025791D01*
X289643425Y-25049601D01*
X289691044Y-25049601D01*
X289738663Y-25025791D01*
X289762473Y-25001982D01*
X289786282Y-24954363D01*
X289810092Y-24859125D01*
X289810092Y-24740077D01*
X289786282Y-24644839D01*
X289762473Y-24597220D01*
X289738663Y-24573411D01*
X289691044Y-24549601D01*
X289071996Y-24549601D02*
X289310092Y-24549601D01*
X289333901Y-24787696D01*
X289310092Y-24763887D01*
X289262473Y-24740077D01*
X289143425Y-24740077D01*
X289095806Y-24763887D01*
X289071996Y-24787696D01*
X289048187Y-24835315D01*
X289048187Y-24954363D01*
X289071996Y-25001982D01*
X289095806Y-25025791D01*
X289143425Y-25049601D01*
X289262473Y-25049601D01*
X289310092Y-25025791D01*
X289333901Y-25001982D01*
X277975173Y-26192608D02*
X277998983Y-26216417D01*
X278070411Y-26240227D01*
X278118030Y-26240227D01*
X278189459Y-26216417D01*
X278237078Y-26168798D01*
X278260888Y-26121179D01*
X278284697Y-26025941D01*
X278284697Y-25954513D01*
X278260888Y-25859275D01*
X278237078Y-25811656D01*
X278189459Y-25764037D01*
X278118030Y-25740227D01*
X278070411Y-25740227D01*
X277998983Y-25764037D01*
X277975173Y-25787846D01*
X277498983Y-26240227D02*
X277784697Y-26240227D01*
X277641840Y-26240227D02*
X277641840Y-25740227D01*
X277689459Y-25811656D01*
X277737078Y-25859275D01*
X277784697Y-25883084D01*
X277189459Y-25740227D02*
X277141840Y-25740227D01*
X277094221Y-25764037D01*
X277070411Y-25787846D01*
X277046602Y-25835465D01*
X277022792Y-25930703D01*
X277022792Y-26049751D01*
X277046602Y-26144989D01*
X277070411Y-26192608D01*
X277094221Y-26216417D01*
X277141840Y-26240227D01*
X277189459Y-26240227D01*
X277237078Y-26216417D01*
X277260888Y-26192608D01*
X277284697Y-26144989D01*
X277308507Y-26049751D01*
X277308507Y-25930703D01*
X277284697Y-25835465D01*
X277260888Y-25787846D01*
X277237078Y-25764037D01*
X277189459Y-25740227D01*
X276856126Y-25740227D02*
X276522792Y-25740227D01*
X276737078Y-26240227D01*
D11*
X254399379Y-25634622D02*
X254566046Y-25634622D01*
X254566046Y-25896527D02*
X254566046Y-25396527D01*
X254327951Y-25396527D01*
X253875570Y-25896527D02*
X254161284Y-25896527D01*
X254018427Y-25896527D02*
X254018427Y-25396527D01*
X254066046Y-25467956D01*
X254113665Y-25515575D01*
X254161284Y-25539384D01*
D12*
X290327380Y-4166666D02*
X291041666Y-4166666D01*
X291184523Y-4119047D01*
X291279761Y-4023809D01*
X291327380Y-3880952D01*
X291327380Y-3785714D01*
X290422619Y-4595238D02*
X290375000Y-4642857D01*
X290327380Y-4738095D01*
X290327380Y-4976190D01*
X290375000Y-5071428D01*
X290422619Y-5119047D01*
X290517857Y-5166666D01*
X290613095Y-5166666D01*
X290755952Y-5119047D01*
X291327380Y-4547619D01*
X291327380Y-5166666D01*
D11*
X284523616Y-22668349D02*
X284690283Y-22430254D01*
X284809331Y-22668349D02*
X284809331Y-22168349D01*
X284618854Y-22168349D01*
X284571235Y-22192159D01*
X284547426Y-22215968D01*
X284523616Y-22263587D01*
X284523616Y-22335016D01*
X284547426Y-22382635D01*
X284571235Y-22406444D01*
X284618854Y-22430254D01*
X284809331Y-22430254D01*
X284047426Y-22668349D02*
X284333140Y-22668349D01*
X284190283Y-22668349D02*
X284190283Y-22168349D01*
X284237902Y-22239778D01*
X284285521Y-22287397D01*
X284333140Y-22311206D01*
X283737902Y-22168349D02*
X283690283Y-22168349D01*
X283642664Y-22192159D01*
X283618854Y-22215968D01*
X283595045Y-22263587D01*
X283571235Y-22358825D01*
X283571235Y-22477873D01*
X283595045Y-22573111D01*
X283618854Y-22620730D01*
X283642664Y-22644539D01*
X283690283Y-22668349D01*
X283737902Y-22668349D01*
X283785521Y-22644539D01*
X283809331Y-22620730D01*
X283833140Y-22573111D01*
X283856950Y-22477873D01*
X283856950Y-22358825D01*
X283833140Y-22263587D01*
X283809331Y-22215968D01*
X283785521Y-22192159D01*
X283737902Y-22168349D01*
X283142664Y-22335016D02*
X283142664Y-22668349D01*
X283261712Y-22144539D02*
X283380759Y-22501682D01*
X283071235Y-22501682D01*
D12*
X266747693Y-21110213D02*
X267081026Y-20634023D01*
X267319121Y-21110213D02*
X267319121Y-20110213D01*
X266938169Y-20110213D01*
X266842931Y-20157833D01*
X266795312Y-20205452D01*
X266747693Y-20300690D01*
X266747693Y-20443547D01*
X266795312Y-20538785D01*
X266842931Y-20586404D01*
X266938169Y-20634023D01*
X267319121Y-20634023D01*
X265938169Y-21062594D02*
X266033407Y-21110213D01*
X266223883Y-21110213D01*
X266319121Y-21062594D01*
X266366740Y-20967356D01*
X266366740Y-20586404D01*
X266319121Y-20491166D01*
X266223883Y-20443547D01*
X266033407Y-20443547D01*
X265938169Y-20491166D01*
X265890550Y-20586404D01*
X265890550Y-20681642D01*
X266366740Y-20776880D01*
X265509598Y-21062594D02*
X265414359Y-21110213D01*
X265223883Y-21110213D01*
X265128645Y-21062594D01*
X265081026Y-20967356D01*
X265081026Y-20919737D01*
X265128645Y-20824499D01*
X265223883Y-20776880D01*
X265366740Y-20776880D01*
X265461978Y-20729261D01*
X265509598Y-20634023D01*
X265509598Y-20586404D01*
X265461978Y-20491166D01*
X265366740Y-20443547D01*
X265223883Y-20443547D01*
X265128645Y-20491166D01*
X264271502Y-21062594D02*
X264366740Y-21110213D01*
X264557217Y-21110213D01*
X264652455Y-21062594D01*
X264700074Y-20967356D01*
X264700074Y-20586404D01*
X264652455Y-20491166D01*
X264557217Y-20443547D01*
X264366740Y-20443547D01*
X264271502Y-20491166D01*
X264223883Y-20586404D01*
X264223883Y-20681642D01*
X264700074Y-20776880D01*
X263938169Y-20443547D02*
X263557217Y-20443547D01*
X263795312Y-20110213D02*
X263795312Y-20967356D01*
X263747693Y-21062594D01*
X263652455Y-21110213D01*
X263557217Y-21110213D01*
X266842931Y-28562594D02*
X266700074Y-28610213D01*
X266461978Y-28610213D01*
X266366740Y-28562594D01*
X266319121Y-28514975D01*
X266271502Y-28419737D01*
X266271502Y-28324499D01*
X266319121Y-28229261D01*
X266366740Y-28181642D01*
X266461978Y-28134023D01*
X266652455Y-28086404D01*
X266747693Y-28038785D01*
X266795312Y-27991166D01*
X266842931Y-27895928D01*
X266842931Y-27800690D01*
X266795312Y-27705452D01*
X266747693Y-27657833D01*
X266652455Y-27610213D01*
X266414359Y-27610213D01*
X266271502Y-27657833D01*
X265938169Y-27610213D02*
X265700074Y-28610213D01*
X265509598Y-27895928D01*
X265319121Y-28610213D01*
X265081026Y-27610213D01*
X264176264Y-28610213D02*
X264747693Y-28610213D01*
X264461978Y-28610213D02*
X264461978Y-27610213D01*
X264557217Y-27753071D01*
X264652455Y-27848309D01*
X264747693Y-27895928D01*
X244252380Y-18309523D02*
X245061904Y-18309523D01*
X245157142Y-18357142D01*
X245204761Y-18404761D01*
X245252380Y-18500000D01*
X245252380Y-18690476D01*
X245204761Y-18785714D01*
X245157142Y-18833333D01*
X245061904Y-18880952D01*
X244252380Y-18880952D01*
X245204761Y-19309523D02*
X245252380Y-19452380D01*
X245252380Y-19690476D01*
X245204761Y-19785714D01*
X245157142Y-19833333D01*
X245061904Y-19880952D01*
X244966666Y-19880952D01*
X244871428Y-19833333D01*
X244823809Y-19785714D01*
X244776190Y-19690476D01*
X244728571Y-19500000D01*
X244680952Y-19404761D01*
X244633333Y-19357142D01*
X244538095Y-19309523D01*
X244442857Y-19309523D01*
X244347619Y-19357142D01*
X244300000Y-19404761D01*
X244252380Y-19500000D01*
X244252380Y-19738095D01*
X244300000Y-19880952D01*
X244728571Y-20642857D02*
X244776190Y-20785714D01*
X244823809Y-20833333D01*
X244919047Y-20880952D01*
X245061904Y-20880952D01*
X245157142Y-20833333D01*
X245204761Y-20785714D01*
X245252380Y-20690476D01*
X245252380Y-20309523D01*
X244252380Y-20309523D01*
X244252380Y-20642857D01*
X244300000Y-20738095D01*
X244347619Y-20785714D01*
X244442857Y-20833333D01*
X244538095Y-20833333D01*
X244633333Y-20785714D01*
X244680952Y-20738095D01*
X244728571Y-20642857D01*
X244728571Y-20309523D01*
X245252380Y-21785714D02*
X245252380Y-21309523D01*
X244252380Y-21309523D01*
X245157142Y-22690476D02*
X245204761Y-22642857D01*
X245252380Y-22500000D01*
X245252380Y-22404761D01*
X245204761Y-22261904D01*
X245109523Y-22166666D01*
X245014285Y-22119047D01*
X244823809Y-22071428D01*
X244680952Y-22071428D01*
X244490476Y-22119047D01*
X244395238Y-22166666D01*
X244300000Y-22261904D01*
X244252380Y-22404761D01*
X244252380Y-22500000D01*
X244300000Y-22642857D01*
X244347619Y-22690476D01*
X244252380Y-23547619D02*
X244252380Y-23357142D01*
X244300000Y-23261904D01*
X244347619Y-23214285D01*
X244490476Y-23119047D01*
X244680952Y-23071428D01*
X245061904Y-23071428D01*
X245157142Y-23119047D01*
X245204761Y-23166666D01*
X245252380Y-23261904D01*
X245252380Y-23452380D01*
X245204761Y-23547619D01*
X245157142Y-23595238D01*
X245061904Y-23642857D01*
X244823809Y-23642857D01*
X244728571Y-23595238D01*
X244680952Y-23547619D01*
X244633333Y-23452380D01*
X244633333Y-23261904D01*
X244680952Y-23166666D01*
X244728571Y-23119047D01*
X244823809Y-23071428D01*
X244871428Y-24071428D02*
X244871428Y-24833333D01*
X244347619Y-25261904D02*
X244300000Y-25309523D01*
X244252380Y-25404761D01*
X244252380Y-25642857D01*
X244300000Y-25738095D01*
X244347619Y-25785714D01*
X244442857Y-25833333D01*
X244538095Y-25833333D01*
X244680952Y-25785714D01*
X245252380Y-25214285D01*
X245252380Y-25833333D01*
X245204761Y-26214285D02*
X245252380Y-26357142D01*
X245252380Y-26595238D01*
X245204761Y-26690476D01*
X245157142Y-26738095D01*
X245061904Y-26785714D01*
X244966666Y-26785714D01*
X244871428Y-26738095D01*
X244823809Y-26690476D01*
X244776190Y-26595238D01*
X244728571Y-26404761D01*
X244680952Y-26309523D01*
X244633333Y-26261904D01*
X244538095Y-26214285D01*
X244442857Y-26214285D01*
X244347619Y-26261904D01*
X244300000Y-26309523D01*
X244252380Y-26404761D01*
X244252380Y-26642857D01*
X244300000Y-26785714D01*
X245157142Y-27785714D02*
X245204761Y-27738095D01*
X245252380Y-27595238D01*
X245252380Y-27500000D01*
X245204761Y-27357142D01*
X245109523Y-27261904D01*
X245014285Y-27214285D01*
X244823809Y-27166666D01*
X244680952Y-27166666D01*
X244490476Y-27214285D01*
X244395238Y-27261904D01*
X244300000Y-27357142D01*
X244252380Y-27500000D01*
X244252380Y-27595238D01*
X244300000Y-27738095D01*
X244347619Y-27785714D01*
X244252380Y-28642857D02*
X244252380Y-28452380D01*
X244300000Y-28357142D01*
X244347619Y-28309523D01*
X244490476Y-28214285D01*
X244680952Y-28166666D01*
X245061904Y-28166666D01*
X245157142Y-28214285D01*
X245204761Y-28261904D01*
X245252380Y-28357142D01*
X245252380Y-28547619D01*
X245204761Y-28642857D01*
X245157142Y-28690476D01*
X245061904Y-28738095D01*
X244823809Y-28738095D01*
X244728571Y-28690476D01*
X244680952Y-28642857D01*
X244633333Y-28547619D01*
X244633333Y-28357142D01*
X244680952Y-28261904D01*
X244728571Y-28214285D01*
X244823809Y-28166666D01*
D11*
X247426190Y-23119047D02*
X247830952Y-23119047D01*
X247878571Y-23142857D01*
X247902380Y-23166666D01*
X247926190Y-23214285D01*
X247926190Y-23309523D01*
X247902380Y-23357142D01*
X247878571Y-23380952D01*
X247830952Y-23404761D01*
X247426190Y-23404761D01*
X247473809Y-23619047D02*
X247450000Y-23642857D01*
X247426190Y-23690476D01*
X247426190Y-23809523D01*
X247450000Y-23857142D01*
X247473809Y-23880952D01*
X247521428Y-23904761D01*
X247569047Y-23904761D01*
X247640476Y-23880952D01*
X247926190Y-23595238D01*
X247926190Y-23904761D01*
X282737689Y-49457418D02*
X282904356Y-49219323D01*
X283023404Y-49457418D02*
X283023404Y-48957418D01*
X282832927Y-48957418D01*
X282785308Y-48981228D01*
X282761499Y-49005037D01*
X282737689Y-49052656D01*
X282737689Y-49124085D01*
X282761499Y-49171704D01*
X282785308Y-49195513D01*
X282832927Y-49219323D01*
X283023404Y-49219323D01*
X282261499Y-49457418D02*
X282547213Y-49457418D01*
X282404356Y-49457418D02*
X282404356Y-48957418D01*
X282451975Y-49028847D01*
X282499594Y-49076466D01*
X282547213Y-49100275D01*
X281951975Y-48957418D02*
X281904356Y-48957418D01*
X281856737Y-48981228D01*
X281832927Y-49005037D01*
X281809118Y-49052656D01*
X281785308Y-49147894D01*
X281785308Y-49266942D01*
X281809118Y-49362180D01*
X281832927Y-49409799D01*
X281856737Y-49433608D01*
X281904356Y-49457418D01*
X281951975Y-49457418D01*
X281999594Y-49433608D01*
X282023404Y-49409799D01*
X282047213Y-49362180D01*
X282071023Y-49266942D01*
X282071023Y-49147894D01*
X282047213Y-49052656D01*
X282023404Y-49005037D01*
X281999594Y-48981228D01*
X281951975Y-48957418D01*
X281332927Y-48957418D02*
X281571023Y-48957418D01*
X281594832Y-49195513D01*
X281571023Y-49171704D01*
X281523404Y-49147894D01*
X281404356Y-49147894D01*
X281356737Y-49171704D01*
X281332927Y-49195513D01*
X281309118Y-49243132D01*
X281309118Y-49362180D01*
X281332927Y-49409799D01*
X281356737Y-49433608D01*
X281404356Y-49457418D01*
X281523404Y-49457418D01*
X281571023Y-49433608D01*
X281594832Y-49409799D01*
D10*
X160365379Y-10941891D02*
X159865379Y-10941891D01*
X159865379Y-11060939D01*
X159889189Y-11132367D01*
X159936808Y-11179986D01*
X159984427Y-11203796D01*
X160079665Y-11227605D01*
X160151093Y-11227605D01*
X160246331Y-11203796D01*
X160293950Y-11179986D01*
X160341569Y-11132367D01*
X160365379Y-11060939D01*
X160365379Y-10941891D01*
X160079665Y-11513319D02*
X160055855Y-11465700D01*
X160032046Y-11441891D01*
X159984427Y-11418081D01*
X159960617Y-11418081D01*
X159912998Y-11441891D01*
X159889189Y-11465700D01*
X159865379Y-11513319D01*
X159865379Y-11608558D01*
X159889189Y-11656177D01*
X159912998Y-11679986D01*
X159960617Y-11703796D01*
X159984427Y-11703796D01*
X160032046Y-11679986D01*
X160055855Y-11656177D01*
X160079665Y-11608558D01*
X160079665Y-11513319D01*
X160103474Y-11465700D01*
X160127284Y-11441891D01*
X160174903Y-11418081D01*
X160270141Y-11418081D01*
X160317760Y-11441891D01*
X160341569Y-11465700D01*
X160365379Y-11513319D01*
X160365379Y-11608558D01*
X160341569Y-11656177D01*
X160317760Y-11679986D01*
X160270141Y-11703796D01*
X160174903Y-11703796D01*
X160127284Y-11679986D01*
X160103474Y-11656177D01*
X160079665Y-11608558D01*
X317062137Y-10703796D02*
X316562137Y-10703796D01*
X316562137Y-10822843D01*
X316585947Y-10894272D01*
X316633566Y-10941891D01*
X316681185Y-10965700D01*
X316776423Y-10989510D01*
X316847851Y-10989510D01*
X316943089Y-10965700D01*
X316990708Y-10941891D01*
X317038327Y-10894272D01*
X317062137Y-10822843D01*
X317062137Y-10703796D01*
X317062137Y-11465700D02*
X317062137Y-11179986D01*
X317062137Y-11322843D02*
X316562137Y-11322843D01*
X316633566Y-11275224D01*
X316681185Y-11227605D01*
X316704994Y-11179986D01*
X316562137Y-11894272D02*
X316562137Y-11799034D01*
X316585947Y-11751415D01*
X316609756Y-11727605D01*
X316681185Y-11679986D01*
X316776423Y-11656177D01*
X316966899Y-11656177D01*
X317014518Y-11679986D01*
X317038327Y-11703796D01*
X317062137Y-11751415D01*
X317062137Y-11846653D01*
X317038327Y-11894272D01*
X317014518Y-11918081D01*
X316966899Y-11941891D01*
X316847851Y-11941891D01*
X316800232Y-11918081D01*
X316776423Y-11894272D01*
X316752613Y-11846653D01*
X316752613Y-11751415D01*
X316776423Y-11703796D01*
X316800232Y-11679986D01*
X316847851Y-11656177D01*
X106787217Y-57553796D02*
X106287217Y-57553796D01*
X106287217Y-57672843D01*
X106311027Y-57744272D01*
X106358646Y-57791891D01*
X106406265Y-57815700D01*
X106501503Y-57839510D01*
X106572931Y-57839510D01*
X106668169Y-57815700D01*
X106715788Y-57791891D01*
X106763407Y-57744272D01*
X106787217Y-57672843D01*
X106787217Y-57553796D01*
X106453884Y-58268081D02*
X106787217Y-58268081D01*
X106263407Y-58149034D02*
X106620550Y-58029986D01*
X106620550Y-58339510D01*
X106334836Y-58506177D02*
X106311027Y-58529986D01*
X106287217Y-58577605D01*
X106287217Y-58696653D01*
X106311027Y-58744272D01*
X106334836Y-58768081D01*
X106382455Y-58791891D01*
X106430074Y-58791891D01*
X106501503Y-58768081D01*
X106787217Y-58482367D01*
X106787217Y-58791891D01*
X112740339Y-38503796D02*
X112240339Y-38503796D01*
X112240339Y-38622843D01*
X112264149Y-38694272D01*
X112311768Y-38741891D01*
X112359387Y-38765700D01*
X112454625Y-38789510D01*
X112526053Y-38789510D01*
X112621291Y-38765700D01*
X112668910Y-38741891D01*
X112716529Y-38694272D01*
X112740339Y-38622843D01*
X112740339Y-38503796D01*
X112287958Y-38979986D02*
X112264149Y-39003796D01*
X112240339Y-39051415D01*
X112240339Y-39170462D01*
X112264149Y-39218081D01*
X112287958Y-39241891D01*
X112335577Y-39265700D01*
X112383196Y-39265700D01*
X112454625Y-39241891D01*
X112740339Y-38956177D01*
X112740339Y-39265700D01*
X112407006Y-39694272D02*
X112740339Y-39694272D01*
X112216529Y-39575224D02*
X112573672Y-39456177D01*
X112573672Y-39765700D01*
X17490259Y-38503796D02*
X16990259Y-38503796D01*
X16990259Y-38622843D01*
X17014069Y-38694272D01*
X17061688Y-38741891D01*
X17109307Y-38765700D01*
X17204545Y-38789510D01*
X17275973Y-38789510D01*
X17371211Y-38765700D01*
X17418830Y-38741891D01*
X17466449Y-38694272D01*
X17490259Y-38622843D01*
X17490259Y-38503796D01*
X17490259Y-39265700D02*
X17490259Y-38979986D01*
X17490259Y-39122843D02*
X16990259Y-39122843D01*
X17061688Y-39075224D01*
X17109307Y-39027605D01*
X17133116Y-38979986D01*
X17490259Y-39503796D02*
X17490259Y-39599034D01*
X17466449Y-39646653D01*
X17442640Y-39670462D01*
X17371211Y-39718081D01*
X17275973Y-39741891D01*
X17085497Y-39741891D01*
X17037878Y-39718081D01*
X17014069Y-39694272D01*
X16990259Y-39646653D01*
X16990259Y-39551415D01*
X17014069Y-39503796D01*
X17037878Y-39479986D01*
X17085497Y-39456177D01*
X17204545Y-39456177D01*
X17252164Y-39479986D01*
X17275973Y-39503796D01*
X17299783Y-39551415D01*
X17299783Y-39646653D01*
X17275973Y-39694272D01*
X17252164Y-39718081D01*
X17204545Y-39741891D01*
X246090451Y-10703796D02*
X245590451Y-10703796D01*
X245590451Y-10822843D01*
X245614261Y-10894272D01*
X245661880Y-10941891D01*
X245709499Y-10965700D01*
X245804737Y-10989510D01*
X245876165Y-10989510D01*
X245971403Y-10965700D01*
X246019022Y-10941891D01*
X246066641Y-10894272D01*
X246090451Y-10822843D01*
X246090451Y-10703796D01*
X246090451Y-11465700D02*
X246090451Y-11179986D01*
X246090451Y-11322843D02*
X245590451Y-11322843D01*
X245661880Y-11275224D01*
X245709499Y-11227605D01*
X245733308Y-11179986D01*
X245638070Y-11656177D02*
X245614261Y-11679986D01*
X245590451Y-11727605D01*
X245590451Y-11846653D01*
X245614261Y-11894272D01*
X245638070Y-11918081D01*
X245685689Y-11941891D01*
X245733308Y-11941891D01*
X245804737Y-11918081D01*
X246090451Y-11632367D01*
X246090451Y-11941891D01*
X103215327Y-57553796D02*
X102715327Y-57553796D01*
X102715327Y-57672843D01*
X102739137Y-57744272D01*
X102786756Y-57791891D01*
X102834375Y-57815700D01*
X102929613Y-57839510D01*
X103001041Y-57839510D01*
X103096279Y-57815700D01*
X103143898Y-57791891D01*
X103191517Y-57744272D01*
X103215327Y-57672843D01*
X103215327Y-57553796D01*
X102881994Y-58268081D02*
X103215327Y-58268081D01*
X102691517Y-58149034D02*
X103048660Y-58029986D01*
X103048660Y-58339510D01*
X103215327Y-58791891D02*
X103215327Y-58506177D01*
X103215327Y-58649034D02*
X102715327Y-58649034D01*
X102786756Y-58601415D01*
X102834375Y-58553796D01*
X102858184Y-58506177D01*
X249662325Y-38503748D02*
X249162325Y-38503748D01*
X249162325Y-38622795D01*
X249186135Y-38694224D01*
X249233754Y-38741843D01*
X249281373Y-38765652D01*
X249376611Y-38789462D01*
X249448039Y-38789462D01*
X249543277Y-38765652D01*
X249590896Y-38741843D01*
X249638515Y-38694224D01*
X249662325Y-38622795D01*
X249662325Y-38503748D01*
X249162325Y-38956129D02*
X249162325Y-39265652D01*
X249352801Y-39098986D01*
X249352801Y-39170414D01*
X249376611Y-39218033D01*
X249400420Y-39241843D01*
X249448039Y-39265652D01*
X249567087Y-39265652D01*
X249614706Y-39241843D01*
X249638515Y-39218033D01*
X249662325Y-39170414D01*
X249662325Y-39027557D01*
X249638515Y-38979938D01*
X249614706Y-38956129D01*
X249209944Y-39456129D02*
X249186135Y-39479938D01*
X249162325Y-39527557D01*
X249162325Y-39646605D01*
X249186135Y-39694224D01*
X249209944Y-39718033D01*
X249257563Y-39741843D01*
X249305182Y-39741843D01*
X249376611Y-39718033D01*
X249662325Y-39432319D01*
X249662325Y-39741843D01*
X336112153Y-10703796D02*
X335612153Y-10703796D01*
X335612153Y-10822843D01*
X335635963Y-10894272D01*
X335683582Y-10941891D01*
X335731201Y-10965700D01*
X335826439Y-10989510D01*
X335897867Y-10989510D01*
X335993105Y-10965700D01*
X336040724Y-10941891D01*
X336088343Y-10894272D01*
X336112153Y-10822843D01*
X336112153Y-10703796D01*
X336112153Y-11465700D02*
X336112153Y-11179986D01*
X336112153Y-11322843D02*
X335612153Y-11322843D01*
X335683582Y-11275224D01*
X335731201Y-11227605D01*
X335755010Y-11179986D01*
X335612153Y-11632367D02*
X335612153Y-11965700D01*
X336112153Y-11751415D01*
X65115295Y-57553796D02*
X64615295Y-57553796D01*
X64615295Y-57672843D01*
X64639105Y-57744272D01*
X64686724Y-57791891D01*
X64734343Y-57815700D01*
X64829581Y-57839510D01*
X64901009Y-57839510D01*
X64996247Y-57815700D01*
X65043866Y-57791891D01*
X65091485Y-57744272D01*
X65115295Y-57672843D01*
X65115295Y-57553796D01*
X64615295Y-58006177D02*
X64615295Y-58315700D01*
X64805771Y-58149034D01*
X64805771Y-58220462D01*
X64829581Y-58268081D01*
X64853390Y-58291891D01*
X64901009Y-58315700D01*
X65020057Y-58315700D01*
X65067676Y-58291891D01*
X65091485Y-58268081D01*
X65115295Y-58220462D01*
X65115295Y-58077605D01*
X65091485Y-58029986D01*
X65067676Y-58006177D01*
X65115295Y-58553796D02*
X65115295Y-58649034D01*
X65091485Y-58696653D01*
X65067676Y-58720462D01*
X64996247Y-58768081D01*
X64901009Y-58791891D01*
X64710533Y-58791891D01*
X64662914Y-58768081D01*
X64639105Y-58744272D01*
X64615295Y-58696653D01*
X64615295Y-58601415D01*
X64639105Y-58553796D01*
X64662914Y-58529986D01*
X64710533Y-58506177D01*
X64829581Y-58506177D01*
X64877200Y-58529986D01*
X64901009Y-58553796D01*
X64924819Y-58601415D01*
X64924819Y-58696653D01*
X64901009Y-58744272D01*
X64877200Y-58768081D01*
X64829581Y-58791891D01*
X169890387Y-38503796D02*
X169390387Y-38503796D01*
X169390387Y-38622843D01*
X169414197Y-38694272D01*
X169461816Y-38741891D01*
X169509435Y-38765700D01*
X169604673Y-38789510D01*
X169676101Y-38789510D01*
X169771339Y-38765700D01*
X169818958Y-38741891D01*
X169866577Y-38694272D01*
X169890387Y-38622843D01*
X169890387Y-38503796D01*
X169438006Y-38979986D02*
X169414197Y-39003796D01*
X169390387Y-39051415D01*
X169390387Y-39170462D01*
X169414197Y-39218081D01*
X169438006Y-39241891D01*
X169485625Y-39265700D01*
X169533244Y-39265700D01*
X169604673Y-39241891D01*
X169890387Y-38956177D01*
X169890387Y-39265700D01*
X169390387Y-39432367D02*
X169390387Y-39765700D01*
X169890387Y-39551415D01*
X30587153Y-57553796D02*
X30087153Y-57553796D01*
X30087153Y-57672843D01*
X30110963Y-57744272D01*
X30158582Y-57791891D01*
X30206201Y-57815700D01*
X30301439Y-57839510D01*
X30372867Y-57839510D01*
X30468105Y-57815700D01*
X30515724Y-57791891D01*
X30563343Y-57744272D01*
X30587153Y-57672843D01*
X30587153Y-57553796D01*
X30087153Y-58006177D02*
X30087153Y-58315700D01*
X30277629Y-58149034D01*
X30277629Y-58220462D01*
X30301439Y-58268081D01*
X30325248Y-58291891D01*
X30372867Y-58315700D01*
X30491915Y-58315700D01*
X30539534Y-58291891D01*
X30563343Y-58268081D01*
X30587153Y-58220462D01*
X30587153Y-58077605D01*
X30563343Y-58029986D01*
X30539534Y-58006177D01*
X30301439Y-58601415D02*
X30277629Y-58553796D01*
X30253820Y-58529986D01*
X30206201Y-58506177D01*
X30182391Y-58506177D01*
X30134772Y-58529986D01*
X30110963Y-58553796D01*
X30087153Y-58601415D01*
X30087153Y-58696653D01*
X30110963Y-58744272D01*
X30134772Y-58768081D01*
X30182391Y-58791891D01*
X30206201Y-58791891D01*
X30253820Y-58768081D01*
X30277629Y-58744272D01*
X30301439Y-58696653D01*
X30301439Y-58601415D01*
X30325248Y-58553796D01*
X30349058Y-58529986D01*
X30396677Y-58506177D01*
X30491915Y-58506177D01*
X30539534Y-58529986D01*
X30563343Y-58553796D01*
X30587153Y-58601415D01*
X30587153Y-58696653D01*
X30563343Y-58744272D01*
X30539534Y-58768081D01*
X30491915Y-58791891D01*
X30396677Y-58791891D01*
X30349058Y-58768081D01*
X30325248Y-58744272D01*
X30301439Y-58696653D01*
X317062137Y-38503796D02*
X316562137Y-38503796D01*
X316562137Y-38622843D01*
X316585947Y-38694272D01*
X316633566Y-38741891D01*
X316681185Y-38765700D01*
X316776423Y-38789510D01*
X316847851Y-38789510D01*
X316943089Y-38765700D01*
X316990708Y-38741891D01*
X317038327Y-38694272D01*
X317062137Y-38622843D01*
X317062137Y-38503796D01*
X316562137Y-38956177D02*
X316562137Y-39265700D01*
X316752613Y-39099034D01*
X316752613Y-39170462D01*
X316776423Y-39218081D01*
X316800232Y-39241891D01*
X316847851Y-39265700D01*
X316966899Y-39265700D01*
X317014518Y-39241891D01*
X317038327Y-39218081D01*
X317062137Y-39170462D01*
X317062137Y-39027605D01*
X317038327Y-38979986D01*
X317014518Y-38956177D01*
X316728804Y-39694272D02*
X317062137Y-39694272D01*
X316538327Y-39575224D02*
X316895470Y-39456177D01*
X316895470Y-39765700D01*
X227040435Y-38503796D02*
X226540435Y-38503796D01*
X226540435Y-38622843D01*
X226564245Y-38694272D01*
X226611864Y-38741891D01*
X226659483Y-38765700D01*
X226754721Y-38789510D01*
X226826149Y-38789510D01*
X226921387Y-38765700D01*
X226969006Y-38741891D01*
X227016625Y-38694272D01*
X227040435Y-38622843D01*
X227040435Y-38503796D01*
X226540435Y-38956177D02*
X226540435Y-39265700D01*
X226730911Y-39099034D01*
X226730911Y-39170462D01*
X226754721Y-39218081D01*
X226778530Y-39241891D01*
X226826149Y-39265700D01*
X226945197Y-39265700D01*
X226992816Y-39241891D01*
X227016625Y-39218081D01*
X227040435Y-39170462D01*
X227040435Y-39027605D01*
X227016625Y-38979986D01*
X226992816Y-38956177D01*
X226540435Y-39575224D02*
X226540435Y-39622843D01*
X226564245Y-39670462D01*
X226588054Y-39694272D01*
X226635673Y-39718081D01*
X226730911Y-39741891D01*
X226849959Y-39741891D01*
X226945197Y-39718081D01*
X226992816Y-39694272D01*
X227016625Y-39670462D01*
X227040435Y-39622843D01*
X227040435Y-39575224D01*
X227016625Y-39527605D01*
X226992816Y-39503796D01*
X226945197Y-39479986D01*
X226849959Y-39456177D01*
X226730911Y-39456177D01*
X226635673Y-39479986D01*
X226588054Y-39503796D01*
X226564245Y-39527605D01*
X226540435Y-39575224D01*
X55590291Y-38503796D02*
X55090291Y-38503796D01*
X55090291Y-38622843D01*
X55114101Y-38694272D01*
X55161720Y-38741891D01*
X55209339Y-38765700D01*
X55304577Y-38789510D01*
X55376005Y-38789510D01*
X55471243Y-38765700D01*
X55518862Y-38741891D01*
X55566481Y-38694272D01*
X55590291Y-38622843D01*
X55590291Y-38503796D01*
X55137910Y-38979986D02*
X55114101Y-39003796D01*
X55090291Y-39051415D01*
X55090291Y-39170462D01*
X55114101Y-39218081D01*
X55137910Y-39241891D01*
X55185529Y-39265700D01*
X55233148Y-39265700D01*
X55304577Y-39241891D01*
X55590291Y-38956177D01*
X55590291Y-39265700D01*
X55590291Y-39741891D02*
X55590291Y-39456177D01*
X55590291Y-39599034D02*
X55090291Y-39599034D01*
X55161720Y-39551415D01*
X55209339Y-39503796D01*
X55233148Y-39456177D01*
X313360828Y-10703796D02*
X312860828Y-10703796D01*
X312860828Y-10822843D01*
X312884638Y-10894272D01*
X312932257Y-10941891D01*
X312979876Y-10965700D01*
X313075114Y-10989510D01*
X313146542Y-10989510D01*
X313241780Y-10965700D01*
X313289399Y-10941891D01*
X313337018Y-10894272D01*
X313360828Y-10822843D01*
X313360828Y-10703796D01*
X313360828Y-11465700D02*
X313360828Y-11179986D01*
X313360828Y-11322843D02*
X312860828Y-11322843D01*
X312932257Y-11275224D01*
X312979876Y-11227605D01*
X313003685Y-11179986D01*
X312860828Y-11918081D02*
X312860828Y-11679986D01*
X313098923Y-11656177D01*
X313075114Y-11679986D01*
X313051304Y-11727605D01*
X313051304Y-11846653D01*
X313075114Y-11894272D01*
X313098923Y-11918081D01*
X313146542Y-11941891D01*
X313265590Y-11941891D01*
X313313209Y-11918081D01*
X313337018Y-11894272D01*
X313360828Y-11846653D01*
X313360828Y-11727605D01*
X313337018Y-11679986D01*
X313313209Y-11656177D01*
X150840371Y-38503796D02*
X150340371Y-38503796D01*
X150340371Y-38622843D01*
X150364181Y-38694272D01*
X150411800Y-38741891D01*
X150459419Y-38765700D01*
X150554657Y-38789510D01*
X150626085Y-38789510D01*
X150721323Y-38765700D01*
X150768942Y-38741891D01*
X150816561Y-38694272D01*
X150840371Y-38622843D01*
X150840371Y-38503796D01*
X150387990Y-38979986D02*
X150364181Y-39003796D01*
X150340371Y-39051415D01*
X150340371Y-39170462D01*
X150364181Y-39218081D01*
X150387990Y-39241891D01*
X150435609Y-39265700D01*
X150483228Y-39265700D01*
X150554657Y-39241891D01*
X150840371Y-38956177D01*
X150840371Y-39265700D01*
X150340371Y-39694272D02*
X150340371Y-39599034D01*
X150364181Y-39551415D01*
X150387990Y-39527605D01*
X150459419Y-39479986D01*
X150554657Y-39456177D01*
X150745133Y-39456177D01*
X150792752Y-39479986D01*
X150816561Y-39503796D01*
X150840371Y-39551415D01*
X150840371Y-39646653D01*
X150816561Y-39694272D01*
X150792752Y-39718081D01*
X150745133Y-39741891D01*
X150626085Y-39741891D01*
X150578466Y-39718081D01*
X150554657Y-39694272D01*
X150530847Y-39646653D01*
X150530847Y-39551415D01*
X150554657Y-39503796D01*
X150578466Y-39479986D01*
X150626085Y-39456177D01*
X93690323Y-38503796D02*
X93190323Y-38503796D01*
X93190323Y-38622843D01*
X93214133Y-38694272D01*
X93261752Y-38741891D01*
X93309371Y-38765700D01*
X93404609Y-38789510D01*
X93476037Y-38789510D01*
X93571275Y-38765700D01*
X93618894Y-38741891D01*
X93666513Y-38694272D01*
X93690323Y-38622843D01*
X93690323Y-38503796D01*
X93237942Y-38979986D02*
X93214133Y-39003796D01*
X93190323Y-39051415D01*
X93190323Y-39170462D01*
X93214133Y-39218081D01*
X93237942Y-39241891D01*
X93285561Y-39265700D01*
X93333180Y-39265700D01*
X93404609Y-39241891D01*
X93690323Y-38956177D01*
X93690323Y-39265700D01*
X93190323Y-39432367D02*
X93190323Y-39741891D01*
X93380799Y-39575224D01*
X93380799Y-39646653D01*
X93404609Y-39694272D01*
X93428418Y-39718081D01*
X93476037Y-39741891D01*
X93595085Y-39741891D01*
X93642704Y-39718081D01*
X93666513Y-39694272D01*
X93690323Y-39646653D01*
X93690323Y-39503796D01*
X93666513Y-39456177D01*
X93642704Y-39432367D01*
X249662337Y-10703796D02*
X249162337Y-10703796D01*
X249162337Y-10822843D01*
X249186147Y-10894272D01*
X249233766Y-10941891D01*
X249281385Y-10965700D01*
X249376623Y-10989510D01*
X249448051Y-10989510D01*
X249543289Y-10965700D01*
X249590908Y-10941891D01*
X249638527Y-10894272D01*
X249662337Y-10822843D01*
X249662337Y-10703796D01*
X249662337Y-11465700D02*
X249662337Y-11179986D01*
X249662337Y-11322843D02*
X249162337Y-11322843D01*
X249233766Y-11275224D01*
X249281385Y-11227605D01*
X249305194Y-11179986D01*
X249162337Y-11632367D02*
X249162337Y-11941891D01*
X249352813Y-11775224D01*
X249352813Y-11846653D01*
X249376623Y-11894272D01*
X249400432Y-11918081D01*
X249448051Y-11941891D01*
X249567099Y-11941891D01*
X249614718Y-11918081D01*
X249638527Y-11894272D01*
X249662337Y-11846653D01*
X249662337Y-11703796D01*
X249638527Y-11656177D01*
X249614718Y-11632367D01*
X141315363Y-10941891D02*
X140815363Y-10941891D01*
X140815363Y-11060939D01*
X140839173Y-11132367D01*
X140886792Y-11179986D01*
X140934411Y-11203796D01*
X141029649Y-11227605D01*
X141101077Y-11227605D01*
X141196315Y-11203796D01*
X141243934Y-11179986D01*
X141291553Y-11132367D01*
X141315363Y-11060939D01*
X141315363Y-10941891D01*
X140815363Y-11394272D02*
X140815363Y-11727605D01*
X141315363Y-11513319D01*
X188940403Y-38503796D02*
X188440403Y-38503796D01*
X188440403Y-38622843D01*
X188464213Y-38694272D01*
X188511832Y-38741891D01*
X188559451Y-38765700D01*
X188654689Y-38789510D01*
X188726117Y-38789510D01*
X188821355Y-38765700D01*
X188868974Y-38741891D01*
X188916593Y-38694272D01*
X188940403Y-38622843D01*
X188940403Y-38503796D01*
X188488022Y-38979986D02*
X188464213Y-39003796D01*
X188440403Y-39051415D01*
X188440403Y-39170462D01*
X188464213Y-39218081D01*
X188488022Y-39241891D01*
X188535641Y-39265700D01*
X188583260Y-39265700D01*
X188654689Y-39241891D01*
X188940403Y-38956177D01*
X188940403Y-39265700D01*
X188654689Y-39551415D02*
X188630879Y-39503796D01*
X188607070Y-39479986D01*
X188559451Y-39456177D01*
X188535641Y-39456177D01*
X188488022Y-39479986D01*
X188464213Y-39503796D01*
X188440403Y-39551415D01*
X188440403Y-39646653D01*
X188464213Y-39694272D01*
X188488022Y-39718081D01*
X188535641Y-39741891D01*
X188559451Y-39741891D01*
X188607070Y-39718081D01*
X188630879Y-39694272D01*
X188654689Y-39646653D01*
X188654689Y-39551415D01*
X188678498Y-39503796D01*
X188702308Y-39479986D01*
X188749927Y-39456177D01*
X188845165Y-39456177D01*
X188892784Y-39479986D01*
X188916593Y-39503796D01*
X188940403Y-39551415D01*
X188940403Y-39646653D01*
X188916593Y-39694272D01*
X188892784Y-39718081D01*
X188845165Y-39741891D01*
X188749927Y-39741891D01*
X188702308Y-39718081D01*
X188678498Y-39694272D01*
X188654689Y-39646653D01*
X74640307Y-38503796D02*
X74140307Y-38503796D01*
X74140307Y-38622843D01*
X74164117Y-38694272D01*
X74211736Y-38741891D01*
X74259355Y-38765700D01*
X74354593Y-38789510D01*
X74426021Y-38789510D01*
X74521259Y-38765700D01*
X74568878Y-38741891D01*
X74616497Y-38694272D01*
X74640307Y-38622843D01*
X74640307Y-38503796D01*
X74187926Y-38979986D02*
X74164117Y-39003796D01*
X74140307Y-39051415D01*
X74140307Y-39170462D01*
X74164117Y-39218081D01*
X74187926Y-39241891D01*
X74235545Y-39265700D01*
X74283164Y-39265700D01*
X74354593Y-39241891D01*
X74640307Y-38956177D01*
X74640307Y-39265700D01*
X74187926Y-39456177D02*
X74164117Y-39479986D01*
X74140307Y-39527605D01*
X74140307Y-39646653D01*
X74164117Y-39694272D01*
X74187926Y-39718081D01*
X74235545Y-39741891D01*
X74283164Y-39741891D01*
X74354593Y-39718081D01*
X74640307Y-39432367D01*
X74640307Y-39741891D01*
X284190483Y-10703796D02*
X283690483Y-10703796D01*
X283690483Y-10822843D01*
X283714293Y-10894272D01*
X283761912Y-10941891D01*
X283809531Y-10965700D01*
X283904769Y-10989510D01*
X283976197Y-10989510D01*
X284071435Y-10965700D01*
X284119054Y-10941891D01*
X284166673Y-10894272D01*
X284190483Y-10822843D01*
X284190483Y-10703796D01*
X284190483Y-11465700D02*
X284190483Y-11179986D01*
X284190483Y-11322843D02*
X283690483Y-11322843D01*
X283761912Y-11275224D01*
X283809531Y-11227605D01*
X283833340Y-11179986D01*
X283857150Y-11894272D02*
X284190483Y-11894272D01*
X283666673Y-11775224D02*
X284023816Y-11656177D01*
X284023816Y-11965700D01*
X313490259Y-38503796D02*
X312990259Y-38503796D01*
X312990259Y-38622843D01*
X313014069Y-38694272D01*
X313061688Y-38741891D01*
X313109307Y-38765700D01*
X313204545Y-38789510D01*
X313275973Y-38789510D01*
X313371211Y-38765700D01*
X313418830Y-38741891D01*
X313466449Y-38694272D01*
X313490259Y-38622843D01*
X313490259Y-38503796D01*
X312990259Y-38956177D02*
X312990259Y-39265700D01*
X313180735Y-39099034D01*
X313180735Y-39170462D01*
X313204545Y-39218081D01*
X313228354Y-39241891D01*
X313275973Y-39265700D01*
X313395021Y-39265700D01*
X313442640Y-39241891D01*
X313466449Y-39218081D01*
X313490259Y-39170462D01*
X313490259Y-39027605D01*
X313466449Y-38979986D01*
X313442640Y-38956177D01*
X312990259Y-39432367D02*
X312990259Y-39741891D01*
X313180735Y-39575224D01*
X313180735Y-39646653D01*
X313204545Y-39694272D01*
X313228354Y-39718081D01*
X313275973Y-39741891D01*
X313395021Y-39741891D01*
X313442640Y-39718081D01*
X313466449Y-39694272D01*
X313490259Y-39646653D01*
X313490259Y-39503796D01*
X313466449Y-39456177D01*
X313442640Y-39432367D01*
X207990419Y-38503796D02*
X207490419Y-38503796D01*
X207490419Y-38622843D01*
X207514229Y-38694272D01*
X207561848Y-38741891D01*
X207609467Y-38765700D01*
X207704705Y-38789510D01*
X207776133Y-38789510D01*
X207871371Y-38765700D01*
X207918990Y-38741891D01*
X207966609Y-38694272D01*
X207990419Y-38622843D01*
X207990419Y-38503796D01*
X207538038Y-38979986D02*
X207514229Y-39003796D01*
X207490419Y-39051415D01*
X207490419Y-39170462D01*
X207514229Y-39218081D01*
X207538038Y-39241891D01*
X207585657Y-39265700D01*
X207633276Y-39265700D01*
X207704705Y-39241891D01*
X207990419Y-38956177D01*
X207990419Y-39265700D01*
X207990419Y-39503796D02*
X207990419Y-39599034D01*
X207966609Y-39646653D01*
X207942800Y-39670462D01*
X207871371Y-39718081D01*
X207776133Y-39741891D01*
X207585657Y-39741891D01*
X207538038Y-39718081D01*
X207514229Y-39694272D01*
X207490419Y-39646653D01*
X207490419Y-39551415D01*
X207514229Y-39503796D01*
X207538038Y-39479986D01*
X207585657Y-39456177D01*
X207704705Y-39456177D01*
X207752324Y-39479986D01*
X207776133Y-39503796D01*
X207799943Y-39551415D01*
X207799943Y-39646653D01*
X207776133Y-39694272D01*
X207752324Y-39718081D01*
X207704705Y-39741891D01*
X22252759Y-57553796D02*
X21752759Y-57553796D01*
X21752759Y-57672843D01*
X21776569Y-57744272D01*
X21824188Y-57791891D01*
X21871807Y-57815700D01*
X21967045Y-57839510D01*
X22038473Y-57839510D01*
X22133711Y-57815700D01*
X22181330Y-57791891D01*
X22228949Y-57744272D01*
X22252759Y-57672843D01*
X22252759Y-57553796D01*
X21752759Y-58006177D02*
X21752759Y-58315700D01*
X21943235Y-58149034D01*
X21943235Y-58220462D01*
X21967045Y-58268081D01*
X21990854Y-58291891D01*
X22038473Y-58315700D01*
X22157521Y-58315700D01*
X22205140Y-58291891D01*
X22228949Y-58268081D01*
X22252759Y-58220462D01*
X22252759Y-58077605D01*
X22228949Y-58029986D01*
X22205140Y-58006177D01*
X21752759Y-58482367D02*
X21752759Y-58815700D01*
X22252759Y-58601415D01*
X246090441Y-38503748D02*
X245590441Y-38503748D01*
X245590441Y-38622795D01*
X245614251Y-38694224D01*
X245661870Y-38741843D01*
X245709489Y-38765652D01*
X245804727Y-38789462D01*
X245876155Y-38789462D01*
X245971393Y-38765652D01*
X246019012Y-38741843D01*
X246066631Y-38694224D01*
X246090441Y-38622795D01*
X246090441Y-38503748D01*
X245590441Y-38956129D02*
X245590441Y-39265652D01*
X245780917Y-39098986D01*
X245780917Y-39170414D01*
X245804727Y-39218033D01*
X245828536Y-39241843D01*
X245876155Y-39265652D01*
X245995203Y-39265652D01*
X246042822Y-39241843D01*
X246066631Y-39218033D01*
X246090441Y-39170414D01*
X246090441Y-39027557D01*
X246066631Y-38979938D01*
X246042822Y-38956129D01*
X246090441Y-39741843D02*
X246090441Y-39456129D01*
X246090441Y-39598986D02*
X245590441Y-39598986D01*
X245661870Y-39551367D01*
X245709489Y-39503748D01*
X245733298Y-39456129D01*
X131790355Y-38503796D02*
X131290355Y-38503796D01*
X131290355Y-38622843D01*
X131314165Y-38694272D01*
X131361784Y-38741891D01*
X131409403Y-38765700D01*
X131504641Y-38789510D01*
X131576069Y-38789510D01*
X131671307Y-38765700D01*
X131718926Y-38741891D01*
X131766545Y-38694272D01*
X131790355Y-38622843D01*
X131790355Y-38503796D01*
X131337974Y-38979986D02*
X131314165Y-39003796D01*
X131290355Y-39051415D01*
X131290355Y-39170462D01*
X131314165Y-39218081D01*
X131337974Y-39241891D01*
X131385593Y-39265700D01*
X131433212Y-39265700D01*
X131504641Y-39241891D01*
X131790355Y-38956177D01*
X131790355Y-39265700D01*
X131290355Y-39718081D02*
X131290355Y-39479986D01*
X131528450Y-39456177D01*
X131504641Y-39479986D01*
X131480831Y-39527605D01*
X131480831Y-39646653D01*
X131504641Y-39694272D01*
X131528450Y-39718081D01*
X131576069Y-39741891D01*
X131695117Y-39741891D01*
X131742736Y-39718081D01*
X131766545Y-39694272D01*
X131790355Y-39646653D01*
X131790355Y-39527605D01*
X131766545Y-39479986D01*
X131742736Y-39456177D01*
X227040435Y-10703796D02*
X226540435Y-10703796D01*
X226540435Y-10822843D01*
X226564245Y-10894272D01*
X226611864Y-10941891D01*
X226659483Y-10965700D01*
X226754721Y-10989510D01*
X226826149Y-10989510D01*
X226921387Y-10965700D01*
X226969006Y-10941891D01*
X227016625Y-10894272D01*
X227040435Y-10822843D01*
X227040435Y-10703796D01*
X227040435Y-11465700D02*
X227040435Y-11179986D01*
X227040435Y-11322843D02*
X226540435Y-11322843D01*
X226611864Y-11275224D01*
X226659483Y-11227605D01*
X226683292Y-11179986D01*
X227040435Y-11941891D02*
X227040435Y-11656177D01*
X227040435Y-11799034D02*
X226540435Y-11799034D01*
X226611864Y-11751415D01*
X226659483Y-11703796D01*
X226683292Y-11656177D01*
X36540275Y-38503796D02*
X36040275Y-38503796D01*
X36040275Y-38622843D01*
X36064085Y-38694272D01*
X36111704Y-38741891D01*
X36159323Y-38765700D01*
X36254561Y-38789510D01*
X36325989Y-38789510D01*
X36421227Y-38765700D01*
X36468846Y-38741891D01*
X36516465Y-38694272D01*
X36540275Y-38622843D01*
X36540275Y-38503796D01*
X36087894Y-38979986D02*
X36064085Y-39003796D01*
X36040275Y-39051415D01*
X36040275Y-39170462D01*
X36064085Y-39218081D01*
X36087894Y-39241891D01*
X36135513Y-39265700D01*
X36183132Y-39265700D01*
X36254561Y-39241891D01*
X36540275Y-38956177D01*
X36540275Y-39265700D01*
X36040275Y-39575224D02*
X36040275Y-39622843D01*
X36064085Y-39670462D01*
X36087894Y-39694272D01*
X36135513Y-39718081D01*
X36230751Y-39741891D01*
X36349799Y-39741891D01*
X36445037Y-39718081D01*
X36492656Y-39694272D01*
X36516465Y-39670462D01*
X36540275Y-39622843D01*
X36540275Y-39575224D01*
X36516465Y-39527605D01*
X36492656Y-39503796D01*
X36445037Y-39479986D01*
X36349799Y-39456177D01*
X36230751Y-39456177D01*
X36135513Y-39479986D01*
X36087894Y-39503796D01*
X36064085Y-39527605D01*
X36040275Y-39575224D01*
X163937265Y-10941891D02*
X163437265Y-10941891D01*
X163437265Y-11060939D01*
X163461075Y-11132367D01*
X163508694Y-11179986D01*
X163556313Y-11203796D01*
X163651551Y-11227605D01*
X163722979Y-11227605D01*
X163818217Y-11203796D01*
X163865836Y-11179986D01*
X163913455Y-11132367D01*
X163937265Y-11060939D01*
X163937265Y-10941891D01*
X163937265Y-11465700D02*
X163937265Y-11560939D01*
X163913455Y-11608558D01*
X163889646Y-11632367D01*
X163818217Y-11679986D01*
X163722979Y-11703796D01*
X163532503Y-11703796D01*
X163484884Y-11679986D01*
X163461075Y-11656177D01*
X163437265Y-11608558D01*
X163437265Y-11513319D01*
X163461075Y-11465700D01*
X163484884Y-11441891D01*
X163532503Y-11418081D01*
X163651551Y-11418081D01*
X163699170Y-11441891D01*
X163722979Y-11465700D01*
X163746789Y-11513319D01*
X163746789Y-11608558D01*
X163722979Y-11656177D01*
X163699170Y-11679986D01*
X163651551Y-11703796D01*
X332540275Y-10703796D02*
X332040275Y-10703796D01*
X332040275Y-10822843D01*
X332064085Y-10894272D01*
X332111704Y-10941891D01*
X332159323Y-10965700D01*
X332254561Y-10989510D01*
X332325989Y-10989510D01*
X332421227Y-10965700D01*
X332468846Y-10941891D01*
X332516465Y-10894272D01*
X332540275Y-10822843D01*
X332540275Y-10703796D01*
X332540275Y-11465700D02*
X332540275Y-11179986D01*
X332540275Y-11322843D02*
X332040275Y-11322843D01*
X332111704Y-11275224D01*
X332159323Y-11227605D01*
X332183132Y-11179986D01*
X332254561Y-11751415D02*
X332230751Y-11703796D01*
X332206942Y-11679986D01*
X332159323Y-11656177D01*
X332135513Y-11656177D01*
X332087894Y-11679986D01*
X332064085Y-11703796D01*
X332040275Y-11751415D01*
X332040275Y-11846653D01*
X332064085Y-11894272D01*
X332087894Y-11918081D01*
X332135513Y-11941891D01*
X332159323Y-11941891D01*
X332206942Y-11918081D01*
X332230751Y-11894272D01*
X332254561Y-11846653D01*
X332254561Y-11751415D01*
X332278370Y-11703796D01*
X332302180Y-11679986D01*
X332349799Y-11656177D01*
X332445037Y-11656177D01*
X332492656Y-11679986D01*
X332516465Y-11703796D01*
X332540275Y-11751415D01*
X332540275Y-11846653D01*
X332516465Y-11894272D01*
X332492656Y-11918081D01*
X332445037Y-11941891D01*
X332349799Y-11941891D01*
X332302180Y-11918081D01*
X332278370Y-11894272D01*
X332254561Y-11846653D01*
X336112153Y-38503796D02*
X335612153Y-38503796D01*
X335612153Y-38622843D01*
X335635963Y-38694272D01*
X335683582Y-38741891D01*
X335731201Y-38765700D01*
X335826439Y-38789510D01*
X335897867Y-38789510D01*
X335993105Y-38765700D01*
X336040724Y-38741891D01*
X336088343Y-38694272D01*
X336112153Y-38622843D01*
X336112153Y-38503796D01*
X335612153Y-38956177D02*
X335612153Y-39265700D01*
X335802629Y-39099034D01*
X335802629Y-39170462D01*
X335826439Y-39218081D01*
X335850248Y-39241891D01*
X335897867Y-39265700D01*
X336016915Y-39265700D01*
X336064534Y-39241891D01*
X336088343Y-39218081D01*
X336112153Y-39170462D01*
X336112153Y-39027605D01*
X336088343Y-38979986D01*
X336064534Y-38956177D01*
X335612153Y-39718081D02*
X335612153Y-39479986D01*
X335850248Y-39456177D01*
X335826439Y-39479986D01*
X335802629Y-39527605D01*
X335802629Y-39646653D01*
X335826439Y-39694272D01*
X335850248Y-39718081D01*
X335897867Y-39741891D01*
X336016915Y-39741891D01*
X336064534Y-39718081D01*
X336088343Y-39694272D01*
X336112153Y-39646653D01*
X336112153Y-39527605D01*
X336088343Y-39479986D01*
X336064534Y-39456177D01*
X317062121Y-114465700D02*
X316562121Y-114465700D01*
X316562121Y-114584748D01*
X316585931Y-114656177D01*
X316633550Y-114703796D01*
X316681169Y-114727605D01*
X316776407Y-114751415D01*
X316847835Y-114751415D01*
X316943073Y-114727605D01*
X316990692Y-114703796D01*
X317038311Y-114656177D01*
X317062121Y-114584748D01*
X317062121Y-114465700D01*
X317062121Y-115227605D02*
X317062121Y-114941891D01*
X317062121Y-115084748D02*
X316562121Y-115084748D01*
X316633550Y-115037129D01*
X316681169Y-114989510D01*
X316704978Y-114941891D01*
X316562121Y-115537129D02*
X316562121Y-115584748D01*
X316585931Y-115632367D01*
X316609740Y-115656177D01*
X316657359Y-115679986D01*
X316752597Y-115703796D01*
X316871645Y-115703796D01*
X316966883Y-115679986D01*
X317014502Y-115656177D01*
X317038311Y-115632367D01*
X317062121Y-115584748D01*
X317062121Y-115537129D01*
X317038311Y-115489510D01*
X317014502Y-115465700D01*
X316966883Y-115441891D01*
X316871645Y-115418081D01*
X316752597Y-115418081D01*
X316657359Y-115441891D01*
X316609740Y-115465700D01*
X316585931Y-115489510D01*
X316562121Y-115537129D01*
X316562121Y-116132367D02*
X316562121Y-116037129D01*
X316585931Y-115989510D01*
X316609740Y-115965700D01*
X316681169Y-115918081D01*
X316776407Y-115894272D01*
X316966883Y-115894272D01*
X317014502Y-115918081D01*
X317038311Y-115941891D01*
X317062121Y-115989510D01*
X317062121Y-116084748D01*
X317038311Y-116132367D01*
X317014502Y-116156177D01*
X316966883Y-116179986D01*
X316847835Y-116179986D01*
X316800216Y-116156177D01*
X316776407Y-116132367D01*
X316752597Y-116084748D01*
X316752597Y-115989510D01*
X316776407Y-115941891D01*
X316800216Y-115918081D01*
X316847835Y-115894272D01*
X89130690Y-114703796D02*
X88630690Y-114703796D01*
X88630690Y-114822843D01*
X88654500Y-114894272D01*
X88702119Y-114941891D01*
X88749738Y-114965700D01*
X88844976Y-114989510D01*
X88916404Y-114989510D01*
X89011642Y-114965700D01*
X89059261Y-114941891D01*
X89106880Y-114894272D01*
X89130690Y-114822843D01*
X89130690Y-114703796D01*
X89130690Y-115227605D02*
X89130690Y-115322843D01*
X89106880Y-115370462D01*
X89083071Y-115394272D01*
X89011642Y-115441891D01*
X88916404Y-115465700D01*
X88725928Y-115465700D01*
X88678309Y-115441891D01*
X88654500Y-115418081D01*
X88630690Y-115370462D01*
X88630690Y-115275224D01*
X88654500Y-115227605D01*
X88678309Y-115203796D01*
X88725928Y-115179986D01*
X88844976Y-115179986D01*
X88892595Y-115203796D01*
X88916404Y-115227605D01*
X88940214Y-115275224D01*
X88940214Y-115370462D01*
X88916404Y-115418081D01*
X88892595Y-115441891D01*
X88844976Y-115465700D01*
X88630690Y-115632367D02*
X88630690Y-115941891D01*
X88821166Y-115775224D01*
X88821166Y-115846653D01*
X88844976Y-115894272D01*
X88868785Y-115918081D01*
X88916404Y-115941891D01*
X89035452Y-115941891D01*
X89083071Y-115918081D01*
X89106880Y-115894272D01*
X89130690Y-115846653D01*
X89130690Y-115703796D01*
X89106880Y-115656177D01*
X89083071Y-115632367D01*
X22257759Y-114703796D02*
X21757759Y-114703796D01*
X21757759Y-114822843D01*
X21781569Y-114894272D01*
X21829188Y-114941891D01*
X21876807Y-114965700D01*
X21972045Y-114989510D01*
X22043473Y-114989510D01*
X22138711Y-114965700D01*
X22186330Y-114941891D01*
X22233949Y-114894272D01*
X22257759Y-114822843D01*
X22257759Y-114703796D01*
X22257759Y-115227605D02*
X22257759Y-115322843D01*
X22233949Y-115370462D01*
X22210140Y-115394272D01*
X22138711Y-115441891D01*
X22043473Y-115465700D01*
X21852997Y-115465700D01*
X21805378Y-115441891D01*
X21781569Y-115418081D01*
X21757759Y-115370462D01*
X21757759Y-115275224D01*
X21781569Y-115227605D01*
X21805378Y-115203796D01*
X21852997Y-115179986D01*
X21972045Y-115179986D01*
X22019664Y-115203796D01*
X22043473Y-115227605D01*
X22067283Y-115275224D01*
X22067283Y-115370462D01*
X22043473Y-115418081D01*
X22019664Y-115441891D01*
X21972045Y-115465700D01*
X22257759Y-115941891D02*
X22257759Y-115656177D01*
X22257759Y-115799034D02*
X21757759Y-115799034D01*
X21829188Y-115751415D01*
X21876807Y-115703796D01*
X21900616Y-115656177D01*
X308240291Y-119465700D02*
X307740291Y-119465700D01*
X307740291Y-119584748D01*
X307764101Y-119656177D01*
X307811720Y-119703796D01*
X307859339Y-119727605D01*
X307954577Y-119751415D01*
X308026005Y-119751415D01*
X308121243Y-119727605D01*
X308168862Y-119703796D01*
X308216481Y-119656177D01*
X308240291Y-119584748D01*
X308240291Y-119465700D01*
X308240291Y-120227605D02*
X308240291Y-119941891D01*
X308240291Y-120084748D02*
X307740291Y-120084748D01*
X307811720Y-120037129D01*
X307859339Y-119989510D01*
X307883148Y-119941891D01*
X307740291Y-120537129D02*
X307740291Y-120584748D01*
X307764101Y-120632367D01*
X307787910Y-120656177D01*
X307835529Y-120679986D01*
X307930767Y-120703796D01*
X308049815Y-120703796D01*
X308145053Y-120679986D01*
X308192672Y-120656177D01*
X308216481Y-120632367D01*
X308240291Y-120584748D01*
X308240291Y-120537129D01*
X308216481Y-120489510D01*
X308192672Y-120465700D01*
X308145053Y-120441891D01*
X308049815Y-120418081D01*
X307930767Y-120418081D01*
X307835529Y-120441891D01*
X307787910Y-120465700D01*
X307764101Y-120489510D01*
X307740291Y-120537129D01*
X307740291Y-121156177D02*
X307740291Y-120918081D01*
X307978386Y-120894272D01*
X307954577Y-120918081D01*
X307930767Y-120965700D01*
X307930767Y-121084748D01*
X307954577Y-121132367D01*
X307978386Y-121156177D01*
X308026005Y-121179986D01*
X308145053Y-121179986D01*
X308192672Y-121156177D01*
X308216481Y-121132367D01*
X308240291Y-121084748D01*
X308240291Y-120965700D01*
X308216481Y-120918081D01*
X308192672Y-120894272D01*
X332540275Y-95653828D02*
X332040275Y-95653828D01*
X332040275Y-95772875D01*
X332064085Y-95844304D01*
X332111704Y-95891923D01*
X332159323Y-95915732D01*
X332254561Y-95939542D01*
X332325989Y-95939542D01*
X332421227Y-95915732D01*
X332468846Y-95891923D01*
X332516465Y-95844304D01*
X332540275Y-95772875D01*
X332540275Y-95653828D01*
X332540275Y-96177637D02*
X332540275Y-96272875D01*
X332516465Y-96320494D01*
X332492656Y-96344304D01*
X332421227Y-96391923D01*
X332325989Y-96415732D01*
X332135513Y-96415732D01*
X332087894Y-96391923D01*
X332064085Y-96368113D01*
X332040275Y-96320494D01*
X332040275Y-96225256D01*
X332064085Y-96177637D01*
X332087894Y-96153828D01*
X332135513Y-96130018D01*
X332254561Y-96130018D01*
X332302180Y-96153828D01*
X332325989Y-96177637D01*
X332349799Y-96225256D01*
X332349799Y-96320494D01*
X332325989Y-96368113D01*
X332302180Y-96391923D01*
X332254561Y-96415732D01*
X332040275Y-96725256D02*
X332040275Y-96772875D01*
X332064085Y-96820494D01*
X332087894Y-96844304D01*
X332135513Y-96868113D01*
X332230751Y-96891923D01*
X332349799Y-96891923D01*
X332445037Y-96868113D01*
X332492656Y-96844304D01*
X332516465Y-96820494D01*
X332540275Y-96772875D01*
X332540275Y-96725256D01*
X332516465Y-96677637D01*
X332492656Y-96653828D01*
X332445037Y-96630018D01*
X332349799Y-96606209D01*
X332230751Y-96606209D01*
X332135513Y-96630018D01*
X332087894Y-96653828D01*
X332064085Y-96677637D01*
X332040275Y-96725256D01*
X25824621Y-114703796D02*
X25324621Y-114703796D01*
X25324621Y-114822843D01*
X25348431Y-114894272D01*
X25396050Y-114941891D01*
X25443669Y-114965700D01*
X25538907Y-114989510D01*
X25610335Y-114989510D01*
X25705573Y-114965700D01*
X25753192Y-114941891D01*
X25800811Y-114894272D01*
X25824621Y-114822843D01*
X25824621Y-114703796D01*
X25824621Y-115227605D02*
X25824621Y-115322843D01*
X25800811Y-115370462D01*
X25777002Y-115394272D01*
X25705573Y-115441891D01*
X25610335Y-115465700D01*
X25419859Y-115465700D01*
X25372240Y-115441891D01*
X25348431Y-115418081D01*
X25324621Y-115370462D01*
X25324621Y-115275224D01*
X25348431Y-115227605D01*
X25372240Y-115203796D01*
X25419859Y-115179986D01*
X25538907Y-115179986D01*
X25586526Y-115203796D01*
X25610335Y-115227605D01*
X25634145Y-115275224D01*
X25634145Y-115370462D01*
X25610335Y-115418081D01*
X25586526Y-115441891D01*
X25538907Y-115465700D01*
X25372240Y-115656177D02*
X25348431Y-115679986D01*
X25324621Y-115727605D01*
X25324621Y-115846653D01*
X25348431Y-115894272D01*
X25372240Y-115918081D01*
X25419859Y-115941891D01*
X25467478Y-115941891D01*
X25538907Y-115918081D01*
X25824621Y-115632367D01*
X25824621Y-115941891D01*
X336112137Y-95653796D02*
X335612137Y-95653796D01*
X335612137Y-95772843D01*
X335635947Y-95844272D01*
X335683566Y-95891891D01*
X335731185Y-95915700D01*
X335826423Y-95939510D01*
X335897851Y-95939510D01*
X335993089Y-95915700D01*
X336040708Y-95891891D01*
X336088327Y-95844272D01*
X336112137Y-95772843D01*
X336112137Y-95653796D01*
X335826423Y-96225224D02*
X335802613Y-96177605D01*
X335778804Y-96153796D01*
X335731185Y-96129986D01*
X335707375Y-96129986D01*
X335659756Y-96153796D01*
X335635947Y-96177605D01*
X335612137Y-96225224D01*
X335612137Y-96320462D01*
X335635947Y-96368081D01*
X335659756Y-96391891D01*
X335707375Y-96415700D01*
X335731185Y-96415700D01*
X335778804Y-96391891D01*
X335802613Y-96368081D01*
X335826423Y-96320462D01*
X335826423Y-96225224D01*
X335850232Y-96177605D01*
X335874042Y-96153796D01*
X335921661Y-96129986D01*
X336016899Y-96129986D01*
X336064518Y-96153796D01*
X336088327Y-96177605D01*
X336112137Y-96225224D01*
X336112137Y-96320462D01*
X336088327Y-96368081D01*
X336064518Y-96391891D01*
X336016899Y-96415700D01*
X335921661Y-96415700D01*
X335874042Y-96391891D01*
X335850232Y-96368081D01*
X335826423Y-96320462D01*
X336112137Y-96653796D02*
X336112137Y-96749034D01*
X336088327Y-96796653D01*
X336064518Y-96820462D01*
X335993089Y-96868081D01*
X335897851Y-96891891D01*
X335707375Y-96891891D01*
X335659756Y-96868081D01*
X335635947Y-96844272D01*
X335612137Y-96796653D01*
X335612137Y-96701415D01*
X335635947Y-96653796D01*
X335659756Y-96629986D01*
X335707375Y-96606177D01*
X335826423Y-96606177D01*
X335874042Y-96629986D01*
X335897851Y-96653796D01*
X335921661Y-96701415D01*
X335921661Y-96796653D01*
X335897851Y-96844272D01*
X335874042Y-96868081D01*
X335826423Y-96891891D01*
X222277759Y-114465700D02*
X221777759Y-114465700D01*
X221777759Y-114584748D01*
X221801569Y-114656177D01*
X221849188Y-114703796D01*
X221896807Y-114727605D01*
X221992045Y-114751415D01*
X222063473Y-114751415D01*
X222158711Y-114727605D01*
X222206330Y-114703796D01*
X222253949Y-114656177D01*
X222277759Y-114584748D01*
X222277759Y-114465700D01*
X222277759Y-115227605D02*
X222277759Y-114941891D01*
X222277759Y-115084748D02*
X221777759Y-115084748D01*
X221849188Y-115037129D01*
X221896807Y-114989510D01*
X221920616Y-114941891D01*
X221777759Y-115537129D02*
X221777759Y-115584748D01*
X221801569Y-115632367D01*
X221825378Y-115656177D01*
X221872997Y-115679986D01*
X221968235Y-115703796D01*
X222087283Y-115703796D01*
X222182521Y-115679986D01*
X222230140Y-115656177D01*
X222253949Y-115632367D01*
X222277759Y-115584748D01*
X222277759Y-115537129D01*
X222253949Y-115489510D01*
X222230140Y-115465700D01*
X222182521Y-115441891D01*
X222087283Y-115418081D01*
X221968235Y-115418081D01*
X221872997Y-115441891D01*
X221825378Y-115465700D01*
X221801569Y-115489510D01*
X221777759Y-115537129D01*
X222277759Y-116179986D02*
X222277759Y-115894272D01*
X222277759Y-116037129D02*
X221777759Y-116037129D01*
X221849188Y-115989510D01*
X221896807Y-115941891D01*
X221920616Y-115894272D01*
X116289621Y-114703796D02*
X115789621Y-114703796D01*
X115789621Y-114822843D01*
X115813431Y-114894272D01*
X115861050Y-114941891D01*
X115908669Y-114965700D01*
X116003907Y-114989510D01*
X116075335Y-114989510D01*
X116170573Y-114965700D01*
X116218192Y-114941891D01*
X116265811Y-114894272D01*
X116289621Y-114822843D01*
X116289621Y-114703796D01*
X116289621Y-115227605D02*
X116289621Y-115322843D01*
X116265811Y-115370462D01*
X116242002Y-115394272D01*
X116170573Y-115441891D01*
X116075335Y-115465700D01*
X115884859Y-115465700D01*
X115837240Y-115441891D01*
X115813431Y-115418081D01*
X115789621Y-115370462D01*
X115789621Y-115275224D01*
X115813431Y-115227605D01*
X115837240Y-115203796D01*
X115884859Y-115179986D01*
X116003907Y-115179986D01*
X116051526Y-115203796D01*
X116075335Y-115227605D01*
X116099145Y-115275224D01*
X116099145Y-115370462D01*
X116075335Y-115418081D01*
X116051526Y-115441891D01*
X116003907Y-115465700D01*
X115789621Y-115632367D02*
X115789621Y-115965700D01*
X116289621Y-115751415D01*
X313490259Y-95653828D02*
X312990259Y-95653828D01*
X312990259Y-95772875D01*
X313014069Y-95844304D01*
X313061688Y-95891923D01*
X313109307Y-95915732D01*
X313204545Y-95939542D01*
X313275973Y-95939542D01*
X313371211Y-95915732D01*
X313418830Y-95891923D01*
X313466449Y-95844304D01*
X313490259Y-95772875D01*
X313490259Y-95653828D01*
X313204545Y-96225256D02*
X313180735Y-96177637D01*
X313156926Y-96153828D01*
X313109307Y-96130018D01*
X313085497Y-96130018D01*
X313037878Y-96153828D01*
X313014069Y-96177637D01*
X312990259Y-96225256D01*
X312990259Y-96320494D01*
X313014069Y-96368113D01*
X313037878Y-96391923D01*
X313085497Y-96415732D01*
X313109307Y-96415732D01*
X313156926Y-96391923D01*
X313180735Y-96368113D01*
X313204545Y-96320494D01*
X313204545Y-96225256D01*
X313228354Y-96177637D01*
X313252164Y-96153828D01*
X313299783Y-96130018D01*
X313395021Y-96130018D01*
X313442640Y-96153828D01*
X313466449Y-96177637D01*
X313490259Y-96225256D01*
X313490259Y-96320494D01*
X313466449Y-96368113D01*
X313442640Y-96391923D01*
X313395021Y-96415732D01*
X313299783Y-96415732D01*
X313252164Y-96391923D01*
X313228354Y-96368113D01*
X313204545Y-96320494D01*
X312990259Y-96582399D02*
X312990259Y-96915732D01*
X313490259Y-96701447D01*
X231802935Y-95653828D02*
X231302935Y-95653828D01*
X231302935Y-95772875D01*
X231326745Y-95844304D01*
X231374364Y-95891923D01*
X231421983Y-95915732D01*
X231517221Y-95939542D01*
X231588649Y-95939542D01*
X231683887Y-95915732D01*
X231731506Y-95891923D01*
X231779125Y-95844304D01*
X231802935Y-95772875D01*
X231802935Y-95653828D01*
X231517221Y-96225256D02*
X231493411Y-96177637D01*
X231469602Y-96153828D01*
X231421983Y-96130018D01*
X231398173Y-96130018D01*
X231350554Y-96153828D01*
X231326745Y-96177637D01*
X231302935Y-96225256D01*
X231302935Y-96320494D01*
X231326745Y-96368113D01*
X231350554Y-96391923D01*
X231398173Y-96415732D01*
X231421983Y-96415732D01*
X231469602Y-96391923D01*
X231493411Y-96368113D01*
X231517221Y-96320494D01*
X231517221Y-96225256D01*
X231541030Y-96177637D01*
X231564840Y-96153828D01*
X231612459Y-96130018D01*
X231707697Y-96130018D01*
X231755316Y-96153828D01*
X231779125Y-96177637D01*
X231802935Y-96225256D01*
X231802935Y-96320494D01*
X231779125Y-96368113D01*
X231755316Y-96391923D01*
X231707697Y-96415732D01*
X231612459Y-96415732D01*
X231564840Y-96391923D01*
X231541030Y-96368113D01*
X231517221Y-96320494D01*
X231469602Y-96844304D02*
X231802935Y-96844304D01*
X231279125Y-96725256D02*
X231636268Y-96606209D01*
X231636268Y-96915732D01*
X174652887Y-95653828D02*
X174152887Y-95653828D01*
X174152887Y-95772875D01*
X174176697Y-95844304D01*
X174224316Y-95891923D01*
X174271935Y-95915732D01*
X174367173Y-95939542D01*
X174438601Y-95939542D01*
X174533839Y-95915732D01*
X174581458Y-95891923D01*
X174629077Y-95844304D01*
X174652887Y-95772875D01*
X174652887Y-95653828D01*
X174367173Y-96225256D02*
X174343363Y-96177637D01*
X174319554Y-96153828D01*
X174271935Y-96130018D01*
X174248125Y-96130018D01*
X174200506Y-96153828D01*
X174176697Y-96177637D01*
X174152887Y-96225256D01*
X174152887Y-96320494D01*
X174176697Y-96368113D01*
X174200506Y-96391923D01*
X174248125Y-96415732D01*
X174271935Y-96415732D01*
X174319554Y-96391923D01*
X174343363Y-96368113D01*
X174367173Y-96320494D01*
X174367173Y-96225256D01*
X174390982Y-96177637D01*
X174414792Y-96153828D01*
X174462411Y-96130018D01*
X174557649Y-96130018D01*
X174605268Y-96153828D01*
X174629077Y-96177637D01*
X174652887Y-96225256D01*
X174652887Y-96320494D01*
X174629077Y-96368113D01*
X174605268Y-96391923D01*
X174557649Y-96415732D01*
X174462411Y-96415732D01*
X174414792Y-96391923D01*
X174390982Y-96368113D01*
X174367173Y-96320494D01*
X174652887Y-96891923D02*
X174652887Y-96606209D01*
X174652887Y-96749066D02*
X174152887Y-96749066D01*
X174224316Y-96701447D01*
X174271935Y-96653828D01*
X174295744Y-96606209D01*
X136552855Y-95653828D02*
X136052855Y-95653828D01*
X136052855Y-95772875D01*
X136076665Y-95844304D01*
X136124284Y-95891923D01*
X136171903Y-95915732D01*
X136267141Y-95939542D01*
X136338569Y-95939542D01*
X136433807Y-95915732D01*
X136481426Y-95891923D01*
X136529045Y-95844304D01*
X136552855Y-95772875D01*
X136552855Y-95653828D01*
X136052855Y-96106209D02*
X136052855Y-96439542D01*
X136552855Y-96225256D01*
X136552855Y-96653828D02*
X136552855Y-96749066D01*
X136529045Y-96796685D01*
X136505236Y-96820494D01*
X136433807Y-96868113D01*
X136338569Y-96891923D01*
X136148093Y-96891923D01*
X136100474Y-96868113D01*
X136076665Y-96844304D01*
X136052855Y-96796685D01*
X136052855Y-96701447D01*
X136076665Y-96653828D01*
X136100474Y-96630018D01*
X136148093Y-96606209D01*
X136267141Y-96606209D01*
X136314760Y-96630018D01*
X136338569Y-96653828D01*
X136362379Y-96701447D01*
X136362379Y-96796685D01*
X136338569Y-96844304D01*
X136314760Y-96868113D01*
X136267141Y-96891923D01*
X117502839Y-95653828D02*
X117002839Y-95653828D01*
X117002839Y-95772875D01*
X117026649Y-95844304D01*
X117074268Y-95891923D01*
X117121887Y-95915732D01*
X117217125Y-95939542D01*
X117288553Y-95939542D01*
X117383791Y-95915732D01*
X117431410Y-95891923D01*
X117479029Y-95844304D01*
X117502839Y-95772875D01*
X117502839Y-95653828D01*
X117002839Y-96106209D02*
X117002839Y-96439542D01*
X117502839Y-96225256D01*
X117217125Y-96701447D02*
X117193315Y-96653828D01*
X117169506Y-96630018D01*
X117121887Y-96606209D01*
X117098077Y-96606209D01*
X117050458Y-96630018D01*
X117026649Y-96653828D01*
X117002839Y-96701447D01*
X117002839Y-96796685D01*
X117026649Y-96844304D01*
X117050458Y-96868113D01*
X117098077Y-96891923D01*
X117121887Y-96891923D01*
X117169506Y-96868113D01*
X117193315Y-96844304D01*
X117217125Y-96796685D01*
X117217125Y-96701447D01*
X117240934Y-96653828D01*
X117264744Y-96630018D01*
X117312363Y-96606209D01*
X117407601Y-96606209D01*
X117455220Y-96630018D01*
X117479029Y-96653828D01*
X117502839Y-96701447D01*
X117502839Y-96796685D01*
X117479029Y-96844304D01*
X117455220Y-96868113D01*
X117407601Y-96891923D01*
X117312363Y-96891923D01*
X117264744Y-96868113D01*
X117240934Y-96844304D01*
X117217125Y-96796685D01*
X60352791Y-95653828D02*
X59852791Y-95653828D01*
X59852791Y-95772875D01*
X59876601Y-95844304D01*
X59924220Y-95891923D01*
X59971839Y-95915732D01*
X60067077Y-95939542D01*
X60138505Y-95939542D01*
X60233743Y-95915732D01*
X60281362Y-95891923D01*
X60328981Y-95844304D01*
X60352791Y-95772875D01*
X60352791Y-95653828D01*
X59852791Y-96106209D02*
X59852791Y-96439542D01*
X60352791Y-96225256D01*
X59852791Y-96868113D02*
X59852791Y-96630018D01*
X60090886Y-96606209D01*
X60067077Y-96630018D01*
X60043267Y-96677637D01*
X60043267Y-96796685D01*
X60067077Y-96844304D01*
X60090886Y-96868113D01*
X60138505Y-96891923D01*
X60257553Y-96891923D01*
X60305172Y-96868113D01*
X60328981Y-96844304D01*
X60352791Y-96796685D01*
X60352791Y-96677637D01*
X60328981Y-96630018D01*
X60305172Y-96606209D01*
X317062137Y-76603812D02*
X316562137Y-76603812D01*
X316562137Y-76722859D01*
X316585947Y-76794288D01*
X316633566Y-76841907D01*
X316681185Y-76865716D01*
X316776423Y-76889526D01*
X316847851Y-76889526D01*
X316943089Y-76865716D01*
X316990708Y-76841907D01*
X317038327Y-76794288D01*
X317062137Y-76722859D01*
X317062137Y-76603812D01*
X316562137Y-77056193D02*
X316562137Y-77389526D01*
X317062137Y-77175240D01*
X316562137Y-77675240D02*
X316562137Y-77722859D01*
X316585947Y-77770478D01*
X316609756Y-77794288D01*
X316657375Y-77818097D01*
X316752613Y-77841907D01*
X316871661Y-77841907D01*
X316966899Y-77818097D01*
X317014518Y-77794288D01*
X317038327Y-77770478D01*
X317062137Y-77722859D01*
X317062137Y-77675240D01*
X317038327Y-77627621D01*
X317014518Y-77603812D01*
X316966899Y-77580002D01*
X316871661Y-77556193D01*
X316752613Y-77556193D01*
X316657375Y-77580002D01*
X316609756Y-77603812D01*
X316585947Y-77627621D01*
X316562137Y-77675240D01*
X107977831Y-76603812D02*
X107477831Y-76603812D01*
X107477831Y-76722859D01*
X107501641Y-76794288D01*
X107549260Y-76841907D01*
X107596879Y-76865716D01*
X107692117Y-76889526D01*
X107763545Y-76889526D01*
X107858783Y-76865716D01*
X107906402Y-76841907D01*
X107954021Y-76794288D01*
X107977831Y-76722859D01*
X107977831Y-76603812D01*
X107477831Y-77341907D02*
X107477831Y-77103812D01*
X107715926Y-77080002D01*
X107692117Y-77103812D01*
X107668307Y-77151431D01*
X107668307Y-77270478D01*
X107692117Y-77318097D01*
X107715926Y-77341907D01*
X107763545Y-77365716D01*
X107882593Y-77365716D01*
X107930212Y-77341907D01*
X107954021Y-77318097D01*
X107977831Y-77270478D01*
X107977831Y-77151431D01*
X107954021Y-77103812D01*
X107930212Y-77080002D01*
X107977831Y-77603812D02*
X107977831Y-77699050D01*
X107954021Y-77746669D01*
X107930212Y-77770478D01*
X107858783Y-77818097D01*
X107763545Y-77841907D01*
X107573069Y-77841907D01*
X107525450Y-77818097D01*
X107501641Y-77794288D01*
X107477831Y-77746669D01*
X107477831Y-77651431D01*
X107501641Y-77603812D01*
X107525450Y-77580002D01*
X107573069Y-77556193D01*
X107692117Y-77556193D01*
X107739736Y-77580002D01*
X107763545Y-77603812D01*
X107787355Y-77651431D01*
X107787355Y-77746669D01*
X107763545Y-77794288D01*
X107739736Y-77818097D01*
X107692117Y-77841907D01*
X222277927Y-76603812D02*
X221777927Y-76603812D01*
X221777927Y-76722859D01*
X221801737Y-76794288D01*
X221849356Y-76841907D01*
X221896975Y-76865716D01*
X221992213Y-76889526D01*
X222063641Y-76889526D01*
X222158879Y-76865716D01*
X222206498Y-76841907D01*
X222254117Y-76794288D01*
X222277927Y-76722859D01*
X222277927Y-76603812D01*
X221777927Y-77318097D02*
X221777927Y-77222859D01*
X221801737Y-77175240D01*
X221825546Y-77151431D01*
X221896975Y-77103812D01*
X221992213Y-77080002D01*
X222182689Y-77080002D01*
X222230308Y-77103812D01*
X222254117Y-77127621D01*
X222277927Y-77175240D01*
X222277927Y-77270478D01*
X222254117Y-77318097D01*
X222230308Y-77341907D01*
X222182689Y-77365716D01*
X222063641Y-77365716D01*
X222016022Y-77341907D01*
X221992213Y-77318097D01*
X221968403Y-77270478D01*
X221968403Y-77175240D01*
X221992213Y-77127621D01*
X222016022Y-77103812D01*
X222063641Y-77080002D01*
X221777927Y-77818097D02*
X221777927Y-77580002D01*
X222016022Y-77556193D01*
X221992213Y-77580002D01*
X221968403Y-77627621D01*
X221968403Y-77746669D01*
X221992213Y-77794288D01*
X222016022Y-77818097D01*
X222063641Y-77841907D01*
X222182689Y-77841907D01*
X222230308Y-77818097D01*
X222254117Y-77794288D01*
X222277927Y-77746669D01*
X222277927Y-77627621D01*
X222254117Y-77580002D01*
X222230308Y-77556193D01*
X203227911Y-76603812D02*
X202727911Y-76603812D01*
X202727911Y-76722859D01*
X202751721Y-76794288D01*
X202799340Y-76841907D01*
X202846959Y-76865716D01*
X202942197Y-76889526D01*
X203013625Y-76889526D01*
X203108863Y-76865716D01*
X203156482Y-76841907D01*
X203204101Y-76794288D01*
X203227911Y-76722859D01*
X203227911Y-76603812D01*
X202727911Y-77318097D02*
X202727911Y-77222859D01*
X202751721Y-77175240D01*
X202775530Y-77151431D01*
X202846959Y-77103812D01*
X202942197Y-77080002D01*
X203132673Y-77080002D01*
X203180292Y-77103812D01*
X203204101Y-77127621D01*
X203227911Y-77175240D01*
X203227911Y-77270478D01*
X203204101Y-77318097D01*
X203180292Y-77341907D01*
X203132673Y-77365716D01*
X203013625Y-77365716D01*
X202966006Y-77341907D01*
X202942197Y-77318097D01*
X202918387Y-77270478D01*
X202918387Y-77175240D01*
X202942197Y-77127621D01*
X202966006Y-77103812D01*
X203013625Y-77080002D01*
X202894578Y-77794288D02*
X203227911Y-77794288D01*
X202704101Y-77675240D02*
X203061244Y-77556193D01*
X203061244Y-77865716D01*
X236565339Y-57553796D02*
X236065339Y-57553796D01*
X236065339Y-57672843D01*
X236089149Y-57744272D01*
X236136768Y-57791891D01*
X236184387Y-57815700D01*
X236279625Y-57839510D01*
X236351053Y-57839510D01*
X236446291Y-57815700D01*
X236493910Y-57791891D01*
X236541529Y-57744272D01*
X236565339Y-57672843D01*
X236565339Y-57553796D01*
X236232006Y-58268081D02*
X236565339Y-58268081D01*
X236041529Y-58149034D02*
X236398672Y-58029986D01*
X236398672Y-58339510D01*
X236279625Y-58601415D02*
X236255815Y-58553796D01*
X236232006Y-58529986D01*
X236184387Y-58506177D01*
X236160577Y-58506177D01*
X236112958Y-58529986D01*
X236089149Y-58553796D01*
X236065339Y-58601415D01*
X236065339Y-58696653D01*
X236089149Y-58744272D01*
X236112958Y-58768081D01*
X236160577Y-58791891D01*
X236184387Y-58791891D01*
X236232006Y-58768081D01*
X236255815Y-58744272D01*
X236279625Y-58696653D01*
X236279625Y-58601415D01*
X236303434Y-58553796D01*
X236327244Y-58529986D01*
X236374863Y-58506177D01*
X236470101Y-58506177D01*
X236517720Y-58529986D01*
X236541529Y-58553796D01*
X236565339Y-58601415D01*
X236565339Y-58696653D01*
X236541529Y-58744272D01*
X236517720Y-58768081D01*
X236470101Y-58791891D01*
X236374863Y-58791891D01*
X236327244Y-58768081D01*
X236303434Y-58744272D01*
X236279625Y-58696653D01*
X69877799Y-76603812D02*
X69377799Y-76603812D01*
X69377799Y-76722859D01*
X69401609Y-76794288D01*
X69449228Y-76841907D01*
X69496847Y-76865716D01*
X69592085Y-76889526D01*
X69663513Y-76889526D01*
X69758751Y-76865716D01*
X69806370Y-76841907D01*
X69853989Y-76794288D01*
X69877799Y-76722859D01*
X69877799Y-76603812D01*
X69377799Y-77341907D02*
X69377799Y-77103812D01*
X69615894Y-77080002D01*
X69592085Y-77103812D01*
X69568275Y-77151431D01*
X69568275Y-77270478D01*
X69592085Y-77318097D01*
X69615894Y-77341907D01*
X69663513Y-77365716D01*
X69782561Y-77365716D01*
X69830180Y-77341907D01*
X69853989Y-77318097D01*
X69877799Y-77270478D01*
X69877799Y-77151431D01*
X69853989Y-77103812D01*
X69830180Y-77080002D01*
X69377799Y-77532383D02*
X69377799Y-77865716D01*
X69877799Y-77651431D01*
X165127879Y-76603812D02*
X164627879Y-76603812D01*
X164627879Y-76722859D01*
X164651689Y-76794288D01*
X164699308Y-76841907D01*
X164746927Y-76865716D01*
X164842165Y-76889526D01*
X164913593Y-76889526D01*
X165008831Y-76865716D01*
X165056450Y-76841907D01*
X165104069Y-76794288D01*
X165127879Y-76722859D01*
X165127879Y-76603812D01*
X164627879Y-77318097D02*
X164627879Y-77222859D01*
X164651689Y-77175240D01*
X164675498Y-77151431D01*
X164746927Y-77103812D01*
X164842165Y-77080002D01*
X165032641Y-77080002D01*
X165080260Y-77103812D01*
X165104069Y-77127621D01*
X165127879Y-77175240D01*
X165127879Y-77270478D01*
X165104069Y-77318097D01*
X165080260Y-77341907D01*
X165032641Y-77365716D01*
X164913593Y-77365716D01*
X164865974Y-77341907D01*
X164842165Y-77318097D01*
X164818355Y-77270478D01*
X164818355Y-77175240D01*
X164842165Y-77127621D01*
X164865974Y-77103812D01*
X164913593Y-77080002D01*
X164675498Y-77556193D02*
X164651689Y-77580002D01*
X164627879Y-77627621D01*
X164627879Y-77746669D01*
X164651689Y-77794288D01*
X164675498Y-77818097D01*
X164723117Y-77841907D01*
X164770736Y-77841907D01*
X164842165Y-77818097D01*
X165127879Y-77532383D01*
X165127879Y-77841907D01*
X146077863Y-76603812D02*
X145577863Y-76603812D01*
X145577863Y-76722859D01*
X145601673Y-76794288D01*
X145649292Y-76841907D01*
X145696911Y-76865716D01*
X145792149Y-76889526D01*
X145863577Y-76889526D01*
X145958815Y-76865716D01*
X146006434Y-76841907D01*
X146054053Y-76794288D01*
X146077863Y-76722859D01*
X146077863Y-76603812D01*
X145577863Y-77318097D02*
X145577863Y-77222859D01*
X145601673Y-77175240D01*
X145625482Y-77151431D01*
X145696911Y-77103812D01*
X145792149Y-77080002D01*
X145982625Y-77080002D01*
X146030244Y-77103812D01*
X146054053Y-77127621D01*
X146077863Y-77175240D01*
X146077863Y-77270478D01*
X146054053Y-77318097D01*
X146030244Y-77341907D01*
X145982625Y-77365716D01*
X145863577Y-77365716D01*
X145815958Y-77341907D01*
X145792149Y-77318097D01*
X145768339Y-77270478D01*
X145768339Y-77175240D01*
X145792149Y-77127621D01*
X145815958Y-77103812D01*
X145863577Y-77080002D01*
X146077863Y-77841907D02*
X146077863Y-77556193D01*
X146077863Y-77699050D02*
X145577863Y-77699050D01*
X145649292Y-77651431D01*
X145696911Y-77603812D01*
X145720720Y-77556193D01*
X141315359Y-57553796D02*
X140815359Y-57553796D01*
X140815359Y-57672843D01*
X140839169Y-57744272D01*
X140886788Y-57791891D01*
X140934407Y-57815700D01*
X141029645Y-57839510D01*
X141101073Y-57839510D01*
X141196311Y-57815700D01*
X141243930Y-57791891D01*
X141291549Y-57744272D01*
X141315359Y-57672843D01*
X141315359Y-57553796D01*
X140982026Y-58268081D02*
X141315359Y-58268081D01*
X140791549Y-58149034D02*
X141148692Y-58029986D01*
X141148692Y-58339510D01*
X140815359Y-58482367D02*
X140815359Y-58791891D01*
X141005835Y-58625224D01*
X141005835Y-58696653D01*
X141029645Y-58744272D01*
X141053454Y-58768081D01*
X141101073Y-58791891D01*
X141220121Y-58791891D01*
X141267740Y-58768081D01*
X141291549Y-58744272D01*
X141315359Y-58696653D01*
X141315359Y-58553796D01*
X141291549Y-58506177D01*
X141267740Y-58482367D01*
X336112153Y-57553796D02*
X335612153Y-57553796D01*
X335612153Y-57672843D01*
X335635963Y-57744272D01*
X335683582Y-57791891D01*
X335731201Y-57815700D01*
X335826439Y-57839510D01*
X335897867Y-57839510D01*
X335993105Y-57815700D01*
X336040724Y-57791891D01*
X336088343Y-57744272D01*
X336112153Y-57672843D01*
X336112153Y-57553796D01*
X335612153Y-58291891D02*
X335612153Y-58053796D01*
X335850248Y-58029986D01*
X335826439Y-58053796D01*
X335802629Y-58101415D01*
X335802629Y-58220462D01*
X335826439Y-58268081D01*
X335850248Y-58291891D01*
X335897867Y-58315700D01*
X336016915Y-58315700D01*
X336064534Y-58291891D01*
X336088343Y-58268081D01*
X336112153Y-58220462D01*
X336112153Y-58101415D01*
X336088343Y-58053796D01*
X336064534Y-58029986D01*
X335612153Y-58482367D02*
X335612153Y-58791891D01*
X335802629Y-58625224D01*
X335802629Y-58696653D01*
X335826439Y-58744272D01*
X335850248Y-58768081D01*
X335897867Y-58791891D01*
X336016915Y-58791891D01*
X336064534Y-58768081D01*
X336088343Y-58744272D01*
X336112153Y-58696653D01*
X336112153Y-58553796D01*
X336088343Y-58506177D01*
X336064534Y-58482367D01*
X44874653Y-95653828D02*
X44374653Y-95653828D01*
X44374653Y-95772875D01*
X44398463Y-95844304D01*
X44446082Y-95891923D01*
X44493701Y-95915732D01*
X44588939Y-95939542D01*
X44660367Y-95939542D01*
X44755605Y-95915732D01*
X44803224Y-95891923D01*
X44850843Y-95844304D01*
X44874653Y-95772875D01*
X44874653Y-95653828D01*
X44374653Y-96106209D02*
X44374653Y-96439542D01*
X44874653Y-96225256D01*
X44374653Y-96582399D02*
X44374653Y-96891923D01*
X44565129Y-96725256D01*
X44565129Y-96796685D01*
X44588939Y-96844304D01*
X44612748Y-96868113D01*
X44660367Y-96891923D01*
X44779415Y-96891923D01*
X44827034Y-96868113D01*
X44850843Y-96844304D01*
X44874653Y-96796685D01*
X44874653Y-96653828D01*
X44850843Y-96606209D01*
X44827034Y-96582399D01*
X184177895Y-76603812D02*
X183677895Y-76603812D01*
X183677895Y-76722859D01*
X183701705Y-76794288D01*
X183749324Y-76841907D01*
X183796943Y-76865716D01*
X183892181Y-76889526D01*
X183963609Y-76889526D01*
X184058847Y-76865716D01*
X184106466Y-76841907D01*
X184154085Y-76794288D01*
X184177895Y-76722859D01*
X184177895Y-76603812D01*
X183677895Y-77318097D02*
X183677895Y-77222859D01*
X183701705Y-77175240D01*
X183725514Y-77151431D01*
X183796943Y-77103812D01*
X183892181Y-77080002D01*
X184082657Y-77080002D01*
X184130276Y-77103812D01*
X184154085Y-77127621D01*
X184177895Y-77175240D01*
X184177895Y-77270478D01*
X184154085Y-77318097D01*
X184130276Y-77341907D01*
X184082657Y-77365716D01*
X183963609Y-77365716D01*
X183915990Y-77341907D01*
X183892181Y-77318097D01*
X183868371Y-77270478D01*
X183868371Y-77175240D01*
X183892181Y-77127621D01*
X183915990Y-77103812D01*
X183963609Y-77080002D01*
X183677895Y-77532383D02*
X183677895Y-77841907D01*
X183868371Y-77675240D01*
X183868371Y-77746669D01*
X183892181Y-77794288D01*
X183915990Y-77818097D01*
X183963609Y-77841907D01*
X184082657Y-77841907D01*
X184130276Y-77818097D01*
X184154085Y-77794288D01*
X184177895Y-77746669D01*
X184177895Y-77603812D01*
X184154085Y-77556193D01*
X184130276Y-77532383D01*
X332540259Y-114465700D02*
X332040259Y-114465700D01*
X332040259Y-114584748D01*
X332064069Y-114656177D01*
X332111688Y-114703796D01*
X332159307Y-114727605D01*
X332254545Y-114751415D01*
X332325973Y-114751415D01*
X332421211Y-114727605D01*
X332468830Y-114703796D01*
X332516449Y-114656177D01*
X332540259Y-114584748D01*
X332540259Y-114465700D01*
X332540259Y-115227605D02*
X332540259Y-114941891D01*
X332540259Y-115084748D02*
X332040259Y-115084748D01*
X332111688Y-115037129D01*
X332159307Y-114989510D01*
X332183116Y-114941891D01*
X332040259Y-115537129D02*
X332040259Y-115584748D01*
X332064069Y-115632367D01*
X332087878Y-115656177D01*
X332135497Y-115679986D01*
X332230735Y-115703796D01*
X332349783Y-115703796D01*
X332445021Y-115679986D01*
X332492640Y-115656177D01*
X332516449Y-115632367D01*
X332540259Y-115584748D01*
X332540259Y-115537129D01*
X332516449Y-115489510D01*
X332492640Y-115465700D01*
X332445021Y-115441891D01*
X332349783Y-115418081D01*
X332230735Y-115418081D01*
X332135497Y-115441891D01*
X332087878Y-115465700D01*
X332064069Y-115489510D01*
X332040259Y-115537129D01*
X332040259Y-115870462D02*
X332040259Y-116203796D01*
X332540259Y-115989510D01*
X257996509Y-95653796D02*
X257496509Y-95653796D01*
X257496509Y-95772843D01*
X257520319Y-95844272D01*
X257567938Y-95891891D01*
X257615557Y-95915700D01*
X257710795Y-95939510D01*
X257782223Y-95939510D01*
X257877461Y-95915700D01*
X257925080Y-95891891D01*
X257972699Y-95844272D01*
X257996509Y-95772843D01*
X257996509Y-95653796D01*
X257710795Y-96225224D02*
X257686985Y-96177605D01*
X257663176Y-96153796D01*
X257615557Y-96129986D01*
X257591747Y-96129986D01*
X257544128Y-96153796D01*
X257520319Y-96177605D01*
X257496509Y-96225224D01*
X257496509Y-96320462D01*
X257520319Y-96368081D01*
X257544128Y-96391891D01*
X257591747Y-96415700D01*
X257615557Y-96415700D01*
X257663176Y-96391891D01*
X257686985Y-96368081D01*
X257710795Y-96320462D01*
X257710795Y-96225224D01*
X257734604Y-96177605D01*
X257758414Y-96153796D01*
X257806033Y-96129986D01*
X257901271Y-96129986D01*
X257948890Y-96153796D01*
X257972699Y-96177605D01*
X257996509Y-96225224D01*
X257996509Y-96320462D01*
X257972699Y-96368081D01*
X257948890Y-96391891D01*
X257901271Y-96415700D01*
X257806033Y-96415700D01*
X257758414Y-96391891D01*
X257734604Y-96368081D01*
X257710795Y-96320462D01*
X257496509Y-96868081D02*
X257496509Y-96629986D01*
X257734604Y-96606177D01*
X257710795Y-96629986D01*
X257686985Y-96677605D01*
X257686985Y-96796653D01*
X257710795Y-96844272D01*
X257734604Y-96868081D01*
X257782223Y-96891891D01*
X257901271Y-96891891D01*
X257948890Y-96868081D01*
X257972699Y-96844272D01*
X257996509Y-96796653D01*
X257996509Y-96677605D01*
X257972699Y-96629986D01*
X257948890Y-96606177D01*
X193702903Y-95653828D02*
X193202903Y-95653828D01*
X193202903Y-95772875D01*
X193226713Y-95844304D01*
X193274332Y-95891923D01*
X193321951Y-95915732D01*
X193417189Y-95939542D01*
X193488617Y-95939542D01*
X193583855Y-95915732D01*
X193631474Y-95891923D01*
X193679093Y-95844304D01*
X193702903Y-95772875D01*
X193702903Y-95653828D01*
X193417189Y-96225256D02*
X193393379Y-96177637D01*
X193369570Y-96153828D01*
X193321951Y-96130018D01*
X193298141Y-96130018D01*
X193250522Y-96153828D01*
X193226713Y-96177637D01*
X193202903Y-96225256D01*
X193202903Y-96320494D01*
X193226713Y-96368113D01*
X193250522Y-96391923D01*
X193298141Y-96415732D01*
X193321951Y-96415732D01*
X193369570Y-96391923D01*
X193393379Y-96368113D01*
X193417189Y-96320494D01*
X193417189Y-96225256D01*
X193440998Y-96177637D01*
X193464808Y-96153828D01*
X193512427Y-96130018D01*
X193607665Y-96130018D01*
X193655284Y-96153828D01*
X193679093Y-96177637D01*
X193702903Y-96225256D01*
X193702903Y-96320494D01*
X193679093Y-96368113D01*
X193655284Y-96391923D01*
X193607665Y-96415732D01*
X193512427Y-96415732D01*
X193464808Y-96391923D01*
X193440998Y-96368113D01*
X193417189Y-96320494D01*
X193250522Y-96606209D02*
X193226713Y-96630018D01*
X193202903Y-96677637D01*
X193202903Y-96796685D01*
X193226713Y-96844304D01*
X193250522Y-96868113D01*
X193298141Y-96891923D01*
X193345760Y-96891923D01*
X193417189Y-96868113D01*
X193702903Y-96582399D01*
X193702903Y-96891923D01*
X241327759Y-76603812D02*
X240827759Y-76603812D01*
X240827759Y-76722859D01*
X240851569Y-76794288D01*
X240899188Y-76841907D01*
X240946807Y-76865716D01*
X241042045Y-76889526D01*
X241113473Y-76889526D01*
X241208711Y-76865716D01*
X241256330Y-76841907D01*
X241303949Y-76794288D01*
X241327759Y-76722859D01*
X241327759Y-76603812D01*
X240827759Y-77318097D02*
X240827759Y-77222859D01*
X240851569Y-77175240D01*
X240875378Y-77151431D01*
X240946807Y-77103812D01*
X241042045Y-77080002D01*
X241232521Y-77080002D01*
X241280140Y-77103812D01*
X241303949Y-77127621D01*
X241327759Y-77175240D01*
X241327759Y-77270478D01*
X241303949Y-77318097D01*
X241280140Y-77341907D01*
X241232521Y-77365716D01*
X241113473Y-77365716D01*
X241065854Y-77341907D01*
X241042045Y-77318097D01*
X241018235Y-77270478D01*
X241018235Y-77175240D01*
X241042045Y-77127621D01*
X241065854Y-77103812D01*
X241113473Y-77080002D01*
X241042045Y-77651431D02*
X241018235Y-77603812D01*
X240994426Y-77580002D01*
X240946807Y-77556193D01*
X240922997Y-77556193D01*
X240875378Y-77580002D01*
X240851569Y-77603812D01*
X240827759Y-77651431D01*
X240827759Y-77746669D01*
X240851569Y-77794288D01*
X240875378Y-77818097D01*
X240922997Y-77841907D01*
X240946807Y-77841907D01*
X240994426Y-77818097D01*
X241018235Y-77794288D01*
X241042045Y-77746669D01*
X241042045Y-77651431D01*
X241065854Y-77603812D01*
X241089664Y-77580002D01*
X241137283Y-77556193D01*
X241232521Y-77556193D01*
X241280140Y-77580002D01*
X241303949Y-77603812D01*
X241327759Y-77651431D01*
X241327759Y-77746669D01*
X241303949Y-77794288D01*
X241280140Y-77818097D01*
X241232521Y-77841907D01*
X241137283Y-77841907D01*
X241089664Y-77818097D01*
X241065854Y-77794288D01*
X241042045Y-77746669D01*
X155602871Y-95653828D02*
X155102871Y-95653828D01*
X155102871Y-95772875D01*
X155126681Y-95844304D01*
X155174300Y-95891923D01*
X155221919Y-95915732D01*
X155317157Y-95939542D01*
X155388585Y-95939542D01*
X155483823Y-95915732D01*
X155531442Y-95891923D01*
X155579061Y-95844304D01*
X155602871Y-95772875D01*
X155602871Y-95653828D01*
X155317157Y-96225256D02*
X155293347Y-96177637D01*
X155269538Y-96153828D01*
X155221919Y-96130018D01*
X155198109Y-96130018D01*
X155150490Y-96153828D01*
X155126681Y-96177637D01*
X155102871Y-96225256D01*
X155102871Y-96320494D01*
X155126681Y-96368113D01*
X155150490Y-96391923D01*
X155198109Y-96415732D01*
X155221919Y-96415732D01*
X155269538Y-96391923D01*
X155293347Y-96368113D01*
X155317157Y-96320494D01*
X155317157Y-96225256D01*
X155340966Y-96177637D01*
X155364776Y-96153828D01*
X155412395Y-96130018D01*
X155507633Y-96130018D01*
X155555252Y-96153828D01*
X155579061Y-96177637D01*
X155602871Y-96225256D01*
X155602871Y-96320494D01*
X155579061Y-96368113D01*
X155555252Y-96391923D01*
X155507633Y-96415732D01*
X155412395Y-96415732D01*
X155364776Y-96391923D01*
X155340966Y-96368113D01*
X155317157Y-96320494D01*
X155102871Y-96725256D02*
X155102871Y-96772875D01*
X155126681Y-96820494D01*
X155150490Y-96844304D01*
X155198109Y-96868113D01*
X155293347Y-96891923D01*
X155412395Y-96891923D01*
X155507633Y-96868113D01*
X155555252Y-96844304D01*
X155579061Y-96820494D01*
X155602871Y-96772875D01*
X155602871Y-96725256D01*
X155579061Y-96677637D01*
X155555252Y-96653828D01*
X155507633Y-96630018D01*
X155412395Y-96606209D01*
X155293347Y-96606209D01*
X155198109Y-96630018D01*
X155150490Y-96653828D01*
X155126681Y-96677637D01*
X155102871Y-96725256D01*
X317062137Y-57553796D02*
X316562137Y-57553796D01*
X316562137Y-57672843D01*
X316585947Y-57744272D01*
X316633566Y-57791891D01*
X316681185Y-57815700D01*
X316776423Y-57839510D01*
X316847851Y-57839510D01*
X316943089Y-57815700D01*
X316990708Y-57791891D01*
X317038327Y-57744272D01*
X317062137Y-57672843D01*
X317062137Y-57553796D01*
X316562137Y-58291891D02*
X316562137Y-58053796D01*
X316800232Y-58029986D01*
X316776423Y-58053796D01*
X316752613Y-58101415D01*
X316752613Y-58220462D01*
X316776423Y-58268081D01*
X316800232Y-58291891D01*
X316847851Y-58315700D01*
X316966899Y-58315700D01*
X317014518Y-58291891D01*
X317038327Y-58268081D01*
X317062137Y-58220462D01*
X317062137Y-58101415D01*
X317038327Y-58053796D01*
X317014518Y-58029986D01*
X316609756Y-58506177D02*
X316585947Y-58529986D01*
X316562137Y-58577605D01*
X316562137Y-58696653D01*
X316585947Y-58744272D01*
X316609756Y-58768081D01*
X316657375Y-58791891D01*
X316704994Y-58791891D01*
X316776423Y-58768081D01*
X317062137Y-58482367D01*
X317062137Y-58791891D01*
X198465419Y-57553796D02*
X197965419Y-57553796D01*
X197965419Y-57672843D01*
X197989229Y-57744272D01*
X198036848Y-57791891D01*
X198084467Y-57815700D01*
X198179705Y-57839510D01*
X198251133Y-57839510D01*
X198346371Y-57815700D01*
X198393990Y-57791891D01*
X198441609Y-57744272D01*
X198465419Y-57672843D01*
X198465419Y-57553796D01*
X198132086Y-58268081D02*
X198465419Y-58268081D01*
X197941609Y-58149034D02*
X198298752Y-58029986D01*
X198298752Y-58339510D01*
X197965419Y-58744272D02*
X197965419Y-58649034D01*
X197989229Y-58601415D01*
X198013038Y-58577605D01*
X198084467Y-58529986D01*
X198179705Y-58506177D01*
X198370181Y-58506177D01*
X198417800Y-58529986D01*
X198441609Y-58553796D01*
X198465419Y-58601415D01*
X198465419Y-58696653D01*
X198441609Y-58744272D01*
X198417800Y-58768081D01*
X198370181Y-58791891D01*
X198251133Y-58791891D01*
X198203514Y-58768081D01*
X198179705Y-58744272D01*
X198155895Y-58696653D01*
X198155895Y-58601415D01*
X198179705Y-58553796D01*
X198203514Y-58529986D01*
X198251133Y-58506177D01*
X160365375Y-57553796D02*
X159865375Y-57553796D01*
X159865375Y-57672843D01*
X159889185Y-57744272D01*
X159936804Y-57791891D01*
X159984423Y-57815700D01*
X160079661Y-57839510D01*
X160151089Y-57839510D01*
X160246327Y-57815700D01*
X160293946Y-57791891D01*
X160341565Y-57744272D01*
X160365375Y-57672843D01*
X160365375Y-57553796D01*
X160032042Y-58268081D02*
X160365375Y-58268081D01*
X159841565Y-58149034D02*
X160198708Y-58029986D01*
X160198708Y-58339510D01*
X160032042Y-58744272D02*
X160365375Y-58744272D01*
X159841565Y-58625224D02*
X160198708Y-58506177D01*
X160198708Y-58815700D01*
X98452823Y-95653828D02*
X97952823Y-95653828D01*
X97952823Y-95772875D01*
X97976633Y-95844304D01*
X98024252Y-95891923D01*
X98071871Y-95915732D01*
X98167109Y-95939542D01*
X98238537Y-95939542D01*
X98333775Y-95915732D01*
X98381394Y-95891923D01*
X98429013Y-95844304D01*
X98452823Y-95772875D01*
X98452823Y-95653828D01*
X97952823Y-96106209D02*
X97952823Y-96439542D01*
X98452823Y-96225256D01*
X97952823Y-96582399D02*
X97952823Y-96915732D01*
X98452823Y-96701447D01*
X24634011Y-76603812D02*
X24134011Y-76603812D01*
X24134011Y-76722859D01*
X24157821Y-76794288D01*
X24205440Y-76841907D01*
X24253059Y-76865716D01*
X24348297Y-76889526D01*
X24419725Y-76889526D01*
X24514963Y-76865716D01*
X24562582Y-76841907D01*
X24610201Y-76794288D01*
X24634011Y-76722859D01*
X24634011Y-76603812D01*
X24134011Y-77341907D02*
X24134011Y-77103812D01*
X24372106Y-77080002D01*
X24348297Y-77103812D01*
X24324487Y-77151431D01*
X24324487Y-77270478D01*
X24348297Y-77318097D01*
X24372106Y-77341907D01*
X24419725Y-77365716D01*
X24538773Y-77365716D01*
X24586392Y-77341907D01*
X24610201Y-77318097D01*
X24634011Y-77270478D01*
X24634011Y-77151431D01*
X24610201Y-77103812D01*
X24586392Y-77080002D01*
X24134011Y-77818097D02*
X24134011Y-77580002D01*
X24372106Y-77556193D01*
X24348297Y-77580002D01*
X24324487Y-77627621D01*
X24324487Y-77746669D01*
X24348297Y-77794288D01*
X24372106Y-77818097D01*
X24419725Y-77841907D01*
X24538773Y-77841907D01*
X24586392Y-77818097D01*
X24610201Y-77794288D01*
X24634011Y-77746669D01*
X24634011Y-77627621D01*
X24610201Y-77580002D01*
X24586392Y-77556193D01*
X332540275Y-57553796D02*
X332040275Y-57553796D01*
X332040275Y-57672843D01*
X332064085Y-57744272D01*
X332111704Y-57791891D01*
X332159323Y-57815700D01*
X332254561Y-57839510D01*
X332325989Y-57839510D01*
X332421227Y-57815700D01*
X332468846Y-57791891D01*
X332516465Y-57744272D01*
X332540275Y-57672843D01*
X332540275Y-57553796D01*
X332040275Y-58291891D02*
X332040275Y-58053796D01*
X332278370Y-58029986D01*
X332254561Y-58053796D01*
X332230751Y-58101415D01*
X332230751Y-58220462D01*
X332254561Y-58268081D01*
X332278370Y-58291891D01*
X332325989Y-58315700D01*
X332445037Y-58315700D01*
X332492656Y-58291891D01*
X332516465Y-58268081D01*
X332540275Y-58220462D01*
X332540275Y-58101415D01*
X332516465Y-58053796D01*
X332492656Y-58029986D01*
X332206942Y-58744272D02*
X332540275Y-58744272D01*
X332016465Y-58625224D02*
X332373608Y-58506177D01*
X332373608Y-58815700D01*
X259187137Y-57553796D02*
X258687137Y-57553796D01*
X258687137Y-57672843D01*
X258710947Y-57744272D01*
X258758566Y-57791891D01*
X258806185Y-57815700D01*
X258901423Y-57839510D01*
X258972851Y-57839510D01*
X259068089Y-57815700D01*
X259115708Y-57791891D01*
X259163327Y-57744272D01*
X259187137Y-57672843D01*
X259187137Y-57553796D01*
X258687137Y-58291891D02*
X258687137Y-58053796D01*
X258925232Y-58029986D01*
X258901423Y-58053796D01*
X258877613Y-58101415D01*
X258877613Y-58220462D01*
X258901423Y-58268081D01*
X258925232Y-58291891D01*
X258972851Y-58315700D01*
X259091899Y-58315700D01*
X259139518Y-58291891D01*
X259163327Y-58268081D01*
X259187137Y-58220462D01*
X259187137Y-58101415D01*
X259163327Y-58053796D01*
X259139518Y-58029986D01*
X258687137Y-58625224D02*
X258687137Y-58672843D01*
X258710947Y-58720462D01*
X258734756Y-58744272D01*
X258782375Y-58768081D01*
X258877613Y-58791891D01*
X258996661Y-58791891D01*
X259091899Y-58768081D01*
X259139518Y-58744272D01*
X259163327Y-58720462D01*
X259187137Y-58672843D01*
X259187137Y-58625224D01*
X259163327Y-58577605D01*
X259139518Y-58553796D01*
X259091899Y-58529986D01*
X258996661Y-58506177D01*
X258877613Y-58506177D01*
X258782375Y-58529986D01*
X258734756Y-58553796D01*
X258710947Y-58577605D01*
X258687137Y-58625224D01*
X88927815Y-76603812D02*
X88427815Y-76603812D01*
X88427815Y-76722859D01*
X88451625Y-76794288D01*
X88499244Y-76841907D01*
X88546863Y-76865716D01*
X88642101Y-76889526D01*
X88713529Y-76889526D01*
X88808767Y-76865716D01*
X88856386Y-76841907D01*
X88904005Y-76794288D01*
X88927815Y-76722859D01*
X88927815Y-76603812D01*
X88427815Y-77341907D02*
X88427815Y-77103812D01*
X88665910Y-77080002D01*
X88642101Y-77103812D01*
X88618291Y-77151431D01*
X88618291Y-77270478D01*
X88642101Y-77318097D01*
X88665910Y-77341907D01*
X88713529Y-77365716D01*
X88832577Y-77365716D01*
X88880196Y-77341907D01*
X88904005Y-77318097D01*
X88927815Y-77270478D01*
X88927815Y-77151431D01*
X88904005Y-77103812D01*
X88880196Y-77080002D01*
X88642101Y-77651431D02*
X88618291Y-77603812D01*
X88594482Y-77580002D01*
X88546863Y-77556193D01*
X88523053Y-77556193D01*
X88475434Y-77580002D01*
X88451625Y-77603812D01*
X88427815Y-77651431D01*
X88427815Y-77746669D01*
X88451625Y-77794288D01*
X88475434Y-77818097D01*
X88523053Y-77841907D01*
X88546863Y-77841907D01*
X88594482Y-77818097D01*
X88618291Y-77794288D01*
X88642101Y-77746669D01*
X88642101Y-77651431D01*
X88665910Y-77603812D01*
X88689720Y-77580002D01*
X88737339Y-77556193D01*
X88832577Y-77556193D01*
X88880196Y-77580002D01*
X88904005Y-77603812D01*
X88927815Y-77651431D01*
X88927815Y-77746669D01*
X88904005Y-77794288D01*
X88880196Y-77818097D01*
X88832577Y-77841907D01*
X88737339Y-77841907D01*
X88689720Y-77818097D01*
X88665910Y-77794288D01*
X88642101Y-77746669D01*
X313490259Y-76603812D02*
X312990259Y-76603812D01*
X312990259Y-76722859D01*
X313014069Y-76794288D01*
X313061688Y-76841907D01*
X313109307Y-76865716D01*
X313204545Y-76889526D01*
X313275973Y-76889526D01*
X313371211Y-76865716D01*
X313418830Y-76841907D01*
X313466449Y-76794288D01*
X313490259Y-76722859D01*
X313490259Y-76603812D01*
X312990259Y-77318097D02*
X312990259Y-77222859D01*
X313014069Y-77175240D01*
X313037878Y-77151431D01*
X313109307Y-77103812D01*
X313204545Y-77080002D01*
X313395021Y-77080002D01*
X313442640Y-77103812D01*
X313466449Y-77127621D01*
X313490259Y-77175240D01*
X313490259Y-77270478D01*
X313466449Y-77318097D01*
X313442640Y-77341907D01*
X313395021Y-77365716D01*
X313275973Y-77365716D01*
X313228354Y-77341907D01*
X313204545Y-77318097D01*
X313180735Y-77270478D01*
X313180735Y-77175240D01*
X313204545Y-77127621D01*
X313228354Y-77103812D01*
X313275973Y-77080002D01*
X313490259Y-77603812D02*
X313490259Y-77699050D01*
X313466449Y-77746669D01*
X313442640Y-77770478D01*
X313371211Y-77818097D01*
X313275973Y-77841907D01*
X313085497Y-77841907D01*
X313037878Y-77818097D01*
X313014069Y-77794288D01*
X312990259Y-77746669D01*
X312990259Y-77651431D01*
X313014069Y-77603812D01*
X313037878Y-77580002D01*
X313085497Y-77556193D01*
X313204545Y-77556193D01*
X313252164Y-77580002D01*
X313275973Y-77603812D01*
X313299783Y-77651431D01*
X313299783Y-77746669D01*
X313275973Y-77794288D01*
X313252164Y-77818097D01*
X313204545Y-77841907D01*
X179415391Y-57553796D02*
X178915391Y-57553796D01*
X178915391Y-57672843D01*
X178939201Y-57744272D01*
X178986820Y-57791891D01*
X179034439Y-57815700D01*
X179129677Y-57839510D01*
X179201105Y-57839510D01*
X179296343Y-57815700D01*
X179343962Y-57791891D01*
X179391581Y-57744272D01*
X179415391Y-57672843D01*
X179415391Y-57553796D01*
X179082058Y-58268081D02*
X179415391Y-58268081D01*
X178891581Y-58149034D02*
X179248724Y-58029986D01*
X179248724Y-58339510D01*
X178915391Y-58768081D02*
X178915391Y-58529986D01*
X179153486Y-58506177D01*
X179129677Y-58529986D01*
X179105867Y-58577605D01*
X179105867Y-58696653D01*
X179129677Y-58744272D01*
X179153486Y-58768081D01*
X179201105Y-58791891D01*
X179320153Y-58791891D01*
X179367772Y-58768081D01*
X179391581Y-58744272D01*
X179415391Y-58696653D01*
X179415391Y-58577605D01*
X179391581Y-58529986D01*
X179367772Y-58506177D01*
X317062137Y-95653828D02*
X316562137Y-95653828D01*
X316562137Y-95772875D01*
X316585947Y-95844304D01*
X316633566Y-95891923D01*
X316681185Y-95915732D01*
X316776423Y-95939542D01*
X316847851Y-95939542D01*
X316943089Y-95915732D01*
X316990708Y-95891923D01*
X317038327Y-95844304D01*
X317062137Y-95772875D01*
X317062137Y-95653828D01*
X316776423Y-96225256D02*
X316752613Y-96177637D01*
X316728804Y-96153828D01*
X316681185Y-96130018D01*
X316657375Y-96130018D01*
X316609756Y-96153828D01*
X316585947Y-96177637D01*
X316562137Y-96225256D01*
X316562137Y-96320494D01*
X316585947Y-96368113D01*
X316609756Y-96391923D01*
X316657375Y-96415732D01*
X316681185Y-96415732D01*
X316728804Y-96391923D01*
X316752613Y-96368113D01*
X316776423Y-96320494D01*
X316776423Y-96225256D01*
X316800232Y-96177637D01*
X316824042Y-96153828D01*
X316871661Y-96130018D01*
X316966899Y-96130018D01*
X317014518Y-96153828D01*
X317038327Y-96177637D01*
X317062137Y-96225256D01*
X317062137Y-96320494D01*
X317038327Y-96368113D01*
X317014518Y-96391923D01*
X316966899Y-96415732D01*
X316871661Y-96415732D01*
X316824042Y-96391923D01*
X316800232Y-96368113D01*
X316776423Y-96320494D01*
X316776423Y-96701447D02*
X316752613Y-96653828D01*
X316728804Y-96630018D01*
X316681185Y-96606209D01*
X316657375Y-96606209D01*
X316609756Y-96630018D01*
X316585947Y-96653828D01*
X316562137Y-96701447D01*
X316562137Y-96796685D01*
X316585947Y-96844304D01*
X316609756Y-96868113D01*
X316657375Y-96891923D01*
X316681185Y-96891923D01*
X316728804Y-96868113D01*
X316752613Y-96844304D01*
X316776423Y-96796685D01*
X316776423Y-96701447D01*
X316800232Y-96653828D01*
X316824042Y-96630018D01*
X316871661Y-96606209D01*
X316966899Y-96606209D01*
X317014518Y-96630018D01*
X317038327Y-96653828D01*
X317062137Y-96701447D01*
X317062137Y-96796685D01*
X317038327Y-96844304D01*
X317014518Y-96868113D01*
X316966899Y-96891923D01*
X316871661Y-96891923D01*
X316824042Y-96868113D01*
X316800232Y-96844304D01*
X316776423Y-96796685D01*
X289190275Y-100653780D02*
X288690275Y-100653780D01*
X288690275Y-100772827D01*
X288714085Y-100844256D01*
X288761704Y-100891875D01*
X288809323Y-100915684D01*
X288904561Y-100939494D01*
X288975989Y-100939494D01*
X289071227Y-100915684D01*
X289118846Y-100891875D01*
X289166465Y-100844256D01*
X289190275Y-100772827D01*
X289190275Y-100653780D01*
X288904561Y-101225208D02*
X288880751Y-101177589D01*
X288856942Y-101153780D01*
X288809323Y-101129970D01*
X288785513Y-101129970D01*
X288737894Y-101153780D01*
X288714085Y-101177589D01*
X288690275Y-101225208D01*
X288690275Y-101320446D01*
X288714085Y-101368065D01*
X288737894Y-101391875D01*
X288785513Y-101415684D01*
X288809323Y-101415684D01*
X288856942Y-101391875D01*
X288880751Y-101368065D01*
X288904561Y-101320446D01*
X288904561Y-101225208D01*
X288928370Y-101177589D01*
X288952180Y-101153780D01*
X288999799Y-101129970D01*
X289095037Y-101129970D01*
X289142656Y-101153780D01*
X289166465Y-101177589D01*
X289190275Y-101225208D01*
X289190275Y-101320446D01*
X289166465Y-101368065D01*
X289142656Y-101391875D01*
X289095037Y-101415684D01*
X288999799Y-101415684D01*
X288952180Y-101391875D01*
X288928370Y-101368065D01*
X288904561Y-101320446D01*
X288690275Y-101844256D02*
X288690275Y-101749018D01*
X288714085Y-101701399D01*
X288737894Y-101677589D01*
X288809323Y-101629970D01*
X288904561Y-101606161D01*
X289095037Y-101606161D01*
X289142656Y-101629970D01*
X289166465Y-101653780D01*
X289190275Y-101701399D01*
X289190275Y-101796637D01*
X289166465Y-101844256D01*
X289142656Y-101868065D01*
X289095037Y-101891875D01*
X288975989Y-101891875D01*
X288928370Y-101868065D01*
X288904561Y-101844256D01*
X288880751Y-101796637D01*
X288880751Y-101701399D01*
X288904561Y-101653780D01*
X288928370Y-101629970D01*
X288975989Y-101606161D01*
X212752919Y-95653828D02*
X212252919Y-95653828D01*
X212252919Y-95772875D01*
X212276729Y-95844304D01*
X212324348Y-95891923D01*
X212371967Y-95915732D01*
X212467205Y-95939542D01*
X212538633Y-95939542D01*
X212633871Y-95915732D01*
X212681490Y-95891923D01*
X212729109Y-95844304D01*
X212752919Y-95772875D01*
X212752919Y-95653828D01*
X212467205Y-96225256D02*
X212443395Y-96177637D01*
X212419586Y-96153828D01*
X212371967Y-96130018D01*
X212348157Y-96130018D01*
X212300538Y-96153828D01*
X212276729Y-96177637D01*
X212252919Y-96225256D01*
X212252919Y-96320494D01*
X212276729Y-96368113D01*
X212300538Y-96391923D01*
X212348157Y-96415732D01*
X212371967Y-96415732D01*
X212419586Y-96391923D01*
X212443395Y-96368113D01*
X212467205Y-96320494D01*
X212467205Y-96225256D01*
X212491014Y-96177637D01*
X212514824Y-96153828D01*
X212562443Y-96130018D01*
X212657681Y-96130018D01*
X212705300Y-96153828D01*
X212729109Y-96177637D01*
X212752919Y-96225256D01*
X212752919Y-96320494D01*
X212729109Y-96368113D01*
X212705300Y-96391923D01*
X212657681Y-96415732D01*
X212562443Y-96415732D01*
X212514824Y-96391923D01*
X212491014Y-96368113D01*
X212467205Y-96320494D01*
X212252919Y-96582399D02*
X212252919Y-96891923D01*
X212443395Y-96725256D01*
X212443395Y-96796685D01*
X212467205Y-96844304D01*
X212491014Y-96868113D01*
X212538633Y-96891923D01*
X212657681Y-96891923D01*
X212705300Y-96868113D01*
X212729109Y-96844304D01*
X212752919Y-96796685D01*
X212752919Y-96653828D01*
X212729109Y-96606209D01*
X212705300Y-96582399D01*
X127027847Y-76603812D02*
X126527847Y-76603812D01*
X126527847Y-76722859D01*
X126551657Y-76794288D01*
X126599276Y-76841907D01*
X126646895Y-76865716D01*
X126742133Y-76889526D01*
X126813561Y-76889526D01*
X126908799Y-76865716D01*
X126956418Y-76841907D01*
X127004037Y-76794288D01*
X127027847Y-76722859D01*
X127027847Y-76603812D01*
X126527847Y-77318097D02*
X126527847Y-77222859D01*
X126551657Y-77175240D01*
X126575466Y-77151431D01*
X126646895Y-77103812D01*
X126742133Y-77080002D01*
X126932609Y-77080002D01*
X126980228Y-77103812D01*
X127004037Y-77127621D01*
X127027847Y-77175240D01*
X127027847Y-77270478D01*
X127004037Y-77318097D01*
X126980228Y-77341907D01*
X126932609Y-77365716D01*
X126813561Y-77365716D01*
X126765942Y-77341907D01*
X126742133Y-77318097D01*
X126718323Y-77270478D01*
X126718323Y-77175240D01*
X126742133Y-77127621D01*
X126765942Y-77103812D01*
X126813561Y-77080002D01*
X126527847Y-77675240D02*
X126527847Y-77722859D01*
X126551657Y-77770478D01*
X126575466Y-77794288D01*
X126623085Y-77818097D01*
X126718323Y-77841907D01*
X126837371Y-77841907D01*
X126932609Y-77818097D01*
X126980228Y-77794288D01*
X127004037Y-77770478D01*
X127027847Y-77722859D01*
X127027847Y-77675240D01*
X127004037Y-77627621D01*
X126980228Y-77603812D01*
X126932609Y-77580002D01*
X126837371Y-77556193D01*
X126718323Y-77556193D01*
X126623085Y-77580002D01*
X126575466Y-77603812D01*
X126551657Y-77627621D01*
X126527847Y-77675240D01*
X202037285Y-57553796D02*
X201537285Y-57553796D01*
X201537285Y-57672843D01*
X201561095Y-57744272D01*
X201608714Y-57791891D01*
X201656333Y-57815700D01*
X201751571Y-57839510D01*
X201822999Y-57839510D01*
X201918237Y-57815700D01*
X201965856Y-57791891D01*
X202013475Y-57744272D01*
X202037285Y-57672843D01*
X202037285Y-57553796D01*
X201703952Y-58268081D02*
X202037285Y-58268081D01*
X201513475Y-58149034D02*
X201870618Y-58029986D01*
X201870618Y-58339510D01*
X201537285Y-58482367D02*
X201537285Y-58815700D01*
X202037285Y-58601415D01*
X79402807Y-95653828D02*
X78902807Y-95653828D01*
X78902807Y-95772875D01*
X78926617Y-95844304D01*
X78974236Y-95891923D01*
X79021855Y-95915732D01*
X79117093Y-95939542D01*
X79188521Y-95939542D01*
X79283759Y-95915732D01*
X79331378Y-95891923D01*
X79378997Y-95844304D01*
X79402807Y-95772875D01*
X79402807Y-95653828D01*
X78902807Y-96106209D02*
X78902807Y-96439542D01*
X79402807Y-96225256D01*
X78902807Y-96844304D02*
X78902807Y-96749066D01*
X78926617Y-96701447D01*
X78950426Y-96677637D01*
X79021855Y-96630018D01*
X79117093Y-96606209D01*
X79307569Y-96606209D01*
X79355188Y-96630018D01*
X79378997Y-96653828D01*
X79402807Y-96701447D01*
X79402807Y-96796685D01*
X79378997Y-96844304D01*
X79355188Y-96868113D01*
X79307569Y-96891923D01*
X79188521Y-96891923D01*
X79140902Y-96868113D01*
X79117093Y-96844304D01*
X79093283Y-96796685D01*
X79093283Y-96701447D01*
X79117093Y-96653828D01*
X79140902Y-96630018D01*
X79188521Y-96606209D01*
X336112121Y-76603796D02*
X335612121Y-76603796D01*
X335612121Y-76722843D01*
X335635931Y-76794272D01*
X335683550Y-76841891D01*
X335731169Y-76865700D01*
X335826407Y-76889510D01*
X335897835Y-76889510D01*
X335993073Y-76865700D01*
X336040692Y-76841891D01*
X336088311Y-76794272D01*
X336112121Y-76722843D01*
X336112121Y-76603796D01*
X335612121Y-77056177D02*
X335612121Y-77389510D01*
X336112121Y-77175224D01*
X336112121Y-77841891D02*
X336112121Y-77556177D01*
X336112121Y-77699034D02*
X335612121Y-77699034D01*
X335683550Y-77651415D01*
X335731169Y-77603796D01*
X335754978Y-77556177D01*
X225849805Y-76603812D02*
X225349805Y-76603812D01*
X225349805Y-76722859D01*
X225373615Y-76794288D01*
X225421234Y-76841907D01*
X225468853Y-76865716D01*
X225564091Y-76889526D01*
X225635519Y-76889526D01*
X225730757Y-76865716D01*
X225778376Y-76841907D01*
X225825995Y-76794288D01*
X225849805Y-76722859D01*
X225849805Y-76603812D01*
X225349805Y-77318097D02*
X225349805Y-77222859D01*
X225373615Y-77175240D01*
X225397424Y-77151431D01*
X225468853Y-77103812D01*
X225564091Y-77080002D01*
X225754567Y-77080002D01*
X225802186Y-77103812D01*
X225825995Y-77127621D01*
X225849805Y-77175240D01*
X225849805Y-77270478D01*
X225825995Y-77318097D01*
X225802186Y-77341907D01*
X225754567Y-77365716D01*
X225635519Y-77365716D01*
X225587900Y-77341907D01*
X225564091Y-77318097D01*
X225540281Y-77270478D01*
X225540281Y-77175240D01*
X225564091Y-77127621D01*
X225587900Y-77103812D01*
X225635519Y-77080002D01*
X225349805Y-77794288D02*
X225349805Y-77699050D01*
X225373615Y-77651431D01*
X225397424Y-77627621D01*
X225468853Y-77580002D01*
X225564091Y-77556193D01*
X225754567Y-77556193D01*
X225802186Y-77580002D01*
X225825995Y-77603812D01*
X225849805Y-77651431D01*
X225849805Y-77746669D01*
X225825995Y-77794288D01*
X225802186Y-77818097D01*
X225754567Y-77841907D01*
X225635519Y-77841907D01*
X225587900Y-77818097D01*
X225564091Y-77794288D01*
X225540281Y-77746669D01*
X225540281Y-77651431D01*
X225564091Y-77603812D01*
X225587900Y-77580002D01*
X225635519Y-77556193D01*
X50827783Y-76603812D02*
X50327783Y-76603812D01*
X50327783Y-76722859D01*
X50351593Y-76794288D01*
X50399212Y-76841907D01*
X50446831Y-76865716D01*
X50542069Y-76889526D01*
X50613497Y-76889526D01*
X50708735Y-76865716D01*
X50756354Y-76841907D01*
X50803973Y-76794288D01*
X50827783Y-76722859D01*
X50827783Y-76603812D01*
X50327783Y-77341907D02*
X50327783Y-77103812D01*
X50565878Y-77080002D01*
X50542069Y-77103812D01*
X50518259Y-77151431D01*
X50518259Y-77270478D01*
X50542069Y-77318097D01*
X50565878Y-77341907D01*
X50613497Y-77365716D01*
X50732545Y-77365716D01*
X50780164Y-77341907D01*
X50803973Y-77318097D01*
X50827783Y-77270478D01*
X50827783Y-77151431D01*
X50803973Y-77103812D01*
X50780164Y-77080002D01*
X50327783Y-77794288D02*
X50327783Y-77699050D01*
X50351593Y-77651431D01*
X50375402Y-77627621D01*
X50446831Y-77580002D01*
X50542069Y-77556193D01*
X50732545Y-77556193D01*
X50780164Y-77580002D01*
X50803973Y-77603812D01*
X50827783Y-77651431D01*
X50827783Y-77746669D01*
X50803973Y-77794288D01*
X50780164Y-77818097D01*
X50732545Y-77841907D01*
X50613497Y-77841907D01*
X50565878Y-77818097D01*
X50542069Y-77794288D01*
X50518259Y-77746669D01*
X50518259Y-77651431D01*
X50542069Y-77603812D01*
X50565878Y-77580002D01*
X50613497Y-77556193D01*
X112740339Y-10941891D02*
X112240339Y-10941891D01*
X112240339Y-11060939D01*
X112264149Y-11132367D01*
X112311768Y-11179986D01*
X112359387Y-11203796D01*
X112454625Y-11227605D01*
X112526053Y-11227605D01*
X112621291Y-11203796D01*
X112668910Y-11179986D01*
X112716529Y-11132367D01*
X112740339Y-11060939D01*
X112740339Y-10941891D01*
X112240339Y-11656177D02*
X112240339Y-11560939D01*
X112264149Y-11513319D01*
X112287958Y-11489510D01*
X112359387Y-11441891D01*
X112454625Y-11418081D01*
X112645101Y-11418081D01*
X112692720Y-11441891D01*
X112716529Y-11465700D01*
X112740339Y-11513319D01*
X112740339Y-11608558D01*
X112716529Y-11656177D01*
X112692720Y-11679986D01*
X112645101Y-11703796D01*
X112526053Y-11703796D01*
X112478434Y-11679986D01*
X112454625Y-11656177D01*
X112430815Y-11608558D01*
X112430815Y-11513319D01*
X112454625Y-11465700D01*
X112478434Y-11441891D01*
X112526053Y-11418081D01*
X36540275Y-10941891D02*
X36040275Y-10941891D01*
X36040275Y-11060939D01*
X36064085Y-11132367D01*
X36111704Y-11179986D01*
X36159323Y-11203796D01*
X36254561Y-11227605D01*
X36325989Y-11227605D01*
X36421227Y-11203796D01*
X36468846Y-11179986D01*
X36516465Y-11132367D01*
X36540275Y-11060939D01*
X36540275Y-10941891D01*
X36540275Y-11703796D02*
X36540275Y-11418081D01*
X36540275Y-11560939D02*
X36040275Y-11560939D01*
X36111704Y-11513319D01*
X36159323Y-11465700D01*
X36183132Y-11418081D01*
X78212185Y-10941891D02*
X77712185Y-10941891D01*
X77712185Y-11060939D01*
X77735995Y-11132367D01*
X77783614Y-11179986D01*
X77831233Y-11203796D01*
X77926471Y-11227605D01*
X77997899Y-11227605D01*
X78093137Y-11203796D01*
X78140756Y-11179986D01*
X78188375Y-11132367D01*
X78212185Y-11060939D01*
X78212185Y-10941891D01*
X77712185Y-11679986D02*
X77712185Y-11441891D01*
X77950280Y-11418081D01*
X77926471Y-11441891D01*
X77902661Y-11489510D01*
X77902661Y-11608558D01*
X77926471Y-11656177D01*
X77950280Y-11679986D01*
X77997899Y-11703796D01*
X78116947Y-11703796D01*
X78164566Y-11679986D01*
X78188375Y-11656177D01*
X78212185Y-11608558D01*
X78212185Y-11489510D01*
X78188375Y-11441891D01*
X78164566Y-11418081D01*
X74640307Y-10941891D02*
X74140307Y-10941891D01*
X74140307Y-11060939D01*
X74164117Y-11132367D01*
X74211736Y-11179986D01*
X74259355Y-11203796D01*
X74354593Y-11227605D01*
X74426021Y-11227605D01*
X74521259Y-11203796D01*
X74568878Y-11179986D01*
X74616497Y-11132367D01*
X74640307Y-11060939D01*
X74640307Y-10941891D01*
X74306974Y-11656177D02*
X74640307Y-11656177D01*
X74116497Y-11537129D02*
X74473640Y-11418081D01*
X74473640Y-11727605D01*
X40112153Y-10941891D02*
X39612153Y-10941891D01*
X39612153Y-11060939D01*
X39635963Y-11132367D01*
X39683582Y-11179986D01*
X39731201Y-11203796D01*
X39826439Y-11227605D01*
X39897867Y-11227605D01*
X39993105Y-11203796D01*
X40040724Y-11179986D01*
X40088343Y-11132367D01*
X40112153Y-11060939D01*
X40112153Y-10941891D01*
X39612153Y-11394272D02*
X39612153Y-11703796D01*
X39802629Y-11537129D01*
X39802629Y-11608558D01*
X39826439Y-11656177D01*
X39850248Y-11679986D01*
X39897867Y-11703796D01*
X40016915Y-11703796D01*
X40064534Y-11679986D01*
X40088343Y-11656177D01*
X40112153Y-11608558D01*
X40112153Y-11465700D01*
X40088343Y-11418081D01*
X40064534Y-11394272D01*
D12*
X13858333Y-8810714D02*
X13858333Y-9810714D01*
X13858333Y-8858333D02*
X13763095Y-8810714D01*
X13572619Y-8810714D01*
X13477380Y-8858333D01*
X13429761Y-8905952D01*
X13382142Y-9001190D01*
X13382142Y-9286904D01*
X13429761Y-9382142D01*
X13477380Y-9429761D01*
X13572619Y-9477380D01*
X13763095Y-9477380D01*
X13858333Y-9429761D01*
X12810714Y-9477380D02*
X12905952Y-9429761D01*
X12953571Y-9334523D01*
X12953571Y-8477380D01*
X12001190Y-9477380D02*
X12001190Y-8953571D01*
X12048809Y-8858333D01*
X12144047Y-8810714D01*
X12334523Y-8810714D01*
X12429761Y-8858333D01*
X12001190Y-9429761D02*
X12096428Y-9477380D01*
X12334523Y-9477380D01*
X12429761Y-9429761D01*
X12477380Y-9334523D01*
X12477380Y-9239285D01*
X12429761Y-9144047D01*
X12334523Y-9096428D01*
X12096428Y-9096428D01*
X12001190Y-9048809D01*
X11667857Y-8810714D02*
X11286904Y-8810714D01*
X11525000Y-8477380D02*
X11525000Y-9334523D01*
X11477380Y-9429761D01*
X11382142Y-9477380D01*
X11286904Y-9477380D01*
X10572619Y-9429761D02*
X10667857Y-9477380D01*
X10858333Y-9477380D01*
X10953571Y-9429761D01*
X11001190Y-9334523D01*
X11001190Y-8953571D01*
X10953571Y-8858333D01*
X10858333Y-8810714D01*
X10667857Y-8810714D01*
X10572619Y-8858333D01*
X10525000Y-8953571D01*
X10525000Y-9048809D01*
X11001190Y-9144047D01*
X10334523Y-9572619D02*
X9572619Y-9572619D01*
X9334523Y-9477380D02*
X9334523Y-8810714D01*
X9334523Y-8905952D02*
X9286904Y-8858333D01*
X9191666Y-8810714D01*
X9048809Y-8810714D01*
X8953571Y-8858333D01*
X8905952Y-8953571D01*
X8905952Y-9477380D01*
X8905952Y-8953571D02*
X8858333Y-8858333D01*
X8763095Y-8810714D01*
X8620238Y-8810714D01*
X8525000Y-8858333D01*
X8477380Y-8953571D01*
X8477380Y-9477380D01*
X7858333Y-9477380D02*
X7953571Y-9429761D01*
X8001190Y-9382142D01*
X8048809Y-9286904D01*
X8048809Y-9001190D01*
X8001190Y-8905952D01*
X7953571Y-8858333D01*
X7858333Y-8810714D01*
X7715476Y-8810714D01*
X7620238Y-8858333D01*
X7572619Y-8905952D01*
X7525000Y-9001190D01*
X7525000Y-9286904D01*
X7572619Y-9382142D01*
X7620238Y-9429761D01*
X7715476Y-9477380D01*
X7858333Y-9477380D01*
X6667857Y-8810714D02*
X6667857Y-9477380D01*
X7096428Y-8810714D02*
X7096428Y-9334523D01*
X7048809Y-9429761D01*
X6953571Y-9477380D01*
X6810714Y-9477380D01*
X6715476Y-9429761D01*
X6667857Y-9382142D01*
X6191666Y-8810714D02*
X6191666Y-9477380D01*
X6191666Y-8905952D02*
X6144047Y-8858333D01*
X6048809Y-8810714D01*
X5905952Y-8810714D01*
X5810714Y-8858333D01*
X5763095Y-8953571D01*
X5763095Y-9477380D01*
X5429761Y-8810714D02*
X5048809Y-8810714D01*
X5286904Y-8477380D02*
X5286904Y-9334523D01*
X5239285Y-9429761D01*
X5144047Y-9477380D01*
X5048809Y-9477380D01*
X230067380Y-21863095D02*
X230876904Y-21863095D01*
X230972142Y-21910714D01*
X231019761Y-21958333D01*
X231067380Y-22053571D01*
X231067380Y-22244047D01*
X231019761Y-22339285D01*
X230972142Y-22386904D01*
X230876904Y-22434523D01*
X230067380Y-22434523D01*
X231019761Y-22863095D02*
X231067380Y-23005952D01*
X231067380Y-23244047D01*
X231019761Y-23339285D01*
X230972142Y-23386904D01*
X230876904Y-23434523D01*
X230781666Y-23434523D01*
X230686428Y-23386904D01*
X230638809Y-23339285D01*
X230591190Y-23244047D01*
X230543571Y-23053571D01*
X230495952Y-22958333D01*
X230448333Y-22910714D01*
X230353095Y-22863095D01*
X230257857Y-22863095D01*
X230162619Y-22910714D01*
X230115000Y-22958333D01*
X230067380Y-23053571D01*
X230067380Y-23291666D01*
X230115000Y-23434523D01*
X230543571Y-24196428D02*
X230591190Y-24339285D01*
X230638809Y-24386904D01*
X230734047Y-24434523D01*
X230876904Y-24434523D01*
X230972142Y-24386904D01*
X231019761Y-24339285D01*
X231067380Y-24244047D01*
X231067380Y-23863095D01*
X230067380Y-23863095D01*
X230067380Y-24196428D01*
X230115000Y-24291666D01*
X230162619Y-24339285D01*
X230257857Y-24386904D01*
X230353095Y-24386904D01*
X230448333Y-24339285D01*
X230495952Y-24291666D01*
X230543571Y-24196428D01*
X230543571Y-23863095D01*
X237008333Y-22577380D02*
X237008333Y-23291666D01*
X237055952Y-23434523D01*
X237151190Y-23529761D01*
X237294047Y-23577380D01*
X237389285Y-23577380D01*
X236008333Y-23577380D02*
X236579761Y-23577380D01*
X236294047Y-23577380D02*
X236294047Y-22577380D01*
X236389285Y-22720238D01*
X236484523Y-22815476D01*
X236579761Y-22863095D01*
D11*
X254792236Y-21134023D02*
X254958903Y-20895928D01*
X255077951Y-21134023D02*
X255077951Y-20634023D01*
X254887474Y-20634023D01*
X254839855Y-20657833D01*
X254816046Y-20681642D01*
X254792236Y-20729261D01*
X254792236Y-20800690D01*
X254816046Y-20848309D01*
X254839855Y-20872118D01*
X254887474Y-20895928D01*
X255077951Y-20895928D01*
X254316046Y-21134023D02*
X254601760Y-21134023D01*
X254458903Y-21134023D02*
X254458903Y-20634023D01*
X254506522Y-20705452D01*
X254554141Y-20753071D01*
X254601760Y-20776880D01*
X254006522Y-20634023D02*
X253958903Y-20634023D01*
X253911284Y-20657833D01*
X253887474Y-20681642D01*
X253863665Y-20729261D01*
X253839855Y-20824499D01*
X253839855Y-20943547D01*
X253863665Y-21038785D01*
X253887474Y-21086404D01*
X253911284Y-21110213D01*
X253958903Y-21134023D01*
X254006522Y-21134023D01*
X254054141Y-21110213D01*
X254077951Y-21086404D01*
X254101760Y-21038785D01*
X254125570Y-20943547D01*
X254125570Y-20824499D01*
X254101760Y-20729261D01*
X254077951Y-20681642D01*
X254054141Y-20657833D01*
X254006522Y-20634023D01*
X253363665Y-21134023D02*
X253649379Y-21134023D01*
X253506522Y-21134023D02*
X253506522Y-20634023D01*
X253554141Y-20705452D01*
X253601760Y-20753071D01*
X253649379Y-20776880D01*
D10*
X198465411Y-10703796D02*
X197965411Y-10703796D01*
X197965411Y-10822843D01*
X197989221Y-10894272D01*
X198036840Y-10941891D01*
X198084459Y-10965700D01*
X198179697Y-10989510D01*
X198251125Y-10989510D01*
X198346363Y-10965700D01*
X198393982Y-10941891D01*
X198441601Y-10894272D01*
X198465411Y-10822843D01*
X198465411Y-10703796D01*
X198465411Y-11465700D02*
X198465411Y-11179986D01*
X198465411Y-11322843D02*
X197965411Y-11322843D01*
X198036840Y-11275224D01*
X198084459Y-11227605D01*
X198108268Y-11179986D01*
X197965411Y-11775224D02*
X197965411Y-11822843D01*
X197989221Y-11870462D01*
X198013030Y-11894272D01*
X198060649Y-11918081D01*
X198155887Y-11941891D01*
X198274935Y-11941891D01*
X198370173Y-11918081D01*
X198417792Y-11894272D01*
X198441601Y-11870462D01*
X198465411Y-11822843D01*
X198465411Y-11775224D01*
X198441601Y-11727605D01*
X198417792Y-11703796D01*
X198370173Y-11679986D01*
X198274935Y-11656177D01*
X198155887Y-11656177D01*
X198060649Y-11679986D01*
X198013030Y-11703796D01*
X197989221Y-11727605D01*
X197965411Y-11775224D01*
X244899821Y-76603812D02*
X244399821Y-76603812D01*
X244399821Y-76722859D01*
X244423631Y-76794288D01*
X244471250Y-76841907D01*
X244518869Y-76865716D01*
X244614107Y-76889526D01*
X244685535Y-76889526D01*
X244780773Y-76865716D01*
X244828392Y-76841907D01*
X244876011Y-76794288D01*
X244899821Y-76722859D01*
X244899821Y-76603812D01*
X244399821Y-77318097D02*
X244399821Y-77222859D01*
X244423631Y-77175240D01*
X244447440Y-77151431D01*
X244518869Y-77103812D01*
X244614107Y-77080002D01*
X244804583Y-77080002D01*
X244852202Y-77103812D01*
X244876011Y-77127621D01*
X244899821Y-77175240D01*
X244899821Y-77270478D01*
X244876011Y-77318097D01*
X244852202Y-77341907D01*
X244804583Y-77365716D01*
X244685535Y-77365716D01*
X244637916Y-77341907D01*
X244614107Y-77318097D01*
X244590297Y-77270478D01*
X244590297Y-77175240D01*
X244614107Y-77127621D01*
X244637916Y-77103812D01*
X244685535Y-77080002D01*
X244399821Y-77532383D02*
X244399821Y-77865716D01*
X244899821Y-77651431D01*
X41302775Y-95653828D02*
X40802775Y-95653828D01*
X40802775Y-95772875D01*
X40826585Y-95844304D01*
X40874204Y-95891923D01*
X40921823Y-95915732D01*
X41017061Y-95939542D01*
X41088489Y-95939542D01*
X41183727Y-95915732D01*
X41231346Y-95891923D01*
X41278965Y-95844304D01*
X41302775Y-95772875D01*
X41302775Y-95653828D01*
X40802775Y-96106209D02*
X40802775Y-96439542D01*
X41302775Y-96225256D01*
X40969442Y-96844304D02*
X41302775Y-96844304D01*
X40778965Y-96725256D02*
X41136108Y-96606209D01*
X41136108Y-96915732D01*
D12*
X295152650Y-33944181D02*
X295152650Y-34420371D01*
X295438364Y-33848943D02*
X294438364Y-34182276D01*
X295438364Y-34515610D01*
X294438364Y-34706086D02*
X294438364Y-35277514D01*
X295438364Y-34991800D02*
X294438364Y-34991800D01*
X295438364Y-35610848D02*
X294771698Y-35610848D01*
X294866936Y-35610848D02*
X294819317Y-35658467D01*
X294771698Y-35753705D01*
X294771698Y-35896562D01*
X294819317Y-35991800D01*
X294914555Y-36039419D01*
X295438364Y-36039419D01*
X294914555Y-36039419D02*
X294819317Y-36087038D01*
X294771698Y-36182276D01*
X294771698Y-36325133D01*
X294819317Y-36420371D01*
X294914555Y-36467990D01*
X295438364Y-36467990D01*
X295390745Y-37325133D02*
X295438364Y-37229895D01*
X295438364Y-37039419D01*
X295390745Y-36944181D01*
X295295507Y-36896562D01*
X294914555Y-36896562D01*
X294819317Y-36944181D01*
X294771698Y-37039419D01*
X294771698Y-37229895D01*
X294819317Y-37325133D01*
X294914555Y-37372752D01*
X295009793Y-37372752D01*
X295105031Y-36896562D01*
X294771698Y-38229895D02*
X295581222Y-38229895D01*
X295676460Y-38182276D01*
X295724079Y-38134657D01*
X295771698Y-38039419D01*
X295771698Y-37896562D01*
X295724079Y-37801324D01*
X295390745Y-38229895D02*
X295438364Y-38134657D01*
X295438364Y-37944181D01*
X295390745Y-37848943D01*
X295343126Y-37801324D01*
X295247888Y-37753705D01*
X294962174Y-37753705D01*
X294866936Y-37801324D01*
X294819317Y-37848943D01*
X294771698Y-37944181D01*
X294771698Y-38134657D01*
X294819317Y-38229895D01*
X295438364Y-39134657D02*
X294914555Y-39134657D01*
X294819317Y-39087038D01*
X294771698Y-38991800D01*
X294771698Y-38801324D01*
X294819317Y-38706086D01*
X295390745Y-39134657D02*
X295438364Y-39039419D01*
X295438364Y-38801324D01*
X295390745Y-38706086D01*
X295295507Y-38658467D01*
X295200269Y-38658467D01*
X295105031Y-38706086D01*
X295057412Y-38801324D01*
X295057412Y-39039419D01*
X295009793Y-39134657D01*
X294438364Y-39515610D02*
X294438364Y-40134657D01*
X294819317Y-39801324D01*
X294819317Y-39944181D01*
X294866936Y-40039419D01*
X294914555Y-40087038D01*
X295009793Y-40134657D01*
X295247888Y-40134657D01*
X295343126Y-40087038D01*
X295390745Y-40039419D01*
X295438364Y-39944181D01*
X295438364Y-39658467D01*
X295390745Y-39563229D01*
X295343126Y-39515610D01*
X294533603Y-40515610D02*
X294485984Y-40563229D01*
X294438364Y-40658467D01*
X294438364Y-40896562D01*
X294485984Y-40991800D01*
X294533603Y-41039419D01*
X294628841Y-41087038D01*
X294724079Y-41087038D01*
X294866936Y-41039419D01*
X295438364Y-40467990D01*
X295438364Y-41087038D01*
X294438364Y-41515610D02*
X295247888Y-41515610D01*
X295343126Y-41563229D01*
X295390745Y-41610848D01*
X295438364Y-41706086D01*
X295438364Y-41896562D01*
X295390745Y-41991800D01*
X295343126Y-42039419D01*
X295247888Y-42087038D01*
X294438364Y-42087038D01*
X294771698Y-42991800D02*
X295438364Y-42991800D01*
X294390745Y-42753705D02*
X295105031Y-42515610D01*
X295105031Y-43134657D01*
D10*
X270140259Y-119465700D02*
X269640259Y-119465700D01*
X269640259Y-119584748D01*
X269664069Y-119656177D01*
X269711688Y-119703796D01*
X269759307Y-119727605D01*
X269854545Y-119751415D01*
X269925973Y-119751415D01*
X270021211Y-119727605D01*
X270068830Y-119703796D01*
X270116449Y-119656177D01*
X270140259Y-119584748D01*
X270140259Y-119465700D01*
X270140259Y-120227605D02*
X270140259Y-119941891D01*
X270140259Y-120084748D02*
X269640259Y-120084748D01*
X269711688Y-120037129D01*
X269759307Y-119989510D01*
X269783116Y-119941891D01*
X269640259Y-120537129D02*
X269640259Y-120584748D01*
X269664069Y-120632367D01*
X269687878Y-120656177D01*
X269735497Y-120679986D01*
X269830735Y-120703796D01*
X269949783Y-120703796D01*
X270045021Y-120679986D01*
X270092640Y-120656177D01*
X270116449Y-120632367D01*
X270140259Y-120584748D01*
X270140259Y-120537129D01*
X270116449Y-120489510D01*
X270092640Y-120465700D01*
X270045021Y-120441891D01*
X269949783Y-120418081D01*
X269830735Y-120418081D01*
X269735497Y-120441891D01*
X269687878Y-120465700D01*
X269664069Y-120489510D01*
X269640259Y-120537129D01*
X269640259Y-120870462D02*
X269640259Y-121179986D01*
X269830735Y-121013319D01*
X269830735Y-121084748D01*
X269854545Y-121132367D01*
X269878354Y-121156177D01*
X269925973Y-121179986D01*
X270045021Y-121179986D01*
X270092640Y-121156177D01*
X270116449Y-121132367D01*
X270140259Y-121084748D01*
X270140259Y-120941891D01*
X270116449Y-120894272D01*
X270092640Y-120870462D01*
X273712121Y-119465700D02*
X273212121Y-119465700D01*
X273212121Y-119584748D01*
X273235931Y-119656177D01*
X273283550Y-119703796D01*
X273331169Y-119727605D01*
X273426407Y-119751415D01*
X273497835Y-119751415D01*
X273593073Y-119727605D01*
X273640692Y-119703796D01*
X273688311Y-119656177D01*
X273712121Y-119584748D01*
X273712121Y-119465700D01*
X273712121Y-120227605D02*
X273712121Y-119941891D01*
X273712121Y-120084748D02*
X273212121Y-120084748D01*
X273283550Y-120037129D01*
X273331169Y-119989510D01*
X273354978Y-119941891D01*
X273212121Y-120537129D02*
X273212121Y-120584748D01*
X273235931Y-120632367D01*
X273259740Y-120656177D01*
X273307359Y-120679986D01*
X273402597Y-120703796D01*
X273521645Y-120703796D01*
X273616883Y-120679986D01*
X273664502Y-120656177D01*
X273688311Y-120632367D01*
X273712121Y-120584748D01*
X273712121Y-120537129D01*
X273688311Y-120489510D01*
X273664502Y-120465700D01*
X273616883Y-120441891D01*
X273521645Y-120418081D01*
X273402597Y-120418081D01*
X273307359Y-120441891D01*
X273259740Y-120465700D01*
X273235931Y-120489510D01*
X273212121Y-120537129D01*
X273378788Y-121132367D02*
X273712121Y-121132367D01*
X273188311Y-121013319D02*
X273545454Y-120894272D01*
X273545454Y-121203796D01*
X313490259Y-57553796D02*
X312990259Y-57553796D01*
X312990259Y-57672843D01*
X313014069Y-57744272D01*
X313061688Y-57791891D01*
X313109307Y-57815700D01*
X313204545Y-57839510D01*
X313275973Y-57839510D01*
X313371211Y-57815700D01*
X313418830Y-57791891D01*
X313466449Y-57744272D01*
X313490259Y-57672843D01*
X313490259Y-57553796D01*
X312990259Y-58291891D02*
X312990259Y-58053796D01*
X313228354Y-58029986D01*
X313204545Y-58053796D01*
X313180735Y-58101415D01*
X313180735Y-58220462D01*
X313204545Y-58268081D01*
X313228354Y-58291891D01*
X313275973Y-58315700D01*
X313395021Y-58315700D01*
X313442640Y-58291891D01*
X313466449Y-58268081D01*
X313490259Y-58220462D01*
X313490259Y-58101415D01*
X313466449Y-58053796D01*
X313442640Y-58029986D01*
X313490259Y-58791891D02*
X313490259Y-58506177D01*
X313490259Y-58649034D02*
X312990259Y-58649034D01*
X313061688Y-58601415D01*
X313109307Y-58553796D01*
X313133116Y-58506177D01*
X332540275Y-38503796D02*
X332040275Y-38503796D01*
X332040275Y-38622843D01*
X332064085Y-38694272D01*
X332111704Y-38741891D01*
X332159323Y-38765700D01*
X332254561Y-38789510D01*
X332325989Y-38789510D01*
X332421227Y-38765700D01*
X332468846Y-38741891D01*
X332516465Y-38694272D01*
X332540275Y-38622843D01*
X332540275Y-38503796D01*
X332040275Y-38956177D02*
X332040275Y-39265700D01*
X332230751Y-39099034D01*
X332230751Y-39170462D01*
X332254561Y-39218081D01*
X332278370Y-39241891D01*
X332325989Y-39265700D01*
X332445037Y-39265700D01*
X332492656Y-39241891D01*
X332516465Y-39218081D01*
X332540275Y-39170462D01*
X332540275Y-39027605D01*
X332516465Y-38979986D01*
X332492656Y-38956177D01*
X332040275Y-39694272D02*
X332040275Y-39599034D01*
X332064085Y-39551415D01*
X332087894Y-39527605D01*
X332159323Y-39479986D01*
X332254561Y-39456177D01*
X332445037Y-39456177D01*
X332492656Y-39479986D01*
X332516465Y-39503796D01*
X332540275Y-39551415D01*
X332540275Y-39646653D01*
X332516465Y-39694272D01*
X332492656Y-39718081D01*
X332445037Y-39741891D01*
X332325989Y-39741891D01*
X332278370Y-39718081D01*
X332254561Y-39694272D01*
X332230751Y-39646653D01*
X332230751Y-39551415D01*
X332254561Y-39503796D01*
X332278370Y-39479986D01*
X332325989Y-39456177D01*
X68687173Y-57553796D02*
X68187173Y-57553796D01*
X68187173Y-57672843D01*
X68210983Y-57744272D01*
X68258602Y-57791891D01*
X68306221Y-57815700D01*
X68401459Y-57839510D01*
X68472887Y-57839510D01*
X68568125Y-57815700D01*
X68615744Y-57791891D01*
X68663363Y-57744272D01*
X68687173Y-57672843D01*
X68687173Y-57553796D01*
X68353840Y-58268081D02*
X68687173Y-58268081D01*
X68163363Y-58149034D02*
X68520506Y-58029986D01*
X68520506Y-58339510D01*
X68187173Y-58625224D02*
X68187173Y-58672843D01*
X68210983Y-58720462D01*
X68234792Y-58744272D01*
X68282411Y-58768081D01*
X68377649Y-58791891D01*
X68496697Y-58791891D01*
X68591935Y-58768081D01*
X68639554Y-58744272D01*
X68663363Y-58720462D01*
X68687173Y-58672843D01*
X68687173Y-58625224D01*
X68663363Y-58577605D01*
X68639554Y-58553796D01*
X68591935Y-58529986D01*
X68496697Y-58506177D01*
X68377649Y-58506177D01*
X68282411Y-58529986D01*
X68234792Y-58553796D01*
X68210983Y-58577605D01*
X68187173Y-58625224D01*
X168470440Y-114465700D02*
X167970440Y-114465700D01*
X167970440Y-114584748D01*
X167994250Y-114656177D01*
X168041869Y-114703796D01*
X168089488Y-114727605D01*
X168184726Y-114751415D01*
X168256154Y-114751415D01*
X168351392Y-114727605D01*
X168399011Y-114703796D01*
X168446630Y-114656177D01*
X168470440Y-114584748D01*
X168470440Y-114465700D01*
X168470440Y-115227605D02*
X168470440Y-114941891D01*
X168470440Y-115084748D02*
X167970440Y-115084748D01*
X168041869Y-115037129D01*
X168089488Y-114989510D01*
X168113297Y-114941891D01*
X167970440Y-115537129D02*
X167970440Y-115584748D01*
X167994250Y-115632367D01*
X168018059Y-115656177D01*
X168065678Y-115679986D01*
X168160916Y-115703796D01*
X168279964Y-115703796D01*
X168375202Y-115679986D01*
X168422821Y-115656177D01*
X168446630Y-115632367D01*
X168470440Y-115584748D01*
X168470440Y-115537129D01*
X168446630Y-115489510D01*
X168422821Y-115465700D01*
X168375202Y-115441891D01*
X168279964Y-115418081D01*
X168160916Y-115418081D01*
X168065678Y-115441891D01*
X168018059Y-115465700D01*
X167994250Y-115489510D01*
X167970440Y-115537129D01*
X167970440Y-116013319D02*
X167970440Y-116060939D01*
X167994250Y-116108558D01*
X168018059Y-116132367D01*
X168065678Y-116156177D01*
X168160916Y-116179986D01*
X168279964Y-116179986D01*
X168375202Y-116156177D01*
X168422821Y-116132367D01*
X168446630Y-116108558D01*
X168470440Y-116060939D01*
X168470440Y-116013319D01*
X168446630Y-115965700D01*
X168422821Y-115941891D01*
X168375202Y-115918081D01*
X168279964Y-115894272D01*
X168160916Y-115894272D01*
X168065678Y-115918081D01*
X168018059Y-115941891D01*
X167994250Y-115965700D01*
X167970440Y-116013319D01*
X243709009Y-114465700D02*
X243209009Y-114465700D01*
X243209009Y-114584748D01*
X243232819Y-114656177D01*
X243280438Y-114703796D01*
X243328057Y-114727605D01*
X243423295Y-114751415D01*
X243494723Y-114751415D01*
X243589961Y-114727605D01*
X243637580Y-114703796D01*
X243685199Y-114656177D01*
X243709009Y-114584748D01*
X243709009Y-114465700D01*
X243709009Y-115227605D02*
X243709009Y-114941891D01*
X243709009Y-115084748D02*
X243209009Y-115084748D01*
X243280438Y-115037129D01*
X243328057Y-114989510D01*
X243351866Y-114941891D01*
X243209009Y-115537129D02*
X243209009Y-115584748D01*
X243232819Y-115632367D01*
X243256628Y-115656177D01*
X243304247Y-115679986D01*
X243399485Y-115703796D01*
X243518533Y-115703796D01*
X243613771Y-115679986D01*
X243661390Y-115656177D01*
X243685199Y-115632367D01*
X243709009Y-115584748D01*
X243709009Y-115537129D01*
X243685199Y-115489510D01*
X243661390Y-115465700D01*
X243613771Y-115441891D01*
X243518533Y-115418081D01*
X243399485Y-115418081D01*
X243304247Y-115441891D01*
X243256628Y-115465700D01*
X243232819Y-115489510D01*
X243209009Y-115537129D01*
X243256628Y-115894272D02*
X243232819Y-115918081D01*
X243209009Y-115965700D01*
X243209009Y-116084748D01*
X243232819Y-116132367D01*
X243256628Y-116156177D01*
X243304247Y-116179986D01*
X243351866Y-116179986D01*
X243423295Y-116156177D01*
X243709009Y-115870462D01*
X243709009Y-116179986D01*
D13*
X298618133Y-33243266D02*
X298627657Y-33252790D01*
X298656229Y-33262314D01*
X298675276Y-33262314D01*
X298703848Y-33252790D01*
X298722895Y-33233742D01*
X298732419Y-33214695D01*
X298741943Y-33176599D01*
X298741943Y-33148028D01*
X298732419Y-33109933D01*
X298722895Y-33090885D01*
X298703848Y-33071838D01*
X298675276Y-33062314D01*
X298656229Y-33062314D01*
X298627657Y-33071838D01*
X298618133Y-33081361D01*
X298541943Y-33252790D02*
X298513371Y-33262314D01*
X298465752Y-33262314D01*
X298446705Y-33252790D01*
X298437181Y-33243266D01*
X298427657Y-33224218D01*
X298427657Y-33205171D01*
X298437181Y-33186123D01*
X298446705Y-33176599D01*
X298465752Y-33167076D01*
X298503848Y-33157552D01*
X298522895Y-33148028D01*
X298532419Y-33138504D01*
X298541943Y-33119457D01*
X298541943Y-33100409D01*
X298532419Y-33081361D01*
X298522895Y-33071838D01*
X298503848Y-33062314D01*
X298456229Y-33062314D01*
X298427657Y-33071838D01*
X298370514Y-33062314D02*
X298256229Y-33062314D01*
X298313371Y-33262314D02*
X298313371Y-33062314D01*
X298189562Y-33262314D02*
X298189562Y-33062314D01*
X298075276Y-33262314D01*
X298075276Y-33062314D01*
X297980038Y-33157552D02*
X297913371Y-33157552D01*
X297884800Y-33262314D02*
X297980038Y-33262314D01*
X297980038Y-33062314D01*
X297884800Y-33062314D01*
X297694324Y-33262314D02*
X297808610Y-33262314D01*
X297751467Y-33262314D02*
X297751467Y-33062314D01*
X297770514Y-33090885D01*
X297789562Y-33109933D01*
X297808610Y-33119457D01*
X297522895Y-33062314D02*
X297560991Y-33062314D01*
X297580038Y-33071838D01*
X297589562Y-33081361D01*
X297608610Y-33109933D01*
X297618133Y-33148028D01*
X297618133Y-33224218D01*
X297608610Y-33243266D01*
X297599086Y-33252790D01*
X297580038Y-33262314D01*
X297541943Y-33262314D01*
X297522895Y-33252790D01*
X297513371Y-33243266D01*
X297503848Y-33224218D01*
X297503848Y-33176599D01*
X297513371Y-33157552D01*
X297522895Y-33148028D01*
X297541943Y-33138504D01*
X297580038Y-33138504D01*
X297599086Y-33148028D01*
X297608610Y-33157552D01*
X297618133Y-33176599D01*
X297418133Y-33262314D02*
X297418133Y-33062314D01*
X297351467Y-33205171D01*
X297284800Y-33062314D01*
X297284800Y-33262314D01*
X297151467Y-33062314D02*
X297132419Y-33062314D01*
X297113371Y-33071838D01*
X297103848Y-33081361D01*
X297094324Y-33100409D01*
X297084800Y-33138504D01*
X297084800Y-33186123D01*
X297094324Y-33224218D01*
X297103848Y-33243266D01*
X297113371Y-33252790D01*
X297132419Y-33262314D01*
X297151467Y-33262314D01*
X297170514Y-33252790D01*
X297180038Y-33243266D01*
X297189562Y-33224218D01*
X297199086Y-33186123D01*
X297199086Y-33138504D01*
X297189562Y-33100409D01*
X297180038Y-33081361D01*
X297170514Y-33071838D01*
X297151467Y-33062314D01*
X297027657Y-33062314D02*
X296960991Y-33262314D01*
X296894324Y-33062314D01*
X296732419Y-33062314D02*
X296827657Y-33062314D01*
X296837181Y-33157552D01*
X296827657Y-33148028D01*
X296808610Y-33138504D01*
X296760991Y-33138504D01*
X296741943Y-33148028D01*
X296732419Y-33157552D01*
X296722895Y-33176599D01*
X296722895Y-33224218D01*
X296732419Y-33243266D01*
X296741943Y-33252790D01*
X296760991Y-33262314D01*
X296808610Y-33262314D01*
X296827657Y-33252790D01*
X296837181Y-33243266D01*
X296656229Y-33062314D02*
X296532419Y-33062314D01*
X296599086Y-33138504D01*
X296570514Y-33138504D01*
X296551467Y-33148028D01*
X296541943Y-33157552D01*
X296532419Y-33176599D01*
X296532419Y-33224218D01*
X296541943Y-33243266D01*
X296551467Y-33252790D01*
X296570514Y-33262314D01*
X296627657Y-33262314D01*
X296646705Y-33252790D01*
X296656229Y-33243266D01*
X296408610Y-33062314D02*
X296389562Y-33062314D01*
X296370514Y-33071838D01*
X296360991Y-33081361D01*
X296351467Y-33100409D01*
X296341943Y-33138504D01*
X296341943Y-33186123D01*
X296351467Y-33224218D01*
X296360991Y-33243266D01*
X296370514Y-33252790D01*
X296389562Y-33262314D01*
X296408610Y-33262314D01*
X296427657Y-33252790D01*
X296437181Y-33243266D01*
X296446705Y-33224218D01*
X296456229Y-33186123D01*
X296456229Y-33138504D01*
X296446705Y-33100409D01*
X296437181Y-33081361D01*
X296427657Y-33071838D01*
X296408610Y-33062314D01*
X296218133Y-33062314D02*
X296199086Y-33062314D01*
X296180038Y-33071838D01*
X296170514Y-33081361D01*
X296160991Y-33100409D01*
X296151467Y-33138504D01*
X296151467Y-33186123D01*
X296160991Y-33224218D01*
X296170514Y-33243266D01*
X296180038Y-33252790D01*
X296199086Y-33262314D01*
X296218133Y-33262314D01*
X296237181Y-33252790D01*
X296246705Y-33243266D01*
X296256229Y-33224218D01*
X296265752Y-33186123D01*
X296265752Y-33138504D01*
X296256229Y-33100409D01*
X296246705Y-33081361D01*
X296237181Y-33071838D01*
X296218133Y-33062314D01*
X296027657Y-33062314D02*
X296008610Y-33062314D01*
X295989562Y-33071838D01*
X295980038Y-33081361D01*
X295970514Y-33100409D01*
X295960991Y-33138504D01*
X295960991Y-33186123D01*
X295970514Y-33224218D01*
X295980038Y-33243266D01*
X295989562Y-33252790D01*
X296008610Y-33262314D01*
X296027657Y-33262314D01*
X296046705Y-33252790D01*
X296056229Y-33243266D01*
X296065752Y-33224218D01*
X296075276Y-33186123D01*
X296075276Y-33138504D01*
X296065752Y-33100409D01*
X296056229Y-33081361D01*
X296046705Y-33071838D01*
X296027657Y-33062314D01*
X295837181Y-33062314D02*
X295818133Y-33062314D01*
X295799086Y-33071838D01*
X295789562Y-33081361D01*
X295780038Y-33100409D01*
X295770514Y-33138504D01*
X295770514Y-33186123D01*
X295780038Y-33224218D01*
X295789562Y-33243266D01*
X295799086Y-33252790D01*
X295818133Y-33262314D01*
X295837181Y-33262314D01*
X295856229Y-33252790D01*
X295865752Y-33243266D01*
X295875276Y-33224218D01*
X295884800Y-33186123D01*
X295884800Y-33138504D01*
X295875276Y-33100409D01*
X295865752Y-33081361D01*
X295856229Y-33071838D01*
X295837181Y-33062314D01*
X295570514Y-33262314D02*
X295637181Y-33167076D01*
X295684800Y-33262314D02*
X295684800Y-33062314D01*
X295608610Y-33062314D01*
X295589562Y-33071838D01*
X295580038Y-33081361D01*
X295570514Y-33100409D01*
X295570514Y-33128980D01*
X295580038Y-33148028D01*
X295589562Y-33157552D01*
X295608610Y-33167076D01*
X295684800Y-33167076D01*
X295446705Y-33062314D02*
X295427657Y-33062314D01*
X295408610Y-33071838D01*
X295399086Y-33081361D01*
X295389562Y-33100409D01*
X295380038Y-33138504D01*
X295380038Y-33186123D01*
X295389562Y-33224218D01*
X295399086Y-33243266D01*
X295408610Y-33252790D01*
X295427657Y-33262314D01*
X295446705Y-33262314D01*
X295465752Y-33252790D01*
X295475276Y-33243266D01*
X295484800Y-33224218D01*
X295494324Y-33186123D01*
X295494324Y-33138504D01*
X295484800Y-33100409D01*
X295475276Y-33081361D01*
X295465752Y-33071838D01*
X295446705Y-33062314D01*
D14*
X297446705Y-30993266D02*
X297046705Y-31593266D01*
X297046705Y-30993266D02*
X297446705Y-31593266D01*
X296503848Y-31593266D02*
X296846705Y-31593266D01*
X296675276Y-31593266D02*
X296675276Y-30993266D01*
X296732419Y-31078980D01*
X296789562Y-31136123D01*
X296846705Y-31164695D01*
D11*
X305840235Y-22726040D02*
X305602140Y-22559374D01*
X305840235Y-22440326D02*
X305340235Y-22440326D01*
X305340235Y-22630802D01*
X305364045Y-22678421D01*
X305387854Y-22702231D01*
X305435473Y-22726040D01*
X305506902Y-22726040D01*
X305554521Y-22702231D01*
X305578330Y-22678421D01*
X305602140Y-22630802D01*
X305602140Y-22440326D01*
X305840235Y-23202231D02*
X305840235Y-22916516D01*
X305840235Y-23059374D02*
X305340235Y-23059374D01*
X305411664Y-23011754D01*
X305459283Y-22964135D01*
X305483092Y-22916516D01*
X322512145Y-22726040D02*
X322274050Y-22559374D01*
X322512145Y-22440326D02*
X322012145Y-22440326D01*
X322012145Y-22630802D01*
X322035955Y-22678421D01*
X322059764Y-22702231D01*
X322107383Y-22726040D01*
X322178812Y-22726040D01*
X322226431Y-22702231D01*
X322250240Y-22678421D01*
X322274050Y-22630802D01*
X322274050Y-22440326D01*
X322059764Y-22916516D02*
X322035955Y-22940326D01*
X322012145Y-22987945D01*
X322012145Y-23106993D01*
X322035955Y-23154612D01*
X322059764Y-23178421D01*
X322107383Y-23202231D01*
X322155002Y-23202231D01*
X322226431Y-23178421D01*
X322512145Y-22892707D01*
X322512145Y-23202231D01*
X355846527Y-22726040D02*
X355608432Y-22559374D01*
X355846527Y-22440326D02*
X355346527Y-22440326D01*
X355346527Y-22630802D01*
X355370337Y-22678421D01*
X355394146Y-22702231D01*
X355441765Y-22726040D01*
X355513194Y-22726040D01*
X355560813Y-22702231D01*
X355584622Y-22678421D01*
X355608432Y-22630802D01*
X355608432Y-22440326D01*
X355346527Y-22892707D02*
X355346527Y-23202231D01*
X355537003Y-23035564D01*
X355537003Y-23106993D01*
X355560813Y-23154612D01*
X355584622Y-23178421D01*
X355632241Y-23202231D01*
X355751289Y-23202231D01*
X355798908Y-23178421D01*
X355822717Y-23154612D01*
X355846527Y-23106993D01*
X355846527Y-22964135D01*
X355822717Y-22916516D01*
X355798908Y-22892707D01*
D10*
X290476758Y-22620730D02*
X290500568Y-22644539D01*
X290571996Y-22668349D01*
X290619615Y-22668349D01*
X290691044Y-22644539D01*
X290738663Y-22596920D01*
X290762473Y-22549301D01*
X290786282Y-22454063D01*
X290786282Y-22382635D01*
X290762473Y-22287397D01*
X290738663Y-22239778D01*
X290691044Y-22192159D01*
X290619615Y-22168349D01*
X290571996Y-22168349D01*
X290500568Y-22192159D01*
X290476758Y-22215968D01*
X290000568Y-22668349D02*
X290286282Y-22668349D01*
X290143425Y-22668349D02*
X290143425Y-22168349D01*
X290191044Y-22239778D01*
X290238663Y-22287397D01*
X290286282Y-22311206D01*
X289691044Y-22168349D02*
X289643425Y-22168349D01*
X289595806Y-22192159D01*
X289571996Y-22215968D01*
X289548187Y-22263587D01*
X289524377Y-22358825D01*
X289524377Y-22477873D01*
X289548187Y-22573111D01*
X289571996Y-22620730D01*
X289595806Y-22644539D01*
X289643425Y-22668349D01*
X289691044Y-22668349D01*
X289738663Y-22644539D01*
X289762473Y-22620730D01*
X289786282Y-22573111D01*
X289810092Y-22477873D01*
X289810092Y-22358825D01*
X289786282Y-22263587D01*
X289762473Y-22215968D01*
X289738663Y-22192159D01*
X289691044Y-22168349D01*
X289048187Y-22668349D02*
X289333901Y-22668349D01*
X289191044Y-22668349D02*
X289191044Y-22168349D01*
X289238663Y-22239778D01*
X289286282Y-22287397D01*
X289333901Y-22311206D01*
X255615259Y-57553796D02*
X255115259Y-57553796D01*
X255115259Y-57672843D01*
X255139069Y-57744272D01*
X255186688Y-57791891D01*
X255234307Y-57815700D01*
X255329545Y-57839510D01*
X255400973Y-57839510D01*
X255496211Y-57815700D01*
X255543830Y-57791891D01*
X255591449Y-57744272D01*
X255615259Y-57672843D01*
X255615259Y-57553796D01*
X255281926Y-58268081D02*
X255615259Y-58268081D01*
X255091449Y-58149034D02*
X255448592Y-58029986D01*
X255448592Y-58339510D01*
X255615259Y-58553796D02*
X255615259Y-58649034D01*
X255591449Y-58696653D01*
X255567640Y-58720462D01*
X255496211Y-58768081D01*
X255400973Y-58791891D01*
X255210497Y-58791891D01*
X255162878Y-58768081D01*
X255139069Y-58744272D01*
X255115259Y-58696653D01*
X255115259Y-58601415D01*
X255139069Y-58553796D01*
X255162878Y-58529986D01*
X255210497Y-58506177D01*
X255329545Y-58506177D01*
X255377164Y-58529986D01*
X255400973Y-58553796D01*
X255424783Y-58601415D01*
X255424783Y-58696653D01*
X255400973Y-58744272D01*
X255377164Y-58768081D01*
X255329545Y-58791891D01*
X277975185Y-35122303D02*
X277998995Y-35146112D01*
X278070423Y-35169922D01*
X278118042Y-35169922D01*
X278189471Y-35146112D01*
X278237090Y-35098493D01*
X278260900Y-35050874D01*
X278284709Y-34955636D01*
X278284709Y-34884208D01*
X278260900Y-34788970D01*
X278237090Y-34741351D01*
X278189471Y-34693732D01*
X278118042Y-34669922D01*
X278070423Y-34669922D01*
X277998995Y-34693732D01*
X277975185Y-34717541D01*
X277498995Y-35169922D02*
X277784709Y-35169922D01*
X277641852Y-35169922D02*
X277641852Y-34669922D01*
X277689471Y-34741351D01*
X277737090Y-34788970D01*
X277784709Y-34812779D01*
X277189471Y-34669922D02*
X277141852Y-34669922D01*
X277094233Y-34693732D01*
X277070423Y-34717541D01*
X277046614Y-34765160D01*
X277022804Y-34860398D01*
X277022804Y-34979446D01*
X277046614Y-35074684D01*
X277070423Y-35122303D01*
X277094233Y-35146112D01*
X277141852Y-35169922D01*
X277189471Y-35169922D01*
X277237090Y-35146112D01*
X277260900Y-35122303D01*
X277284709Y-35074684D01*
X277308519Y-34979446D01*
X277308519Y-34860398D01*
X277284709Y-34765160D01*
X277260900Y-34717541D01*
X277237090Y-34693732D01*
X277189471Y-34669922D01*
X276594233Y-34669922D02*
X276689471Y-34669922D01*
X276737090Y-34693732D01*
X276760900Y-34717541D01*
X276808519Y-34788970D01*
X276832328Y-34884208D01*
X276832328Y-35074684D01*
X276808519Y-35122303D01*
X276784709Y-35146112D01*
X276737090Y-35169922D01*
X276641852Y-35169922D01*
X276594233Y-35146112D01*
X276570423Y-35122303D01*
X276546614Y-35074684D01*
X276546614Y-34955636D01*
X276570423Y-34908017D01*
X276594233Y-34884208D01*
X276641852Y-34860398D01*
X276737090Y-34860398D01*
X276784709Y-34884208D01*
X276808519Y-34908017D01*
X276832328Y-34955636D01*
D11*
X254792236Y-23515275D02*
X254958903Y-23277180D01*
X255077951Y-23515275D02*
X255077951Y-23015275D01*
X254887474Y-23015275D01*
X254839855Y-23039085D01*
X254816046Y-23062894D01*
X254792236Y-23110513D01*
X254792236Y-23181942D01*
X254816046Y-23229561D01*
X254839855Y-23253370D01*
X254887474Y-23277180D01*
X255077951Y-23277180D01*
X254316046Y-23515275D02*
X254601760Y-23515275D01*
X254458903Y-23515275D02*
X254458903Y-23015275D01*
X254506522Y-23086704D01*
X254554141Y-23134323D01*
X254601760Y-23158132D01*
X254006522Y-23015275D02*
X253958903Y-23015275D01*
X253911284Y-23039085D01*
X253887474Y-23062894D01*
X253863665Y-23110513D01*
X253839855Y-23205751D01*
X253839855Y-23324799D01*
X253863665Y-23420037D01*
X253887474Y-23467656D01*
X253911284Y-23491465D01*
X253958903Y-23515275D01*
X254006522Y-23515275D01*
X254054141Y-23491465D01*
X254077951Y-23467656D01*
X254101760Y-23420037D01*
X254125570Y-23324799D01*
X254125570Y-23205751D01*
X254101760Y-23110513D01*
X254077951Y-23062894D01*
X254054141Y-23039085D01*
X254006522Y-23015275D01*
X253649379Y-23062894D02*
X253625570Y-23039085D01*
X253577951Y-23015275D01*
X253458903Y-23015275D01*
X253411284Y-23039085D01*
X253387474Y-23062894D01*
X253363665Y-23110513D01*
X253363665Y-23158132D01*
X253387474Y-23229561D01*
X253673189Y-23515275D01*
X253363665Y-23515275D01*
D15*
X274034398Y-41467488D02*
X274034398Y-42707488D01*
X274034398Y-42707488D02*
X276034398Y-42707488D01*
X276034398Y-41467488D02*
X274034398Y-41467488D01*
X276034398Y-42707488D02*
X276034398Y-41467488D01*
X296060979Y-47469992D02*
X298060979Y-47469992D01*
X298060979Y-46229992D02*
X296060979Y-46229992D01*
X296060979Y-46229992D02*
X296060979Y-47469992D01*
X298060979Y-47469992D02*
X298060979Y-46229992D01*
X290917235Y-24203411D02*
X288917235Y-24203411D01*
X288917235Y-25443411D02*
X290917235Y-25443411D01*
X290917235Y-25443411D02*
X290917235Y-24203411D01*
X288917235Y-24203411D02*
X288917235Y-25443411D01*
X278415650Y-25394037D02*
X276415650Y-25394037D01*
X276415650Y-26634037D02*
X278415650Y-26634037D01*
X276415650Y-25394037D02*
X276415650Y-26634037D01*
X278415650Y-26634037D02*
X278415650Y-25394037D01*
X255232713Y-26290337D02*
X255232713Y-25050337D01*
X255232713Y-25050337D02*
X253232713Y-25050337D01*
X253232713Y-25050337D02*
X253232713Y-26290337D01*
X253232713Y-26290337D02*
X255232713Y-26290337D01*
X289605000Y-8310000D02*
X293415000Y-8310000D01*
X288335000Y-690000D02*
X288335000Y-7040000D01*
X293415000Y-8310000D02*
X293415000Y-690000D01*
X293415000Y-690000D02*
X288335000Y-690000D01*
X288335000Y-7040000D02*
X289605000Y-8310000D01*
X282964093Y-21822159D02*
X282964093Y-23062159D01*
X282964093Y-23062159D02*
X284964093Y-23062159D01*
X284964093Y-21822159D02*
X282964093Y-21822159D01*
X284964093Y-23062159D02*
X284964093Y-21822159D01*
X268709598Y-22307833D02*
X268709598Y-22807833D01*
X263809598Y-26507833D02*
X262309598Y-26507833D01*
X262309598Y-22307833D02*
X262309598Y-22807833D01*
X267209598Y-22307833D02*
X268709598Y-22307833D01*
X266509598Y-26407833D02*
X267509598Y-25407833D01*
X262309598Y-26007833D02*
X263309598Y-26007833D01*
X266709598Y-27007833D02*
X264309598Y-27007833D01*
X268109598Y-23207833D02*
X268109598Y-25607833D01*
X268709598Y-26507833D02*
X268709598Y-26007833D01*
X266709598Y-21807833D02*
X268109598Y-23207833D01*
X267209598Y-26507833D02*
X268709598Y-26507833D01*
X266509598Y-22407833D02*
X264509598Y-22407833D01*
X262809598Y-22307833D02*
X262809598Y-22807833D01*
X264309598Y-27007833D02*
X262909598Y-25607833D01*
X264509598Y-22407833D02*
X263509598Y-23407833D01*
X262309598Y-26507833D02*
X262309598Y-26007833D01*
X268209598Y-26507833D02*
X268209598Y-26007833D01*
X264309598Y-21807833D02*
X266709598Y-21807833D01*
X268209598Y-22307833D02*
X268209598Y-22807833D01*
X268709598Y-26007833D02*
X267709598Y-26007833D01*
X268109598Y-25607833D02*
X266709598Y-27007833D01*
X267509598Y-25407833D02*
X267509598Y-23407833D01*
X263509598Y-23407833D02*
X263509598Y-25407833D01*
X264509598Y-26407833D02*
X266509598Y-26407833D01*
X267509598Y-23407833D02*
X266509598Y-22407833D01*
X262809598Y-26507833D02*
X262809598Y-26007833D01*
X262909598Y-23207833D02*
X264309598Y-21807833D01*
X263809598Y-22307833D02*
X262309598Y-22307833D01*
X263509598Y-25407833D02*
X264509598Y-26407833D01*
X262309598Y-22807833D02*
X263309598Y-22807833D01*
X268709598Y-22807833D02*
X267709598Y-22807833D01*
X262909598Y-25607833D02*
X262909598Y-23207833D01*
X266509598Y-24407833D02*
G75*
G03*
X266509598Y-24407833I-1000000J0D01*
G01*
X248600000Y-25050000D02*
X247450000Y-25050000D01*
X246800000Y-24400000D02*
X247450000Y-25050000D01*
X246800000Y-24400000D02*
X246800000Y-21950000D01*
X248600000Y-25050000D02*
X248600000Y-21950000D01*
X248600000Y-21950000D02*
X246800000Y-21950000D01*
X283178166Y-48611228D02*
X281178166Y-48611228D01*
X281178166Y-49851228D02*
X283178166Y-49851228D01*
X281178166Y-48611228D02*
X281178166Y-49851228D01*
X283178166Y-49851228D02*
X283178166Y-48611228D01*
D12*
X159439189Y-10110939D02*
X160839189Y-10110939D01*
X159439189Y-10110939D02*
X159439189Y-12510939D01*
X160839189Y-12510939D02*
X160839189Y-10110939D01*
X160839189Y-12510939D02*
X159439189Y-12510939D01*
X317535947Y-12510939D02*
X317535947Y-10110939D01*
X316135947Y-10110939D02*
X316135947Y-12510939D01*
X316135947Y-10110939D02*
X317535947Y-10110939D01*
X317535947Y-12510939D02*
X316135947Y-12510939D01*
X105861027Y-56960939D02*
X105861027Y-59360939D01*
X107261027Y-59360939D02*
X105861027Y-59360939D01*
X105861027Y-56960939D02*
X107261027Y-56960939D01*
X107261027Y-59360939D02*
X107261027Y-56960939D01*
X111814149Y-37910939D02*
X113214149Y-37910939D01*
X111814149Y-37910939D02*
X111814149Y-40310939D01*
X113214149Y-40310939D02*
X113214149Y-37910939D01*
X113214149Y-40310939D02*
X111814149Y-40310939D01*
X16564069Y-37910939D02*
X17964069Y-37910939D01*
X17964069Y-40310939D02*
X16564069Y-40310939D01*
X16564069Y-37910939D02*
X16564069Y-40310939D01*
X17964069Y-40310939D02*
X17964069Y-37910939D01*
X246564261Y-12510939D02*
X245164261Y-12510939D01*
X246564261Y-12510939D02*
X246564261Y-10110939D01*
X245164261Y-10110939D02*
X245164261Y-12510939D01*
X245164261Y-10110939D02*
X246564261Y-10110939D01*
X102289137Y-56960939D02*
X102289137Y-59360939D01*
X103689137Y-59360939D02*
X103689137Y-56960939D01*
X103689137Y-59360939D02*
X102289137Y-59360939D01*
X102289137Y-56960939D02*
X103689137Y-56960939D01*
X248736135Y-37910891D02*
X248736135Y-40310891D01*
X250136135Y-40310891D02*
X250136135Y-37910891D01*
X250136135Y-40310891D02*
X248736135Y-40310891D01*
X248736135Y-37910891D02*
X250136135Y-37910891D01*
X336585963Y-12510939D02*
X335185963Y-12510939D01*
X336585963Y-12510939D02*
X336585963Y-10110939D01*
X335185963Y-10110939D02*
X335185963Y-12510939D01*
X335185963Y-10110939D02*
X336585963Y-10110939D01*
X64189105Y-56960939D02*
X65589105Y-56960939D01*
X64189105Y-56960939D02*
X64189105Y-59360939D01*
X65589105Y-59360939D02*
X64189105Y-59360939D01*
X65589105Y-59360939D02*
X65589105Y-56960939D01*
X168964197Y-37910939D02*
X170364197Y-37910939D01*
X168964197Y-37910939D02*
X168964197Y-40310939D01*
X170364197Y-40310939D02*
X170364197Y-37910939D01*
X170364197Y-40310939D02*
X168964197Y-40310939D01*
X31060963Y-59360939D02*
X31060963Y-56960939D01*
X29660963Y-56960939D02*
X29660963Y-59360939D01*
X31060963Y-59360939D02*
X29660963Y-59360939D01*
X29660963Y-56960939D02*
X31060963Y-56960939D01*
X317535947Y-40310939D02*
X317535947Y-37910939D01*
X316135947Y-37910939D02*
X316135947Y-40310939D01*
X316135947Y-37910939D02*
X317535947Y-37910939D01*
X317535947Y-40310939D02*
X316135947Y-40310939D01*
X227514245Y-40310939D02*
X226114245Y-40310939D01*
X226114245Y-37910939D02*
X226114245Y-40310939D01*
X227514245Y-40310939D02*
X227514245Y-37910939D01*
X226114245Y-37910939D02*
X227514245Y-37910939D01*
X54664101Y-37910939D02*
X56064101Y-37910939D01*
X56064101Y-40310939D02*
X54664101Y-40310939D01*
X56064101Y-40310939D02*
X56064101Y-37910939D01*
X54664101Y-37910939D02*
X54664101Y-40310939D01*
X312434638Y-10110939D02*
X313834638Y-10110939D01*
X312434638Y-10110939D02*
X312434638Y-12510939D01*
X313834638Y-12510939D02*
X312434638Y-12510939D01*
X313834638Y-12510939D02*
X313834638Y-10110939D01*
X151314181Y-40310939D02*
X151314181Y-37910939D01*
X149914181Y-37910939D02*
X151314181Y-37910939D01*
X151314181Y-40310939D02*
X149914181Y-40310939D01*
X149914181Y-37910939D02*
X149914181Y-40310939D01*
X92764133Y-37910939D02*
X94164133Y-37910939D01*
X94164133Y-40310939D02*
X94164133Y-37910939D01*
X92764133Y-37910939D02*
X92764133Y-40310939D01*
X94164133Y-40310939D02*
X92764133Y-40310939D01*
X250136147Y-12510939D02*
X248736147Y-12510939D01*
X248736147Y-10110939D02*
X248736147Y-12510939D01*
X248736147Y-10110939D02*
X250136147Y-10110939D01*
X250136147Y-12510939D02*
X250136147Y-10110939D01*
X140389173Y-10110939D02*
X141789173Y-10110939D01*
X141789173Y-12510939D02*
X140389173Y-12510939D01*
X140389173Y-10110939D02*
X140389173Y-12510939D01*
X141789173Y-12510939D02*
X141789173Y-10110939D01*
X189414213Y-40310939D02*
X188014213Y-40310939D01*
X188014213Y-37910939D02*
X189414213Y-37910939D01*
X188014213Y-37910939D02*
X188014213Y-40310939D01*
X189414213Y-40310939D02*
X189414213Y-37910939D01*
X73714117Y-37910939D02*
X75114117Y-37910939D01*
X75114117Y-40310939D02*
X73714117Y-40310939D01*
X75114117Y-40310939D02*
X75114117Y-37910939D01*
X73714117Y-37910939D02*
X73714117Y-40310939D01*
X284664293Y-12510939D02*
X283264293Y-12510939D01*
X283264293Y-10110939D02*
X283264293Y-12510939D01*
X284664293Y-12510939D02*
X284664293Y-10110939D01*
X283264293Y-10110939D02*
X284664293Y-10110939D01*
X313964069Y-40310939D02*
X312564069Y-40310939D01*
X313964069Y-40310939D02*
X313964069Y-37910939D01*
X312564069Y-37910939D02*
X313964069Y-37910939D01*
X312564069Y-37910939D02*
X312564069Y-40310939D01*
X207064229Y-37910939D02*
X207064229Y-40310939D01*
X207064229Y-37910939D02*
X208464229Y-37910939D01*
X208464229Y-40310939D02*
X208464229Y-37910939D01*
X208464229Y-40310939D02*
X207064229Y-40310939D01*
X22726569Y-59360939D02*
X21326569Y-59360939D01*
X21326569Y-56960939D02*
X21326569Y-59360939D01*
X22726569Y-59360939D02*
X22726569Y-56960939D01*
X21326569Y-56960939D02*
X22726569Y-56960939D01*
X245164251Y-37910891D02*
X245164251Y-40310891D01*
X246564251Y-40310891D02*
X246564251Y-37910891D01*
X245164251Y-37910891D02*
X246564251Y-37910891D01*
X246564251Y-40310891D02*
X245164251Y-40310891D01*
X132264165Y-40310939D02*
X132264165Y-37910939D01*
X130864165Y-37910939D02*
X132264165Y-37910939D01*
X130864165Y-37910939D02*
X130864165Y-40310939D01*
X132264165Y-40310939D02*
X130864165Y-40310939D01*
X226114245Y-10110939D02*
X227514245Y-10110939D01*
X227514245Y-12510939D02*
X226114245Y-12510939D01*
X226114245Y-10110939D02*
X226114245Y-12510939D01*
X227514245Y-12510939D02*
X227514245Y-10110939D01*
X35614085Y-37910939D02*
X35614085Y-40310939D01*
X35614085Y-37910939D02*
X37014085Y-37910939D01*
X37014085Y-40310939D02*
X35614085Y-40310939D01*
X37014085Y-40310939D02*
X37014085Y-37910939D01*
X163011075Y-10110939D02*
X163011075Y-12510939D01*
X163011075Y-10110939D02*
X164411075Y-10110939D01*
X164411075Y-12510939D02*
X164411075Y-10110939D01*
X164411075Y-12510939D02*
X163011075Y-12510939D01*
X331614085Y-10110939D02*
X333014085Y-10110939D01*
X333014085Y-12510939D02*
X331614085Y-12510939D01*
X331614085Y-10110939D02*
X331614085Y-12510939D01*
X333014085Y-12510939D02*
X333014085Y-10110939D01*
X335185963Y-37910939D02*
X336585963Y-37910939D01*
X336585963Y-40310939D02*
X335185963Y-40310939D01*
X335185963Y-37910939D02*
X335185963Y-40310939D01*
X336585963Y-40310939D02*
X336585963Y-37910939D01*
X316135931Y-114110939D02*
X317535931Y-114110939D01*
X317535931Y-116510939D02*
X317535931Y-114110939D01*
X316135931Y-114110939D02*
X316135931Y-116510939D01*
X317535931Y-116510939D02*
X316135931Y-116510939D01*
X89604500Y-116510939D02*
X89604500Y-114110939D01*
X88204500Y-114110939D02*
X88204500Y-116510939D01*
X88204500Y-114110939D02*
X89604500Y-114110939D01*
X89604500Y-116510939D02*
X88204500Y-116510939D01*
X22731569Y-116510939D02*
X22731569Y-114110939D01*
X21331569Y-114110939D02*
X21331569Y-116510939D01*
X21331569Y-114110939D02*
X22731569Y-114110939D01*
X22731569Y-116510939D02*
X21331569Y-116510939D01*
X307314101Y-119110939D02*
X307314101Y-121510939D01*
X308714101Y-121510939D02*
X308714101Y-119110939D01*
X307314101Y-119110939D02*
X308714101Y-119110939D01*
X308714101Y-121510939D02*
X307314101Y-121510939D01*
X333014085Y-97460971D02*
X333014085Y-95060971D01*
X333014085Y-97460971D02*
X331614085Y-97460971D01*
X331614085Y-95060971D02*
X333014085Y-95060971D01*
X331614085Y-95060971D02*
X331614085Y-97460971D01*
X26298431Y-116510939D02*
X26298431Y-114110939D01*
X24898431Y-114110939D02*
X24898431Y-116510939D01*
X24898431Y-114110939D02*
X26298431Y-114110939D01*
X26298431Y-116510939D02*
X24898431Y-116510939D01*
X336585947Y-97460939D02*
X335185947Y-97460939D01*
X335185947Y-95060939D02*
X335185947Y-97460939D01*
X335185947Y-95060939D02*
X336585947Y-95060939D01*
X336585947Y-97460939D02*
X336585947Y-95060939D01*
X222751569Y-116510939D02*
X221351569Y-116510939D01*
X221351569Y-114110939D02*
X222751569Y-114110939D01*
X221351569Y-114110939D02*
X221351569Y-116510939D01*
X222751569Y-116510939D02*
X222751569Y-114110939D01*
X115363431Y-114110939D02*
X116763431Y-114110939D01*
X115363431Y-114110939D02*
X115363431Y-116510939D01*
X116763431Y-116510939D02*
X115363431Y-116510939D01*
X116763431Y-116510939D02*
X116763431Y-114110939D01*
X312564069Y-95060971D02*
X312564069Y-97460971D01*
X313964069Y-97460971D02*
X313964069Y-95060971D01*
X312564069Y-95060971D02*
X313964069Y-95060971D01*
X313964069Y-97460971D02*
X312564069Y-97460971D01*
X230876745Y-95060971D02*
X232276745Y-95060971D01*
X232276745Y-97460971D02*
X232276745Y-95060971D01*
X232276745Y-97460971D02*
X230876745Y-97460971D01*
X230876745Y-95060971D02*
X230876745Y-97460971D01*
X175126697Y-97460971D02*
X175126697Y-95060971D01*
X173726697Y-95060971D02*
X175126697Y-95060971D01*
X175126697Y-97460971D02*
X173726697Y-97460971D01*
X173726697Y-95060971D02*
X173726697Y-97460971D01*
X135626665Y-95060971D02*
X137026665Y-95060971D01*
X137026665Y-97460971D02*
X135626665Y-97460971D01*
X135626665Y-95060971D02*
X135626665Y-97460971D01*
X137026665Y-97460971D02*
X137026665Y-95060971D01*
X116576649Y-95060971D02*
X116576649Y-97460971D01*
X116576649Y-95060971D02*
X117976649Y-95060971D01*
X117976649Y-97460971D02*
X116576649Y-97460971D01*
X117976649Y-97460971D02*
X117976649Y-95060971D01*
X60826601Y-97460971D02*
X59426601Y-97460971D01*
X59426601Y-95060971D02*
X60826601Y-95060971D01*
X60826601Y-97460971D02*
X60826601Y-95060971D01*
X59426601Y-95060971D02*
X59426601Y-97460971D01*
X316135947Y-76010955D02*
X316135947Y-78410955D01*
X317535947Y-78410955D02*
X317535947Y-76010955D01*
X317535947Y-78410955D02*
X316135947Y-78410955D01*
X316135947Y-76010955D02*
X317535947Y-76010955D01*
X107051641Y-76010955D02*
X107051641Y-78410955D01*
X108451641Y-78410955D02*
X108451641Y-76010955D01*
X108451641Y-78410955D02*
X107051641Y-78410955D01*
X107051641Y-76010955D02*
X108451641Y-76010955D01*
X221351737Y-76010955D02*
X222751737Y-76010955D01*
X222751737Y-78410955D02*
X222751737Y-76010955D01*
X222751737Y-78410955D02*
X221351737Y-78410955D01*
X221351737Y-76010955D02*
X221351737Y-78410955D01*
X203701721Y-78410955D02*
X203701721Y-76010955D01*
X202301721Y-76010955D02*
X202301721Y-78410955D01*
X203701721Y-78410955D02*
X202301721Y-78410955D01*
X202301721Y-76010955D02*
X203701721Y-76010955D01*
X235639149Y-56960939D02*
X237039149Y-56960939D01*
X237039149Y-59360939D02*
X235639149Y-59360939D01*
X237039149Y-59360939D02*
X237039149Y-56960939D01*
X235639149Y-56960939D02*
X235639149Y-59360939D01*
X70351609Y-78410955D02*
X70351609Y-76010955D01*
X68951609Y-76010955D02*
X70351609Y-76010955D01*
X70351609Y-78410955D02*
X68951609Y-78410955D01*
X68951609Y-76010955D02*
X68951609Y-78410955D01*
X165601689Y-78410955D02*
X165601689Y-76010955D01*
X165601689Y-78410955D02*
X164201689Y-78410955D01*
X164201689Y-76010955D02*
X165601689Y-76010955D01*
X164201689Y-76010955D02*
X164201689Y-78410955D01*
X146551673Y-78410955D02*
X146551673Y-76010955D01*
X145151673Y-76010955D02*
X145151673Y-78410955D01*
X145151673Y-76010955D02*
X146551673Y-76010955D01*
X146551673Y-78410955D02*
X145151673Y-78410955D01*
X140389169Y-56960939D02*
X141789169Y-56960939D01*
X140389169Y-56960939D02*
X140389169Y-59360939D01*
X141789169Y-59360939D02*
X141789169Y-56960939D01*
X141789169Y-59360939D02*
X140389169Y-59360939D01*
X336585963Y-59360939D02*
X335185963Y-59360939D01*
X335185963Y-56960939D02*
X335185963Y-59360939D01*
X336585963Y-59360939D02*
X336585963Y-56960939D01*
X335185963Y-56960939D02*
X336585963Y-56960939D01*
X45348463Y-97460971D02*
X43948463Y-97460971D01*
X43948463Y-95060971D02*
X45348463Y-95060971D01*
X43948463Y-95060971D02*
X43948463Y-97460971D01*
X45348463Y-97460971D02*
X45348463Y-95060971D01*
X183251705Y-76010955D02*
X184651705Y-76010955D01*
X183251705Y-76010955D02*
X183251705Y-78410955D01*
X184651705Y-78410955D02*
X183251705Y-78410955D01*
X184651705Y-78410955D02*
X184651705Y-76010955D01*
X331614069Y-114110939D02*
X333014069Y-114110939D01*
X333014069Y-116510939D02*
X331614069Y-116510939D01*
X333014069Y-116510939D02*
X333014069Y-114110939D01*
X331614069Y-114110939D02*
X331614069Y-116510939D01*
X257070319Y-95060939D02*
X258470319Y-95060939D01*
X258470319Y-97460939D02*
X257070319Y-97460939D01*
X257070319Y-95060939D02*
X257070319Y-97460939D01*
X258470319Y-97460939D02*
X258470319Y-95060939D01*
X192776713Y-95060971D02*
X194176713Y-95060971D01*
X194176713Y-97460971D02*
X192776713Y-97460971D01*
X192776713Y-95060971D02*
X192776713Y-97460971D01*
X194176713Y-97460971D02*
X194176713Y-95060971D01*
X241801569Y-78410955D02*
X241801569Y-76010955D01*
X240401569Y-76010955D02*
X241801569Y-76010955D01*
X240401569Y-76010955D02*
X240401569Y-78410955D01*
X241801569Y-78410955D02*
X240401569Y-78410955D01*
X154676681Y-95060971D02*
X154676681Y-97460971D01*
X156076681Y-97460971D02*
X154676681Y-97460971D01*
X154676681Y-95060971D02*
X156076681Y-95060971D01*
X156076681Y-97460971D02*
X156076681Y-95060971D01*
X317535947Y-59360939D02*
X317535947Y-56960939D01*
X316135947Y-56960939D02*
X317535947Y-56960939D01*
X317535947Y-59360939D02*
X316135947Y-59360939D01*
X316135947Y-56960939D02*
X316135947Y-59360939D01*
X197539229Y-56960939D02*
X197539229Y-59360939D01*
X197539229Y-56960939D02*
X198939229Y-56960939D01*
X198939229Y-59360939D02*
X198939229Y-56960939D01*
X198939229Y-59360939D02*
X197539229Y-59360939D01*
X159439185Y-56960939D02*
X159439185Y-59360939D01*
X160839185Y-59360939D02*
X159439185Y-59360939D01*
X159439185Y-56960939D02*
X160839185Y-56960939D01*
X160839185Y-59360939D02*
X160839185Y-56960939D01*
X98926633Y-97460971D02*
X97526633Y-97460971D01*
X97526633Y-95060971D02*
X98926633Y-95060971D01*
X97526633Y-95060971D02*
X97526633Y-97460971D01*
X98926633Y-97460971D02*
X98926633Y-95060971D01*
X23707821Y-76010955D02*
X23707821Y-78410955D01*
X25107821Y-78410955D02*
X25107821Y-76010955D01*
X23707821Y-76010955D02*
X25107821Y-76010955D01*
X25107821Y-78410955D02*
X23707821Y-78410955D01*
X331614085Y-56960939D02*
X331614085Y-59360939D01*
X333014085Y-59360939D02*
X333014085Y-56960939D01*
X331614085Y-56960939D02*
X333014085Y-56960939D01*
X333014085Y-59360939D02*
X331614085Y-59360939D01*
X258260947Y-56960939D02*
X259660947Y-56960939D01*
X259660947Y-59360939D02*
X258260947Y-59360939D01*
X258260947Y-56960939D02*
X258260947Y-59360939D01*
X259660947Y-59360939D02*
X259660947Y-56960939D01*
X89401625Y-78410955D02*
X88001625Y-78410955D01*
X88001625Y-76010955D02*
X88001625Y-78410955D01*
X89401625Y-78410955D02*
X89401625Y-76010955D01*
X88001625Y-76010955D02*
X89401625Y-76010955D01*
X312564069Y-76010955D02*
X313964069Y-76010955D01*
X313964069Y-78410955D02*
X313964069Y-76010955D01*
X313964069Y-78410955D02*
X312564069Y-78410955D01*
X312564069Y-76010955D02*
X312564069Y-78410955D01*
X178489201Y-56960939D02*
X178489201Y-59360939D01*
X178489201Y-56960939D02*
X179889201Y-56960939D01*
X179889201Y-59360939D02*
X179889201Y-56960939D01*
X179889201Y-59360939D02*
X178489201Y-59360939D01*
X316135947Y-95060971D02*
X317535947Y-95060971D01*
X317535947Y-97460971D02*
X316135947Y-97460971D01*
X317535947Y-97460971D02*
X317535947Y-95060971D01*
X316135947Y-95060971D02*
X316135947Y-97460971D01*
X288264085Y-100060923D02*
X288264085Y-102460923D01*
X289664085Y-102460923D02*
X289664085Y-100060923D01*
X289664085Y-102460923D02*
X288264085Y-102460923D01*
X288264085Y-100060923D02*
X289664085Y-100060923D01*
X213226729Y-97460971D02*
X213226729Y-95060971D01*
X211826729Y-95060971D02*
X211826729Y-97460971D01*
X211826729Y-95060971D02*
X213226729Y-95060971D01*
X213226729Y-97460971D02*
X211826729Y-97460971D01*
X126101657Y-76010955D02*
X126101657Y-78410955D01*
X127501657Y-78410955D02*
X127501657Y-76010955D01*
X126101657Y-76010955D02*
X127501657Y-76010955D01*
X127501657Y-78410955D02*
X126101657Y-78410955D01*
X201111095Y-56960939D02*
X202511095Y-56960939D01*
X202511095Y-59360939D02*
X202511095Y-56960939D01*
X201111095Y-56960939D02*
X201111095Y-59360939D01*
X202511095Y-59360939D02*
X201111095Y-59360939D01*
X78476617Y-95060971D02*
X79876617Y-95060971D01*
X79876617Y-97460971D02*
X78476617Y-97460971D01*
X79876617Y-97460971D02*
X79876617Y-95060971D01*
X78476617Y-95060971D02*
X78476617Y-97460971D01*
X335185931Y-76010939D02*
X335185931Y-78410939D01*
X336585931Y-78410939D02*
X335185931Y-78410939D01*
X336585931Y-78410939D02*
X336585931Y-76010939D01*
X335185931Y-76010939D02*
X336585931Y-76010939D01*
X224923615Y-76010955D02*
X224923615Y-78410955D01*
X224923615Y-76010955D02*
X226323615Y-76010955D01*
X226323615Y-78410955D02*
X224923615Y-78410955D01*
X226323615Y-78410955D02*
X226323615Y-76010955D01*
X49901593Y-76010955D02*
X49901593Y-78410955D01*
X49901593Y-76010955D02*
X51301593Y-76010955D01*
X51301593Y-78410955D02*
X51301593Y-76010955D01*
X51301593Y-78410955D02*
X49901593Y-78410955D01*
X113214149Y-12510939D02*
X113214149Y-10110939D01*
X111814149Y-10110939D02*
X111814149Y-12510939D01*
X111814149Y-10110939D02*
X113214149Y-10110939D01*
X113214149Y-12510939D02*
X111814149Y-12510939D01*
X35614085Y-10110939D02*
X37014085Y-10110939D01*
X37014085Y-12510939D02*
X37014085Y-10110939D01*
X37014085Y-12510939D02*
X35614085Y-12510939D01*
X35614085Y-10110939D02*
X35614085Y-12510939D01*
X78685995Y-12510939D02*
X78685995Y-10110939D01*
X78685995Y-12510939D02*
X77285995Y-12510939D01*
X77285995Y-10110939D02*
X77285995Y-12510939D01*
X77285995Y-10110939D02*
X78685995Y-10110939D01*
X75114117Y-12510939D02*
X73714117Y-12510939D01*
X73714117Y-10110939D02*
X75114117Y-10110939D01*
X75114117Y-12510939D02*
X75114117Y-10110939D01*
X73714117Y-10110939D02*
X73714117Y-12510939D01*
X40585963Y-12510939D02*
X40585963Y-10110939D01*
X39185963Y-10110939D02*
X39185963Y-12510939D01*
X40585963Y-12510939D02*
X39185963Y-12510939D01*
X39185963Y-10110939D02*
X40585963Y-10110939D01*
D15*
X231675000Y-25125000D02*
X240925000Y-25125000D01*
X232425000Y-20250000D02*
X232425000Y-21125000D01*
X232925000Y-21125000D02*
X232925000Y-20250000D01*
X238925000Y-25125000D02*
X238925000Y-26000000D01*
X241675000Y-24375000D02*
X241675000Y-21125000D01*
X236425000Y-26000000D02*
X236425000Y-25125000D01*
X240925000Y-21125000D02*
X240925000Y-20250000D01*
X234925000Y-26000000D02*
X234425000Y-26000000D01*
X238425000Y-26000000D02*
X238425000Y-25125000D01*
X240925000Y-26000000D02*
X240425000Y-26000000D01*
X241675000Y-21125000D02*
X231675000Y-21125000D01*
X234925000Y-20250000D02*
X234425000Y-20250000D01*
X240925000Y-25125000D02*
X241675000Y-24375000D01*
X238925000Y-26000000D02*
X238425000Y-26000000D01*
X240925000Y-20250000D02*
X240425000Y-20250000D01*
X236925000Y-20250000D02*
X236425000Y-20250000D01*
X232925000Y-20250000D02*
X232425000Y-20250000D01*
X234925000Y-21125000D02*
X234925000Y-20250000D01*
X236425000Y-20250000D02*
X236425000Y-21125000D01*
X238925000Y-20250000D02*
X238425000Y-20250000D01*
X240425000Y-26000000D02*
X240425000Y-25125000D01*
X232925000Y-25125000D02*
X232925000Y-26000000D01*
X240925000Y-25125000D02*
X240925000Y-26000000D01*
X232925000Y-26000000D02*
X232425000Y-26000000D01*
X234425000Y-20250000D02*
X234425000Y-21125000D01*
X234925000Y-25125000D02*
X234925000Y-26000000D01*
X231675000Y-21125000D02*
X231675000Y-25125000D01*
X232425000Y-26000000D02*
X232425000Y-25125000D01*
X238925000Y-21125000D02*
X238925000Y-20250000D01*
X236925000Y-25125000D02*
X236925000Y-26000000D01*
X236925000Y-21125000D02*
X236925000Y-20250000D01*
X238425000Y-20250000D02*
X238425000Y-21125000D01*
X236925000Y-26000000D02*
X236425000Y-26000000D01*
X234425000Y-26000000D02*
X234425000Y-25125000D01*
X240425000Y-20250000D02*
X240425000Y-21125000D01*
X253232713Y-20287833D02*
X253232713Y-21527833D01*
X253232713Y-21527833D02*
X255232713Y-21527833D01*
X255232713Y-21527833D02*
X255232713Y-20287833D01*
X255232713Y-20287833D02*
X253232713Y-20287833D01*
D12*
X198939221Y-12510939D02*
X197539221Y-12510939D01*
X198939221Y-12510939D02*
X198939221Y-10110939D01*
X197539221Y-10110939D02*
X197539221Y-12510939D01*
X197539221Y-10110939D02*
X198939221Y-10110939D01*
X243973631Y-76010955D02*
X245373631Y-76010955D01*
X245373631Y-78410955D02*
X245373631Y-76010955D01*
X245373631Y-78410955D02*
X243973631Y-78410955D01*
X243973631Y-76010955D02*
X243973631Y-78410955D01*
X40376585Y-95060971D02*
X41776585Y-95060971D01*
X41776585Y-97460971D02*
X41776585Y-95060971D01*
X41776585Y-97460971D02*
X40376585Y-97460971D01*
X40376585Y-95060971D02*
X40376585Y-97460971D01*
X292535983Y-43515610D02*
X292535983Y-33515610D01*
X282535983Y-34515610D02*
X282535983Y-43515610D01*
X283535983Y-33515610D02*
X282535983Y-34515610D01*
X282535983Y-43515610D02*
X292535983Y-43515610D01*
X292535983Y-33515610D02*
X283535983Y-33515610D01*
X270614069Y-121510939D02*
X270614069Y-119110939D01*
X269214069Y-119110939D02*
X270614069Y-119110939D01*
X269214069Y-119110939D02*
X269214069Y-121510939D01*
X270614069Y-121510939D02*
X269214069Y-121510939D01*
X274185931Y-121510939D02*
X272785931Y-121510939D01*
X274185931Y-121510939D02*
X274185931Y-119110939D01*
X272785931Y-119110939D02*
X274185931Y-119110939D01*
X272785931Y-119110939D02*
X272785931Y-121510939D01*
X313964069Y-59360939D02*
X313964069Y-56960939D01*
X312564069Y-56960939D02*
X313964069Y-56960939D01*
X313964069Y-59360939D02*
X312564069Y-59360939D01*
X312564069Y-56960939D02*
X312564069Y-59360939D01*
X333014085Y-40310939D02*
X331614085Y-40310939D01*
X333014085Y-40310939D02*
X333014085Y-37910939D01*
X331614085Y-37910939D02*
X333014085Y-37910939D01*
X331614085Y-37910939D02*
X331614085Y-40310939D01*
X67760983Y-56960939D02*
X67760983Y-59360939D01*
X69160983Y-59360939D02*
X69160983Y-56960939D01*
X69160983Y-59360939D02*
X67760983Y-59360939D01*
X67760983Y-56960939D02*
X69160983Y-56960939D01*
X167544250Y-114110939D02*
X167544250Y-116510939D01*
X168944250Y-116510939D02*
X168944250Y-114110939D01*
X167544250Y-114110939D02*
X168944250Y-114110939D01*
X168944250Y-116510939D02*
X167544250Y-116510939D01*
X244182819Y-116510939D02*
X244182819Y-114110939D01*
X242782819Y-114110939D02*
X242782819Y-116510939D01*
X244182819Y-116510939D02*
X242782819Y-116510939D01*
X242782819Y-114110939D02*
X244182819Y-114110939D01*
D15*
X295310991Y-32171838D02*
X295310991Y-30571838D01*
X298310991Y-32171838D02*
X298810991Y-31671838D01*
X298310991Y-32171838D02*
X295310991Y-32171838D01*
X298810991Y-31671838D02*
X298810991Y-30571838D01*
X295310991Y-30571838D02*
X298810991Y-30571838D01*
X304994045Y-21809374D02*
X304994045Y-23809374D01*
X306234045Y-23809374D02*
X306234045Y-21809374D01*
X306234045Y-21809374D02*
X304994045Y-21809374D01*
X304994045Y-23809374D02*
X306234045Y-23809374D01*
X321665955Y-23809374D02*
X322905955Y-23809374D01*
X322905955Y-21809374D02*
X321665955Y-21809374D01*
X322905955Y-23809374D02*
X322905955Y-21809374D01*
X321665955Y-21809374D02*
X321665955Y-23809374D01*
X355000337Y-21809374D02*
X355000337Y-23809374D01*
X356240337Y-21809374D02*
X355000337Y-21809374D01*
X356240337Y-23809374D02*
X356240337Y-21809374D01*
X355000337Y-23809374D02*
X356240337Y-23809374D01*
X290917235Y-21822159D02*
X288917235Y-21822159D01*
X290917235Y-23062159D02*
X290917235Y-21822159D01*
X288917235Y-21822159D02*
X288917235Y-23062159D01*
X288917235Y-23062159D02*
X290917235Y-23062159D01*
D12*
X256089069Y-59360939D02*
X254689069Y-59360939D01*
X254689069Y-56960939D02*
X254689069Y-59360939D01*
X254689069Y-56960939D02*
X256089069Y-56960939D01*
X256089069Y-59360939D02*
X256089069Y-56960939D01*
D15*
X276415662Y-35563732D02*
X278415662Y-35563732D01*
X278415662Y-35563732D02*
X278415662Y-34323732D01*
X278415662Y-34323732D02*
X276415662Y-34323732D01*
X276415662Y-34323732D02*
X276415662Y-35563732D01*
X253232713Y-22669085D02*
X253232713Y-23909085D01*
X255232713Y-23909085D02*
X255232713Y-22669085D01*
X255232713Y-22669085D02*
X253232713Y-22669085D01*
X253232713Y-23909085D02*
X255232713Y-23909085D01*
M02*
