%TF.GenerationSoftware,KiCad,Pcbnew,(5.99.0-9785-ga9f86c6f3d)*%
%TF.CreationDate,2021-09-01T12:36:29-04:00*%
%TF.ProjectId,nt980.dk,6e743938-302e-4646-9b2e-6b696361645f,rev?*%
%TF.SameCoordinates,Original*%
%TF.FileFunction,Legend,Top*%
%TF.FilePolarity,Positive*%
%FSLAX46Y46*%
G04 Gerber Fmt 4.6, Leading zero omitted, Abs format (unit mm)*
G04 Created by KiCad (PCBNEW (5.99.0-9785-ga9f86c6f3d)) date 2021-09-01 12:36:29*
%MOMM*%
%LPD*%
G01*
G04 APERTURE LIST*
%ADD10C,0.150000*%
%ADD11C,0.200000*%
%ADD12C,0.120000*%
G04 APERTURE END LIST*
D10*
X177238500Y-116330000D02*
X172976500Y-116330000D01*
X172976500Y-116330000D02*
X172976500Y-110494000D01*
X172976500Y-110494000D02*
X177238500Y-110494000D01*
X177238500Y-110494000D02*
X177238500Y-116330000D01*
X184245500Y-116319000D02*
X179983500Y-116319000D01*
X179983500Y-116319000D02*
X179983500Y-110483000D01*
X179983500Y-110483000D02*
X184245500Y-110483000D01*
X184245500Y-110483000D02*
X184245500Y-116319000D01*
X124487023Y-116187071D02*
X124487023Y-117020404D01*
X123237023Y-116484690D01*
X126890773Y-116841833D02*
X126890773Y-116603738D01*
X126831250Y-116484690D01*
X126771726Y-116425166D01*
X126593154Y-116306119D01*
X126355059Y-116246595D01*
X125878869Y-116246595D01*
X125759821Y-116306119D01*
X125700297Y-116365642D01*
X125640773Y-116484690D01*
X125640773Y-116722785D01*
X125700297Y-116841833D01*
X125759821Y-116901357D01*
X125878869Y-116960880D01*
X126176488Y-116960880D01*
X126295535Y-116901357D01*
X126355059Y-116841833D01*
X126414583Y-116722785D01*
X126414583Y-116484690D01*
X126355059Y-116365642D01*
X126295535Y-116306119D01*
X126176488Y-116246595D01*
X125759821Y-117496595D02*
X125700297Y-117556119D01*
X125640773Y-117496595D01*
X125700297Y-117437071D01*
X125759821Y-117496595D01*
X125640773Y-117496595D01*
X126771726Y-118032309D02*
X126831250Y-118091833D01*
X126890773Y-118210880D01*
X126890773Y-118508500D01*
X126831250Y-118627547D01*
X126771726Y-118687071D01*
X126652678Y-118746595D01*
X126533630Y-118746595D01*
X126355059Y-118687071D01*
X125640773Y-117972785D01*
X125640773Y-118746595D01*
X126890773Y-119877547D02*
X126890773Y-119282309D01*
X126295535Y-119222785D01*
X126355059Y-119282309D01*
X126414583Y-119401357D01*
X126414583Y-119698976D01*
X126355059Y-119818023D01*
X126295535Y-119877547D01*
X126176488Y-119937071D01*
X125878869Y-119937071D01*
X125759821Y-119877547D01*
X125700297Y-119818023D01*
X125640773Y-119698976D01*
X125640773Y-119401357D01*
X125700297Y-119282309D01*
X125759821Y-119222785D01*
X131627023Y-116841833D02*
X131627023Y-116603738D01*
X131567500Y-116484690D01*
X131507976Y-116425166D01*
X131329404Y-116306119D01*
X131091309Y-116246595D01*
X130615119Y-116246595D01*
X130496071Y-116306119D01*
X130436547Y-116365642D01*
X130377023Y-116484690D01*
X130377023Y-116722785D01*
X130436547Y-116841833D01*
X130496071Y-116901357D01*
X130615119Y-116960880D01*
X130912738Y-116960880D01*
X131031785Y-116901357D01*
X131091309Y-116841833D01*
X131150833Y-116722785D01*
X131150833Y-116484690D01*
X131091309Y-116365642D01*
X131031785Y-116306119D01*
X130912738Y-116246595D01*
X130496071Y-117496595D02*
X130436547Y-117556119D01*
X130377023Y-117496595D01*
X130436547Y-117437071D01*
X130496071Y-117496595D01*
X130377023Y-117496595D01*
X131507976Y-118032309D02*
X131567500Y-118091833D01*
X131627023Y-118210880D01*
X131627023Y-118508500D01*
X131567500Y-118627547D01*
X131507976Y-118687071D01*
X131388928Y-118746595D01*
X131269880Y-118746595D01*
X131091309Y-118687071D01*
X130377023Y-117972785D01*
X130377023Y-118746595D01*
X131627023Y-119877547D02*
X131627023Y-119282309D01*
X131031785Y-119222785D01*
X131091309Y-119282309D01*
X131150833Y-119401357D01*
X131150833Y-119698976D01*
X131091309Y-119818023D01*
X131031785Y-119877547D01*
X130912738Y-119937071D01*
X130615119Y-119937071D01*
X130496071Y-119877547D01*
X130436547Y-119818023D01*
X130377023Y-119698976D01*
X130377023Y-119401357D01*
X130436547Y-119282309D01*
X130496071Y-119222785D01*
D11*
X11305357Y-78053285D02*
X11233928Y-78267571D01*
X11233928Y-78624714D01*
X11305357Y-78767571D01*
X11376785Y-78839000D01*
X11519642Y-78910428D01*
X11662500Y-78910428D01*
X11805357Y-78839000D01*
X11876785Y-78767571D01*
X11948214Y-78624714D01*
X12019642Y-78339000D01*
X12091071Y-78196142D01*
X12162500Y-78124714D01*
X12305357Y-78053285D01*
X12448214Y-78053285D01*
X12591071Y-78124714D01*
X12662500Y-78196142D01*
X12733928Y-78339000D01*
X12733928Y-78696142D01*
X12662500Y-78910428D01*
X12233928Y-79339000D02*
X12233928Y-79910428D01*
X12733928Y-79553285D02*
X11448214Y-79553285D01*
X11305357Y-79624714D01*
X11233928Y-79767571D01*
X11233928Y-79910428D01*
X12233928Y-80410428D02*
X10733928Y-80410428D01*
X12162500Y-80410428D02*
X12233928Y-80553285D01*
X12233928Y-80839000D01*
X12162500Y-80981857D01*
X12091071Y-81053285D01*
X11948214Y-81124714D01*
X11519642Y-81124714D01*
X11376785Y-81053285D01*
X11305357Y-80981857D01*
X11233928Y-80839000D01*
X11233928Y-80553285D01*
X11305357Y-80410428D01*
D10*
X11340773Y-116960880D02*
X11340773Y-116246595D01*
X11340773Y-116603738D02*
X12590773Y-116603738D01*
X12412202Y-116484690D01*
X12293154Y-116365642D01*
X12233630Y-116246595D01*
X11459821Y-117496595D02*
X11400297Y-117556119D01*
X11340773Y-117496595D01*
X11400297Y-117437071D01*
X11459821Y-117496595D01*
X11340773Y-117496595D01*
X12471726Y-118032309D02*
X12531250Y-118091833D01*
X12590773Y-118210880D01*
X12590773Y-118508500D01*
X12531250Y-118627547D01*
X12471726Y-118687071D01*
X12352678Y-118746595D01*
X12233630Y-118746595D01*
X12055059Y-118687071D01*
X11340773Y-117972785D01*
X11340773Y-118746595D01*
X12590773Y-119877547D02*
X12590773Y-119282309D01*
X11995535Y-119222785D01*
X12055059Y-119282309D01*
X12114583Y-119401357D01*
X12114583Y-119698976D01*
X12055059Y-119818023D01*
X11995535Y-119877547D01*
X11876488Y-119937071D01*
X11578869Y-119937071D01*
X11459821Y-119877547D01*
X11400297Y-119818023D01*
X11340773Y-119698976D01*
X11340773Y-119401357D01*
X11400297Y-119282309D01*
X11459821Y-119222785D01*
X175971119Y-112199904D02*
X176447309Y-111866571D01*
X175971119Y-111628476D02*
X176971119Y-111628476D01*
X176971119Y-112009428D01*
X176923500Y-112104666D01*
X176875880Y-112152285D01*
X176780642Y-112199904D01*
X176637785Y-112199904D01*
X176542547Y-112152285D01*
X176494928Y-112104666D01*
X176447309Y-112009428D01*
X176447309Y-111628476D01*
X176018738Y-113009428D02*
X175971119Y-112914190D01*
X175971119Y-112723714D01*
X176018738Y-112628476D01*
X176113976Y-112580857D01*
X176494928Y-112580857D01*
X176590166Y-112628476D01*
X176637785Y-112723714D01*
X176637785Y-112914190D01*
X176590166Y-113009428D01*
X176494928Y-113057047D01*
X176399690Y-113057047D01*
X176304452Y-112580857D01*
X176018738Y-113438000D02*
X175971119Y-113533238D01*
X175971119Y-113723714D01*
X176018738Y-113818952D01*
X176113976Y-113866571D01*
X176161595Y-113866571D01*
X176256833Y-113818952D01*
X176304452Y-113723714D01*
X176304452Y-113580857D01*
X176352071Y-113485619D01*
X176447309Y-113438000D01*
X176494928Y-113438000D01*
X176590166Y-113485619D01*
X176637785Y-113580857D01*
X176637785Y-113723714D01*
X176590166Y-113818952D01*
X176018738Y-114676095D02*
X175971119Y-114580857D01*
X175971119Y-114390380D01*
X176018738Y-114295142D01*
X176113976Y-114247523D01*
X176494928Y-114247523D01*
X176590166Y-114295142D01*
X176637785Y-114390380D01*
X176637785Y-114580857D01*
X176590166Y-114676095D01*
X176494928Y-114723714D01*
X176399690Y-114723714D01*
X176304452Y-114247523D01*
X176637785Y-115009428D02*
X176637785Y-115390380D01*
X176971119Y-115152285D02*
X176113976Y-115152285D01*
X176018738Y-115199904D01*
X175971119Y-115295142D01*
X175971119Y-115390380D01*
X204207023Y-116960880D02*
X204207023Y-116246595D01*
X204207023Y-116603738D02*
X205457023Y-116603738D01*
X205278452Y-116484690D01*
X205159404Y-116365642D01*
X205099880Y-116246595D01*
X204326071Y-117496595D02*
X204266547Y-117556119D01*
X204207023Y-117496595D01*
X204266547Y-117437071D01*
X204326071Y-117496595D01*
X204207023Y-117496595D01*
X205457023Y-118687071D02*
X205457023Y-118091833D01*
X204861785Y-118032309D01*
X204921309Y-118091833D01*
X204980833Y-118210880D01*
X204980833Y-118508500D01*
X204921309Y-118627547D01*
X204861785Y-118687071D01*
X204742738Y-118746595D01*
X204445119Y-118746595D01*
X204326071Y-118687071D01*
X204266547Y-118627547D01*
X204207023Y-118508500D01*
X204207023Y-118210880D01*
X204266547Y-118091833D01*
X204326071Y-118032309D01*
X235178273Y-116960880D02*
X235178273Y-116246595D01*
X235178273Y-116603738D02*
X236428273Y-116603738D01*
X236249702Y-116484690D01*
X236130654Y-116365642D01*
X236071130Y-116246595D01*
X235297321Y-117496595D02*
X235237797Y-117556119D01*
X235178273Y-117496595D01*
X235237797Y-117437071D01*
X235297321Y-117496595D01*
X235178273Y-117496595D01*
X236309226Y-118032309D02*
X236368750Y-118091833D01*
X236428273Y-118210880D01*
X236428273Y-118508500D01*
X236368750Y-118627547D01*
X236309226Y-118687071D01*
X236190178Y-118746595D01*
X236071130Y-118746595D01*
X235892559Y-118687071D01*
X235178273Y-117972785D01*
X235178273Y-118746595D01*
X236428273Y-119877547D02*
X236428273Y-119282309D01*
X235833035Y-119222785D01*
X235892559Y-119282309D01*
X235952083Y-119401357D01*
X235952083Y-119698976D01*
X235892559Y-119818023D01*
X235833035Y-119877547D01*
X235713988Y-119937071D01*
X235416369Y-119937071D01*
X235297321Y-119877547D01*
X235237797Y-119818023D01*
X235178273Y-119698976D01*
X235178273Y-119401357D01*
X235237797Y-119282309D01*
X235297321Y-119222785D01*
X32772023Y-116960880D02*
X32772023Y-116246595D01*
X32772023Y-116603738D02*
X34022023Y-116603738D01*
X33843452Y-116484690D01*
X33724404Y-116365642D01*
X33664880Y-116246595D01*
X13727023Y-116960880D02*
X13727023Y-116246595D01*
X13727023Y-116603738D02*
X14977023Y-116603738D01*
X14798452Y-116484690D01*
X14679404Y-116365642D01*
X14619880Y-116246595D01*
X13846071Y-117496595D02*
X13786547Y-117556119D01*
X13727023Y-117496595D01*
X13786547Y-117437071D01*
X13846071Y-117496595D01*
X13727023Y-117496595D01*
X14977023Y-118687071D02*
X14977023Y-118091833D01*
X14381785Y-118032309D01*
X14441309Y-118091833D01*
X14500833Y-118210880D01*
X14500833Y-118508500D01*
X14441309Y-118627547D01*
X14381785Y-118687071D01*
X14262738Y-118746595D01*
X13965119Y-118746595D01*
X13846071Y-118687071D01*
X13786547Y-118627547D01*
X13727023Y-118508500D01*
X13727023Y-118210880D01*
X13786547Y-118091833D01*
X13846071Y-118032309D01*
X58937023Y-116960880D02*
X58937023Y-116246595D01*
X58937023Y-116603738D02*
X60187023Y-116603738D01*
X60008452Y-116484690D01*
X59889404Y-116365642D01*
X59829880Y-116246595D01*
X59056071Y-117496595D02*
X58996547Y-117556119D01*
X58937023Y-117496595D01*
X58996547Y-117437071D01*
X59056071Y-117496595D01*
X58937023Y-117496595D01*
X60067976Y-118032309D02*
X60127500Y-118091833D01*
X60187023Y-118210880D01*
X60187023Y-118508500D01*
X60127500Y-118627547D01*
X60067976Y-118687071D01*
X59948928Y-118746595D01*
X59829880Y-118746595D01*
X59651309Y-118687071D01*
X58937023Y-117972785D01*
X58937023Y-118746595D01*
X60187023Y-119877547D02*
X60187023Y-119282309D01*
X59591785Y-119222785D01*
X59651309Y-119282309D01*
X59710833Y-119401357D01*
X59710833Y-119698976D01*
X59651309Y-119818023D01*
X59591785Y-119877547D01*
X59472738Y-119937071D01*
X59175119Y-119937071D01*
X59056071Y-119877547D01*
X58996547Y-119818023D01*
X58937023Y-119698976D01*
X58937023Y-119401357D01*
X58996547Y-119282309D01*
X59056071Y-119222785D01*
X42284523Y-116960880D02*
X42284523Y-116246595D01*
X42284523Y-116603738D02*
X43534523Y-116603738D01*
X43355952Y-116484690D01*
X43236904Y-116365642D01*
X43177380Y-116246595D01*
X42403571Y-117496595D02*
X42344047Y-117556119D01*
X42284523Y-117496595D01*
X42344047Y-117437071D01*
X42403571Y-117496595D01*
X42284523Y-117496595D01*
X43534523Y-118687071D02*
X43534523Y-118091833D01*
X42939285Y-118032309D01*
X42998809Y-118091833D01*
X43058333Y-118210880D01*
X43058333Y-118508500D01*
X42998809Y-118627547D01*
X42939285Y-118687071D01*
X42820238Y-118746595D01*
X42522619Y-118746595D01*
X42403571Y-118687071D01*
X42344047Y-118627547D01*
X42284523Y-118508500D01*
X42284523Y-118210880D01*
X42344047Y-118091833D01*
X42403571Y-118032309D01*
X54235023Y-116960880D02*
X54235023Y-116246595D01*
X54235023Y-116603738D02*
X55485023Y-116603738D01*
X55306452Y-116484690D01*
X55187404Y-116365642D01*
X55127880Y-116246595D01*
X54354071Y-117496595D02*
X54294547Y-117556119D01*
X54235023Y-117496595D01*
X54294547Y-117437071D01*
X54354071Y-117496595D01*
X54235023Y-117496595D01*
X55365976Y-118032309D02*
X55425500Y-118091833D01*
X55485023Y-118210880D01*
X55485023Y-118508500D01*
X55425500Y-118627547D01*
X55365976Y-118687071D01*
X55246928Y-118746595D01*
X55127880Y-118746595D01*
X54949309Y-118687071D01*
X54235023Y-117972785D01*
X54235023Y-118746595D01*
X55485023Y-119877547D02*
X55485023Y-119282309D01*
X54889785Y-119222785D01*
X54949309Y-119282309D01*
X55008833Y-119401357D01*
X55008833Y-119698976D01*
X54949309Y-119818023D01*
X54889785Y-119877547D01*
X54770738Y-119937071D01*
X54473119Y-119937071D01*
X54354071Y-119877547D01*
X54294547Y-119818023D01*
X54235023Y-119698976D01*
X54235023Y-119401357D01*
X54294547Y-119282309D01*
X54354071Y-119222785D01*
X181416880Y-114770095D02*
X180940690Y-115103428D01*
X181416880Y-115341523D02*
X180416880Y-115341523D01*
X180416880Y-114960571D01*
X180464500Y-114865333D01*
X180512119Y-114817714D01*
X180607357Y-114770095D01*
X180750214Y-114770095D01*
X180845452Y-114817714D01*
X180893071Y-114865333D01*
X180940690Y-114960571D01*
X180940690Y-115341523D01*
X181369261Y-113960571D02*
X181416880Y-114055809D01*
X181416880Y-114246285D01*
X181369261Y-114341523D01*
X181274023Y-114389142D01*
X180893071Y-114389142D01*
X180797833Y-114341523D01*
X180750214Y-114246285D01*
X180750214Y-114055809D01*
X180797833Y-113960571D01*
X180893071Y-113912952D01*
X180988309Y-113912952D01*
X181083547Y-114389142D01*
X181369261Y-113532000D02*
X181416880Y-113436761D01*
X181416880Y-113246285D01*
X181369261Y-113151047D01*
X181274023Y-113103428D01*
X181226404Y-113103428D01*
X181131166Y-113151047D01*
X181083547Y-113246285D01*
X181083547Y-113389142D01*
X181035928Y-113484380D01*
X180940690Y-113532000D01*
X180893071Y-113532000D01*
X180797833Y-113484380D01*
X180750214Y-113389142D01*
X180750214Y-113246285D01*
X180797833Y-113151047D01*
X181369261Y-112293904D02*
X181416880Y-112389142D01*
X181416880Y-112579619D01*
X181369261Y-112674857D01*
X181274023Y-112722476D01*
X180893071Y-112722476D01*
X180797833Y-112674857D01*
X180750214Y-112579619D01*
X180750214Y-112389142D01*
X180797833Y-112293904D01*
X180893071Y-112246285D01*
X180988309Y-112246285D01*
X181083547Y-112722476D01*
X180750214Y-111960571D02*
X180750214Y-111579619D01*
X180416880Y-111817714D02*
X181274023Y-111817714D01*
X181369261Y-111770095D01*
X181416880Y-111674857D01*
X181416880Y-111579619D01*
X213747023Y-116960880D02*
X213747023Y-116246595D01*
X213747023Y-116603738D02*
X214997023Y-116603738D01*
X214818452Y-116484690D01*
X214699404Y-116365642D01*
X214639880Y-116246595D01*
X194697023Y-116960880D02*
X194697023Y-116246595D01*
X194697023Y-116603738D02*
X195947023Y-116603738D01*
X195768452Y-116484690D01*
X195649404Y-116365642D01*
X195589880Y-116246595D01*
X35137023Y-116960880D02*
X35137023Y-116246595D01*
X35137023Y-116603738D02*
X36387023Y-116603738D01*
X36208452Y-116484690D01*
X36089404Y-116365642D01*
X36029880Y-116246595D01*
X35256071Y-117496595D02*
X35196547Y-117556119D01*
X35137023Y-117496595D01*
X35196547Y-117437071D01*
X35256071Y-117496595D01*
X35137023Y-117496595D01*
X36267976Y-118032309D02*
X36327500Y-118091833D01*
X36387023Y-118210880D01*
X36387023Y-118508500D01*
X36327500Y-118627547D01*
X36267976Y-118687071D01*
X36148928Y-118746595D01*
X36029880Y-118746595D01*
X35851309Y-118687071D01*
X35137023Y-117972785D01*
X35137023Y-118746595D01*
X36387023Y-119877547D02*
X36387023Y-119282309D01*
X35791785Y-119222785D01*
X35851309Y-119282309D01*
X35910833Y-119401357D01*
X35910833Y-119698976D01*
X35851309Y-119818023D01*
X35791785Y-119877547D01*
X35672738Y-119937071D01*
X35375119Y-119937071D01*
X35256071Y-119877547D01*
X35196547Y-119818023D01*
X35137023Y-119698976D01*
X35137023Y-119401357D01*
X35196547Y-119282309D01*
X35256071Y-119222785D01*
X232797023Y-116960880D02*
X232797023Y-116246595D01*
X232797023Y-116603738D02*
X234047023Y-116603738D01*
X233868452Y-116484690D01*
X233749404Y-116365642D01*
X233689880Y-116246595D01*
X232916071Y-117496595D02*
X232856547Y-117556119D01*
X232797023Y-117496595D01*
X232856547Y-117437071D01*
X232916071Y-117496595D01*
X232797023Y-117496595D01*
X234047023Y-118687071D02*
X234047023Y-118091833D01*
X233451785Y-118032309D01*
X233511309Y-118091833D01*
X233570833Y-118210880D01*
X233570833Y-118508500D01*
X233511309Y-118627547D01*
X233451785Y-118687071D01*
X233332738Y-118746595D01*
X233035119Y-118746595D01*
X232916071Y-118687071D01*
X232856547Y-118627547D01*
X232797023Y-118508500D01*
X232797023Y-118210880D01*
X232856547Y-118091833D01*
X232916071Y-118032309D01*
D12*
X324615000Y-22189000D02*
X324615000Y-22345000D01*
X324615000Y-24505000D02*
X324615000Y-24661000D01*
X327847335Y-24503608D02*
G75*
G02*
X324615000Y-24660516I-1672335J1078608D01*
G01*
X327847335Y-22346392D02*
G75*
G03*
X324615000Y-22189484I-1672335J-1078608D01*
G01*
X349615000Y-22189000D02*
X349615000Y-22345000D01*
X349615000Y-24505000D02*
X349615000Y-24661000D01*
X352847335Y-22346392D02*
G75*
G03*
X349615000Y-22189484I-1672335J-1078608D01*
G01*
X352847335Y-24503608D02*
G75*
G02*
X349615000Y-24660516I-1672335J1078608D01*
G01*
X299615000Y-22189000D02*
X299615000Y-22345000D01*
X299615000Y-24505000D02*
X299615000Y-24661000D01*
X302847335Y-22346392D02*
G75*
G03*
X299615000Y-22189484I-1672335J-1078608D01*
G01*
X302847335Y-24503608D02*
G75*
G02*
X299615000Y-24660516I-1672335J1078608D01*
G01*
X303940000Y-41169000D02*
X303940000Y-41325000D01*
X303940000Y-43485000D02*
X303940000Y-43641000D01*
X307172335Y-41326392D02*
G75*
G03*
X303940000Y-41169484I-1672335J-1078608D01*
G01*
X307172335Y-43483608D02*
G75*
G02*
X303940000Y-43640516I-1672335J1078608D01*
G01*
X11912500Y-75425000D02*
G75*
G03*
X11912500Y-75425000I0J0D01*
G01*
X35702500Y-113525000D02*
G75*
G03*
X35702500Y-113525000I0J0D01*
G01*
M02*
