%TF.GenerationSoftware,KiCad,Pcbnew,(5.99.0-9785-ga9f86c6f3d)*%
%TF.CreationDate,2021-09-01T12:36:29-04:00*%
%TF.ProjectId,nt980.dk,6e743938-302e-4646-9b2e-6b696361645f,rev?*%
%TF.SameCoordinates,Original*%
%TF.FileFunction,Paste,Bot*%
%TF.FilePolarity,Positive*%
%FSLAX46Y46*%
G04 Gerber Fmt 4.6, Leading zero omitted, Abs format (unit mm)*
G04 Created by KiCad (PCBNEW (5.99.0-9785-ga9f86c6f3d)) date 2021-09-01 12:36:29*
%MOMM*%
%LPD*%
G01*
G04 APERTURE LIST*
%ADD10R,1.200000X1.250000*%
%ADD11R,1.200000X1.300000*%
%ADD12R,1.700000X1.000000*%
%ADD13R,1.200000X0.600000*%
%ADD14R,1.400000X1.400000*%
%ADD15R,1.000000X2.580000*%
%ADD16R,0.550000X1.500000*%
%ADD17R,1.500000X0.550000*%
%ADD18R,0.400000X2.000000*%
%ADD19R,1.300000X1.200000*%
G04 APERTURE END LIST*
D10*
X276134398Y-42087488D03*
X273934398Y-42087488D03*
X295960979Y-46849992D03*
X298160979Y-46849992D03*
X288817235Y-24823411D03*
X291017235Y-24823411D03*
X278515650Y-26014037D03*
X276315650Y-26014037D03*
D11*
X255332713Y-25670337D03*
X253132713Y-25670337D03*
X285064093Y-22442159D03*
X282864093Y-22442159D03*
D12*
X262359598Y-26307833D03*
X268659598Y-26307833D03*
X262359598Y-22507833D03*
X268659598Y-22507833D03*
D13*
X246550000Y-24450000D03*
X246550000Y-23500000D03*
X246550000Y-22550000D03*
X248850000Y-22550000D03*
X248850000Y-23500000D03*
X248850000Y-24450000D03*
D11*
X281078166Y-49231228D03*
X283278166Y-49231228D03*
D14*
X160139189Y-12510939D03*
X160139189Y-10110939D03*
X316835947Y-12510939D03*
X316835947Y-10110939D03*
X106561027Y-59360939D03*
X106561027Y-56960939D03*
X112514149Y-40310939D03*
X112514149Y-37910939D03*
X17264069Y-40310939D03*
X17264069Y-37910939D03*
X245864261Y-12510939D03*
X245864261Y-10110939D03*
X102989137Y-59360939D03*
X102989137Y-56960939D03*
X249436135Y-40310891D03*
X249436135Y-37910891D03*
X335885963Y-12510939D03*
X335885963Y-10110939D03*
X64889105Y-59360939D03*
X64889105Y-56960939D03*
X169664197Y-40310939D03*
X169664197Y-37910939D03*
X30360963Y-59360939D03*
X30360963Y-56960939D03*
X316835947Y-40310939D03*
X316835947Y-37910939D03*
X226814245Y-40310939D03*
X226814245Y-37910939D03*
X55364101Y-40310939D03*
X55364101Y-37910939D03*
X313134638Y-12510939D03*
X313134638Y-10110939D03*
X150614181Y-40310939D03*
X150614181Y-37910939D03*
X93464133Y-40310939D03*
X93464133Y-37910939D03*
X249436147Y-12510939D03*
X249436147Y-10110939D03*
X141089173Y-12510939D03*
X141089173Y-10110939D03*
X188714213Y-40310939D03*
X188714213Y-37910939D03*
X74414117Y-40310939D03*
X74414117Y-37910939D03*
X283964293Y-12510939D03*
X283964293Y-10110939D03*
X313264069Y-40310939D03*
X313264069Y-37910939D03*
X207764229Y-40310939D03*
X207764229Y-37910939D03*
X22026569Y-59360939D03*
X22026569Y-56960939D03*
X245864251Y-40310891D03*
X245864251Y-37910891D03*
X131564165Y-40310939D03*
X131564165Y-37910939D03*
X226814245Y-12510939D03*
X226814245Y-10110939D03*
X36314085Y-40310939D03*
X36314085Y-37910939D03*
X163711075Y-12510939D03*
X163711075Y-10110939D03*
X332314085Y-12510939D03*
X332314085Y-10110939D03*
X335885963Y-40310939D03*
X335885963Y-37910939D03*
X316835931Y-116510939D03*
X316835931Y-114110939D03*
X88904500Y-116510939D03*
X88904500Y-114110939D03*
X22031569Y-116510939D03*
X22031569Y-114110939D03*
X308014101Y-121510939D03*
X308014101Y-119110939D03*
X332314085Y-97460971D03*
X332314085Y-95060971D03*
X25598431Y-116510939D03*
X25598431Y-114110939D03*
X335885947Y-97460939D03*
X335885947Y-95060939D03*
X222051569Y-116510939D03*
X222051569Y-114110939D03*
X116063431Y-116510939D03*
X116063431Y-114110939D03*
X313264069Y-97460971D03*
X313264069Y-95060971D03*
X231576745Y-97460971D03*
X231576745Y-95060971D03*
X174426697Y-97460971D03*
X174426697Y-95060971D03*
X136326665Y-97460971D03*
X136326665Y-95060971D03*
X117276649Y-97460971D03*
X117276649Y-95060971D03*
X60126601Y-97460971D03*
X60126601Y-95060971D03*
X316835947Y-78410955D03*
X316835947Y-76010955D03*
X107751641Y-78410955D03*
X107751641Y-76010955D03*
X222051737Y-78410955D03*
X222051737Y-76010955D03*
X203001721Y-78410955D03*
X203001721Y-76010955D03*
X236339149Y-59360939D03*
X236339149Y-56960939D03*
X69651609Y-78410955D03*
X69651609Y-76010955D03*
X164901689Y-78410955D03*
X164901689Y-76010955D03*
X145851673Y-78410955D03*
X145851673Y-76010955D03*
X141089169Y-59360939D03*
X141089169Y-56960939D03*
X335885963Y-59360939D03*
X335885963Y-56960939D03*
X44648463Y-97460971D03*
X44648463Y-95060971D03*
X183951705Y-78410955D03*
X183951705Y-76010955D03*
X332314069Y-116510939D03*
X332314069Y-114110939D03*
X257770319Y-97460939D03*
X257770319Y-95060939D03*
X193476713Y-97460971D03*
X193476713Y-95060971D03*
X241101569Y-78410955D03*
X241101569Y-76010955D03*
X155376681Y-97460971D03*
X155376681Y-95060971D03*
X316835947Y-59360939D03*
X316835947Y-56960939D03*
X198239229Y-59360939D03*
X198239229Y-56960939D03*
X160139185Y-59360939D03*
X160139185Y-56960939D03*
X98226633Y-97460971D03*
X98226633Y-95060971D03*
X24407821Y-78410955D03*
X24407821Y-76010955D03*
X332314085Y-59360939D03*
X332314085Y-56960939D03*
X258960947Y-59360939D03*
X258960947Y-56960939D03*
X88701625Y-78410955D03*
X88701625Y-76010955D03*
X313264069Y-78410955D03*
X313264069Y-76010955D03*
X179189201Y-59360939D03*
X179189201Y-56960939D03*
X316835947Y-97460971D03*
X316835947Y-95060971D03*
X288964085Y-102460923D03*
X288964085Y-100060923D03*
X212526729Y-97460971D03*
X212526729Y-95060971D03*
X126801657Y-78410955D03*
X126801657Y-76010955D03*
X201811095Y-59360939D03*
X201811095Y-56960939D03*
X79176617Y-97460971D03*
X79176617Y-95060971D03*
X335885931Y-78410939D03*
X335885931Y-76010939D03*
X225623615Y-78410955D03*
X225623615Y-76010955D03*
X50601593Y-78410955D03*
X50601593Y-76010955D03*
X112514149Y-12510939D03*
X112514149Y-10110939D03*
X36314085Y-12510939D03*
X36314085Y-10110939D03*
X77985995Y-12510939D03*
X77985995Y-10110939D03*
X74414117Y-12510939D03*
X74414117Y-10110939D03*
X39885963Y-12510939D03*
X39885963Y-10110939D03*
D15*
X240675000Y-25210000D03*
X240675000Y-21040000D03*
X238675000Y-25210000D03*
X238675000Y-21040000D03*
X236675000Y-25210000D03*
X236675000Y-21040000D03*
X234675000Y-25210000D03*
X234675000Y-21040000D03*
X232675000Y-25210000D03*
X232675000Y-21040000D03*
D11*
X255332713Y-20907833D03*
X253132713Y-20907833D03*
D14*
X198239221Y-12510939D03*
X198239221Y-10110939D03*
X244673631Y-78410955D03*
X244673631Y-76010955D03*
X41076585Y-97460971D03*
X41076585Y-95060971D03*
D16*
X283535983Y-32815610D03*
X284335983Y-32815610D03*
X285135983Y-32815610D03*
X285935983Y-32815610D03*
X286735983Y-32815610D03*
X287535983Y-32815610D03*
X288335983Y-32815610D03*
X289135983Y-32815610D03*
X289935983Y-32815610D03*
X290735983Y-32815610D03*
X291535983Y-32815610D03*
D17*
X293235983Y-34515610D03*
X293235983Y-35315610D03*
X293235983Y-36115610D03*
X293235983Y-36915610D03*
X293235983Y-37715610D03*
X293235983Y-38515610D03*
X293235983Y-39315610D03*
X293235983Y-40115610D03*
X293235983Y-40915610D03*
X293235983Y-41715610D03*
X293235983Y-42515610D03*
D16*
X291535983Y-44215610D03*
X290735983Y-44215610D03*
X289935983Y-44215610D03*
X289135983Y-44215610D03*
X288335983Y-44215610D03*
X287535983Y-44215610D03*
X286735983Y-44215610D03*
X285935983Y-44215610D03*
X285135983Y-44215610D03*
X284335983Y-44215610D03*
X283535983Y-44215610D03*
D17*
X281835983Y-42515610D03*
X281835983Y-41715610D03*
X281835983Y-40915610D03*
X281835983Y-40115610D03*
X281835983Y-39315610D03*
X281835983Y-38515610D03*
X281835983Y-37715610D03*
X281835983Y-36915610D03*
X281835983Y-36115610D03*
X281835983Y-35315610D03*
X281835983Y-34515610D03*
D14*
X269914069Y-121510939D03*
X269914069Y-119110939D03*
X273485931Y-121510939D03*
X273485931Y-119110939D03*
X313264069Y-59360939D03*
X313264069Y-56960939D03*
X332314085Y-40310939D03*
X332314085Y-37910939D03*
X68460983Y-59360939D03*
X68460983Y-56960939D03*
X168244250Y-116510939D03*
X168244250Y-114110939D03*
X243482819Y-116510939D03*
X243482819Y-114110939D03*
D18*
X298260991Y-31371838D03*
X295860991Y-31371838D03*
X297060991Y-31371838D03*
D19*
X305614045Y-21709374D03*
X305614045Y-23909374D03*
X322285955Y-21709374D03*
X322285955Y-23909374D03*
X355620337Y-21709374D03*
X355620337Y-23909374D03*
D10*
X288817235Y-22442159D03*
X291017235Y-22442159D03*
D14*
X255389069Y-59360939D03*
X255389069Y-56960939D03*
D10*
X278515662Y-34943732D03*
X276315662Y-34943732D03*
D11*
X255332713Y-23289085D03*
X253132713Y-23289085D03*
M02*
