M48
; DRILL file {KiCad (5.99.0-9785-ga9f86c6f3d)} date 09/01/21 12:36:33
; FORMAT={-:-/ absolute / inch / decimal}
; #@! TF.CreationDate,2021-09-01T12:36:33-04:00
; #@! TF.GenerationSoftware,Kicad,Pcbnew,(5.99.0-9785-ga9f86c6f3d)
; #@! TF.FileFunction,Plated,1,2,PTH
FMAT,2
INCH
; #@! TA.AperFunction,ViaDrill
T1C0.0157
; #@! TA.AperFunction,ComponentDrill,Plated,PTH
T2C0.0335
; #@! TA.AperFunction,ComponentDrill,Plated,PTH
T3C0.0354
; #@! TA.AperFunction,ComponentDrill,Plated,PTH
T4C0.0590
; #@! TA.AperFunction,ComponentDrill,Plated,PTH
T5C0.0787
%
G90
G05
T1
; via hole
X1.1963Y-1.6794
X2.708Y-1.6911
X4.2315Y-1.7146
X5.475Y-1.7367
X6.9828Y-1.7523
X8.4945Y-1.764
X9.3597Y-1.0813
X9.3597Y-1.208
X9.4299Y-0.6877
X9.5524Y-1.6235
X9.5856Y-1.587
X9.6437Y-0.9252
X10.6655Y-2.6585
X11.0156Y-1.4226
X11.1328Y-0.9539
X11.1563Y-1.5164
X11.1943Y-1.3669
X11.25Y-1.1414
X11.3055Y-0.8515
X11.33Y-4.7839
X11.3498Y-1.0464
X11.3564Y-2.3006
X11.3672Y-4.8445
X11.3728Y-2.0789
X11.3746Y-0.4926
X11.3833Y-1.1956
X11.3981Y-2.3292
X11.4122Y-2.0789
X11.4148Y-1.1655
X11.4171Y-0.529
X11.4301Y-1.3721
X11.4375Y-3.0867
X11.4463Y-1.1322
X11.4516Y-2.0789
X11.471Y-3.1235
X11.4778Y-1.1007
X11.4844Y-1.4929
X11.491Y-2.0789
X11.5054Y-3.9749
X11.5303Y-2.0789
X11.5523Y-3.9749
X11.5697Y-2.0789
X11.6091Y-2.0789
X11.6264Y-1.3388
X11.6484Y-2.0789
X11.6953Y-1.1179
X11.7039Y-0.8277
X11.8024Y-1.6235
X11.8359Y-1.5867
X12.7011Y-0.8991
X12.8785Y-1.6925
X13.6285Y-1.6691
X13.7001Y-1.031
X13.9899Y-0.898
T2
; plated pad hole
X6.8641Y-4.4137
X6.8643Y-4.5137
X7.2021Y-4.4137
X7.2024Y-4.5137
X11.4018Y-0.0772
X11.4018Y-0.1772
X11.4018Y-0.2772
X11.5018Y-0.0772
X11.5018Y-0.1772
X11.5018Y-0.2772
T3
X6.0475Y-0.7126
X6.0475Y-0.7914
X6.0475Y-0.8701
X6.0475Y-0.9489
X6.0475Y-1.0276
X11.8073Y-0.9222
X11.9073Y-0.9222
X11.9776Y-1.6695
X12.0776Y-1.6695
X12.7915Y-0.9222
X12.8915Y-0.9222
X13.7758Y-0.9222
X13.8758Y-0.9222
T4
X0.225Y-0.275
X0.225Y-1.3695
X0.3187Y-3.6195
X0.3187Y-4.3695
X0.319Y-2.8695
X0.4125Y-2.1195
X0.4127Y-4.3695
X0.475Y-0.175
X0.475Y-1.2695
X0.5062Y-2.8695
X0.5687Y-3.5195
X0.5687Y-4.2695
X0.569Y-2.7695
X0.6625Y-2.0195
X0.6627Y-4.2695
X0.6937Y-3.6195
X0.7562Y-2.7695
X0.9437Y-3.5195
X0.975Y-1.3695
X1.1625Y-4.3695
X1.1625Y-3.6195
X1.225Y-1.2695
X1.2556Y-4.3695
X1.35Y-2.1195
X1.4125Y-4.2695
X1.4125Y-3.5195
X1.5056Y-4.2695
X1.537Y-4.3695
X1.5375Y-2.8695
X1.6Y-2.0195
X1.725Y-0.275
X1.725Y-1.3695
X1.787Y-4.2695
X1.7875Y-2.7695
X1.9125Y-3.6195
X1.975Y-0.175
X1.975Y-1.2695
X2.0063Y-4.3695
X2.1Y-2.1195
X2.1625Y-3.5195
X2.1926Y-4.3695
X2.2563Y-4.2695
X2.2875Y-2.8695
X2.35Y-2.0195
X2.4426Y-4.2695
X2.475Y-0.275
X2.475Y-1.3695
X2.5375Y-2.7695
X2.6625Y-3.6195
X2.725Y-0.175
X2.725Y-1.2695
X2.85Y-2.1195
X2.9125Y-3.5195
X3.0375Y-2.8695
X3.1Y-2.0195
X3.225Y-0.275
X3.225Y-1.3695
X3.2875Y-2.7695
X3.4125Y-3.6195
X3.475Y-0.175
X3.475Y-1.2695
X3.6Y-2.1195
X3.6625Y-3.5195
X3.7875Y-2.8695
X3.85Y-2.0195
X3.975Y-0.275
X3.975Y-1.3695
X4.0375Y-2.7695
X4.1625Y-3.6195
X4.225Y-0.175
X4.225Y-1.2695
X4.35Y-2.1195
X4.4125Y-3.5195
X4.5375Y-2.8695
X4.6Y-2.0195
X4.7241Y-4.3695
X4.725Y-1.3695
X4.7875Y-2.7695
X4.8187Y-4.3695
X4.9125Y-3.6195
X4.9741Y-4.2695
X4.975Y-1.2695
X5.0052Y-4.3695
X5.0687Y-4.2695
X5.1Y-0.275
X5.1Y-2.1195
X5.1625Y-3.5195
X5.2552Y-4.2695
X5.2875Y-2.8695
X5.35Y-0.175
X5.35Y-2.0195
X5.475Y-1.3695
X5.5375Y-2.7695
X5.6625Y-3.6195
X5.725Y-1.2695
X5.85Y-0.275
X5.85Y-2.1195
X5.9125Y-3.5195
X6.0375Y-2.8695
X6.1Y-0.175
X6.1Y-2.0195
X6.225Y-1.3695
X6.2875Y-2.7695
X6.4125Y-3.6195
X6.475Y-1.2695
X6.6Y-0.275
X6.6Y-2.1195
X6.6625Y-3.5195
X6.7875Y-2.8695
X6.85Y-0.175
X6.85Y-2.0195
X6.975Y-1.3695
X7.0375Y-2.7695
X7.1625Y-3.6195
X7.225Y-1.2695
X7.35Y-0.275
X7.35Y-2.1195
X7.4125Y-3.5195
X7.5375Y-2.8695
X7.5375Y-4.3695
X7.6Y-0.175
X7.6Y-2.0195
X7.725Y-1.3695
X7.7875Y-2.7695
X7.7875Y-4.2695
X7.9119Y-4.3695
X7.9125Y-3.6195
X7.975Y-1.2695
X8.1Y-2.1195
X8.1619Y-4.2695
X8.1625Y-3.5195
X8.2875Y-2.8695
X8.2875Y-4.3695
X8.35Y-2.0195
X8.475Y-0.275
X8.475Y-1.3695
X8.5375Y-2.7695
X8.5375Y-4.2695
X8.6625Y-3.6195
X8.725Y-0.175
X8.725Y-1.2695
X8.85Y-2.1195
X8.9125Y-3.5195
X9.0375Y-2.8695
X9.0375Y-4.3695
X9.1Y-2.0195
X9.1312Y-4.3695
X9.225Y-0.275
X9.225Y-1.3695
X9.2875Y-2.7695
X9.2875Y-4.2695
X9.3812Y-4.2695
X9.475Y-0.175
X9.475Y-1.2695
X9.6Y-2.1195
X9.6937Y-3.6195
X9.7875Y-2.8695
X9.85Y-2.0195
X9.9437Y-3.5195
X9.975Y-0.275
X10.0375Y-2.7695
X10.1719Y-4.5663
X10.225Y-0.175
X10.2562Y-2.8695
X10.35Y-1.3695
X10.4219Y-4.4663
X10.5062Y-2.7695
X10.5375Y-2.1195
X10.6Y-1.2695
X10.6313Y-2.4945
X10.725Y-0.275
X10.7875Y-2.0195
X10.8813Y-2.3945
X10.9219Y-3.8163
X10.9219Y-4.5663
X10.975Y-0.175
X11.1719Y-3.7163
X11.1719Y-4.4663
X11.6719Y-4.5663
X11.8785Y-0.275
X11.8785Y-1.3695
X11.8785Y-2.1195
X11.8785Y-2.8695
X11.8785Y-3.6195
X11.9219Y-4.4663
X12.1285Y-0.175
X12.1285Y-1.2695
X12.1285Y-2.0195
X12.1285Y-2.7695
X12.1285Y-3.5195
X12.6285Y-0.275
X12.6285Y-1.3695
X12.6285Y-2.1195
X12.6285Y-2.8695
X12.6285Y-3.6195
X12.6285Y-4.3695
X12.8785Y-0.175
X12.8785Y-1.2695
X12.8785Y-2.0195
X12.8785Y-2.7695
X12.8785Y-3.5195
X12.8785Y-4.2695
X13.3785Y-0.275
X13.3785Y-1.3695
X13.3785Y-2.1195
X13.3785Y-2.8695
X13.3785Y-3.6195
X13.3785Y-4.3695
X13.6285Y-0.175
X13.6285Y-1.2695
X13.6285Y-2.0195
X13.6285Y-2.7695
X13.6285Y-3.5195
X13.6285Y-4.2695
X14.1285Y-0.275
X14.1285Y-1.3695
X14.3785Y-0.175
X14.3785Y-1.2695
X14.3785Y-2.4445
X14.3785Y-3.9445
X14.4785Y-2.6945
X14.4785Y-4.1945
T5
; plated pad hole
G00X10.5599Y-0.4052
M15
G01X10.5599Y-0.543
M16
G05
T0
M30
