%TF.GenerationSoftware,KiCad,Pcbnew,(5.99.0-9785-ga9f86c6f3d)*%
%TF.CreationDate,2021-09-01T12:36:29-04:00*%
%TF.ProjectId,nt980.dk,6e743938-302e-4646-9b2e-6b696361645f,rev?*%
%TF.SameCoordinates,Original*%
%TF.FileFunction,Soldermask,Top*%
%TF.FilePolarity,Negative*%
%FSLAX46Y46*%
G04 Gerber Fmt 4.6, Leading zero omitted, Abs format (unit mm)*
G04 Created by KiCad (PCBNEW (5.99.0-9785-ga9f86c6f3d)) date 2021-09-01 12:36:29*
%MOMM*%
%LPD*%
G01*
G04 APERTURE LIST*
%ADD10C,3.987800*%
%ADD11C,1.750000*%
%ADD12C,2.286000*%
%ADD13C,1.701800*%
%ADD14C,3.048000*%
%ADD15O,2.000000X5.500000*%
%ADD16O,3.000000X6.500000*%
%ADD17R,1.800000X1.800000*%
%ADD18C,1.800000*%
%ADD19C,2.000000*%
%ADD20O,1.700000X1.700000*%
%ADD21C,1.400000*%
%ADD22R,1.700000X1.700000*%
G04 APERTURE END LIST*
D10*
X257175000Y-9525000D03*
D11*
X252095000Y-9525000D03*
X262255000Y-9525000D03*
D12*
X259715000Y-4445000D03*
X253365000Y-6985000D03*
D10*
X276225000Y-9525000D03*
D11*
X281305000Y-9525000D03*
X271145000Y-9525000D03*
D12*
X278765000Y-4445000D03*
X272415000Y-6985000D03*
D10*
X238125000Y-9525000D03*
D11*
X243205000Y-9525000D03*
X233045000Y-9525000D03*
D12*
X240665000Y-4445000D03*
X234315000Y-6985000D03*
D11*
X166370000Y-9525000D03*
D10*
X171450000Y-9525000D03*
D11*
X176530000Y-9525000D03*
D12*
X173990000Y-4445000D03*
X167640000Y-6985000D03*
D11*
X195580000Y-9525000D03*
D10*
X190500000Y-9525000D03*
D11*
X185420000Y-9525000D03*
D12*
X193040000Y-4445000D03*
X186690000Y-6985000D03*
D11*
X213995000Y-9525000D03*
D10*
X219075000Y-9525000D03*
D11*
X224155000Y-9525000D03*
D12*
X221615000Y-4445000D03*
X215265000Y-6985000D03*
D11*
X147320000Y-9525000D03*
X157480000Y-9525000D03*
D10*
X152400000Y-9525000D03*
D12*
X154940000Y-4445000D03*
X148590000Y-6985000D03*
D11*
X128270000Y-9525000D03*
X138430000Y-9525000D03*
D10*
X133350000Y-9525000D03*
D12*
X135890000Y-4445000D03*
X129540000Y-6985000D03*
D11*
X99695000Y-9525000D03*
X109855000Y-9525000D03*
D10*
X104775000Y-9525000D03*
D12*
X107315000Y-4445000D03*
X100965000Y-6985000D03*
D10*
X66675000Y-9525000D03*
D11*
X71755000Y-9525000D03*
X61595000Y-9525000D03*
D12*
X69215000Y-4445000D03*
X62865000Y-6985000D03*
D10*
X47625000Y-9525000D03*
D11*
X42545000Y-9525000D03*
X52705000Y-9525000D03*
D12*
X50165000Y-4445000D03*
X43815000Y-6985000D03*
D10*
X9525000Y-9525000D03*
D11*
X14605000Y-9525000D03*
X4445000Y-9525000D03*
D12*
X12065000Y-4445000D03*
X5715000Y-6985000D03*
D10*
X85725000Y-9525000D03*
D11*
X90805000Y-9525000D03*
X80645000Y-9525000D03*
D12*
X88265000Y-4445000D03*
X81915000Y-6985000D03*
X216852500Y-108445000D03*
X210502500Y-110985000D03*
D13*
X209232500Y-113525000D03*
D10*
X214312500Y-113525000D03*
D13*
X219392500Y-113525000D03*
D12*
X197802500Y-108445000D03*
X191452500Y-110985000D03*
D13*
X190182500Y-113525000D03*
X200342500Y-113525000D03*
D10*
X195262500Y-113525000D03*
D11*
X276145000Y-118525000D03*
D10*
X281225000Y-118525000D03*
D11*
X286305000Y-118525000D03*
D12*
X283765000Y-113445000D03*
X277415000Y-115985000D03*
D10*
X9493250Y-102730000D03*
D11*
X16351250Y-94475000D03*
D10*
X21431250Y-94475000D03*
D14*
X9493250Y-87490000D03*
D10*
X33369250Y-102730000D03*
D14*
X33369250Y-87490000D03*
D11*
X26511250Y-94475000D03*
D12*
X23971250Y-89395000D03*
X17621250Y-91935000D03*
X128746250Y-108445000D03*
X122396250Y-110985000D03*
D13*
X121126250Y-113525000D03*
D10*
X76168250Y-121780000D03*
D14*
X76168250Y-106540000D03*
D10*
X126206250Y-113525000D03*
D14*
X176244250Y-106540000D03*
D13*
X131286250Y-113525000D03*
D10*
X176244250Y-121780000D03*
D11*
X267255000Y-118525000D03*
X257095000Y-118525000D03*
D10*
X262175000Y-118525000D03*
D12*
X264715000Y-113445000D03*
X258365000Y-115985000D03*
D11*
X269398750Y-75425000D03*
X259238750Y-75425000D03*
D10*
X264318750Y-75425000D03*
D14*
X252380750Y-68440000D03*
D10*
X276256750Y-83680000D03*
D14*
X276256750Y-68440000D03*
D10*
X252380750Y-83680000D03*
D12*
X266858750Y-70345000D03*
X260508750Y-72885000D03*
X238283750Y-108445000D03*
X231933750Y-110985000D03*
D13*
X240823750Y-113525000D03*
D10*
X235743750Y-113525000D03*
D13*
X230663750Y-113525000D03*
D12*
X14446250Y-108445000D03*
X8096250Y-110985000D03*
D13*
X16986250Y-113525000D03*
X6826250Y-113525000D03*
D10*
X11906250Y-113525000D03*
D11*
X276145000Y-99475000D03*
D10*
X281225000Y-99475000D03*
D11*
X286305000Y-99475000D03*
D12*
X283765000Y-94395000D03*
X277415000Y-96935000D03*
X35877500Y-108445000D03*
X29527500Y-110985000D03*
D13*
X38417500Y-113525000D03*
D10*
X33337500Y-113525000D03*
D13*
X28257500Y-113525000D03*
D10*
X250031250Y-94475000D03*
D11*
X255111250Y-94475000D03*
X244951250Y-94475000D03*
D12*
X252571250Y-89395000D03*
X246221250Y-91935000D03*
X57308750Y-108445000D03*
X50958750Y-110985000D03*
D13*
X49688750Y-113525000D03*
X59848750Y-113525000D03*
D10*
X54768750Y-113525000D03*
D11*
X218757500Y-94475000D03*
X228917500Y-94475000D03*
D10*
X223837500Y-94475000D03*
D12*
X226377500Y-89395000D03*
X220027500Y-91935000D03*
D11*
X190817500Y-94475000D03*
X180657500Y-94475000D03*
D10*
X185737500Y-94475000D03*
D12*
X188277500Y-89395000D03*
X181927500Y-91935000D03*
D11*
X199707500Y-94475000D03*
D10*
X204787500Y-94475000D03*
D11*
X209867500Y-94475000D03*
D12*
X207327500Y-89395000D03*
X200977500Y-91935000D03*
D11*
X161607500Y-94475000D03*
D10*
X166687500Y-94475000D03*
D11*
X171767500Y-94475000D03*
D12*
X169227500Y-89395000D03*
X162877500Y-91935000D03*
D11*
X142557500Y-94475000D03*
X152717500Y-94475000D03*
D10*
X147637500Y-94475000D03*
D12*
X150177500Y-89395000D03*
X143827500Y-91935000D03*
D10*
X128587500Y-94475000D03*
D11*
X133667500Y-94475000D03*
X123507500Y-94475000D03*
D12*
X131127500Y-89395000D03*
X124777500Y-91935000D03*
D11*
X114617500Y-94475000D03*
X104457500Y-94475000D03*
D10*
X109537500Y-94475000D03*
D12*
X112077500Y-89395000D03*
X105727500Y-91935000D03*
D11*
X95567500Y-94475000D03*
X85407500Y-94475000D03*
D10*
X90487500Y-94475000D03*
D12*
X93027500Y-89395000D03*
X86677500Y-91935000D03*
D10*
X71437500Y-94475000D03*
D11*
X76517500Y-94475000D03*
X66357500Y-94475000D03*
D12*
X73977500Y-89395000D03*
X67627500Y-91935000D03*
D10*
X233362500Y-75425000D03*
D11*
X238442500Y-75425000D03*
X228282500Y-75425000D03*
D12*
X235902500Y-70345000D03*
X229552500Y-72885000D03*
D10*
X52387500Y-94475000D03*
D11*
X57467500Y-94475000D03*
X47307500Y-94475000D03*
D12*
X54927500Y-89395000D03*
X48577500Y-91935000D03*
D11*
X181292500Y-75425000D03*
D10*
X176212500Y-75425000D03*
D11*
X171132500Y-75425000D03*
D12*
X178752500Y-70345000D03*
X172402500Y-72885000D03*
D10*
X138112500Y-75425000D03*
D11*
X133032500Y-75425000D03*
X143192500Y-75425000D03*
D12*
X140652500Y-70345000D03*
X134302500Y-72885000D03*
D10*
X100012500Y-75425000D03*
D11*
X105092500Y-75425000D03*
X94932500Y-75425000D03*
D12*
X102552500Y-70345000D03*
X96202500Y-72885000D03*
D11*
X200342500Y-75425000D03*
X190182500Y-75425000D03*
D10*
X195262500Y-75425000D03*
D12*
X197802500Y-70345000D03*
X191452500Y-72885000D03*
D11*
X152082500Y-75425000D03*
X162242500Y-75425000D03*
D10*
X157162500Y-75425000D03*
D12*
X159702500Y-70345000D03*
X153352500Y-72885000D03*
D11*
X86042500Y-75425000D03*
X75882500Y-75425000D03*
D10*
X80962500Y-75425000D03*
D12*
X83502500Y-70345000D03*
X77152500Y-72885000D03*
D11*
X124142500Y-75425000D03*
D10*
X119062500Y-75425000D03*
D11*
X113982500Y-75425000D03*
D12*
X121602500Y-70345000D03*
X115252500Y-72885000D03*
D11*
X66992500Y-75425000D03*
D10*
X61912500Y-75425000D03*
D11*
X56832500Y-75425000D03*
D12*
X64452500Y-70345000D03*
X58102500Y-72885000D03*
D11*
X276542500Y-56375000D03*
X266382500Y-56375000D03*
D10*
X271462500Y-56375000D03*
D12*
X274002500Y-51295000D03*
X267652500Y-53835000D03*
D11*
X166370000Y-56375000D03*
X176530000Y-56375000D03*
D10*
X171450000Y-56375000D03*
D12*
X173990000Y-51295000D03*
X167640000Y-53835000D03*
D11*
X33655000Y-37325000D03*
D10*
X28575000Y-37325000D03*
D11*
X23495000Y-37325000D03*
D12*
X31115000Y-32245000D03*
X24765000Y-34785000D03*
D11*
X195580000Y-56375000D03*
X185420000Y-56375000D03*
D10*
X190500000Y-56375000D03*
D12*
X193040000Y-51295000D03*
X186690000Y-53835000D03*
D10*
X123825000Y-37325000D03*
D11*
X118745000Y-37325000D03*
X128905000Y-37325000D03*
D12*
X126365000Y-32245000D03*
X120015000Y-34785000D03*
D10*
X219075000Y-37325000D03*
D11*
X224155000Y-37325000D03*
X213995000Y-37325000D03*
D12*
X221615000Y-32245000D03*
X215265000Y-34785000D03*
D10*
X180975000Y-37325000D03*
D11*
X186055000Y-37325000D03*
X175895000Y-37325000D03*
D12*
X183515000Y-32245000D03*
X177165000Y-34785000D03*
D10*
X104775000Y-37325000D03*
D11*
X99695000Y-37325000D03*
X109855000Y-37325000D03*
D12*
X107315000Y-32245000D03*
X100965000Y-34785000D03*
D11*
X138430000Y-56375000D03*
D10*
X133350000Y-56375000D03*
D11*
X128270000Y-56375000D03*
D12*
X135890000Y-51295000D03*
X129540000Y-53835000D03*
D11*
X9207500Y-56375000D03*
X19367500Y-56375000D03*
D10*
X14287500Y-56375000D03*
D12*
X16827500Y-51295000D03*
X10477500Y-53835000D03*
D10*
X209550000Y-56375000D03*
D11*
X214630000Y-56375000D03*
X204470000Y-56375000D03*
D12*
X212090000Y-51295000D03*
X205740000Y-53835000D03*
D10*
X95250000Y-56375000D03*
D11*
X100330000Y-56375000D03*
X90170000Y-56375000D03*
D12*
X97790000Y-51295000D03*
X91440000Y-53835000D03*
D10*
X76200000Y-56375000D03*
D11*
X71120000Y-56375000D03*
X81280000Y-56375000D03*
D12*
X78740000Y-51295000D03*
X72390000Y-53835000D03*
D10*
X85725000Y-37325000D03*
D11*
X90805000Y-37325000D03*
X80645000Y-37325000D03*
D12*
X88265000Y-32245000D03*
X81915000Y-34785000D03*
D10*
X161925000Y-37325000D03*
D11*
X167005000Y-37325000D03*
X156845000Y-37325000D03*
D12*
X164465000Y-32245000D03*
X158115000Y-34785000D03*
D10*
X142875000Y-37325000D03*
D11*
X147955000Y-37325000D03*
X137795000Y-37325000D03*
D12*
X145415000Y-32245000D03*
X139065000Y-34785000D03*
D11*
X109220000Y-56375000D03*
D10*
X114300000Y-56375000D03*
D11*
X119380000Y-56375000D03*
D12*
X116840000Y-51295000D03*
X110490000Y-53835000D03*
D10*
X42862500Y-75425000D03*
D11*
X47942500Y-75425000D03*
X37782500Y-75425000D03*
D12*
X45402500Y-70345000D03*
X39052500Y-72885000D03*
D11*
X61595000Y-37325000D03*
X71755000Y-37325000D03*
D10*
X66675000Y-37325000D03*
D12*
X69215000Y-32245000D03*
X62865000Y-34785000D03*
D11*
X219392500Y-75425000D03*
X209232500Y-75425000D03*
D10*
X214312500Y-75425000D03*
D12*
X216852500Y-70345000D03*
X210502500Y-72885000D03*
D11*
X14605000Y-37325000D03*
X4445000Y-37325000D03*
D10*
X9525000Y-37325000D03*
D12*
X12065000Y-32245000D03*
X5715000Y-34785000D03*
D11*
X243205000Y-37325000D03*
D10*
X238125000Y-37325000D03*
D11*
X233045000Y-37325000D03*
D12*
X240665000Y-32245000D03*
X234315000Y-34785000D03*
D11*
X205105000Y-37325000D03*
X194945000Y-37325000D03*
D10*
X200025000Y-37325000D03*
D12*
X202565000Y-32245000D03*
X196215000Y-34785000D03*
D11*
X52705000Y-37325000D03*
D10*
X47625000Y-37325000D03*
D11*
X42545000Y-37325000D03*
D12*
X50165000Y-32245000D03*
X43815000Y-34785000D03*
D10*
X16668750Y-75425000D03*
D11*
X21748750Y-75425000D03*
X11588750Y-75425000D03*
D12*
X19208750Y-70345000D03*
X12858750Y-72885000D03*
D11*
X62230000Y-56375000D03*
X52070000Y-56375000D03*
D10*
X57150000Y-56375000D03*
D12*
X59690000Y-51295000D03*
X53340000Y-53835000D03*
D11*
X157480000Y-56375000D03*
X147320000Y-56375000D03*
D10*
X152400000Y-56375000D03*
D12*
X154940000Y-51295000D03*
X148590000Y-53835000D03*
D11*
X242570000Y-56375000D03*
X252730000Y-56375000D03*
D10*
X247650000Y-56375000D03*
D12*
X250190000Y-51295000D03*
X243840000Y-53835000D03*
D10*
X38100000Y-56375000D03*
D11*
X33020000Y-56375000D03*
X43180000Y-56375000D03*
D12*
X40640000Y-51295000D03*
X34290000Y-53835000D03*
D10*
X343625000Y-113525000D03*
D11*
X338545000Y-113525000D03*
X348705000Y-113525000D03*
D12*
X346165000Y-108445000D03*
X339815000Y-110985000D03*
D11*
X329655000Y-113525000D03*
D10*
X324575000Y-113525000D03*
D11*
X319495000Y-113525000D03*
D12*
X327115000Y-108445000D03*
X320765000Y-110985000D03*
D11*
X338545000Y-9525000D03*
D10*
X343625000Y-9525000D03*
D11*
X348705000Y-9525000D03*
D12*
X346165000Y-4445000D03*
X339815000Y-6985000D03*
D10*
X324575000Y-9525000D03*
D11*
X319495000Y-9525000D03*
X329655000Y-9525000D03*
D12*
X327115000Y-4445000D03*
X320765000Y-6985000D03*
D11*
X300445000Y-9525000D03*
D10*
X305525000Y-9525000D03*
D11*
X310605000Y-9525000D03*
D12*
X308065000Y-4445000D03*
X301715000Y-6985000D03*
D10*
X343625000Y-94475000D03*
D11*
X338545000Y-94475000D03*
X348705000Y-94475000D03*
D12*
X346165000Y-89395000D03*
X339815000Y-91935000D03*
D11*
X310605000Y-94475000D03*
X300445000Y-94475000D03*
D10*
X305525000Y-94475000D03*
D12*
X308065000Y-89395000D03*
X301715000Y-91935000D03*
D10*
X324575000Y-94475000D03*
D11*
X329655000Y-94475000D03*
X319495000Y-94475000D03*
D12*
X327115000Y-89395000D03*
X320765000Y-91935000D03*
D11*
X319495000Y-75425000D03*
D10*
X324575000Y-75425000D03*
D11*
X329655000Y-75425000D03*
D12*
X327115000Y-70345000D03*
X320765000Y-72885000D03*
D10*
X343625000Y-75425000D03*
D11*
X338545000Y-75425000D03*
X348705000Y-75425000D03*
D12*
X346165000Y-70345000D03*
X339815000Y-72885000D03*
D10*
X305525000Y-75425000D03*
D11*
X310605000Y-75425000D03*
X300445000Y-75425000D03*
D12*
X308065000Y-70345000D03*
X301715000Y-72885000D03*
D11*
X310605000Y-56375000D03*
D10*
X305525000Y-56375000D03*
D11*
X300445000Y-56375000D03*
D12*
X308065000Y-51295000D03*
X301715000Y-53835000D03*
D10*
X324575000Y-37325000D03*
D11*
X319495000Y-37325000D03*
X329655000Y-37325000D03*
D12*
X327115000Y-32245000D03*
X320765000Y-34785000D03*
D11*
X357595000Y-37325000D03*
X367755000Y-37325000D03*
D10*
X362675000Y-37325000D03*
D12*
X365215000Y-32245000D03*
X358865000Y-34785000D03*
D11*
X338545000Y-37325000D03*
X348705000Y-37325000D03*
D10*
X343625000Y-37325000D03*
D12*
X346165000Y-32245000D03*
X339815000Y-34785000D03*
D11*
X357595000Y-9525000D03*
D10*
X362675000Y-9525000D03*
D11*
X367755000Y-9525000D03*
D12*
X365215000Y-4445000D03*
X358865000Y-6985000D03*
D11*
X348705000Y-56375000D03*
D10*
X343625000Y-56375000D03*
D11*
X338545000Y-56375000D03*
D12*
X346165000Y-51295000D03*
X339815000Y-53835000D03*
D10*
X305525000Y-37325000D03*
D11*
X310605000Y-37325000D03*
X300445000Y-37325000D03*
D12*
X308065000Y-32245000D03*
X301715000Y-34785000D03*
D10*
X324575000Y-56375000D03*
D11*
X329655000Y-56375000D03*
X319495000Y-56375000D03*
D12*
X327115000Y-51295000D03*
X320765000Y-53835000D03*
D15*
X96772316Y-12041635D03*
X182497316Y-12041635D03*
X354672316Y-12041635D03*
X354672316Y-39841635D03*
X335622316Y-116041635D03*
X49147316Y-58891635D03*
X125347316Y-58891635D03*
D10*
X228600000Y-56375000D03*
D11*
X223520000Y-56375000D03*
X233680000Y-56375000D03*
D12*
X231140000Y-51295000D03*
X224790000Y-53835000D03*
D15*
X8666066Y-77941635D03*
X3903566Y-116041635D03*
X187259816Y-116041635D03*
X227741066Y-116041635D03*
D10*
X300275000Y-118525000D03*
D11*
X305355000Y-118525000D03*
X295195000Y-118525000D03*
D12*
X302815000Y-113445000D03*
X296465000Y-115985000D03*
D16*
X268222316Y-12041635D03*
D11*
X257492694Y-75424984D03*
D10*
X252412694Y-75424984D03*
D11*
X247332694Y-75424984D03*
D12*
X254952694Y-70344984D03*
X248602694Y-72884984D03*
D10*
X33337510Y-94475000D03*
D11*
X28257510Y-94475000D03*
X38417510Y-94475000D03*
D12*
X35877510Y-89395000D03*
X29527510Y-91935000D03*
X14446242Y-89395000D03*
X8096242Y-91935000D03*
D10*
X11906242Y-94475000D03*
D13*
X16986242Y-94475000D03*
X6826242Y-94475000D03*
D10*
X265588962Y-53961976D03*
D12*
X276383962Y-60819976D03*
X270033962Y-63359976D03*
D14*
X280828962Y-77837976D03*
D10*
X265588962Y-77837976D03*
D14*
X280828962Y-53961976D03*
D13*
X278923962Y-65899976D03*
X268763962Y-65899976D03*
D10*
X273843962Y-65899976D03*
X266700000Y-37325000D03*
D14*
X278638000Y-30340000D03*
D10*
X254762000Y-45580000D03*
D11*
X261620000Y-37325000D03*
X271780000Y-37325000D03*
D14*
X254762000Y-30340000D03*
D10*
X278638000Y-45580000D03*
D12*
X269240000Y-32245000D03*
X262890000Y-34785000D03*
D17*
X324905000Y-23425000D03*
D18*
X327445000Y-23425000D03*
D17*
X349905000Y-23425000D03*
D18*
X352445000Y-23425000D03*
D17*
X299905000Y-23425000D03*
D18*
X302445000Y-23425000D03*
D17*
X304230000Y-42405000D03*
D18*
X306770000Y-42405000D03*
D19*
X182926500Y-113402000D03*
D20*
X174353500Y-114647000D03*
D12*
X14452500Y-70345000D03*
X8102500Y-72885000D03*
D13*
X16992500Y-75425000D03*
X6832500Y-75425000D03*
D10*
X11912500Y-75425000D03*
D12*
X235902500Y-108445000D03*
X229552500Y-110985000D03*
D13*
X238442500Y-113525000D03*
D10*
X233362500Y-113525000D03*
D13*
X228282500Y-113525000D03*
D10*
X354420000Y-53962000D03*
D11*
X362675000Y-70980000D03*
X362675000Y-60820000D03*
D10*
X354420000Y-77838000D03*
D14*
X369660000Y-77838000D03*
D10*
X362675000Y-65900000D03*
D14*
X369660000Y-53962000D03*
D12*
X367755000Y-68440000D03*
X365215000Y-62090000D03*
D10*
X66620750Y-121780000D03*
D14*
X66620750Y-106540000D03*
X180984250Y-106540000D03*
D10*
X180984250Y-121780000D03*
D12*
X126342500Y-108445000D03*
X119992500Y-110985000D03*
D13*
X118722500Y-113525000D03*
D10*
X123802500Y-113525000D03*
D13*
X128882500Y-113525000D03*
D12*
X45390000Y-108445000D03*
X39040000Y-110985000D03*
D13*
X47930000Y-113525000D03*
D10*
X42850000Y-113525000D03*
D13*
X37770000Y-113525000D03*
D15*
X292371158Y-121041635D03*
D12*
X207312500Y-108445000D03*
X200962500Y-110985000D03*
D13*
X209852500Y-113525000D03*
D10*
X204772500Y-113525000D03*
D13*
X199692500Y-113525000D03*
D11*
X362675000Y-98920000D03*
D14*
X369660000Y-115938000D03*
D10*
X362675000Y-104000000D03*
X354420000Y-92062000D03*
D14*
X369660000Y-92062000D03*
D10*
X354420000Y-115938000D03*
D11*
X362675000Y-109080000D03*
D12*
X367755000Y-106540000D03*
X365215000Y-100190000D03*
X16832500Y-108445000D03*
X10482500Y-110985000D03*
D13*
X19372500Y-113525000D03*
D10*
X14292500Y-113525000D03*
D13*
X9212500Y-113525000D03*
D15*
X220597316Y-58891635D03*
D21*
X153606500Y-24101000D03*
X153606500Y-26101000D03*
X153606500Y-18101000D03*
X153606500Y-20101000D03*
D20*
X182934500Y-112107000D03*
D12*
X62042500Y-108445000D03*
X55692500Y-110985000D03*
D13*
X64582500Y-113525000D03*
X54422500Y-113525000D03*
D10*
X59502500Y-113525000D03*
D19*
X174339500Y-113402000D03*
D20*
X182940500Y-114647000D03*
D12*
X38242500Y-108445000D03*
X31892500Y-110985000D03*
D13*
X40782500Y-113525000D03*
X30622500Y-113525000D03*
D10*
X35702500Y-113525000D03*
D21*
X153606500Y-22101000D03*
D12*
X133482500Y-108445000D03*
X127132500Y-110985000D03*
D13*
X125862500Y-113525000D03*
D10*
X80904500Y-121780000D03*
D14*
X80904500Y-106540000D03*
D10*
X130942500Y-113525000D03*
D14*
X180980500Y-106540000D03*
D13*
X136022500Y-113525000D03*
D10*
X180980500Y-121780000D03*
D20*
X174347500Y-112107000D03*
D22*
X289605000Y-7040000D03*
D20*
X292145000Y-7040000D03*
X289605000Y-4500000D03*
X292145000Y-4500000D03*
X289605000Y-1960000D03*
X292145000Y-1960000D03*
D15*
X17527684Y-12041635D03*
M02*
