M48
; DRILL file {KiCad (6.0.1)} date Mon Feb  7 14:39:11 2022
; FORMAT={-:-/ absolute / inch / decimal}
; #@! TF.CreationDate,2022-02-07T14:39:11-05:00
; #@! TF.GenerationSoftware,Kicad,Pcbnew,(6.0.1)
; #@! TF.FileFunction,NonPlated,1,2,NPTH
FMAT,2
INCH
; #@! TA.AperFunction,NonPlated,NPTH,ComponentDrill
T1C0.0670
; #@! TA.AperFunction,NonPlated,NPTH,ComponentDrill
T2C0.0689
; #@! TA.AperFunction,NonPlated,NPTH,ComponentDrill
T3C0.0787
; #@! TA.AperFunction,NonPlated,NPTH,ComponentDrill
T4C0.0984
; #@! TA.AperFunction,NonPlated,NPTH,ComponentDrill
T5C0.1200
; #@! TA.AperFunction,NonPlated,NPTH,ComponentDrill
T6C0.1570
; #@! TA.AperFunction,NonPlated,NPTH,ComponentDrill
T7C0.4134
%
G90
G05
T1
X0.175Y-0.375
X0.175Y-1.3947
X0.175Y-2.1447
X0.175Y-2.8947
X0.175Y-3.6447
X0.575Y-0.375
X0.575Y-1.3947
X0.575Y-2.1447
X0.575Y-2.8947
X0.575Y-3.6447
X0.925Y-0.375
X0.925Y-1.3947
X0.925Y-2.1447
X0.925Y-2.8947
X0.925Y-3.6447
X1.325Y-0.375
X1.325Y-1.3947
X1.325Y-2.1447
X1.325Y-2.8947
X1.325Y-3.6447
X1.675Y-0.375
X1.675Y-1.3947
X1.675Y-2.1447
X1.675Y-2.8947
X1.675Y-3.6447
X1.675Y-4.3947
X2.075Y-0.375
X2.075Y-1.3947
X2.075Y-2.1447
X2.075Y-2.8947
X2.075Y-3.6447
X2.075Y-4.3947
X2.425Y-0.375
X2.425Y-1.3947
X2.825Y-0.375
X2.825Y-1.3947
T2
X0.55Y-4.3947
X0.95Y-4.3947
X2.625Y-2.3197
X2.625Y-2.7197
X2.625Y-3.8197
X2.625Y-4.2197
T5
X0.28Y-4.1197
X1.22Y-4.1197
X2.9Y-2.0497
X2.9Y-2.9897
X2.9Y-3.5497
X2.9Y-4.4897
T6
X0.28Y-4.7197
X0.375Y-0.375
X0.375Y-1.3947
X0.375Y-2.1447
X0.375Y-2.8947
X0.375Y-3.6447
X0.75Y-4.3947
X1.125Y-0.375
X1.125Y-1.3947
X1.125Y-2.1447
X1.125Y-2.8947
X1.125Y-3.6447
X1.22Y-4.7197
X1.875Y-0.375
X1.875Y-1.3947
X1.875Y-2.1447
X1.875Y-2.8947
X1.875Y-3.6447
X1.875Y-4.3947
X2.3Y-2.0497
X2.3Y-2.9897
X2.3Y-3.5497
X2.3Y-4.4897
X2.625Y-0.375
X2.625Y-1.3947
X2.625Y-2.5197
X2.625Y-4.0197
T7
X1.5Y-0.8789
T3
G00X0.6998Y-0.5128
M15
G01X0.6998Y-0.375
M16
G05
G00X0.6998Y-3.7825
M15
G01X0.6998Y-3.6447
M16
G05
G00X2.1998Y-4.5325
M15
G01X2.1998Y-4.3947
M16
G05
T4
G00X-0.0128Y-0.3278
M15
G01X0.0266Y-0.3278
M16
G05
G00X-0.0128Y-1.312
M15
G01X0.0266Y-1.312
M16
G05
G00X-0.0128Y-2.3356
M15
G01X0.0266Y-2.3356
M16
G05
G00X-0.0128Y-3.2411
M15
G01X0.0266Y-3.2411
M16
G05
G00X-0.0128Y-4.2648
M15
G01X0.0266Y-4.2648
M16
G05
G00X0.8474Y-4.8415
M15
G01X0.8474Y-4.8022
M16
G05
G00X2.1526Y-4.8415
M15
G01X2.1526Y-4.8022
M16
G05
G00X2.9734Y-0.3278
M15
G01X3.0128Y-0.3278
M16
G05
G00X2.9734Y-1.312
M15
G01X3.0128Y-1.312
M16
G05
G00X2.9734Y-2.3356
M15
G01X3.0128Y-2.3356
M16
G05
G00X2.9734Y-3.2411
M15
G01X3.0128Y-3.2411
M16
G05
G00X2.9734Y-4.2648
M15
G01X3.0128Y-4.2648
M16
G05
T0
M30
