G04 #@! TF.GenerationSoftware,KiCad,Pcbnew,(6.0.1)*
G04 #@! TF.CreationDate,2022-02-07T14:39:17-05:00*
G04 #@! TF.ProjectId,nt210,6e743231-302e-46b6-9963-61645f706362,rev?*
G04 #@! TF.SameCoordinates,Original*
G04 #@! TF.FileFunction,AssemblyDrawing,Bot*
%FSLAX46Y46*%
G04 Gerber Fmt 4.6, Leading zero omitted, Abs format (unit mm)*
G04 Created by KiCad (PCBNEW (6.0.1)) date 2022-02-07 14:39:17*
%MOMM*%
%LPD*%
G01*
G04 APERTURE LIST*
%ADD10C,0.060000*%
%ADD11C,0.125000*%
%ADD12C,0.150000*%
%ADD13C,0.075000*%
%ADD14C,0.030000*%
%ADD15C,0.100000*%
G04 APERTURE END LIST*
D10*
X41143255Y-44196011D02*
X41162303Y-44215058D01*
X41219446Y-44234106D01*
X41257541Y-44234106D01*
X41314684Y-44215058D01*
X41352779Y-44176963D01*
X41371827Y-44138868D01*
X41390874Y-44062677D01*
X41390874Y-44005534D01*
X41371827Y-43929344D01*
X41352779Y-43891249D01*
X41314684Y-43853154D01*
X41257541Y-43834106D01*
X41219446Y-43834106D01*
X41162303Y-43853154D01*
X41143255Y-43872201D01*
X40800398Y-43967439D02*
X40800398Y-44234106D01*
X40895636Y-43815058D02*
X40990874Y-44100773D01*
X40743255Y-44100773D01*
D11*
X34159031Y-95539791D02*
X33659031Y-95539791D01*
X33659031Y-95658838D01*
X33682841Y-95730267D01*
X33730460Y-95777886D01*
X33778079Y-95801695D01*
X33873317Y-95825505D01*
X33944745Y-95825505D01*
X34039983Y-95801695D01*
X34087602Y-95777886D01*
X34135221Y-95730267D01*
X34159031Y-95658838D01*
X34159031Y-95539791D01*
X34159031Y-96301695D02*
X34159031Y-96015981D01*
X34159031Y-96158838D02*
X33659031Y-96158838D01*
X33730460Y-96111219D01*
X33778079Y-96063600D01*
X33801888Y-96015981D01*
X33873317Y-96587410D02*
X33849507Y-96539791D01*
X33825698Y-96515981D01*
X33778079Y-96492172D01*
X33754269Y-96492172D01*
X33706650Y-96515981D01*
X33682841Y-96539791D01*
X33659031Y-96587410D01*
X33659031Y-96682648D01*
X33682841Y-96730267D01*
X33706650Y-96754076D01*
X33754269Y-96777886D01*
X33778079Y-96777886D01*
X33825698Y-96754076D01*
X33849507Y-96730267D01*
X33873317Y-96682648D01*
X33873317Y-96587410D01*
X33897126Y-96539791D01*
X33920936Y-96515981D01*
X33968555Y-96492172D01*
X34063793Y-96492172D01*
X34111412Y-96515981D01*
X34135221Y-96539791D01*
X34159031Y-96587410D01*
X34159031Y-96682648D01*
X34135221Y-96730267D01*
X34111412Y-96754076D01*
X34063793Y-96777886D01*
X33968555Y-96777886D01*
X33920936Y-96754076D01*
X33897126Y-96730267D01*
X33873317Y-96682648D01*
X53209047Y-57439759D02*
X52709047Y-57439759D01*
X52709047Y-57558806D01*
X52732857Y-57630235D01*
X52780476Y-57677854D01*
X52828095Y-57701663D01*
X52923333Y-57725473D01*
X52994761Y-57725473D01*
X53089999Y-57701663D01*
X53137618Y-57677854D01*
X53185237Y-57630235D01*
X53209047Y-57558806D01*
X53209047Y-57439759D01*
X53209047Y-58201663D02*
X53209047Y-57915949D01*
X53209047Y-58058806D02*
X52709047Y-58058806D01*
X52780476Y-58011187D01*
X52828095Y-57963568D01*
X52851904Y-57915949D01*
X53209047Y-58677854D02*
X53209047Y-58392140D01*
X53209047Y-58534997D02*
X52709047Y-58534997D01*
X52780476Y-58487378D01*
X52828095Y-58439759D01*
X52851904Y-58392140D01*
D12*
X41433207Y-67533897D02*
X40957017Y-67533897D01*
X41528445Y-67819611D02*
X41195112Y-66819611D01*
X40861778Y-67819611D01*
X40671302Y-66819611D02*
X40099874Y-66819611D01*
X40385588Y-67819611D02*
X40385588Y-66819611D01*
X39766540Y-67819611D02*
X39766540Y-66819611D01*
X39433207Y-67533897D01*
X39099874Y-66819611D01*
X39099874Y-67819611D01*
X38623683Y-67295802D02*
X38290350Y-67295802D01*
X38147493Y-67819611D02*
X38623683Y-67819611D01*
X38623683Y-66819611D01*
X38147493Y-66819611D01*
X37195112Y-66867231D02*
X37290350Y-66819611D01*
X37433207Y-66819611D01*
X37576064Y-66867231D01*
X37671302Y-66962469D01*
X37718921Y-67057707D01*
X37766540Y-67248183D01*
X37766540Y-67391040D01*
X37718921Y-67581516D01*
X37671302Y-67676754D01*
X37576064Y-67771992D01*
X37433207Y-67819611D01*
X37337969Y-67819611D01*
X37195112Y-67771992D01*
X37147493Y-67724373D01*
X37147493Y-67391040D01*
X37337969Y-67391040D01*
X36766540Y-67533897D02*
X36290350Y-67533897D01*
X36861778Y-67819611D02*
X36528445Y-66819611D01*
X36195112Y-67819611D01*
X35957017Y-66819611D02*
X35337969Y-66819611D01*
X35671302Y-67200564D01*
X35528445Y-67200564D01*
X35433207Y-67248183D01*
X35385588Y-67295802D01*
X35337969Y-67391040D01*
X35337969Y-67629135D01*
X35385588Y-67724373D01*
X35433207Y-67771992D01*
X35528445Y-67819611D01*
X35814159Y-67819611D01*
X35909398Y-67771992D01*
X35957017Y-67724373D01*
X34957017Y-66914850D02*
X34909398Y-66867231D01*
X34814159Y-66819611D01*
X34576064Y-66819611D01*
X34480826Y-66867231D01*
X34433207Y-66914850D01*
X34385588Y-67010088D01*
X34385588Y-67105326D01*
X34433207Y-67248183D01*
X35004636Y-67819611D01*
X34385588Y-67819611D01*
X33957017Y-66819611D02*
X33957017Y-67629135D01*
X33909398Y-67724373D01*
X33861778Y-67771992D01*
X33766540Y-67819611D01*
X33576064Y-67819611D01*
X33480826Y-67771992D01*
X33433207Y-67724373D01*
X33385588Y-67629135D01*
X33385588Y-66819611D01*
X32957017Y-66914850D02*
X32909398Y-66867231D01*
X32814159Y-66819611D01*
X32576064Y-66819611D01*
X32480826Y-66867231D01*
X32433207Y-66914850D01*
X32385588Y-67010088D01*
X32385588Y-67105326D01*
X32433207Y-67248183D01*
X33004636Y-67819611D01*
X32385588Y-67819611D01*
X37671302Y-60769611D02*
X37671302Y-61579135D01*
X37623683Y-61674373D01*
X37576064Y-61721992D01*
X37480826Y-61769611D01*
X37290350Y-61769611D01*
X37195112Y-61721992D01*
X37147493Y-61674373D01*
X37099874Y-61579135D01*
X37099874Y-60769611D01*
X36099874Y-61769611D02*
X36671302Y-61769611D01*
X36385588Y-61769611D02*
X36385588Y-60769611D01*
X36480826Y-60912469D01*
X36576064Y-61007707D01*
X36671302Y-61055326D01*
X39338119Y-80641505D02*
X39671452Y-80165315D01*
X39909547Y-80641505D02*
X39909547Y-79641505D01*
X39528595Y-79641505D01*
X39433357Y-79689125D01*
X39385738Y-79736744D01*
X39338119Y-79831982D01*
X39338119Y-79974839D01*
X39385738Y-80070077D01*
X39433357Y-80117696D01*
X39528595Y-80165315D01*
X39909547Y-80165315D01*
X38528595Y-80593886D02*
X38623833Y-80641505D01*
X38814309Y-80641505D01*
X38909547Y-80593886D01*
X38957166Y-80498648D01*
X38957166Y-80117696D01*
X38909547Y-80022458D01*
X38814309Y-79974839D01*
X38623833Y-79974839D01*
X38528595Y-80022458D01*
X38480976Y-80117696D01*
X38480976Y-80212934D01*
X38957166Y-80308172D01*
X38100024Y-80593886D02*
X38004785Y-80641505D01*
X37814309Y-80641505D01*
X37719071Y-80593886D01*
X37671452Y-80498648D01*
X37671452Y-80451029D01*
X37719071Y-80355791D01*
X37814309Y-80308172D01*
X37957166Y-80308172D01*
X38052404Y-80260553D01*
X38100024Y-80165315D01*
X38100024Y-80117696D01*
X38052404Y-80022458D01*
X37957166Y-79974839D01*
X37814309Y-79974839D01*
X37719071Y-80022458D01*
X36861928Y-80593886D02*
X36957166Y-80641505D01*
X37147643Y-80641505D01*
X37242881Y-80593886D01*
X37290500Y-80498648D01*
X37290500Y-80117696D01*
X37242881Y-80022458D01*
X37147643Y-79974839D01*
X36957166Y-79974839D01*
X36861928Y-80022458D01*
X36814309Y-80117696D01*
X36814309Y-80212934D01*
X37290500Y-80308172D01*
X36528595Y-79974839D02*
X36147643Y-79974839D01*
X36385738Y-79641505D02*
X36385738Y-80498648D01*
X36338119Y-80593886D01*
X36242881Y-80641505D01*
X36147643Y-80641505D01*
X39433357Y-88093886D02*
X39290500Y-88141505D01*
X39052404Y-88141505D01*
X38957166Y-88093886D01*
X38909547Y-88046267D01*
X38861928Y-87951029D01*
X38861928Y-87855791D01*
X38909547Y-87760553D01*
X38957166Y-87712934D01*
X39052404Y-87665315D01*
X39242881Y-87617696D01*
X39338119Y-87570077D01*
X39385738Y-87522458D01*
X39433357Y-87427220D01*
X39433357Y-87331982D01*
X39385738Y-87236744D01*
X39338119Y-87189125D01*
X39242881Y-87141505D01*
X39004785Y-87141505D01*
X38861928Y-87189125D01*
X38528595Y-87141505D02*
X38290500Y-88141505D01*
X38100024Y-87427220D01*
X37909547Y-88141505D01*
X37671452Y-87141505D01*
X36766690Y-88141505D02*
X37338119Y-88141505D01*
X37052404Y-88141505D02*
X37052404Y-87141505D01*
X37147643Y-87284363D01*
X37242881Y-87379601D01*
X37338119Y-87427220D01*
X13858341Y-91860722D02*
X13858341Y-92860722D01*
X13858341Y-91908341D02*
X13763103Y-91860722D01*
X13572627Y-91860722D01*
X13477388Y-91908341D01*
X13429769Y-91955960D01*
X13382150Y-92051198D01*
X13382150Y-92336912D01*
X13429769Y-92432150D01*
X13477388Y-92479769D01*
X13572627Y-92527388D01*
X13763103Y-92527388D01*
X13858341Y-92479769D01*
X12810722Y-92527388D02*
X12905960Y-92479769D01*
X12953579Y-92384531D01*
X12953579Y-91527388D01*
X12001198Y-92527388D02*
X12001198Y-92003579D01*
X12048817Y-91908341D01*
X12144055Y-91860722D01*
X12334531Y-91860722D01*
X12429769Y-91908341D01*
X12001198Y-92479769D02*
X12096436Y-92527388D01*
X12334531Y-92527388D01*
X12429769Y-92479769D01*
X12477388Y-92384531D01*
X12477388Y-92289293D01*
X12429769Y-92194055D01*
X12334531Y-92146436D01*
X12096436Y-92146436D01*
X12001198Y-92098817D01*
X11667865Y-91860722D02*
X11286912Y-91860722D01*
X11525008Y-91527388D02*
X11525008Y-92384531D01*
X11477388Y-92479769D01*
X11382150Y-92527388D01*
X11286912Y-92527388D01*
X10572627Y-92479769D02*
X10667865Y-92527388D01*
X10858341Y-92527388D01*
X10953579Y-92479769D01*
X11001198Y-92384531D01*
X11001198Y-92003579D01*
X10953579Y-91908341D01*
X10858341Y-91860722D01*
X10667865Y-91860722D01*
X10572627Y-91908341D01*
X10525008Y-92003579D01*
X10525008Y-92098817D01*
X11001198Y-92194055D01*
X10334531Y-92622627D02*
X9572627Y-92622627D01*
X9334531Y-92527388D02*
X9334531Y-91860722D01*
X9334531Y-91955960D02*
X9286912Y-91908341D01*
X9191674Y-91860722D01*
X9048817Y-91860722D01*
X8953579Y-91908341D01*
X8905960Y-92003579D01*
X8905960Y-92527388D01*
X8905960Y-92003579D02*
X8858341Y-91908341D01*
X8763103Y-91860722D01*
X8620246Y-91860722D01*
X8525008Y-91908341D01*
X8477388Y-92003579D01*
X8477388Y-92527388D01*
X7858341Y-92527388D02*
X7953579Y-92479769D01*
X8001198Y-92432150D01*
X8048817Y-92336912D01*
X8048817Y-92051198D01*
X8001198Y-91955960D01*
X7953579Y-91908341D01*
X7858341Y-91860722D01*
X7715484Y-91860722D01*
X7620246Y-91908341D01*
X7572627Y-91955960D01*
X7525008Y-92051198D01*
X7525008Y-92336912D01*
X7572627Y-92432150D01*
X7620246Y-92479769D01*
X7715484Y-92527388D01*
X7858341Y-92527388D01*
X6667865Y-91860722D02*
X6667865Y-92527388D01*
X7096436Y-91860722D02*
X7096436Y-92384531D01*
X7048817Y-92479769D01*
X6953579Y-92527388D01*
X6810722Y-92527388D01*
X6715484Y-92479769D01*
X6667865Y-92432150D01*
X6191674Y-91860722D02*
X6191674Y-92527388D01*
X6191674Y-91955960D02*
X6144055Y-91908341D01*
X6048817Y-91860722D01*
X5905960Y-91860722D01*
X5810722Y-91908341D01*
X5763103Y-92003579D01*
X5763103Y-92527388D01*
X5429769Y-91860722D02*
X5048817Y-91860722D01*
X5286912Y-91527388D02*
X5286912Y-92384531D01*
X5239293Y-92479769D01*
X5144055Y-92527388D01*
X5048817Y-92527388D01*
D11*
X15109015Y-76489775D02*
X14609015Y-76489775D01*
X14609015Y-76608822D01*
X14632825Y-76680251D01*
X14680444Y-76727870D01*
X14728063Y-76751679D01*
X14823301Y-76775489D01*
X14894729Y-76775489D01*
X14989967Y-76751679D01*
X15037586Y-76727870D01*
X15085205Y-76680251D01*
X15109015Y-76608822D01*
X15109015Y-76489775D01*
X15109015Y-77251679D02*
X15109015Y-76965965D01*
X15109015Y-77108822D02*
X14609015Y-77108822D01*
X14680444Y-77061203D01*
X14728063Y-77013584D01*
X14751872Y-76965965D01*
X14609015Y-77418346D02*
X14609015Y-77727870D01*
X14799491Y-77561203D01*
X14799491Y-77632632D01*
X14823301Y-77680251D01*
X14847110Y-77704060D01*
X14894729Y-77727870D01*
X15013777Y-77727870D01*
X15061396Y-77704060D01*
X15085205Y-77680251D01*
X15109015Y-77632632D01*
X15109015Y-77489775D01*
X15085205Y-77442156D01*
X15061396Y-77418346D01*
D12*
X19383341Y-29813335D02*
X19383341Y-30527621D01*
X19430960Y-30670478D01*
X19526198Y-30765716D01*
X19669055Y-30813335D01*
X19764293Y-30813335D01*
X19002388Y-29813335D02*
X18383341Y-29813335D01*
X18716674Y-30194288D01*
X18573817Y-30194288D01*
X18478579Y-30241907D01*
X18430960Y-30289526D01*
X18383341Y-30384764D01*
X18383341Y-30622859D01*
X18430960Y-30718097D01*
X18478579Y-30765716D01*
X18573817Y-30813335D01*
X18859531Y-30813335D01*
X18954769Y-30765716D01*
X19002388Y-30718097D01*
D13*
X35885438Y-42826813D02*
X36052105Y-42826813D01*
X36052105Y-43088718D02*
X36052105Y-42588718D01*
X35814010Y-42588718D01*
X35361629Y-43088718D02*
X35647343Y-43088718D01*
X35504486Y-43088718D02*
X35504486Y-42588718D01*
X35552105Y-42660147D01*
X35599724Y-42707766D01*
X35647343Y-42731575D01*
D10*
X35190125Y-50744454D02*
X35209173Y-50763501D01*
X35266316Y-50782549D01*
X35304411Y-50782549D01*
X35361554Y-50763501D01*
X35399649Y-50725406D01*
X35418697Y-50687311D01*
X35437744Y-50611120D01*
X35437744Y-50553977D01*
X35418697Y-50477787D01*
X35399649Y-50439692D01*
X35361554Y-50401597D01*
X35304411Y-50382549D01*
X35266316Y-50382549D01*
X35209173Y-50401597D01*
X35190125Y-50420644D01*
X34828220Y-50382549D02*
X35018697Y-50382549D01*
X35037744Y-50573025D01*
X35018697Y-50553977D01*
X34980601Y-50534930D01*
X34885363Y-50534930D01*
X34847268Y-50553977D01*
X34828220Y-50573025D01*
X34809173Y-50611120D01*
X34809173Y-50706358D01*
X34828220Y-50744454D01*
X34847268Y-50763501D01*
X34885363Y-50782549D01*
X34980601Y-50782549D01*
X35018697Y-50763501D01*
X35037744Y-50744454D01*
D11*
X34159031Y-38627838D02*
X33659031Y-38627838D01*
X33659031Y-38746886D01*
X33682841Y-38818314D01*
X33730460Y-38865933D01*
X33778079Y-38889743D01*
X33873317Y-38913552D01*
X33944745Y-38913552D01*
X34039983Y-38889743D01*
X34087602Y-38865933D01*
X34135221Y-38818314D01*
X34159031Y-38746886D01*
X34159031Y-38627838D01*
X33659031Y-39342124D02*
X33659031Y-39246886D01*
X33682841Y-39199266D01*
X33706650Y-39175457D01*
X33778079Y-39127838D01*
X33873317Y-39104028D01*
X34063793Y-39104028D01*
X34111412Y-39127838D01*
X34135221Y-39151647D01*
X34159031Y-39199266D01*
X34159031Y-39294505D01*
X34135221Y-39342124D01*
X34111412Y-39365933D01*
X34063793Y-39389743D01*
X33944745Y-39389743D01*
X33897126Y-39365933D01*
X33873317Y-39342124D01*
X33849507Y-39294505D01*
X33849507Y-39199266D01*
X33873317Y-39151647D01*
X33897126Y-39127838D01*
X33944745Y-39104028D01*
X34159023Y-12727830D02*
X33659023Y-12727830D01*
X33659023Y-12846878D01*
X33682833Y-12918306D01*
X33730452Y-12965925D01*
X33778071Y-12989735D01*
X33873309Y-13013544D01*
X33944737Y-13013544D01*
X34039975Y-12989735D01*
X34087594Y-12965925D01*
X34135213Y-12918306D01*
X34159023Y-12846878D01*
X34159023Y-12727830D01*
X33706642Y-13204020D02*
X33682833Y-13227830D01*
X33659023Y-13275449D01*
X33659023Y-13394497D01*
X33682833Y-13442116D01*
X33706642Y-13465925D01*
X33754261Y-13489735D01*
X33801880Y-13489735D01*
X33873309Y-13465925D01*
X34159023Y-13180211D01*
X34159023Y-13489735D01*
X24356198Y-114589807D02*
X23856198Y-114589807D01*
X23856198Y-114708854D01*
X23880008Y-114780283D01*
X23927627Y-114827902D01*
X23975246Y-114851711D01*
X24070484Y-114875521D01*
X24141912Y-114875521D01*
X24237150Y-114851711D01*
X24284769Y-114827902D01*
X24332388Y-114780283D01*
X24356198Y-114708854D01*
X24356198Y-114589807D01*
X23903817Y-115065997D02*
X23880008Y-115089807D01*
X23856198Y-115137426D01*
X23856198Y-115256473D01*
X23880008Y-115304092D01*
X23903817Y-115327902D01*
X23951436Y-115351711D01*
X23999055Y-115351711D01*
X24070484Y-115327902D01*
X24356198Y-115042188D01*
X24356198Y-115351711D01*
X24356198Y-115827902D02*
X24356198Y-115542188D01*
X24356198Y-115685045D02*
X23856198Y-115685045D01*
X23927627Y-115637426D01*
X23975246Y-115589807D01*
X23999055Y-115542188D01*
D10*
X28046369Y-63284122D02*
X28179703Y-63093646D01*
X28274941Y-63284122D02*
X28274941Y-62884122D01*
X28122560Y-62884122D01*
X28084464Y-62903170D01*
X28065417Y-62922217D01*
X28046369Y-62960312D01*
X28046369Y-63017455D01*
X28065417Y-63055550D01*
X28084464Y-63074598D01*
X28122560Y-63093646D01*
X28274941Y-63093646D01*
X27703512Y-63017455D02*
X27703512Y-63284122D01*
X27798750Y-62865074D02*
X27893988Y-63150789D01*
X27646369Y-63150789D01*
D12*
X51958373Y-110910786D02*
X51958373Y-111910786D01*
X51958373Y-110958405D02*
X51863135Y-110910786D01*
X51672659Y-110910786D01*
X51577420Y-110958405D01*
X51529801Y-111006024D01*
X51482182Y-111101262D01*
X51482182Y-111386976D01*
X51529801Y-111482214D01*
X51577420Y-111529833D01*
X51672659Y-111577452D01*
X51863135Y-111577452D01*
X51958373Y-111529833D01*
X50910754Y-111577452D02*
X51005992Y-111529833D01*
X51053611Y-111434595D01*
X51053611Y-110577452D01*
X50101230Y-111577452D02*
X50101230Y-111053643D01*
X50148849Y-110958405D01*
X50244087Y-110910786D01*
X50434563Y-110910786D01*
X50529801Y-110958405D01*
X50101230Y-111529833D02*
X50196468Y-111577452D01*
X50434563Y-111577452D01*
X50529801Y-111529833D01*
X50577420Y-111434595D01*
X50577420Y-111339357D01*
X50529801Y-111244119D01*
X50434563Y-111196500D01*
X50196468Y-111196500D01*
X50101230Y-111148881D01*
X49767897Y-110910786D02*
X49386944Y-110910786D01*
X49625040Y-110577452D02*
X49625040Y-111434595D01*
X49577420Y-111529833D01*
X49482182Y-111577452D01*
X49386944Y-111577452D01*
X48672659Y-111529833D02*
X48767897Y-111577452D01*
X48958373Y-111577452D01*
X49053611Y-111529833D01*
X49101230Y-111434595D01*
X49101230Y-111053643D01*
X49053611Y-110958405D01*
X48958373Y-110910786D01*
X48767897Y-110910786D01*
X48672659Y-110958405D01*
X48625040Y-111053643D01*
X48625040Y-111148881D01*
X49101230Y-111244119D01*
X48434563Y-111672691D02*
X47672659Y-111672691D01*
X47434563Y-111577452D02*
X47434563Y-110910786D01*
X47434563Y-111006024D02*
X47386944Y-110958405D01*
X47291706Y-110910786D01*
X47148849Y-110910786D01*
X47053611Y-110958405D01*
X47005992Y-111053643D01*
X47005992Y-111577452D01*
X47005992Y-111053643D02*
X46958373Y-110958405D01*
X46863135Y-110910786D01*
X46720278Y-110910786D01*
X46625040Y-110958405D01*
X46577420Y-111053643D01*
X46577420Y-111577452D01*
X45958373Y-111577452D02*
X46053611Y-111529833D01*
X46101230Y-111482214D01*
X46148849Y-111386976D01*
X46148849Y-111101262D01*
X46101230Y-111006024D01*
X46053611Y-110958405D01*
X45958373Y-110910786D01*
X45815516Y-110910786D01*
X45720278Y-110958405D01*
X45672659Y-111006024D01*
X45625040Y-111101262D01*
X45625040Y-111386976D01*
X45672659Y-111482214D01*
X45720278Y-111529833D01*
X45815516Y-111577452D01*
X45958373Y-111577452D01*
X44767897Y-110910786D02*
X44767897Y-111577452D01*
X45196468Y-110910786D02*
X45196468Y-111434595D01*
X45148849Y-111529833D01*
X45053611Y-111577452D01*
X44910754Y-111577452D01*
X44815516Y-111529833D01*
X44767897Y-111482214D01*
X44291706Y-110910786D02*
X44291706Y-111577452D01*
X44291706Y-111006024D02*
X44244087Y-110958405D01*
X44148849Y-110910786D01*
X44005992Y-110910786D01*
X43910754Y-110958405D01*
X43863135Y-111053643D01*
X43863135Y-111577452D01*
X43529801Y-110910786D02*
X43148849Y-110910786D01*
X43386944Y-110577452D02*
X43386944Y-111434595D01*
X43339325Y-111529833D01*
X43244087Y-111577452D01*
X43148849Y-111577452D01*
X23936770Y-39457990D02*
X24746294Y-39457990D01*
X24841532Y-39505609D01*
X24889151Y-39553228D01*
X24936770Y-39648467D01*
X24936770Y-39838943D01*
X24889151Y-39934181D01*
X24841532Y-39981800D01*
X24746294Y-40029419D01*
X23936770Y-40029419D01*
X24889151Y-40457990D02*
X24936770Y-40600847D01*
X24936770Y-40838943D01*
X24889151Y-40934181D01*
X24841532Y-40981800D01*
X24746294Y-41029419D01*
X24651056Y-41029419D01*
X24555818Y-40981800D01*
X24508199Y-40934181D01*
X24460580Y-40838943D01*
X24412961Y-40648467D01*
X24365342Y-40553228D01*
X24317723Y-40505609D01*
X24222485Y-40457990D01*
X24127247Y-40457990D01*
X24032009Y-40505609D01*
X23984390Y-40553228D01*
X23936770Y-40648467D01*
X23936770Y-40886562D01*
X23984390Y-41029419D01*
X24412961Y-41791324D02*
X24460580Y-41934181D01*
X24508199Y-41981800D01*
X24603437Y-42029419D01*
X24746294Y-42029419D01*
X24841532Y-41981800D01*
X24889151Y-41934181D01*
X24936770Y-41838943D01*
X24936770Y-41457990D01*
X23936770Y-41457990D01*
X23936770Y-41791324D01*
X23984390Y-41886562D01*
X24032009Y-41934181D01*
X24127247Y-41981800D01*
X24222485Y-41981800D01*
X24317723Y-41934181D01*
X24365342Y-41886562D01*
X24412961Y-41791324D01*
X24412961Y-41457990D01*
X24936770Y-42934181D02*
X24936770Y-42457990D01*
X23936770Y-42457990D01*
X24841532Y-43838943D02*
X24889151Y-43791324D01*
X24936770Y-43648467D01*
X24936770Y-43553228D01*
X24889151Y-43410371D01*
X24793913Y-43315133D01*
X24698675Y-43267514D01*
X24508199Y-43219895D01*
X24365342Y-43219895D01*
X24174866Y-43267514D01*
X24079628Y-43315133D01*
X23984390Y-43410371D01*
X23936770Y-43553228D01*
X23936770Y-43648467D01*
X23984390Y-43791324D01*
X24032009Y-43838943D01*
X23936770Y-44696086D02*
X23936770Y-44505609D01*
X23984390Y-44410371D01*
X24032009Y-44362752D01*
X24174866Y-44267514D01*
X24365342Y-44219895D01*
X24746294Y-44219895D01*
X24841532Y-44267514D01*
X24889151Y-44315133D01*
X24936770Y-44410371D01*
X24936770Y-44600847D01*
X24889151Y-44696086D01*
X24841532Y-44743705D01*
X24746294Y-44791324D01*
X24508199Y-44791324D01*
X24412961Y-44743705D01*
X24365342Y-44696086D01*
X24317723Y-44600847D01*
X24317723Y-44410371D01*
X24365342Y-44315133D01*
X24412961Y-44267514D01*
X24508199Y-44219895D01*
X24555818Y-45219895D02*
X24555818Y-45981800D01*
X24032009Y-46410371D02*
X23984390Y-46457990D01*
X23936770Y-46553228D01*
X23936770Y-46791324D01*
X23984390Y-46886562D01*
X24032009Y-46934181D01*
X24127247Y-46981800D01*
X24222485Y-46981800D01*
X24365342Y-46934181D01*
X24936770Y-46362752D01*
X24936770Y-46981800D01*
X24889151Y-47362752D02*
X24936770Y-47505609D01*
X24936770Y-47743705D01*
X24889151Y-47838943D01*
X24841532Y-47886562D01*
X24746294Y-47934181D01*
X24651056Y-47934181D01*
X24555818Y-47886562D01*
X24508199Y-47838943D01*
X24460580Y-47743705D01*
X24412961Y-47553228D01*
X24365342Y-47457990D01*
X24317723Y-47410371D01*
X24222485Y-47362752D01*
X24127247Y-47362752D01*
X24032009Y-47410371D01*
X23984390Y-47457990D01*
X23936770Y-47553228D01*
X23936770Y-47791324D01*
X23984390Y-47934181D01*
X24841532Y-48934181D02*
X24889151Y-48886562D01*
X24936770Y-48743705D01*
X24936770Y-48648467D01*
X24889151Y-48505609D01*
X24793913Y-48410371D01*
X24698675Y-48362752D01*
X24508199Y-48315133D01*
X24365342Y-48315133D01*
X24174866Y-48362752D01*
X24079628Y-48410371D01*
X23984390Y-48505609D01*
X23936770Y-48648467D01*
X23936770Y-48743705D01*
X23984390Y-48886562D01*
X24032009Y-48934181D01*
X23936770Y-49791324D02*
X23936770Y-49600847D01*
X23984390Y-49505609D01*
X24032009Y-49457990D01*
X24174866Y-49362752D01*
X24365342Y-49315133D01*
X24746294Y-49315133D01*
X24841532Y-49362752D01*
X24889151Y-49410371D01*
X24936770Y-49505609D01*
X24936770Y-49696086D01*
X24889151Y-49791324D01*
X24841532Y-49838943D01*
X24746294Y-49886562D01*
X24508199Y-49886562D01*
X24412961Y-49838943D01*
X24365342Y-49791324D01*
X24317723Y-49696086D01*
X24317723Y-49505609D01*
X24365342Y-49410371D01*
X24412961Y-49362752D01*
X24508199Y-49315133D01*
D13*
X27110580Y-44267514D02*
X27515342Y-44267514D01*
X27562961Y-44291324D01*
X27586770Y-44315133D01*
X27610580Y-44362752D01*
X27610580Y-44457990D01*
X27586770Y-44505609D01*
X27562961Y-44529419D01*
X27515342Y-44553228D01*
X27110580Y-44553228D01*
X27158199Y-44767514D02*
X27134390Y-44791324D01*
X27110580Y-44838943D01*
X27110580Y-44957990D01*
X27134390Y-45005609D01*
X27158199Y-45029419D01*
X27205818Y-45053228D01*
X27253437Y-45053228D01*
X27324866Y-45029419D01*
X27610580Y-44743705D01*
X27610580Y-45053228D01*
D11*
X43684039Y-114589807D02*
X43184039Y-114589807D01*
X43184039Y-114708854D01*
X43207849Y-114780283D01*
X43255468Y-114827902D01*
X43303087Y-114851711D01*
X43398325Y-114875521D01*
X43469753Y-114875521D01*
X43564991Y-114851711D01*
X43612610Y-114827902D01*
X43660229Y-114780283D01*
X43684039Y-114708854D01*
X43684039Y-114589807D01*
X43231658Y-115065997D02*
X43207849Y-115089807D01*
X43184039Y-115137426D01*
X43184039Y-115256473D01*
X43207849Y-115304092D01*
X43231658Y-115327902D01*
X43279277Y-115351711D01*
X43326896Y-115351711D01*
X43398325Y-115327902D01*
X43684039Y-115042188D01*
X43684039Y-115351711D01*
X43184039Y-115518378D02*
X43184039Y-115827902D01*
X43374515Y-115661235D01*
X43374515Y-115732664D01*
X43398325Y-115780283D01*
X43422134Y-115804092D01*
X43469753Y-115827902D01*
X43588801Y-115827902D01*
X43636420Y-115804092D01*
X43660229Y-115780283D01*
X43684039Y-115732664D01*
X43684039Y-115589807D01*
X43660229Y-115542188D01*
X43636420Y-115518378D01*
X53209047Y-38627838D02*
X52709047Y-38627838D01*
X52709047Y-38746886D01*
X52732857Y-38818314D01*
X52780476Y-38865933D01*
X52828095Y-38889743D01*
X52923333Y-38913552D01*
X52994761Y-38913552D01*
X53089999Y-38889743D01*
X53137618Y-38865933D01*
X53185237Y-38818314D01*
X53209047Y-38746886D01*
X53209047Y-38627838D01*
X52709047Y-39080219D02*
X52709047Y-39413552D01*
X53209047Y-39199266D01*
X15109015Y-38627838D02*
X14609015Y-38627838D01*
X14609015Y-38746886D01*
X14632825Y-38818314D01*
X14680444Y-38865933D01*
X14728063Y-38889743D01*
X14823301Y-38913552D01*
X14894729Y-38913552D01*
X14989967Y-38889743D01*
X15037586Y-38865933D01*
X15085205Y-38818314D01*
X15109015Y-38746886D01*
X15109015Y-38627838D01*
X14609015Y-39365933D02*
X14609015Y-39127838D01*
X14847110Y-39104028D01*
X14823301Y-39127838D01*
X14799491Y-39175457D01*
X14799491Y-39294505D01*
X14823301Y-39342124D01*
X14847110Y-39365933D01*
X14894729Y-39389743D01*
X15013777Y-39389743D01*
X15061396Y-39365933D01*
X15085205Y-39342124D01*
X15109015Y-39294505D01*
X15109015Y-39175457D01*
X15085205Y-39127838D01*
X15061396Y-39104028D01*
X72259055Y-12727830D02*
X71759055Y-12727830D01*
X71759055Y-12846878D01*
X71782865Y-12918306D01*
X71830484Y-12965925D01*
X71878103Y-12989735D01*
X71973341Y-13013544D01*
X72044769Y-13013544D01*
X72140007Y-12989735D01*
X72187626Y-12965925D01*
X72235245Y-12918306D01*
X72259055Y-12846878D01*
X72259055Y-12727830D01*
X71925722Y-13442116D02*
X72259055Y-13442116D01*
X71735245Y-13323068D02*
X72092388Y-13204020D01*
X72092388Y-13513544D01*
X53209047Y-76489775D02*
X52709047Y-76489775D01*
X52709047Y-76608822D01*
X52732857Y-76680251D01*
X52780476Y-76727870D01*
X52828095Y-76751679D01*
X52923333Y-76775489D01*
X52994761Y-76775489D01*
X53089999Y-76751679D01*
X53137618Y-76727870D01*
X53185237Y-76680251D01*
X53209047Y-76608822D01*
X53209047Y-76489775D01*
X53209047Y-77251679D02*
X53209047Y-76965965D01*
X53209047Y-77108822D02*
X52709047Y-77108822D01*
X52780476Y-77061203D01*
X52828095Y-77013584D01*
X52851904Y-76965965D01*
X52709047Y-77704060D02*
X52709047Y-77465965D01*
X52947142Y-77442156D01*
X52923333Y-77465965D01*
X52899523Y-77513584D01*
X52899523Y-77632632D01*
X52923333Y-77680251D01*
X52947142Y-77704060D01*
X52994761Y-77727870D01*
X53113809Y-77727870D01*
X53161428Y-77704060D01*
X53185237Y-77680251D01*
X53209047Y-77632632D01*
X53209047Y-77513584D01*
X53185237Y-77465965D01*
X53161428Y-77442156D01*
X60352803Y-57439759D02*
X59852803Y-57439759D01*
X59852803Y-57558806D01*
X59876613Y-57630235D01*
X59924232Y-57677854D01*
X59971851Y-57701663D01*
X60067089Y-57725473D01*
X60138517Y-57725473D01*
X60233755Y-57701663D01*
X60281374Y-57677854D01*
X60328993Y-57630235D01*
X60352803Y-57558806D01*
X60352803Y-57439759D01*
X60352803Y-58201663D02*
X60352803Y-57915949D01*
X60352803Y-58058806D02*
X59852803Y-58058806D01*
X59924232Y-58011187D01*
X59971851Y-57963568D01*
X59995660Y-57915949D01*
X59900422Y-58392140D02*
X59876613Y-58415949D01*
X59852803Y-58463568D01*
X59852803Y-58582616D01*
X59876613Y-58630235D01*
X59900422Y-58654044D01*
X59948041Y-58677854D01*
X59995660Y-58677854D01*
X60067089Y-58654044D01*
X60352803Y-58368330D01*
X60352803Y-58677854D01*
X4393381Y-95539791D02*
X3893381Y-95539791D01*
X3893381Y-95658838D01*
X3917191Y-95730267D01*
X3964810Y-95777886D01*
X4012429Y-95801695D01*
X4107667Y-95825505D01*
X4179095Y-95825505D01*
X4274333Y-95801695D01*
X4321952Y-95777886D01*
X4369571Y-95730267D01*
X4393381Y-95658838D01*
X4393381Y-95539791D01*
X4393381Y-96301695D02*
X4393381Y-96015981D01*
X4393381Y-96158838D02*
X3893381Y-96158838D01*
X3964810Y-96111219D01*
X4012429Y-96063600D01*
X4036238Y-96015981D01*
X3893381Y-96468362D02*
X3893381Y-96801695D01*
X4393381Y-96587410D01*
X60352803Y-95539791D02*
X59852803Y-95539791D01*
X59852803Y-95658838D01*
X59876613Y-95730267D01*
X59924232Y-95777886D01*
X59971851Y-95801695D01*
X60067089Y-95825505D01*
X60138517Y-95825505D01*
X60233755Y-95801695D01*
X60281374Y-95777886D01*
X60328993Y-95730267D01*
X60352803Y-95658838D01*
X60352803Y-95539791D01*
X59900422Y-96015981D02*
X59876613Y-96039791D01*
X59852803Y-96087410D01*
X59852803Y-96206457D01*
X59876613Y-96254076D01*
X59900422Y-96277886D01*
X59948041Y-96301695D01*
X59995660Y-96301695D01*
X60067089Y-96277886D01*
X60352803Y-95992172D01*
X60352803Y-96301695D01*
X59852803Y-96611219D02*
X59852803Y-96658838D01*
X59876613Y-96706457D01*
X59900422Y-96730267D01*
X59948041Y-96754076D01*
X60043279Y-96777886D01*
X60162327Y-96777886D01*
X60257565Y-96754076D01*
X60305184Y-96730267D01*
X60328993Y-96706457D01*
X60352803Y-96658838D01*
X60352803Y-96611219D01*
X60328993Y-96563600D01*
X60305184Y-96539791D01*
X60257565Y-96515981D01*
X60162327Y-96492172D01*
X60043279Y-96492172D01*
X59948041Y-96515981D01*
X59900422Y-96539791D01*
X59876613Y-96563600D01*
X59852803Y-96611219D01*
X23443397Y-57439759D02*
X22943397Y-57439759D01*
X22943397Y-57558806D01*
X22967207Y-57630235D01*
X23014826Y-57677854D01*
X23062445Y-57701663D01*
X23157683Y-57725473D01*
X23229111Y-57725473D01*
X23324349Y-57701663D01*
X23371968Y-57677854D01*
X23419587Y-57630235D01*
X23443397Y-57558806D01*
X23443397Y-57439759D01*
X23443397Y-58201663D02*
X23443397Y-57915949D01*
X23443397Y-58058806D02*
X22943397Y-58058806D01*
X23014826Y-58011187D01*
X23062445Y-57963568D01*
X23086254Y-57915949D01*
X22943397Y-58511187D02*
X22943397Y-58558806D01*
X22967207Y-58606425D01*
X22991016Y-58630235D01*
X23038635Y-58654044D01*
X23133873Y-58677854D01*
X23252921Y-58677854D01*
X23348159Y-58654044D01*
X23395778Y-58630235D01*
X23419587Y-58606425D01*
X23443397Y-58558806D01*
X23443397Y-58511187D01*
X23419587Y-58463568D01*
X23395778Y-58439759D01*
X23348159Y-58415949D01*
X23252921Y-58392140D01*
X23133873Y-58392140D01*
X23038635Y-58415949D01*
X22991016Y-58439759D01*
X22967207Y-58463568D01*
X22943397Y-58511187D01*
D10*
X37090350Y-72561511D02*
X36899874Y-72428178D01*
X37090350Y-72332939D02*
X36690350Y-72332939D01*
X36690350Y-72485320D01*
X36709398Y-72523416D01*
X36728445Y-72542463D01*
X36766540Y-72561511D01*
X36823683Y-72561511D01*
X36861778Y-72542463D01*
X36880826Y-72523416D01*
X36899874Y-72485320D01*
X36899874Y-72332939D01*
X36690350Y-72694844D02*
X36690350Y-72942463D01*
X36842731Y-72809130D01*
X36842731Y-72866273D01*
X36861778Y-72904368D01*
X36880826Y-72923416D01*
X36918921Y-72942463D01*
X37014159Y-72942463D01*
X37052255Y-72923416D01*
X37071302Y-72904368D01*
X37090350Y-72866273D01*
X37090350Y-72751987D01*
X37071302Y-72713892D01*
X37052255Y-72694844D01*
D11*
X15109015Y-57677854D02*
X14609015Y-57677854D01*
X14609015Y-57796902D01*
X14632825Y-57868330D01*
X14680444Y-57915949D01*
X14728063Y-57939759D01*
X14823301Y-57963568D01*
X14894729Y-57963568D01*
X14989967Y-57939759D01*
X15037586Y-57915949D01*
X15085205Y-57868330D01*
X15109015Y-57796902D01*
X15109015Y-57677854D01*
X15109015Y-58201663D02*
X15109015Y-58296902D01*
X15085205Y-58344521D01*
X15061396Y-58368330D01*
X14989967Y-58415949D01*
X14894729Y-58439759D01*
X14704253Y-58439759D01*
X14656634Y-58415949D01*
X14632825Y-58392140D01*
X14609015Y-58344521D01*
X14609015Y-58249282D01*
X14632825Y-58201663D01*
X14656634Y-58177854D01*
X14704253Y-58154044D01*
X14823301Y-58154044D01*
X14870920Y-58177854D01*
X14894729Y-58201663D01*
X14918539Y-58249282D01*
X14918539Y-58344521D01*
X14894729Y-58392140D01*
X14870920Y-58415949D01*
X14823301Y-58439759D01*
X53209047Y-95539791D02*
X52709047Y-95539791D01*
X52709047Y-95658838D01*
X52732857Y-95730267D01*
X52780476Y-95777886D01*
X52828095Y-95801695D01*
X52923333Y-95825505D01*
X52994761Y-95825505D01*
X53089999Y-95801695D01*
X53137618Y-95777886D01*
X53185237Y-95730267D01*
X53209047Y-95658838D01*
X53209047Y-95539791D01*
X53209047Y-96301695D02*
X53209047Y-96015981D01*
X53209047Y-96158838D02*
X52709047Y-96158838D01*
X52780476Y-96111219D01*
X52828095Y-96063600D01*
X52851904Y-96015981D01*
X53209047Y-96539791D02*
X53209047Y-96635029D01*
X53185237Y-96682648D01*
X53161428Y-96706457D01*
X53089999Y-96754076D01*
X52994761Y-96777886D01*
X52804285Y-96777886D01*
X52756666Y-96754076D01*
X52732857Y-96730267D01*
X52709047Y-96682648D01*
X52709047Y-96587410D01*
X52732857Y-96539791D01*
X52756666Y-96515981D01*
X52804285Y-96492172D01*
X52923333Y-96492172D01*
X52970952Y-96515981D01*
X52994761Y-96539791D01*
X53018571Y-96587410D01*
X53018571Y-96682648D01*
X52994761Y-96730267D01*
X52970952Y-96754076D01*
X52923333Y-96777886D01*
X34159031Y-76489775D02*
X33659031Y-76489775D01*
X33659031Y-76608822D01*
X33682841Y-76680251D01*
X33730460Y-76727870D01*
X33778079Y-76751679D01*
X33873317Y-76775489D01*
X33944745Y-76775489D01*
X34039983Y-76751679D01*
X34087602Y-76727870D01*
X34135221Y-76680251D01*
X34159031Y-76608822D01*
X34159031Y-76489775D01*
X34159031Y-77251679D02*
X34159031Y-76965965D01*
X34159031Y-77108822D02*
X33659031Y-77108822D01*
X33730460Y-77061203D01*
X33778079Y-77013584D01*
X33801888Y-76965965D01*
X33825698Y-77680251D02*
X34159031Y-77680251D01*
X33635221Y-77561203D02*
X33992364Y-77442156D01*
X33992364Y-77751679D01*
D12*
X19097701Y-68127653D02*
X19811987Y-68127653D01*
X19954844Y-68080034D01*
X20050082Y-67984796D01*
X20097701Y-67841939D01*
X20097701Y-67746701D01*
X19192940Y-68556225D02*
X19145321Y-68603844D01*
X19097701Y-68699082D01*
X19097701Y-68937177D01*
X19145321Y-69032415D01*
X19192940Y-69080034D01*
X19288178Y-69127653D01*
X19383416Y-69127653D01*
X19526273Y-69080034D01*
X20097701Y-68508606D01*
X20097701Y-69127653D01*
D10*
X35785438Y-45424732D02*
X35918772Y-45234256D01*
X36014010Y-45424732D02*
X36014010Y-45024732D01*
X35861629Y-45024732D01*
X35823533Y-45043780D01*
X35804486Y-45062827D01*
X35785438Y-45100922D01*
X35785438Y-45158065D01*
X35804486Y-45196160D01*
X35823533Y-45215208D01*
X35861629Y-45234256D01*
X36014010Y-45234256D01*
X35633057Y-45062827D02*
X35614010Y-45043780D01*
X35575914Y-45024732D01*
X35480676Y-45024732D01*
X35442581Y-45043780D01*
X35423533Y-45062827D01*
X35404486Y-45100922D01*
X35404486Y-45139018D01*
X35423533Y-45196160D01*
X35652105Y-45424732D01*
X35404486Y-45424732D01*
D11*
X72259063Y-38627838D02*
X71759063Y-38627838D01*
X71759063Y-38746886D01*
X71782873Y-38818314D01*
X71830492Y-38865933D01*
X71878111Y-38889743D01*
X71973349Y-38913552D01*
X72044777Y-38913552D01*
X72140015Y-38889743D01*
X72187634Y-38865933D01*
X72235253Y-38818314D01*
X72259063Y-38746886D01*
X72259063Y-38627838D01*
X71973349Y-39199266D02*
X71949539Y-39151647D01*
X71925730Y-39127838D01*
X71878111Y-39104028D01*
X71854301Y-39104028D01*
X71806682Y-39127838D01*
X71782873Y-39151647D01*
X71759063Y-39199266D01*
X71759063Y-39294505D01*
X71782873Y-39342124D01*
X71806682Y-39365933D01*
X71854301Y-39389743D01*
X71878111Y-39389743D01*
X71925730Y-39365933D01*
X71949539Y-39342124D01*
X71973349Y-39294505D01*
X71973349Y-39199266D01*
X71997158Y-39151647D01*
X72020968Y-39127838D01*
X72068587Y-39104028D01*
X72163825Y-39104028D01*
X72211444Y-39127838D01*
X72235253Y-39151647D01*
X72259063Y-39199266D01*
X72259063Y-39294505D01*
X72235253Y-39342124D01*
X72211444Y-39365933D01*
X72163825Y-39389743D01*
X72068587Y-39389743D01*
X72020968Y-39365933D01*
X71997158Y-39342124D01*
X71973349Y-39294505D01*
D12*
X14406551Y-44744908D02*
X14977980Y-44744908D01*
X14692265Y-44744908D02*
X14692265Y-43744908D01*
X14787504Y-43887766D01*
X14882742Y-43983004D01*
X14977980Y-44030623D01*
X13977980Y-44744908D02*
X13977980Y-43744908D01*
X13882742Y-44363956D02*
X13597027Y-44744908D01*
X13597027Y-44078242D02*
X13977980Y-44459194D01*
D10*
X14354170Y-43043480D02*
X14487504Y-42853004D01*
X14582742Y-43043480D02*
X14582742Y-42643480D01*
X14430361Y-42643480D01*
X14392265Y-42662528D01*
X14373218Y-42681575D01*
X14354170Y-42719670D01*
X14354170Y-42776813D01*
X14373218Y-42814908D01*
X14392265Y-42833956D01*
X14430361Y-42853004D01*
X14582742Y-42853004D01*
X13992265Y-42643480D02*
X14182742Y-42643480D01*
X14201789Y-42833956D01*
X14182742Y-42814908D01*
X14144646Y-42795861D01*
X14049408Y-42795861D01*
X14011313Y-42814908D01*
X13992265Y-42833956D01*
X13973218Y-42872051D01*
X13973218Y-42967289D01*
X13992265Y-43005385D01*
X14011313Y-43024432D01*
X14049408Y-43043480D01*
X14144646Y-43043480D01*
X14182742Y-43024432D01*
X14201789Y-43005385D01*
D11*
X15109007Y-12727830D02*
X14609007Y-12727830D01*
X14609007Y-12846878D01*
X14632817Y-12918306D01*
X14680436Y-12965925D01*
X14728055Y-12989735D01*
X14823293Y-13013544D01*
X14894721Y-13013544D01*
X14989959Y-12989735D01*
X15037578Y-12965925D01*
X15085197Y-12918306D01*
X15109007Y-12846878D01*
X15109007Y-12727830D01*
X15109007Y-13489735D02*
X15109007Y-13204020D01*
X15109007Y-13346878D02*
X14609007Y-13346878D01*
X14680436Y-13299258D01*
X14728055Y-13251639D01*
X14751864Y-13204020D01*
D10*
X35785438Y-47210671D02*
X35918772Y-47020195D01*
X36014010Y-47210671D02*
X36014010Y-46810671D01*
X35861629Y-46810671D01*
X35823533Y-46829719D01*
X35804486Y-46848766D01*
X35785438Y-46886861D01*
X35785438Y-46944004D01*
X35804486Y-46982099D01*
X35823533Y-47001147D01*
X35861629Y-47020195D01*
X36014010Y-47020195D01*
X35404486Y-47210671D02*
X35633057Y-47210671D01*
X35518772Y-47210671D02*
X35518772Y-46810671D01*
X35556867Y-46867814D01*
X35594962Y-46905909D01*
X35633057Y-46924957D01*
X47096385Y-58483523D02*
X47115433Y-58502570D01*
X47172576Y-58521618D01*
X47210671Y-58521618D01*
X47267814Y-58502570D01*
X47305909Y-58464475D01*
X47324957Y-58426380D01*
X47344004Y-58350189D01*
X47344004Y-58293046D01*
X47324957Y-58216856D01*
X47305909Y-58178761D01*
X47267814Y-58140666D01*
X47210671Y-58121618D01*
X47172576Y-58121618D01*
X47115433Y-58140666D01*
X47096385Y-58159713D01*
X46944004Y-58159713D02*
X46924957Y-58140666D01*
X46886861Y-58121618D01*
X46791623Y-58121618D01*
X46753528Y-58140666D01*
X46734480Y-58159713D01*
X46715433Y-58197808D01*
X46715433Y-58235904D01*
X46734480Y-58293046D01*
X46963052Y-58521618D01*
X46715433Y-58521618D01*
D14*
X48920195Y-60974373D02*
X48920195Y-60860088D01*
X48920195Y-60917231D02*
X48720195Y-60917231D01*
X48748766Y-60898183D01*
X48767814Y-60879135D01*
X48777338Y-60860088D01*
X48720195Y-61145802D02*
X48720195Y-61107707D01*
X48729719Y-61088659D01*
X48739242Y-61079135D01*
X48767814Y-61060088D01*
X48805909Y-61050564D01*
X48882099Y-61050564D01*
X48901147Y-61060088D01*
X48910671Y-61069611D01*
X48920195Y-61088659D01*
X48920195Y-61126754D01*
X48910671Y-61145802D01*
X48901147Y-61155326D01*
X48882099Y-61164850D01*
X48834480Y-61164850D01*
X48815433Y-61155326D01*
X48805909Y-61145802D01*
X48796385Y-61126754D01*
X48796385Y-61088659D01*
X48805909Y-61069611D01*
X48815433Y-61060088D01*
X48834480Y-61050564D01*
X48920195Y-61250564D02*
X48786861Y-61250564D01*
X48805909Y-61250564D02*
X48796385Y-61260088D01*
X48786861Y-61279135D01*
X48786861Y-61307707D01*
X48796385Y-61326754D01*
X48815433Y-61336278D01*
X48920195Y-61336278D01*
X48815433Y-61336278D02*
X48796385Y-61345802D01*
X48786861Y-61364850D01*
X48786861Y-61393421D01*
X48796385Y-61412469D01*
X48815433Y-61421992D01*
X48920195Y-61421992D01*
X48920195Y-61517231D02*
X48720195Y-61517231D01*
X48920195Y-61602945D02*
X48815433Y-61602945D01*
X48796385Y-61593421D01*
X48786861Y-61574373D01*
X48786861Y-61545802D01*
X48796385Y-61526754D01*
X48805909Y-61517231D01*
X48786861Y-61679135D02*
X48786861Y-61783897D01*
X48920195Y-61679135D01*
X48920195Y-61783897D01*
D12*
X24665484Y1372611D02*
X25141674Y1372611D01*
X25189293Y896420D01*
X25141674Y944039D01*
X25046436Y991658D01*
X24808341Y991658D01*
X24713103Y944039D01*
X24665484Y896420D01*
X24617865Y801182D01*
X24617865Y563087D01*
X24665484Y467849D01*
X24713103Y420230D01*
X24808341Y372611D01*
X25046436Y372611D01*
X25141674Y420230D01*
X25189293Y467849D01*
X24284531Y1372611D02*
X23665484Y1372611D01*
X23998817Y991658D01*
X23855960Y991658D01*
X23760722Y944039D01*
X23713103Y896420D01*
X23665484Y801182D01*
X23665484Y563087D01*
X23713103Y467849D01*
X23760722Y420230D01*
X23855960Y372611D01*
X24141674Y372611D01*
X24236912Y420230D01*
X24284531Y467849D01*
X23332150Y1372611D02*
X22713103Y1372611D01*
X23046436Y991658D01*
X22903579Y991658D01*
X22808341Y944039D01*
X22760722Y896420D01*
X22713103Y801182D01*
X22713103Y563087D01*
X22760722Y467849D01*
X22808341Y420230D01*
X22903579Y372611D01*
X23189293Y372611D01*
X23284531Y420230D01*
X23332150Y467849D01*
X22236912Y372611D02*
X22046436Y372611D01*
X21951198Y420230D01*
X21903579Y467849D01*
X21808341Y610706D01*
X21760722Y801182D01*
X21760722Y1182134D01*
X21808341Y1277372D01*
X21855960Y1324992D01*
X21951198Y1372611D01*
X22141674Y1372611D01*
X22236912Y1324992D01*
X22284531Y1277372D01*
X22332150Y1182134D01*
X22332150Y944039D01*
X22284531Y848801D01*
X22236912Y801182D01*
X22141674Y753563D01*
X21951198Y753563D01*
X21855960Y801182D01*
X21808341Y848801D01*
X21760722Y944039D01*
X21189293Y944039D02*
X21284531Y991658D01*
X21332150Y1039277D01*
X21379769Y1134515D01*
X21379769Y1182134D01*
X21332150Y1277372D01*
X21284531Y1324992D01*
X21189293Y1372611D01*
X20998817Y1372611D01*
X20903579Y1324992D01*
X20855960Y1277372D01*
X20808341Y1182134D01*
X20808341Y1134515D01*
X20855960Y1039277D01*
X20903579Y991658D01*
X20998817Y944039D01*
X21189293Y944039D01*
X21284531Y896420D01*
X21332150Y848801D01*
X21379769Y753563D01*
X21379769Y563087D01*
X21332150Y467849D01*
X21284531Y420230D01*
X21189293Y372611D01*
X20998817Y372611D01*
X20903579Y420230D01*
X20855960Y467849D01*
X20808341Y563087D01*
X20808341Y753563D01*
X20855960Y848801D01*
X20903579Y896420D01*
X20998817Y944039D01*
X20379769Y753563D02*
X19617865Y753563D01*
X18951198Y1372611D02*
X18855960Y1372611D01*
X18760722Y1324992D01*
X18713103Y1277372D01*
X18665484Y1182134D01*
X18617865Y991658D01*
X18617865Y753563D01*
X18665484Y563087D01*
X18713103Y467849D01*
X18760722Y420230D01*
X18855960Y372611D01*
X18951198Y372611D01*
X19046436Y420230D01*
X19094055Y467849D01*
X19141674Y563087D01*
X19189293Y753563D01*
X19189293Y991658D01*
X19141674Y1182134D01*
X19094055Y1277372D01*
X19046436Y1324992D01*
X18951198Y1372611D01*
X17713103Y1372611D02*
X18189293Y1372611D01*
X18236912Y896420D01*
X18189293Y944039D01*
X18094055Y991658D01*
X17855960Y991658D01*
X17760722Y944039D01*
X17713103Y896420D01*
X17665484Y801182D01*
X17665484Y563087D01*
X17713103Y467849D01*
X17760722Y420230D01*
X17855960Y372611D01*
X18094055Y372611D01*
X18189293Y420230D01*
X18236912Y467849D01*
X17332150Y1372611D02*
X16665484Y1372611D01*
X17094055Y372611D01*
X15760722Y372611D02*
X16332150Y372611D01*
X16046436Y372611D02*
X16046436Y1372611D01*
X16141674Y1229753D01*
X16236912Y1134515D01*
X16332150Y1086896D01*
X20808341Y-2427388D02*
X20808341Y-3141674D01*
X20855960Y-3284531D01*
X20951198Y-3379769D01*
X21094055Y-3427388D01*
X21189293Y-3427388D01*
X19808341Y-3427388D02*
X20379769Y-3427388D01*
X20094055Y-3427388D02*
X20094055Y-2427388D01*
X20189293Y-2570246D01*
X20284531Y-2665484D01*
X20379769Y-2713103D01*
D10*
X47096385Y-64436653D02*
X47115433Y-64455700D01*
X47172576Y-64474748D01*
X47210671Y-64474748D01*
X47267814Y-64455700D01*
X47305909Y-64417605D01*
X47324957Y-64379510D01*
X47344004Y-64303319D01*
X47344004Y-64246176D01*
X47324957Y-64169986D01*
X47305909Y-64131891D01*
X47267814Y-64093796D01*
X47210671Y-64074748D01*
X47172576Y-64074748D01*
X47115433Y-64093796D01*
X47096385Y-64112843D01*
X46963052Y-64074748D02*
X46715433Y-64074748D01*
X46848766Y-64227129D01*
X46791623Y-64227129D01*
X46753528Y-64246176D01*
X46734480Y-64265224D01*
X46715433Y-64303319D01*
X46715433Y-64398557D01*
X46734480Y-64436653D01*
X46753528Y-64455700D01*
X46791623Y-64474748D01*
X46905909Y-64474748D01*
X46944004Y-64455700D01*
X46963052Y-64436653D01*
D12*
X13858333Y-8810714D02*
X13858333Y-9810714D01*
X13858333Y-8858333D02*
X13763095Y-8810714D01*
X13572619Y-8810714D01*
X13477380Y-8858333D01*
X13429761Y-8905952D01*
X13382142Y-9001190D01*
X13382142Y-9286904D01*
X13429761Y-9382142D01*
X13477380Y-9429761D01*
X13572619Y-9477380D01*
X13763095Y-9477380D01*
X13858333Y-9429761D01*
X12810714Y-9477380D02*
X12905952Y-9429761D01*
X12953571Y-9334523D01*
X12953571Y-8477380D01*
X12001190Y-9477380D02*
X12001190Y-8953571D01*
X12048809Y-8858333D01*
X12144047Y-8810714D01*
X12334523Y-8810714D01*
X12429761Y-8858333D01*
X12001190Y-9429761D02*
X12096428Y-9477380D01*
X12334523Y-9477380D01*
X12429761Y-9429761D01*
X12477380Y-9334523D01*
X12477380Y-9239285D01*
X12429761Y-9144047D01*
X12334523Y-9096428D01*
X12096428Y-9096428D01*
X12001190Y-9048809D01*
X11667857Y-8810714D02*
X11286904Y-8810714D01*
X11525000Y-8477380D02*
X11525000Y-9334523D01*
X11477380Y-9429761D01*
X11382142Y-9477380D01*
X11286904Y-9477380D01*
X10572619Y-9429761D02*
X10667857Y-9477380D01*
X10858333Y-9477380D01*
X10953571Y-9429761D01*
X11001190Y-9334523D01*
X11001190Y-8953571D01*
X10953571Y-8858333D01*
X10858333Y-8810714D01*
X10667857Y-8810714D01*
X10572619Y-8858333D01*
X10525000Y-8953571D01*
X10525000Y-9048809D01*
X11001190Y-9144047D01*
X10334523Y-9572619D02*
X9572619Y-9572619D01*
X9334523Y-9477380D02*
X9334523Y-8810714D01*
X9334523Y-8905952D02*
X9286904Y-8858333D01*
X9191666Y-8810714D01*
X9048809Y-8810714D01*
X8953571Y-8858333D01*
X8905952Y-8953571D01*
X8905952Y-9477380D01*
X8905952Y-8953571D02*
X8858333Y-8858333D01*
X8763095Y-8810714D01*
X8620238Y-8810714D01*
X8525000Y-8858333D01*
X8477380Y-8953571D01*
X8477380Y-9477380D01*
X7858333Y-9477380D02*
X7953571Y-9429761D01*
X8001190Y-9382142D01*
X8048809Y-9286904D01*
X8048809Y-9001190D01*
X8001190Y-8905952D01*
X7953571Y-8858333D01*
X7858333Y-8810714D01*
X7715476Y-8810714D01*
X7620238Y-8858333D01*
X7572619Y-8905952D01*
X7525000Y-9001190D01*
X7525000Y-9286904D01*
X7572619Y-9382142D01*
X7620238Y-9429761D01*
X7715476Y-9477380D01*
X7858333Y-9477380D01*
X6667857Y-8810714D02*
X6667857Y-9477380D01*
X7096428Y-8810714D02*
X7096428Y-9334523D01*
X7048809Y-9429761D01*
X6953571Y-9477380D01*
X6810714Y-9477380D01*
X6715476Y-9429761D01*
X6667857Y-9382142D01*
X6191666Y-8810714D02*
X6191666Y-9477380D01*
X6191666Y-8905952D02*
X6144047Y-8858333D01*
X6048809Y-8810714D01*
X5905952Y-8810714D01*
X5810714Y-8858333D01*
X5763095Y-8953571D01*
X5763095Y-9477380D01*
X5429761Y-8810714D02*
X5048809Y-8810714D01*
X5286904Y-8477380D02*
X5286904Y-9334523D01*
X5239285Y-9429761D01*
X5144047Y-9477380D01*
X5048809Y-9477380D01*
D11*
X53209039Y-12727830D02*
X52709039Y-12727830D01*
X52709039Y-12846878D01*
X52732849Y-12918306D01*
X52780468Y-12965925D01*
X52828087Y-12989735D01*
X52923325Y-13013544D01*
X52994753Y-13013544D01*
X53089991Y-12989735D01*
X53137610Y-12965925D01*
X53185229Y-12918306D01*
X53209039Y-12846878D01*
X53209039Y-12727830D01*
X52709039Y-13180211D02*
X52709039Y-13489735D01*
X52899515Y-13323068D01*
X52899515Y-13394497D01*
X52923325Y-13442116D01*
X52947134Y-13465925D01*
X52994753Y-13489735D01*
X53113801Y-13489735D01*
X53161420Y-13465925D01*
X53185229Y-13442116D01*
X53209039Y-13394497D01*
X53209039Y-13251639D01*
X53185229Y-13204020D01*
X53161420Y-13180211D01*
D15*
X41876589Y-43653154D02*
X41876589Y-44453154D01*
X40276589Y-43653154D02*
X41876589Y-43653154D01*
X40276589Y-44153154D02*
X40276589Y-43653154D01*
X40576589Y-44453154D02*
X40276589Y-44153154D01*
X41876589Y-44453154D02*
X40576589Y-44453154D01*
D12*
X34632841Y-97346934D02*
X34632841Y-94946934D01*
X34632841Y-97346934D02*
X33232841Y-97346934D01*
X33232841Y-94946934D02*
X34632841Y-94946934D01*
X33232841Y-94946934D02*
X33232841Y-97346934D01*
X53682857Y-59246902D02*
X53682857Y-56846902D01*
X52282857Y-56846902D02*
X53682857Y-56846902D01*
X52282857Y-56846902D02*
X52282857Y-59246902D01*
X53682857Y-59246902D02*
X52282857Y-59246902D01*
X39409398Y-57817231D02*
X33409398Y-57817231D01*
X33409398Y-57817231D02*
X33409398Y-64817231D01*
X40409398Y-58817231D02*
X39409398Y-57817231D01*
X33409398Y-64817231D02*
X40409398Y-64817231D01*
X40409398Y-64817231D02*
X40409398Y-58817231D01*
D15*
X36100024Y-84939125D02*
X37100024Y-85939125D01*
X40800024Y-81839125D02*
X40800024Y-82339125D01*
X35400024Y-81839125D02*
X35400024Y-82339125D01*
X36100024Y-82939125D02*
X36100024Y-84939125D01*
X35500024Y-82739125D02*
X36900024Y-81339125D01*
X36400024Y-81839125D02*
X34900024Y-81839125D01*
X34900024Y-86039125D02*
X34900024Y-85539125D01*
X40800024Y-86039125D02*
X40800024Y-85539125D01*
X39800024Y-86039125D02*
X41300024Y-86039125D01*
X35400024Y-86039125D02*
X35400024Y-85539125D01*
X41300024Y-85539125D02*
X40300024Y-85539125D01*
X34900024Y-82339125D02*
X35900024Y-82339125D01*
X34900024Y-85539125D02*
X35900024Y-85539125D01*
X41300024Y-86039125D02*
X41300024Y-85539125D01*
X37100024Y-85939125D02*
X39100024Y-85939125D01*
X40700024Y-85139125D02*
X39300024Y-86539125D01*
X39100024Y-81939125D02*
X37100024Y-81939125D01*
X36900024Y-81339125D02*
X39300024Y-81339125D01*
X40100024Y-82939125D02*
X39100024Y-81939125D01*
X35500024Y-85139125D02*
X35500024Y-82739125D01*
X40700024Y-82739125D02*
X40700024Y-85139125D01*
X40100024Y-84939125D02*
X40100024Y-82939125D01*
X41300024Y-81839125D02*
X41300024Y-82339125D01*
X39300024Y-81339125D02*
X40700024Y-82739125D01*
X37100024Y-81939125D02*
X36100024Y-82939125D01*
X41300024Y-82339125D02*
X40300024Y-82339125D01*
X39300024Y-86539125D02*
X36900024Y-86539125D01*
X36400024Y-86039125D02*
X34900024Y-86039125D01*
X34900024Y-81839125D02*
X34900024Y-82339125D01*
X36900024Y-86539125D02*
X35500024Y-85139125D01*
X39800024Y-81839125D02*
X41300024Y-81839125D01*
X39100024Y-85939125D02*
X40100024Y-84939125D01*
X39100024Y-83939125D02*
G75*
G03*
X39100024Y-83939125I-1000000J0D01*
G01*
D12*
X15582825Y-78296918D02*
X14182825Y-78296918D01*
X14182825Y-75896918D02*
X14182825Y-78296918D01*
X15582825Y-78296918D02*
X15582825Y-75896918D01*
X14182825Y-75896918D02*
X15582825Y-75896918D01*
D15*
X41876589Y-47225032D02*
X41876589Y-48025032D01*
X40276589Y-47725032D02*
X40276589Y-47225032D01*
X41876589Y-48025032D02*
X40576589Y-48025032D01*
X40276589Y-47225032D02*
X41876589Y-47225032D01*
X40576589Y-48025032D02*
X40276589Y-47725032D01*
X16050008Y-32035955D02*
X16050008Y-27785955D01*
X22050008Y-32035955D02*
X22050008Y-27785955D01*
X17550008Y-31328848D02*
X18050008Y-32035955D01*
X17050008Y-32035955D02*
X17550008Y-31328848D01*
X16050008Y-27785955D02*
X22050008Y-27785955D01*
X16050008Y-32035955D02*
X22050008Y-32035955D01*
X34718772Y-42242528D02*
X34718772Y-43482528D01*
X34718772Y-43482528D02*
X36718772Y-43482528D01*
X36718772Y-42242528D02*
X34718772Y-42242528D01*
X36718772Y-43482528D02*
X36718772Y-42242528D01*
X35623459Y-50201597D02*
X35923459Y-50501597D01*
X35923459Y-51001597D02*
X34323459Y-51001597D01*
X35923459Y-50501597D02*
X35923459Y-51001597D01*
X34323459Y-51001597D02*
X34323459Y-50201597D01*
X34323459Y-50201597D02*
X35623459Y-50201597D01*
D12*
X34632841Y-40196886D02*
X33232841Y-40196886D01*
X33232841Y-37796886D02*
X33232841Y-40196886D01*
X33232841Y-37796886D02*
X34632841Y-37796886D01*
X34632841Y-40196886D02*
X34632841Y-37796886D01*
X34632833Y-14296878D02*
X34632833Y-11896878D01*
X34632833Y-14296878D02*
X33232833Y-14296878D01*
X33232833Y-11896878D02*
X34632833Y-11896878D01*
X33232833Y-11896878D02*
X33232833Y-14296878D01*
X23430008Y-113996950D02*
X24830008Y-113996950D01*
X23430008Y-113996950D02*
X23430008Y-116396950D01*
X24830008Y-116396950D02*
X23430008Y-116396950D01*
X24830008Y-116396950D02*
X24830008Y-113996950D01*
D15*
X28779703Y-63503170D02*
X27479703Y-63503170D01*
X27179703Y-63203170D02*
X27179703Y-62703170D01*
X27179703Y-62703170D02*
X28779703Y-62703170D01*
X28779703Y-62703170D02*
X28779703Y-63503170D01*
X27479703Y-63503170D02*
X27179703Y-63203170D01*
X28284390Y-46198467D02*
X28284390Y-43098467D01*
X28284390Y-46198467D02*
X27134390Y-46198467D01*
X26484390Y-45548467D02*
X27134390Y-46198467D01*
X26484390Y-45548467D02*
X26484390Y-43098467D01*
X28284390Y-43098467D02*
X26484390Y-43098467D01*
D12*
X42757849Y-113996950D02*
X44157849Y-113996950D01*
X42757849Y-113996950D02*
X42757849Y-116396950D01*
X44157849Y-116396950D02*
X44157849Y-113996950D01*
X44157849Y-116396950D02*
X42757849Y-116396950D01*
X53682857Y-40196886D02*
X52282857Y-40196886D01*
X52282857Y-37796886D02*
X52282857Y-40196886D01*
X52282857Y-37796886D02*
X53682857Y-37796886D01*
X53682857Y-40196886D02*
X53682857Y-37796886D01*
X15582825Y-40196886D02*
X14182825Y-40196886D01*
X14182825Y-37796886D02*
X15582825Y-37796886D01*
X15582825Y-40196886D02*
X15582825Y-37796886D01*
X14182825Y-37796886D02*
X14182825Y-40196886D01*
X72732865Y-14296878D02*
X71332865Y-14296878D01*
X71332865Y-11896878D02*
X71332865Y-14296878D01*
X72732865Y-14296878D02*
X72732865Y-11896878D01*
X71332865Y-11896878D02*
X72732865Y-11896878D01*
X52282857Y-75896918D02*
X52282857Y-78296918D01*
X53682857Y-78296918D02*
X53682857Y-75896918D01*
X53682857Y-78296918D02*
X52282857Y-78296918D01*
X52282857Y-75896918D02*
X53682857Y-75896918D01*
X60826613Y-59246902D02*
X60826613Y-56846902D01*
X59426613Y-56846902D02*
X59426613Y-59246902D01*
X60826613Y-59246902D02*
X59426613Y-59246902D01*
X59426613Y-56846902D02*
X60826613Y-56846902D01*
X4867191Y-97346934D02*
X3467191Y-97346934D01*
X3467191Y-94946934D02*
X3467191Y-97346934D01*
X3467191Y-94946934D02*
X4867191Y-94946934D01*
X4867191Y-97346934D02*
X4867191Y-94946934D01*
X59426613Y-94946934D02*
X60826613Y-94946934D01*
X59426613Y-94946934D02*
X59426613Y-97346934D01*
X60826613Y-97346934D02*
X59426613Y-97346934D01*
X60826613Y-97346934D02*
X60826613Y-94946934D01*
X23917207Y-59246902D02*
X23917207Y-56846902D01*
X22517207Y-56846902D02*
X22517207Y-59246902D01*
X23917207Y-59246902D02*
X22517207Y-59246902D01*
X22517207Y-56846902D02*
X23917207Y-56846902D01*
D15*
X37309398Y-73128178D02*
X37009398Y-73428178D01*
X37009398Y-73428178D02*
X36509398Y-73428178D01*
X37309398Y-71828178D02*
X37309398Y-73128178D01*
X36509398Y-73428178D02*
X36509398Y-71828178D01*
X36509398Y-71828178D02*
X37309398Y-71828178D01*
D12*
X15582825Y-59246902D02*
X14182825Y-59246902D01*
X14182825Y-56846902D02*
X14182825Y-59246902D01*
X14182825Y-56846902D02*
X15582825Y-56846902D01*
X15582825Y-59246902D02*
X15582825Y-56846902D01*
X53682857Y-97346934D02*
X53682857Y-94946934D01*
X52282857Y-94946934D02*
X52282857Y-97346934D01*
X52282857Y-94946934D02*
X53682857Y-94946934D01*
X53682857Y-97346934D02*
X52282857Y-97346934D01*
X33232841Y-75896918D02*
X34632841Y-75896918D01*
X34632841Y-78296918D02*
X34632841Y-75896918D01*
X34632841Y-78296918D02*
X33232841Y-78296918D01*
X33232841Y-75896918D02*
X33232841Y-78296918D01*
D15*
X22185321Y-65920987D02*
X20915321Y-64650987D01*
X17105321Y-72270987D02*
X22185321Y-72270987D01*
X20915321Y-64650987D02*
X17105321Y-64650987D01*
X22185321Y-72270987D02*
X22185321Y-65920987D01*
X17105321Y-64650987D02*
X17105321Y-72270987D01*
X36518772Y-45143780D02*
X36518772Y-45643780D01*
X36218772Y-44843780D02*
X36518772Y-45143780D01*
X36518772Y-45643780D02*
X34918772Y-45643780D01*
X34918772Y-44843780D02*
X36218772Y-44843780D01*
X34918772Y-45643780D02*
X34918772Y-44843780D01*
D12*
X71332873Y-37796886D02*
X71332873Y-40196886D01*
X71332873Y-37796886D02*
X72732873Y-37796886D01*
X72732873Y-40196886D02*
X71332873Y-40196886D01*
X72732873Y-40196886D02*
X72732873Y-37796886D01*
D15*
X15087504Y-43262528D02*
X13487504Y-43262528D01*
X13487504Y-43262528D02*
X13487504Y-42462528D01*
X14787504Y-42462528D02*
X15087504Y-42762528D01*
X15087504Y-42762528D02*
X15087504Y-43262528D01*
X13487504Y-42462528D02*
X14787504Y-42462528D01*
D12*
X14182817Y-11896878D02*
X14182817Y-14296878D01*
X14182817Y-11896878D02*
X15582817Y-11896878D01*
X15582817Y-14296878D02*
X14182817Y-14296878D01*
X15582817Y-14296878D02*
X15582817Y-11896878D01*
D15*
X34918772Y-46629719D02*
X36218772Y-46629719D01*
X36518772Y-47429719D02*
X34918772Y-47429719D01*
X36518772Y-46929719D02*
X36518772Y-47429719D01*
X36218772Y-46629719D02*
X36518772Y-46929719D01*
X34918772Y-47429719D02*
X34918772Y-46629719D01*
X47829719Y-58740666D02*
X46529719Y-58740666D01*
X46229719Y-58440666D02*
X46229719Y-57940666D01*
X46529719Y-58740666D02*
X46229719Y-58440666D01*
X46229719Y-57940666D02*
X47829719Y-57940666D01*
X47829719Y-57940666D02*
X47829719Y-58740666D01*
X47829719Y-60067231D02*
X47829719Y-63067231D01*
X47829719Y-63067231D02*
X46229719Y-63067231D01*
X46229719Y-63067231D02*
X46229719Y-59567231D01*
X47829719Y-60067231D02*
X47329719Y-59567231D01*
X47329719Y-59567231D02*
X46229719Y-59567231D01*
X17975008Y-3767901D02*
X18475008Y-4475008D01*
X20325008Y-2150008D02*
X20325008Y-1550008D01*
X19375008Y-2150008D02*
X19075008Y-2150008D01*
X24475008Y-4475008D02*
X24475008Y-775008D01*
X16475008Y-4475008D02*
X24475008Y-4475008D01*
X17825008Y-2150008D02*
X17825008Y-1550008D01*
X16475008Y-775008D02*
X24475008Y-775008D01*
X14775008Y-2775008D02*
X14975008Y-2975008D01*
X21575008Y-1550008D02*
X21875008Y-1550008D01*
X26175008Y-2775008D02*
X25975008Y-2975008D01*
X23125008Y-2150008D02*
X22825008Y-2150008D01*
X22825008Y-2150008D02*
X22825008Y-1550008D01*
X19075008Y-2150008D02*
X19075008Y-1550008D01*
X22825008Y-1550008D02*
X23125008Y-1550008D01*
X14775008Y-975008D02*
X14775008Y-2775008D01*
X19075008Y-1550008D02*
X19375008Y-1550008D01*
X23125008Y-1550008D02*
X23125008Y-2150008D01*
X14975008Y-2975008D02*
X14975008Y-3575008D01*
X21875008Y-2150008D02*
X21575008Y-2150008D01*
X17825008Y-1550008D02*
X18125008Y-1550008D01*
X21575008Y-2150008D02*
X21575008Y-1550008D01*
X20625008Y-1550008D02*
X20625008Y-2150008D01*
X14975008Y-775008D02*
X14775008Y-975008D01*
X14975008Y-3575008D02*
X16475008Y-3575008D01*
X18125008Y-2150008D02*
X17825008Y-2150008D01*
X21875008Y-1550008D02*
X21875008Y-2150008D01*
X24475008Y-775008D02*
X25975008Y-775008D01*
X25975008Y-3575008D02*
X24475008Y-3575008D01*
X25975008Y-2975008D02*
X25975008Y-3575008D01*
X17475008Y-4475008D02*
X17975008Y-3767901D01*
X25975008Y-775008D02*
X26175008Y-975008D01*
X16475008Y-4475008D02*
X16475008Y-775008D01*
X20625008Y-2150008D02*
X20325008Y-2150008D01*
X18125008Y-1550008D02*
X18125008Y-2150008D01*
X20325008Y-1550008D02*
X20625008Y-1550008D01*
X19375008Y-1550008D02*
X19375008Y-2150008D01*
X16475008Y-775008D02*
X14975008Y-775008D01*
X26175008Y-975008D02*
X26175008Y-2775008D01*
X46529719Y-64693796D02*
X46229719Y-64393796D01*
X47829719Y-63893796D02*
X47829719Y-64693796D01*
X46229719Y-63893796D02*
X47829719Y-63893796D01*
X46229719Y-64393796D02*
X46229719Y-63893796D01*
X47829719Y-64693796D02*
X46529719Y-64693796D01*
D12*
X53682849Y-14296878D02*
X53682849Y-11896878D01*
X52282849Y-11896878D02*
X53682849Y-11896878D01*
X53682849Y-14296878D02*
X52282849Y-14296878D01*
X52282849Y-11896878D02*
X52282849Y-14296878D01*
M02*
