M48
; DRILL file {KiCad (6.0.1)} date Mon Feb  7 14:39:11 2022
; FORMAT={-:-/ absolute / inch / decimal}
; #@! TF.CreationDate,2022-02-07T14:39:11-05:00
; #@! TF.GenerationSoftware,Kicad,Pcbnew,(6.0.1)
; #@! TF.FileFunction,Plated,1,2,PTH
FMAT,2
INCH
; #@! TA.AperFunction,Plated,PTH,ViaDrill
T1C0.0157
; #@! TA.AperFunction,Plated,PTH,ComponentDrill
T2C0.0335
; #@! TA.AperFunction,Plated,PTH,ComponentDrill
T3C0.0394
; #@! TA.AperFunction,Plated,PTH,ComponentDrill
T4C0.0492
; #@! TA.AperFunction,Plated,PTH,ComponentDrill
T5C0.0590
; #@! TA.AperFunction,Plated,PTH,ComponentDrill
T6C0.0787
%
G90
G05
T1
X0.225Y-3.1313
X0.5625Y-2.5078
X0.642Y-4.498
X0.6563Y-1.6641
X0.6909Y-3.0826
X0.7031Y-2.4375
X0.7425Y-2.4426
X0.75Y-0.2812
X0.7734Y-0.6328
X0.7734Y-1.4766
X0.7763Y-2.4626
X0.7857Y-3.8326
X0.7949Y-2.9766
X0.8069Y-0.3516
X0.8069Y-0.6663
X0.8069Y-1.4397
X0.8364Y-0.318
X0.8364Y-0.6941
X0.8438Y-1.4063
X0.8672Y-1.2656
X0.8674Y-1.6639
X0.9067Y-1.6641
X0.9141Y-2.4844
X0.9141Y-3.1875
X0.9609Y-1.7578
X0.975Y-3.1547
X1.0078Y-0.1875
X1.0078Y-2.2969
X1.0801Y-1.7578
X1.1953Y-2.4844
X1.2426Y-0.5629
X1.2535Y-1.8047
X1.2891Y-2.0156
X1.3125Y-1.6875
X1.3594Y-2.3203
X1.3774Y-2.0625
X1.3878Y-2.1179
X1.4063Y-3.1172
X1.4212Y-2.6803
X1.4297Y-2.3203
X1.4341Y-3.145
X1.4409Y-1.5826
X1.4532Y-2.0625
X1.4709Y-1.8984
X1.4816Y-2.6719
X1.5Y-1.8047
X1.5234Y-2.7188
X1.5319Y-2.1647
X1.552Y-2.6909
X1.5659Y-3.145
X1.5703Y-2.3672
X1.5862Y-1.7971
X1.5938Y-3.1172
X1.5938Y-2.8828
X1.6875Y-1.8047
X1.6875Y-2.3672
X1.6945Y-2.2843
X1.725Y-3.1547
X1.8047Y-1.8047
X1.8047Y-2.2266
X1.8047Y-2.6016
X1.9453Y-2.4141
X1.9688Y-2.25
X2.1094Y-0.614
X2.1526Y-0.6181
X2.1906Y-0.6081
X2.824Y-3.126
T2
X0.7234Y-2.5953
X0.7234Y-2.6953
X0.7234Y-2.7953
X0.8234Y-2.5953
X0.8234Y-2.6953
X0.8234Y-2.7953
X1.02Y-2.695
X1.115Y-2.695
T3
X2.1258Y-0.0703
X2.2242Y-0.0703
X2.3227Y-0.0703
X2.382Y-2.506
X2.382Y-2.6044
X2.382Y-2.7029
X2.382Y-2.8013
X2.4211Y-0.0703
T4
X0.325Y-1.5947
X0.425Y-1.5947
T5
X0.225Y-0.275
X0.225Y-1.2947
X0.225Y-2.0447
X0.225Y-2.7947
X0.225Y-3.5447
X0.475Y-0.175
X0.475Y-1.1947
X0.475Y-1.9447
X0.475Y-2.6947
X0.475Y-3.4447
X0.6Y-4.2947
X0.85Y-4.1947
X0.975Y-0.275
X0.975Y-1.2947
X0.975Y-2.0447
X0.975Y-2.7947
X0.975Y-3.5447
X1.225Y-0.175
X1.225Y-1.1947
X1.225Y-1.9447
X1.225Y-2.6947
X1.225Y-3.4447
X1.725Y-0.275
X1.725Y-1.2947
X1.725Y-2.0447
X1.725Y-2.7947
X1.725Y-3.5447
X1.725Y-4.2947
X1.975Y-0.175
X1.975Y-1.1947
X1.975Y-1.9447
X1.975Y-2.6947
X1.975Y-3.4447
X1.975Y-4.1947
X2.475Y-0.275
X2.475Y-1.2947
X2.725Y-0.175
X2.725Y-1.1947
X2.725Y-2.3697
X2.725Y-3.8697
X2.825Y-2.6197
X2.825Y-4.1197
T6
G00X2.3002Y-0.375
M15
G01X2.3002Y-0.5128
M16
G05
T0
M30
